G04 ================== begin FILE IDENTIFICATION RECORD ==================*
G04 Layout Name:  rpi-cm4-carrierboard-v1_00-0a.brd*
G04 Film Name:    rpi-cm4-carrierboard-v1_00-0a-GND_INNER4*
G04 File Format:  Gerber RS274X*
G04 File Origin:  Cadence Allegro 22.1-S001*
G04 Origin Date:  Sun Dec 17 09:19:52 2023*
G04 *
G04 Layer:  ETCH/GND_INNER4*
G04 Layer:  PIN/GND_INNER4*
G04 Layer:  VIA CLASS/GND_INNER4*
G04 *
G04 Offset:    (0.0000 0.0000)*
G04 Mirror:    No*
G04 Mode:      Positive*
G04 Rotation:  0*
G04 FullContactRelief:  No*
G04 UndefLineWidth:     0.0000*
G04 ================== end FILE IDENTIFICATION RECORD ====================*
%FSLAX35Y35*MOMM*%
%IR0*IPPOS*OFA0.00000B0.00000*MIA0B0*SFA1.00000B1.00000*%
%ADD17C,.4*%
%AMMACRO31*
21,1,1.651,.508,0.0,0.0,135.*
1,1,1.651,.179605,.179605*
1,1,1.651,-.179605,-.179605*%
%ADD31MACRO31*%
%ADD13C,.8001*%
%AMMACRO30*
21,1,1.651,2.159,0.0,0.0,135.*%
%ADD30MACRO30*%
%ADD11C,.4064*%
%ADD26O,1.5001X2.3*%
%ADD25O,1.5001X3.3*%
%ADD14C,2.*%
%ADD15C,1.1001*%
%ADD29C,6.*%
%ADD16C,2.7*%
%ADD10C,1.27*%
%ADD24O,2.159X1.651*%
%ADD20C,3.2512*%
%ADD21O,1.651X2.159*%
%ADD12C,2.3622*%
%ADD23R,2.159X1.651*%
%ADD22R,1.651X2.159*%
%ADD18C,1.778*%
%ADD28C,1.5748*%
%ADD19C,1.9558*%
%ADD27R,1.5748X1.5748*%
%ADD32C,.127*%
%ADD33C,.1905*%
%ADD37R,10.1504X5.0504*%
%ADD46C,.6608*%
%ADD39C,.9148*%
%ADD51C,2.2102*%
%ADD36R,2.6004X7.0004*%
%ADD48C,2.0324*%
%ADD45C,2.0832*%
%ADD38R,6.4004X6.4004*%
%ADD43C,1.0546*%
%ADD34O,1.9054X2.4134*%
%ADD42C,1.3086*%
%ADD44C,2.5084*%
%ADD41C,2.6166*%
%ADD49C,2.2864*%
%ADD47C,6.5084*%
%ADD40C,2.8706*%
%ADD50C,2.9544*%
%ADD35O,2.1594X2.6674*%
G75*
%LPD*%
G75*
G36*
G01X16360000Y10000000D02*
G02X16500000Y9870000I3691J-136409D01*
G01Y9150020D01*
X16499980D01*
Y8474980D01*
X16500000D01*
Y8305020D01*
X15629980D01*
Y6804980D01*
X16500000D01*
Y1585020D01*
X16499980D01*
Y909980D01*
X16500000D01*
Y195000D01*
G02X16370000Y60000I-136432J1286D01*
G01X185000D01*
G02X60000Y185000I6500J131500D01*
G01Y914980D01*
X60020D01*
Y1585020D01*
X60000D01*
Y8480000D01*
X-34980D01*
Y8724980D01*
X60020D01*
Y8739000D01*
G02X77360Y8746190I10160J3D01*
G01X208570Y8614980D01*
X496430D01*
X575200Y8693750D01*
G02X592510Y8685710I7187J-7180D01*
G03X592270Y8680000I67491J-5697D01*
G03X599770Y8649020I67734J0D01*
G02X592420Y8634350I-9033J-4650D01*
G03X504160Y8529990I17568J-104360D01*
G03X609990Y8424160I105830J0D01*
G03X701230Y8476370I0J105829D01*
G02X718750I8760J-5147D01*
G03X809990Y8424160I91240J53619D01*
G03X915820Y8529990I0J105830D01*
G03X911030Y8561480I-105832J11D01*
G02X919780Y8574620I9696J3027D01*
G03X939520Y8578370I-9792J105378D01*
G02X951180Y8563580I2835J-9756D01*
G03X942260Y8529990I58808J-33596D01*
G03X1077720I67730J0D01*
G03X1068800Y8563580I-67728J-6D01*
G02X1080460Y8578370I8825J5034D01*
G03X1100200Y8574620I29532J101628D01*
G02X1108950Y8561480I-946J-10113D01*
G03X1104160Y8529990I101042J-31479D01*
G03X1209990Y8424160I105830J0D01*
G03X1301240Y8476390I0J105826D01*
G02X1318760I8760J-5150D01*
G03X1410010Y8424160I91250J53596D01*
G03X1515840Y8529990I0J105830D01*
G03X1439190Y8631720I-105833J0D01*
G02X1432800Y8645800I2805J9763D01*
G03X1440430Y8680000I-72802J34193D01*
G03X1440030Y8688030I-80431J18D01*
G02X1457320Y8696230I10108J1015D01*
G01X1553570Y8599980D01*
X2271430D01*
X2365200Y8693750D01*
G02X2382510Y8685710I7187J-7180D01*
G03X2382270Y8680000I67491J-5697D01*
G03X2389770Y8649020I67734J0D01*
G02X2382420Y8634350I-9033J-4650D01*
G03X2294160Y8529990I17568J-104360D01*
G03X2399990Y8424160I105830J0D01*
G03X2491230Y8476370I0J105829D01*
G02X2508750I8760J-5147D01*
G03X2599990Y8424160I91240J53619D01*
G03X2705820Y8529990I0J105830D01*
G03X2701030Y8561480I-105832J11D01*
G02X2709780Y8574620I9696J3027D01*
G03X2729520Y8578370I-9792J105378D01*
G02X2741180Y8563580I2835J-9756D01*
G03X2732260Y8529990I58808J-33596D01*
G03X2867720I67730J0D01*
G03X2858800Y8563580I-67728J-6D01*
G02X2870460Y8578370I8825J5034D01*
G03X2890200Y8574620I29532J101628D01*
G02X2898950Y8561480I-946J-10113D01*
G03X2894160Y8529990I101042J-31479D01*
G03X2999990Y8424160I105830J0D01*
G03X3091240Y8476390I0J105826D01*
G02X3108760I8760J-5150D01*
G03X3200010Y8424160I91250J53596D01*
G03X3305840Y8529990I0J105830D01*
G03X3229190Y8631720I-105833J0D01*
G02X3222800Y8645800I2805J9763D01*
G03X3227710Y8659270I-72811J34170D01*
G02X3244710Y8663840I9818J-2617D01*
G01X3298570Y8609980D01*
X3581430D01*
X3815020Y8843570D01*
Y9018570D01*
X3816430Y9019980D01*
X3921510D01*
G02X3931060Y9006360I-3J-10160D01*
G03X3920100Y8944000I171927J-62360D01*
G03X4285900I182900J0D01*
G03X4228120Y9077410I-182907J0D01*
G02X4235070Y9094980I6948J7411D01*
G01X5240930D01*
G02X5247880Y9077410I2J-10159D01*
G03X5190100Y8944000I125127J-133410D01*
G03X5373000Y8761100I182900J0D01*
G03X5546530Y8886220I0J182895D01*
G02X5563360Y8890190I9640J-3210D01*
G01X5763570Y8689980D01*
X6111430D01*
X6230020Y8808570D01*
Y9014980D01*
X7184980D01*
Y8954510D01*
G03Y8885490I30020J-34510D01*
G01Y8869510D01*
G03X7169260Y8835000I30020J-34510D01*
G03X7201400Y8791330I45738J0D01*
G01X7202590Y8790960D01*
X7308570Y8684980D01*
X7526430D01*
X7655020Y8813570D01*
Y8877720D01*
G02X7670600Y8886310I10159J-2D01*
G03X7695000Y8879260I24400J38699D01*
G03Y8970740I0J45740D01*
G03X7670600Y8963690I0J-45749D01*
G02X7655020Y8972280I-5421J8592D01*
G01Y9193570D01*
X7735020Y9273570D01*
Y10000000D01*
X16360000D01*
G37*
G36*
G01X235000D02*
X7605000D01*
X7635000Y9970000D01*
Y9315000D01*
X7555000Y9235000D01*
Y8855000D01*
X7485000Y8785000D01*
X7350000D01*
X7331250Y8803750D01*
X7331920Y8806530D01*
G03X7335340Y8834150I-116916J28499D01*
G02X7352610Y8841330I10158J-74D01*
G03X7501720Y8904000I61387J62666D01*
G01Y9083980D01*
G03X7326280I-87720J5D01*
G01Y9002500D01*
G02X7308240Y8996080I-10161J-3D01*
G03X7285000Y9017890I-93246J-76073D01*
G01Y9060000D01*
X7230000Y9115000D01*
X7123110D01*
G02X7113720Y9129040I-2J10159D01*
G03X7122840Y9175000I-111221J45955D01*
G03X7002500Y9295340I-120340J0D01*
G03X6970750Y9291080I-14J-120342D01*
G03X6939000Y9295340I-31736J-116082D01*
G03X6889000Y9284460I0J-120330D01*
G03X6839000Y9295340I-50000J-109450D01*
G03X6718660Y9175000I0J-120340D01*
G03X6726190Y9133100I120339J0D01*
G02X6718410Y9119550I-9524J-3540D01*
G03X6701260Y9115260I20549J-118573D01*
G01X6700490Y9115000D01*
X6627530D01*
X6626760Y9115260D01*
G03X6589010Y9121330I-37737J-114272D01*
G03X6551260Y9115260I-13J-120342D01*
G01X6550490Y9115000D01*
X6477530D01*
X6476760Y9115260D01*
G03X6439010Y9121330I-37737J-114272D01*
G03X6401260Y9115260I-13J-120342D01*
G01X6400490Y9115000D01*
X6327530D01*
X6326760Y9115260D01*
G03X6289010Y9121330I-37737J-114272D01*
G03X6251260Y9115260I-13J-120342D01*
G01X6250490Y9115000D01*
X6180000D01*
X6130000Y9065000D01*
Y8850000D01*
X6070000Y8790000D01*
X5805000D01*
X5400000Y9195000D01*
X4080000D01*
X4005000Y9120000D01*
X3775000D01*
X3715000Y9060000D01*
Y8885000D01*
X3540000Y8710000D01*
X3340000D01*
X3235000Y8815000D01*
X3226230D01*
X3225080Y8815640D01*
G03X3150000Y8835030I-75074J-135641D01*
G03X3073780Y8815000I0J-155035D01*
G01X2976210D01*
G03X2899990Y8835030I-76220J-135005D01*
G03X2824910Y8815640I-6J-155031D01*
G01X2823760Y8815000D01*
X2776220D01*
X2775070Y8815640D01*
G03X2699990Y8835030I-75074J-135641D01*
G03X2623770Y8815000I0J-155035D01*
G01X2526220D01*
G03X2450000Y8835030I-76220J-135005D01*
G03X2374920Y8815640I-6J-155031D01*
G01X2373770Y8815000D01*
X2345000D01*
X2230000Y8700000D01*
X1595000D01*
X1480000Y8815000D01*
X1436230D01*
X1435080Y8815640D01*
G03X1360000Y8835030I-75074J-135641D01*
G03X1283780Y8815000I0J-155035D01*
G01X1186210D01*
G03X1109990Y8835030I-76220J-135005D01*
G03X1034910Y8815640I-6J-155031D01*
G01X1033760Y8815000D01*
X986220D01*
X985070Y8815640D01*
G03X909990Y8835030I-75074J-135641D01*
G03X833770Y8815000I0J-155035D01*
G01X736220D01*
G03X660000Y8835030I-76220J-135005D01*
G03X584920Y8815640I-6J-155031D01*
G01X583770Y8815000D01*
X555000D01*
X455000Y8715000D01*
X250000D01*
X125000Y8840000D01*
Y9347180D01*
X200020D01*
Y9580550D01*
X274650D01*
Y9858070D01*
X200020D01*
Y9860020D01*
X125000D01*
Y9890000D01*
X235000Y10000000D01*
G37*
G36*
G01X733830Y8714980D02*
X796690D01*
G02X806610Y8702650I-4J-10159D01*
G03X804160Y8680000I103381J-22640D01*
G03X808950Y8648510I105832J-11D01*
G02X800200Y8635370I-9696J-3027D01*
G03X718750Y8583610I9794J-105377D01*
G02X701230I-8760J5147D01*
G03X686670Y8602930I-91243J-53616D01*
G02X689590Y8619070I7358J7003D01*
G03X727730Y8680000I-29599J60930D01*
G03X724200Y8701580I-67728J0D01*
G02X733830Y8714980I9629J3240D01*
G37*
G36*
G01X2523830D02*
X2586690D01*
G02X2596610Y8702650I-4J-10159D01*
G03X2594160Y8680000I103381J-22640D01*
G03X2598950Y8648510I105832J-11D01*
G02X2590200Y8635370I-9696J-3027D01*
G03X2508750Y8583610I9794J-105377D01*
G02X2491230I-8760J5147D01*
G03X2476670Y8602930I-91243J-53616D01*
G02X2479590Y8619070I7358J7003D01*
G03X2517730Y8680000I-29599J60930D01*
G03X2514200Y8701580I-67728J0D01*
G02X2523830Y8714980I9629J3240D01*
G37*
%LPC*%
G75*
G36*
G01X12477030Y5592050D02*
Y5807950D01*
G02X12502450Y5833370I25420J0D01*
G01X12667550D01*
G02X12692970Y5807950I0J-25420D01*
G01Y5592050D01*
G02X12667550Y5566630I-25420J0D01*
G01X12502450D01*
G02X12477030Y5592050I0J25420D01*
G37*
G36*
G01X12941080Y5168000D02*
X12977000Y5203920D01*
G02X13129700Y5051220I76350J-76350D01*
G01X13093780Y5015300D01*
G02X12941080Y5168000I-76350J76350D01*
G37*
G36*
G01X13179060Y4777320D02*
X13062320Y4894060D01*
G02Y4930010I17976J17975D01*
G01X13214990Y5082680D01*
G02X13250940I17975J-17976D01*
G01X13367680Y4965940D01*
G02Y4929990I-17976J-17975D01*
G01X13215010Y4777320D01*
G02X13179060I-17975J17976D01*
G37*
G36*
G01X12770460Y5338620D02*
X12806380Y5374540D01*
G02X12941120Y5239800I67371J-67369D01*
G01X12905200Y5203880D01*
G02X12770460Y5338620I-67371J67369D01*
G37*
G36*
G01X12691080Y4918000D02*
X12727000Y4953920D01*
G02X12879700Y4801220I76350J-76350D01*
G01X12843780Y4765300D01*
G02X12691080Y4918000I-76350J76350D01*
G37*
G36*
G01X12520460Y5088620D02*
X12556380Y5124540D01*
G02X12691120Y4989800I67370J-67370D01*
G01X12655200Y4953880D01*
G02X12520460Y5088620I-67370J67370D01*
G37*
G36*
G01X12929060Y4527320D02*
X12812320Y4644060D01*
G02Y4680010I17976J17975D01*
G01X12964990Y4832680D01*
G02X13000940I17975J-17976D01*
G01X13117680Y4715940D01*
G02Y4679990I-17976J-17975D01*
G01X12965010Y4527320D01*
G02X12929060I-17975J17976D01*
G37*
G36*
G01X15136630Y4017450D02*
Y4182550D01*
G02X15162050Y4207970I25420J0D01*
G01X15377950D01*
G02X15403370Y4182550I0J-25420D01*
G01Y4017450D01*
G02X15377950Y3992030I-25420J0D01*
G01X15162050D01*
G02X15136630Y4017450I0J25420D01*
G37*
G36*
G01X15244600Y3953970D02*
X15295400D01*
G02Y3738030I0J-107970D01*
G01X15244600D01*
G02Y3953970I0J107970D01*
G37*
G36*
G01X7972030Y3652050D02*
Y3867950D01*
G02X7997450Y3893370I25420J0D01*
G01X8162550D01*
G02X8187970Y3867950I0J-25420D01*
G01Y3652050D01*
G02X8162550Y3626630I-25420J0D01*
G01X7997450D01*
G02X7972030Y3652050I0J25420D01*
G37*
G36*
G01X6584600Y3581970D02*
X6635400D01*
G02Y3366030I0J-107970D01*
G01X6584600D01*
G02Y3581970I0J107970D01*
G37*
G36*
G01Y3823270D02*
X6635400D01*
G02Y3632730I0J-95270D01*
G01X6584600D01*
G02Y3823270I0J95270D01*
G37*
G36*
G01X6234600Y3581970D02*
X6285400D01*
G02Y3366030I0J-107970D01*
G01X6234600D01*
G02Y3581970I0J107970D01*
G37*
G36*
G01Y3823270D02*
X6285400D01*
G02Y3632730I0J-95270D01*
G01X6234600D01*
G02Y3823270I0J95270D01*
G37*
G36*
G01X6476630Y3137450D02*
Y3302550D01*
G02X6502050Y3327970I25420J0D01*
G01X6717950D01*
G02X6743370Y3302550I0J-25420D01*
G01Y3137450D01*
G02X6717950Y3112030I-25420J0D01*
G01X6502050D01*
G02X6476630Y3137450I0J25420D01*
G37*
G36*
G01X6126630D02*
Y3302550D01*
G02X6152050Y3327970I25420J0D01*
G01X6367950D01*
G02X6393370Y3302550I0J-25420D01*
G01Y3137450D01*
G02X6367950Y3112030I-25420J0D01*
G01X6152050D01*
G02X6126630Y3137450I0J25420D01*
G37*
G36*
G01X16066630Y2259450D02*
Y2424550D01*
G02X16092050Y2449970I25420J0D01*
G01X16307950D01*
G02X16333370Y2424550I0J-25420D01*
G01Y2259450D01*
G02X16307950Y2234030I-25420J0D01*
G01X16092050D01*
G02X16066630Y2259450I0J25420D01*
G37*
G36*
G01X13780630D02*
Y2424550D01*
G02X13806050Y2449970I25420J0D01*
G01X14021950D01*
G02X14047370Y2424550I0J-25420D01*
G01Y2259450D01*
G02X14021950Y2234030I-25420J0D01*
G01X13806050D01*
G02X13780630Y2259450I0J25420D01*
G37*
G36*
G01X13236630D02*
Y2424550D01*
G02X13262050Y2449970I25420J0D01*
G01X13477950D01*
G02X13503370Y2424550I0J-25420D01*
G01Y2259450D01*
G02X13477950Y2234030I-25420J0D01*
G01X13262050D01*
G02X13236630Y2259450I0J25420D01*
G37*
G36*
G01X10950630D02*
Y2424550D01*
G02X10976050Y2449970I25420J0D01*
G01X11191950D01*
G02X11217370Y2424550I0J-25420D01*
G01Y2259450D01*
G02X11191950Y2234030I-25420J0D01*
G01X10976050D01*
G02X10950630Y2259450I0J25420D01*
G37*
G36*
G01X16174600Y1941970D02*
X16225400D01*
G02Y1726030I0J-107970D01*
G01X16174600D01*
G02Y1941970I0J107970D01*
G37*
G36*
G01Y2195970D02*
X16225400D01*
G02Y1980030I0J-107970D01*
G01X16174600D01*
G02Y2195970I0J107970D01*
G37*
G36*
G01X13888600D02*
X13939400D01*
G02Y1980030I0J-107970D01*
G01X13888600D01*
G02Y2195970I0J107970D01*
G37*
G36*
G01Y1941970D02*
X13939400D01*
G02Y1726030I0J-107970D01*
G01X13888600D01*
G02Y1941970I0J107970D01*
G37*
G36*
G01X13344600D02*
X13395400D01*
G02Y1726030I0J-107970D01*
G01X13344600D01*
G02Y1941970I0J107970D01*
G37*
G36*
G01Y2195970D02*
X13395400D01*
G02Y1980030I0J-107970D01*
G01X13344600D01*
G02Y2195970I0J107970D01*
G37*
G36*
G01X11058600D02*
X11109400D01*
G02Y1980030I0J-107970D01*
G01X11058600D01*
G02Y2195970I0J107970D01*
G37*
G36*
G01Y1941970D02*
X11109400D01*
G02Y1726030I0J-107970D01*
G01X11058600D01*
G02Y1941970I0J107970D01*
G37*
G36*
G01X16174600Y1433970D02*
X16225400D01*
G02Y1218030I0J-107970D01*
G01X16174600D01*
G02Y1433970I0J107970D01*
G37*
G36*
G01Y1687970D02*
X16225400D01*
G02Y1472030I0J-107970D01*
G01X16174600D01*
G02Y1687970I0J107970D01*
G37*
G36*
G01X13888600D02*
X13939400D01*
G02Y1472030I0J-107970D01*
G01X13888600D01*
G02Y1687970I0J107970D01*
G37*
G36*
G01Y1433970D02*
X13939400D01*
G02Y1218030I0J-107970D01*
G01X13888600D01*
G02Y1433970I0J107970D01*
G37*
G36*
G01X13344600D02*
X13395400D01*
G02Y1218030I0J-107970D01*
G01X13344600D01*
G02Y1433970I0J107970D01*
G37*
G36*
G01Y1687970D02*
X13395400D01*
G02Y1472030I0J-107970D01*
G01X13344600D01*
G02Y1687970I0J107970D01*
G37*
G36*
G01X11058600D02*
X11109400D01*
G02Y1472030I0J-107970D01*
G01X11058600D01*
G02Y1687970I0J107970D01*
G37*
G36*
G01Y1433970D02*
X11109400D01*
G02Y1218030I0J-107970D01*
G01X11058600D01*
G02Y1433970I0J107970D01*
G37*
G36*
G01X16174600Y925970D02*
X16225400D01*
G02Y710030I0J-107970D01*
G01X16174600D01*
G02Y925970I0J107970D01*
G37*
G36*
G01Y1179970D02*
X16225400D01*
G02Y964030I0J-107970D01*
G01X16174600D01*
G02Y1179970I0J107970D01*
G37*
G36*
G01X13888600D02*
X13939400D01*
G02Y964030I0J-107970D01*
G01X13888600D01*
G02Y1179970I0J107970D01*
G37*
G36*
G01Y925970D02*
X13939400D01*
G02Y710030I0J-107970D01*
G01X13888600D01*
G02Y925970I0J107970D01*
G37*
G36*
G01X13344600D02*
X13395400D01*
G02Y710030I0J-107970D01*
G01X13344600D01*
G02Y925970I0J107970D01*
G37*
G36*
G01Y1179970D02*
X13395400D01*
G02Y964030I0J-107970D01*
G01X13344600D01*
G02Y1179970I0J107970D01*
G37*
G36*
G01X11058600D02*
X11109400D01*
G02Y964030I0J-107970D01*
G01X11058600D01*
G02Y1179970I0J107970D01*
G37*
G36*
G01Y925970D02*
X11109400D01*
G02Y710030I0J-107970D01*
G01X11058600D01*
G02Y925970I0J107970D01*
G37*
G36*
G01X16174600Y659270D02*
X16225400D01*
G02Y468730I0J-95270D01*
G01X16174600D01*
G02Y659270I0J95270D01*
G37*
G36*
G01X13888600D02*
X13939400D01*
G02Y468730I0J-95270D01*
G01X13888600D01*
G02Y659270I0J95270D01*
G37*
G36*
G01X13344600D02*
X13395400D01*
G02Y468730I0J-95270D01*
G01X13344600D01*
G02Y659270I0J95270D01*
G37*
G36*
G01X11058600D02*
X11109400D01*
G02Y468730I0J-95270D01*
G01X11058600D01*
G02Y659270I0J95270D01*
G37*
G36*
G01X9032030Y232050D02*
Y447950D01*
G02X9057450Y473370I25420J0D01*
G01X9222550D01*
G02X9247970Y447950I0J-25420D01*
G01Y232050D01*
G02X9222550Y206630I-25420J0D01*
G01X9057450D01*
G02X9032030Y232050I0J25420D01*
G37*
G36*
G01X7172030D02*
Y447950D01*
G02X7197450Y473370I25420J0D01*
G01X7362550D01*
G02X7387970Y447950I0J-25420D01*
G01Y232050D01*
G02X7362550Y206630I-25420J0D01*
G01X7197450D01*
G02X7172030Y232050I0J25420D01*
G37*
G36*
G01X5312030D02*
Y447950D01*
G02X5337450Y473370I25420J0D01*
G01X5502550D01*
G02X5527970Y447950I0J-25420D01*
G01Y232050D01*
G02X5502550Y206630I-25420J0D01*
G01X5337450D01*
G02X5312030Y232050I0J25420D01*
G37*
G36*
G01X12145790Y3132930D02*
G03X12159370Y3141160I3505J9535D01*
G02X12204730Y3181010I45360J-5891D01*
G02Y3089530I0J-45740D01*
G02X12188940Y3092340I-5J45741D01*
G03X12175360Y3084110I-3505J-9535D01*
G02X12130000Y3044260I-45360J5891D01*
G02Y3135740I0J45740D01*
G02X12145790Y3132930I5J-45741D01*
G37*
G36*
G01X12672860Y3291820D02*
G03Y3308180I-6023J8180D01*
G02X12654260Y3345000I27144J36820D01*
G02X12745740I45740J0D01*
G02X12727140Y3308180I-45744J0D01*
G03Y3291820I6023J-8180D01*
G02X12745740Y3255000I-27144J-36820D01*
G02X12654260I-45740J0D01*
G02X12672860Y3291820I45744J0D01*
G37*
G36*
G01X10622860Y3456820D02*
G03Y3473180I-6023J8180D01*
G02X10604260Y3510000I27144J36820D01*
G02X10695740I45740J0D01*
G02X10677140Y3473180I-45744J0D01*
G03Y3456820I6023J-8180D01*
G02X10695740Y3420000I-27144J-36820D01*
G02X10604260I-45740J0D01*
G02X10622860Y3456820I45744J0D01*
G37*
G36*
G01X10420080Y3601180D02*
G03X10414090Y3605170I-4982J-989D01*
G02X10405000Y3604260I-9079J44831D01*
G02Y3695740I0J45740D01*
G02X10449870Y3658870I0J-45738D01*
G03X10455860Y3654880I4982J989D01*
G02X10464950Y3655790I9079J-44831D01*
G02X10510690Y3610050I0J-45740D01*
G02X10503440Y3585340I-45734J0D01*
G03X10504950Y3578340I4276J-2740D01*
G02X10525740Y3540000I-24957J-38340D01*
G02X10434260I-45740J0D01*
G02X10441510Y3564710I45734J0D01*
G03X10440000Y3571710I-4276J2740D01*
G02X10420080Y3601180I24953J38334D01*
G37*
G36*
G01X7802640Y3935100D02*
G03X7814450Y3944190I1694J10016D01*
G02X7860000Y3985740I45550J-4193D01*
G02Y3894260I0J-45740D01*
G02X7852360Y3894900I-15J45741D01*
G03X7840550Y3885810I-1694J-10016D01*
G02X7795000Y3844260I-45550J4193D01*
G02Y3935740I0J45740D01*
G02X7802640Y3935100I15J-45741D01*
G37*
G36*
G01X3648180Y4337860D02*
G03X3631820I-8180J-6023D01*
G02X3595000Y4319260I-36820J27144D01*
G02Y4410740I0J45740D01*
G02X3631820Y4392140I0J-45744D01*
G03X3648180I8180J6023D01*
G02X3685000Y4410740I36820J-27144D01*
G02Y4319260I0J-45740D01*
G02X3648180Y4337860I0J45744D01*
G37*
G36*
G01X10071790Y4359860D02*
G03X10056340Y4361680I-8490J-5580D01*
G02X10025000Y4349260I-31340J33331D01*
G02Y4440740I0J45740D01*
G02X10063210Y4420140I0J-45737D01*
G03X10078660Y4418320I8490J5580D01*
G02X10110000Y4430740I31340J-33331D01*
G02Y4339260I0J-45740D01*
G02X10071790Y4359860I0J45737D01*
G37*
G36*
G01X6220290Y4904780D02*
G03Y4920220I-6602J7720D01*
G02X6204260Y4955000I29716J34780D01*
G02X6295740I45740J0D01*
G02X6279710Y4920220I-45746J0D01*
G03Y4904780I6602J-7720D01*
G02X6295740Y4870000I-29716J-34780D01*
G02X6204260I-45740J0D01*
G02X6220290Y4904780I45746J0D01*
G37*
G36*
G01X4132860Y4936820D02*
G03Y4953180I-6023J8180D01*
G02X4114260Y4990000I27144J36820D01*
G02X4205740I45740J0D01*
G02X4187140Y4953180I-45744J0D01*
G03Y4936820I6023J-8180D01*
G02X4205740Y4900000I-27144J-36820D01*
G02X4114260I-45740J0D01*
G02X4132860Y4936820I45744J0D01*
G37*
G36*
G01X15298660Y4938250D02*
G02X15306140Y4906500I-63659J-31754D01*
G02X15163860I-71140J0D01*
G02X15171340Y4938250I71139J-4D01*
G02X15163860Y4970000I63659J31754D01*
G02X15306140I71140J0D01*
G02X15298660Y4938250I-71139J4D01*
G37*
G36*
G01X5262860Y5046820D02*
G03Y5063180I-6023J8180D01*
G02X5244260Y5100000I27144J36820D01*
G02X5335740I45740J0D01*
G02X5317140Y5063180I-45744J0D01*
G03Y5046820I6023J-8180D01*
G02X5335740Y5010000I-27144J-36820D01*
G02X5244260I-45740J0D01*
G02X5262860Y5046820I45744J0D01*
G37*
G36*
G01X6218050Y5272730D02*
G03Y5287270I-7098J7270D01*
G02X6204260Y5320000I31947J32730D01*
G02X6295740I45740J0D01*
G02X6281950Y5287270I-45737J0D01*
G03Y5272730I7098J-7270D01*
G02X6295740Y5240000I-31947J-32730D01*
G02X6204260I-45740J0D01*
G02X6218050Y5272730I45737J0D01*
G37*
G36*
G01X11744680Y5345940D02*
G03X11728320Y5345030I-7846J-6456D01*
G02X11690000Y5324260I-38320J24965D01*
G02Y5415740I0J45740D01*
G02X11725320Y5399060I0J-45735D01*
G03X11741680Y5399970I7846J6456D01*
G02X11780000Y5420740I38320J-24965D01*
G02X11825740Y5375000I0J-45740D01*
G02X11813920Y5344320I-45727J0D01*
G03Y5330680I7535J-6820D01*
G02X11825740Y5300000I-33907J-30680D01*
G02X11734260I-45740J0D01*
G02X11746080Y5330680I45727J0D01*
G03Y5344320I-7535J6820D01*
G02X11744680Y5345940I33897J30708D01*
G37*
G36*
G01X8628740Y5439560D02*
G02X8679560Y5388740I0J-50820D01*
G01Y5367220D01*
X8687720D01*
X8689140Y5369950D01*
G02X8804000Y5439560I114860J-59957D01*
G02Y5180440I0J-129560D01*
G02X8689140Y5250050I0J129567D01*
G01X8687720Y5252780D01*
X8679560D01*
Y5231260D01*
G02X8628740Y5180440I-50820J0D01*
G01X8471260D01*
G02X8420440Y5231260I0J50820D01*
G01Y5388740D01*
G02X8471260Y5439560I50820J0D01*
G01X8628740D01*
G37*
G36*
G01X10417270Y5758050D02*
G03X10402730I-7270J-7098D01*
G02X10370000Y5744260I-32730J31947D01*
G02Y5835740I0J45740D01*
G02X10402730Y5821950I0J-45737D01*
G03X10417270I7270J7098D01*
G02X10450000Y5835740I32730J-31947D01*
G02Y5744260I0J-45740D01*
G02X10417270Y5758050I0J45737D01*
G37*
G36*
G01X6981080Y5795680D02*
G03Y5809320I-7535J6820D01*
G02X6969260Y5840000I33907J30680D01*
G02X7060740I45740J0D01*
G02X7048920Y5809320I-45727J0D01*
G03Y5795680I7535J-6820D01*
G02X7060740Y5765000I-33907J-30680D01*
G02X6969260I-45740J0D01*
G02X6981080Y5795680I45727J0D01*
G37*
G36*
G01X2389260Y5879390D02*
G03X2378360Y5889380I-10156J-140D01*
G02X2375000Y5889260I-3311J45622D01*
G02Y5980740I0J45740D01*
G02X2420740Y5935610I0J-45744D01*
G03X2431640Y5925620I10156J140D01*
G02X2435000Y5925740I3311J-45622D01*
G02Y5834260I0J-45740D01*
G02X2389260Y5879390I0J45744D01*
G37*
G36*
G01X13011750Y5998660D02*
G02X13043500Y6006140I31754J-63659D01*
G02Y5863860I0J-71140D01*
G02X13011750Y5871340I4J71139D01*
G02X12980000Y5863860I-31754J63659D01*
G02Y6006140I0J71140D01*
G02X13011750Y5998660I-4J-71139D01*
G37*
G36*
G01X10682860Y5931820D02*
G03Y5948180I-6023J8180D01*
G02X10664260Y5985000I27144J36820D01*
G02X10755740I45740J0D01*
G02X10737140Y5948180I-45744J0D01*
G03Y5931820I6023J-8180D01*
G02X10755740Y5895000I-27144J-36820D01*
G02X10664260I-45740J0D01*
G02X10682860Y5931820I45744J0D01*
G37*
G36*
G01X6258660Y5968250D02*
G02X6266140Y5936500I-63659J-31754D01*
G02X6123860I-71140J0D01*
G02X6131340Y5968250I71139J-4D01*
G02X6123860Y6000000I63659J31754D01*
G02X6266140I71140J0D01*
G02X6258660Y5968250I-71139J4D01*
G37*
G36*
G01X2338030Y6153820D02*
G02X2391140Y6085000I-18034J-68820D01*
G02X2320000Y6013860I-71140J0D01*
G02X2254180Y6058000I0J71144D01*
G02X2201070Y6126820I18034J68820D01*
G02X2272210Y6197960I71140J0D01*
G02X2338030Y6153820I0J-71144D01*
G37*
G36*
G01X2742470Y6212560D02*
G02X2791050Y6145090I-22563J-67470D01*
G02X2719910Y6073950I-71140J0D01*
G02X2652440Y6122530I0J71143D01*
G02X2603860Y6190000I22563J67470D01*
G02X2675000Y6261140I71140J0D01*
G02X2742470Y6212560I0J-71143D01*
G37*
G36*
G01X14782730Y6296950D02*
G03X14797270I7270J7098D01*
G02X14862730I32730J-31947D01*
G03X14877270I7270J7098D01*
G02X14910000Y6310740I32730J-31947D01*
G02Y6219260I0J-45740D01*
G02X14877270Y6233050I0J45737D01*
G03X14862730I-7270J-7098D01*
G02X14797270I-32730J31947D01*
G03X14782730I-7270J-7098D01*
G02X14750000Y6219260I-32730J31947D01*
G02Y6310740I0J45740D01*
G02X14782730Y6296950I0J-45737D01*
G37*
G36*
G01X13746910Y6234650D02*
G03X13732370Y6240100I-9569J-3408D01*
G02X13710000Y6234260I-22364J39902D01*
G02Y6325740I0J45740D01*
G02X13753090Y6295350I0J-45744D01*
G03X13767630Y6289900I9569J3408D01*
G02X13790000Y6295740I22364J-39902D01*
G02Y6204260I0J-45740D01*
G02X13746910Y6234650I0J45744D01*
G37*
G36*
G01X13436840Y6246500D02*
G03Y6253500I-3686J3500D01*
G02X13424260Y6285000I33148J31500D01*
G02X13515740I45740J0D01*
G02X13503160Y6253500I-45728J0D01*
G03Y6246500I3686J-3500D01*
G02X13515740Y6215000I-33148J-31500D01*
G02X13424260I-45740J0D01*
G02X13436840Y6246500I45728J0D01*
G37*
G36*
G01X12923660Y6273250D02*
G02X12931140Y6241500I-63659J-31754D01*
G02X12788860I-71140J0D01*
G02X12796340Y6273250I71139J-4D01*
G02X12788860Y6305000I63659J31754D01*
G02X12931140I71140J0D01*
G02X12923660Y6273250I-71139J4D01*
G37*
G36*
G01X2545420Y6449610D02*
G02X2594000Y6382140I-22563J-67470D01*
G02X2522860Y6311000I-71140J0D01*
G02X2455390Y6359580I0J71143D01*
G02X2406810Y6427050I22563J67470D01*
G02X2477950Y6498190I71140J0D01*
G02X2545420Y6449610I0J-71143D01*
G37*
G36*
G01X10283660Y6428250D02*
G02X10291140Y6396500I-63659J-31754D01*
G02X10148860I-71140J0D01*
G02X10156340Y6428250I71139J-4D01*
G02X10148860Y6460000I63659J31754D01*
G02X10291140I71140J0D01*
G02X10283660Y6428250I-71139J4D01*
G37*
G36*
G01X12782210Y6683130D02*
G02X12781720Y6691500I70652J8335D01*
G02X12789200Y6723250I71139J-4D01*
G02X12781720Y6755000I63659J31754D01*
G02X12924000I71140J0D01*
G02X12916520Y6723250I-71139J4D01*
G02X12924000Y6691500I-63659J-31754D01*
G02X12885650Y6628370I-71136J0D01*
G02X12886140Y6620000I-70652J-8335D01*
G02X12878660Y6588250I-71139J4D01*
G02X12886140Y6556500I-63659J-31754D01*
G02X12743860I-71140J0D01*
G02X12751340Y6588250I71139J-4D01*
G02X12743860Y6620000I63659J31754D01*
G02X12782210Y6683130I71136J0D01*
G37*
G36*
G01X14034010Y6853230D02*
G03X14030380Y6868680I-7990J6274D01*
G02X14004260Y6910000I19623J41320D01*
G02X14095740I45740J0D01*
G02X14085990Y6881770I-45743J0D01*
G03X14089620Y6866320I7990J-6274D01*
G02X14115740Y6825000I-19623J-41320D01*
G02X14081150Y6780640I-45740J0D01*
G03X14073880Y6767920I2476J-9853D01*
G02X14075740Y6755000I-43881J-12911D01*
G02X13984260I-45740J0D01*
G02X14018850Y6799360I45740J0D01*
G03X14026120Y6812080I-2476J9853D01*
G02X14024260Y6825000I43881J12911D01*
G02X14034010Y6853230I45743J0D01*
G37*
G36*
G01X14981080Y6880680D02*
G03Y6894320I-7535J6820D01*
G02X14969260Y6925000I33907J30680D01*
G02X15060740I45740J0D01*
G02X15048920Y6894320I-45727J0D01*
G03Y6880680I7535J-6820D01*
G02X15060740Y6850000I-33907J-30680D01*
G02X14969260I-45740J0D01*
G02X14981080Y6880680I45727J0D01*
G37*
G36*
G01X2625970Y6885290D02*
G03X2637210Y6898410I1561J10037D01*
G02X2633860Y6920000I67793J21574D01*
G02X2682510Y6987490I71138J0D01*
G02X2750000Y7036140I67490J-22488D01*
G02X2821140Y6965000I0J-71140D01*
G02X2772490Y6897510I-71138J0D01*
G02X2705000Y6848860I-67490J22488D01*
G02X2694030Y6849710I-6J71140D01*
G03X2682790Y6836590I-1561J-10037D01*
G02X2686140Y6815000I-67793J-21574D01*
G02X2637490Y6747510I-71138J0D01*
G02X2570000Y6698860I-67490J22488D01*
G02X2498860Y6770000I0J71140D01*
G02X2547510Y6837490I71138J0D01*
G02X2615000Y6886140I67490J-22488D01*
G02X2625970Y6885290I6J-71140D01*
G37*
G36*
G01X3694520Y7024640D02*
G02X3751140Y6955000I-14517J-69640D01*
G02X3680000Y6883860I-71140J0D01*
G02X3615630Y6924710I0J71141D01*
G02X3559010Y6994350I14517J69640D01*
G02X3630150Y7065490I71140J0D01*
G02X3694520Y7024640I0J-71141D01*
G37*
G36*
G01X6298660Y6997690D02*
G02X6306140Y6965940I-63659J-31754D01*
G02X6163860I-71140J0D01*
G02X6171340Y6997690I71139J-4D01*
G02X6163860Y7029440I63659J31754D01*
G02X6306140I71140J0D01*
G02X6298660Y6997690I-71139J4D01*
G37*
G36*
G01X3187580Y6942540D02*
G02X3165000Y6938860I-22584J67459D01*
G02X3094800Y6998470I0J71141D01*
G02X3048860Y7065000I25204J66530D01*
G02X3120000Y7136140I71140J0D01*
G02X3190200Y7076530I0J-71141D01*
G02X3236140Y7010000I-25204J-66530D01*
G02X3234380Y6994250I-71143J-23D01*
G03X3247510Y6982370I9907J-2247D01*
G02X3270090Y6986050I22584J-67459D01*
G02X3337560Y6937470I0J-71143D01*
G02X3386140Y6870000I-22563J-67470D01*
G02X3315000Y6798860I-71140J0D01*
G02X3247530Y6847440I0J71143D01*
G02X3198950Y6914910I22563J67470D01*
G02X3200710Y6930660I71143J23D01*
G03X3187580Y6942540I-9907J2247D01*
G37*
G36*
G01X3554390Y7163490D02*
G03X3543490Y7174390I-10128J772D01*
G02X3540000Y7174260I-3446J45612D01*
G02X3585740Y7220000I0J45740D01*
G02X3585610Y7216510I-45742J-44D01*
G03X3596510Y7205610I10128J-772D01*
G02X3600000Y7205740I3446J-45612D01*
G02X3554260Y7160000I0J-45740D01*
G02X3554390Y7163490I45742J44D01*
G37*
G36*
G01X4207040Y7207500D02*
G03X4225460Y7208470I8986J4741D01*
G02X4331600Y7280320I106140J-42472D01*
G02X4424910Y7232050I0J-114323D01*
G03X4441490I8290J5871D01*
G02X4534800Y7280320I93310J-66053D01*
G02Y7051680I0J-114320D01*
G02X4441490Y7099950I0J114323D01*
G03X4424910I-8290J-5871D01*
G02X4331600Y7051680I-93310J66053D01*
G02X4225460Y7123530I0J114322D01*
G03X4207040Y7124500I-9434J-3771D01*
G02X4128400Y7077080I-78640J41497D01*
G02Y7254920I0J88920D01*
G02X4207040Y7207500I0J-88917D01*
G37*
G36*
G01X5051090Y7099950D02*
G03X5034510I-8290J-5871D01*
G02X4941200Y7051680I-93310J66053D01*
G02Y7280320I0J114320D01*
G02X5034510Y7232050I0J-114323D01*
G03X5051090I8290J5871D01*
G02X5144400Y7280320I93310J-66053D01*
G02X5250540Y7208470I0J-114322D01*
G03X5268960Y7207500I9434J3771D01*
G02X5347600Y7254920I78640J-41497D01*
G02Y7077080I0J-88920D01*
G02X5268960Y7124500I0J88917D01*
G03X5250540Y7123530I-8986J-4741D01*
G02X5144400Y7051680I-106140J42472D01*
G02X5051090Y7099950I0J114323D01*
G37*
G36*
G01X2624390Y7300830D02*
G03X2626630Y7307680I-2286J4539D01*
G02X2618860Y7340000I63368J32328D01*
G02X2675310Y7409610I71144J0D01*
G02X2740000Y7451140I64690J-29618D01*
G02X2811140Y7380000I0J-71140D01*
G02X2754690Y7310390I-71144J0D01*
G02X2695290Y7269060I-64684J29614D01*
G03X2690600Y7263590I374J-5067D01*
G02X2690740Y7260000I-45601J-3576D01*
G02X2599260I-45740J0D01*
G02X2624390Y7300830I45734J0D01*
G37*
G36*
G01X6298660Y7358250D02*
G02X6306140Y7326500I-63659J-31754D01*
G02X6163860I-71140J0D01*
G02X6171340Y7358250I71139J-4D01*
G02X6163860Y7390000I63659J31754D01*
G02X6306140I71140J0D01*
G02X6298660Y7358250I-71139J4D01*
G37*
G36*
G01X4729710Y7486050D02*
G03X4746290I8290J5871D01*
G02X4932910I93310J-66053D01*
G03X4949490I8290J5871D01*
G02X5042800Y7534320I93310J-66053D01*
G02X5148940Y7462470I0J-114322D01*
G03X5167360Y7461500I9434J3771D01*
G02X5246000Y7508920I78640J-41497D01*
G02Y7331080I0J-88920D01*
G02X5167360Y7378500I0J88917D01*
G03X5148940Y7377530I-8986J-4741D01*
G02X5042800Y7305680I-106140J42472D01*
G02X4949490Y7353950I0J114323D01*
G03X4932910I-8290J-5871D01*
G02X4746290I-93310J66053D01*
G03X4729710I-8290J-5871D01*
G02X4543090I-93310J66053D01*
G03X4526510I-8290J-5871D01*
G02X4433200Y7305680I-93310J66053D01*
G02X4327060Y7377530I0J114322D01*
G03X4308640Y7378500I-9434J-3771D01*
G02X4230000Y7331080I-78640J41497D01*
G02Y7508920I0J88920D01*
G02X4308640Y7461500I0J-88917D01*
G03X4327060Y7462470I8986J4741D01*
G02X4433200Y7534320I106140J-42472D01*
G02X4526510Y7486050I0J-114323D01*
G03X4543090I8290J5871D01*
G02X4729710I93310J-66053D01*
G37*
G36*
G01X6294390Y7743140D02*
G02X6301870Y7711390I-63659J-31754D01*
G02X6159590I-71140J0D01*
G02X6167070Y7743140I71139J-4D01*
G02X6159590Y7774890I63659J31754D01*
G02X6301870I71140J0D01*
G02X6294390Y7743140I-71139J4D01*
G37*
G36*
G01X8814650Y7866040D02*
G02X8783500Y7858860I-31145J63961D01*
G02X8751750Y7866340I4J71139D01*
G02X8720000Y7858860I-31754J63659D01*
G02Y8001140I0J71140D01*
G02X8751750Y7993660I-4J-71139D01*
G02X8783500Y8001140I31754J-63659D01*
G02X8854290Y7937080I0J-71144D01*
G03X8868850Y7928960I10108J1010D01*
G02X8900000Y7936140I31145J-63961D01*
G02X8931750Y7928660I-4J-71139D01*
G02X8963500Y7936140I31754J-63659D01*
G02X8975610Y7935100I-10J-71139D01*
G03X8981380Y7938770I869J5005D01*
G02X9050000Y7991140I68620J-18771D01*
G02X9081750Y7983660I-4J-71139D01*
G02X9113500Y7991140I31754J-63659D01*
G02X9182790Y7936110I0J-71138D01*
G02X9185000Y7936140I2071J-71112D01*
G02X9216750Y7928660I-4J-71139D01*
G02X9248500Y7936140I31754J-63659D01*
G02X9298280Y7915830I7J-71143D01*
G03X9305380I3550J3625D01*
G02X9355160Y7936140I49773J-50833D01*
G02X9386910Y7928660I-4J-71139D01*
G02X9418660Y7936140I31754J-63659D01*
G02Y7793860I0J-71140D01*
G02X9386910Y7801340I4J71139D01*
G02X9355160Y7793860I-31754J63659D01*
G02X9305380Y7814170I-7J71143D01*
G03X9298280I-3550J-3625D01*
G02X9248500Y7793860I-49773J50833D01*
G02X9216750Y7801340I4J71139D01*
G02X9185000Y7793860I-31754J63659D01*
G02X9115710Y7848890I0J71138D01*
G02X9113500Y7848860I-2071J71112D01*
G02X9081750Y7856340I4J71139D01*
G02X9050000Y7848860I-31754J63659D01*
G02X9037890Y7849900I10J71139D01*
G03X9032120Y7846230I-869J-5005D01*
G02X8963500Y7793860I-68620J18771D01*
G02X8931750Y7801340I4J71139D01*
G02X8900000Y7793860I-31754J63659D01*
G02X8829210Y7857920I0J71144D01*
G03X8814650Y7866040I-10108J-1010D01*
G37*
G36*
G01X811750Y7981340D02*
G02X780000Y7973860I-31754J63659D01*
G02Y8116140I0J71140D01*
G02X811750Y8108660I-4J-71139D01*
G02X843500Y8116140I31754J-63659D01*
G02X865580Y8112630I10J-71142D01*
G03X878050Y8118230I3156J9656D01*
G02X920000Y8145740I41950J-18230D01*
G02X962930Y8115790I0J-45743D01*
G02X970000Y8116140I7048J-70791D01*
G02X1001750Y8108660I-4J-71139D01*
G02X1033500Y8116140I31754J-63659D01*
G02X1092620Y8084570I0J-71141D01*
G03X1109050Y8083940I8444J5649D01*
G02X1165000Y8111140I55950J-43944D01*
G02X1196750Y8103660I-4J-71139D01*
G02X1228500Y8111140I31754J-63659D01*
G02Y7968860I0J-71140D01*
G02X1196750Y7976340I4J71139D01*
G02X1165000Y7968860I-31754J63659D01*
G02X1105880Y8000430I0J71141D01*
G03X1089450Y8001060I-8444J-5649D01*
G02X1033500Y7973860I-55950J43944D01*
G02X1001750Y7981340I4J71139D01*
G02X970000Y7973860I-31754J63659D01*
G02X914650Y8000300I-6J71143D01*
G03X898850I-7900J-6379D01*
G02X843500Y7973860I-55344J44703D01*
G02X811750Y7981340I4J71139D01*
G37*
G36*
G01X2667780Y8100530D02*
G03X2679260Y8110500I1321J10073D01*
G02X2725000Y8155740I45740J-503D01*
G02X2770740Y8110000I0J-45740D01*
G02X2770600Y8106410I-45741J-14D01*
G03X2775290Y8100940I5064J-403D01*
G02X2801750Y8093660I-5287J-70942D01*
G02X2833500Y8101140I31754J-63659D01*
G02X2883900Y8080210I0J-71147D01*
G03X2891100I3600J3581D01*
G02X2941500Y8101140I50400J-50217D01*
G02X2973250Y8093660I-4J-71139D01*
G02X3005000Y8101140I31754J-63659D01*
G02Y7958860I0J-71140D01*
G02X2973250Y7966340I4J71139D01*
G02X2941500Y7958860I-31754J63659D01*
G02X2891100Y7979790I0J71147D01*
G03X2883900I-3600J-3581D01*
G02X2833500Y7958860I-50400J50217D01*
G02X2801750Y7966340I4J71139D01*
G02X2770000Y7958860I-31754J63659D01*
G02X2721220Y7978220I0J71134D01*
G03X2707280I-6970J-7394D01*
G02X2658500Y7958860I-48780J51774D01*
G02X2626750Y7966340I4J71139D01*
G02X2595000Y7958860I-31754J63659D01*
G02Y8101140I0J71140D01*
G02X2626750Y8093660I-4J-71139D01*
G02X2658500Y8101140I31754J-63659D01*
G02X2667780Y8100530I-16J-71139D01*
G37*
G36*
G01X1514530Y8110000D02*
G02X1525740Y8080000I-34538J-30000D01*
G02X1434260I-45740J0D01*
G02X1445470Y8110000I45748J0D01*
G02X1434260Y8140000I34538J30000D01*
G02X1525740I45740J0D01*
G02X1514530Y8110000I-45748J0D01*
G37*
G36*
G01X3294530D02*
G02X3305740Y8080000I-34538J-30000D01*
G02X3214260I-45740J0D01*
G02X3225470Y8110000I45748J0D01*
G02X3214260Y8140000I34538J30000D01*
G02X3305740I45740J0D01*
G02X3294530Y8110000I-45748J0D01*
G37*
G36*
G01X6555860Y8141270D02*
G02X6601140Y8075000I-25855J-66270D01*
G02X6530000Y8003860I-71140J0D01*
G02X6459140Y8068730I0J71137D01*
G02X6413860Y8135000I25855J66270D01*
G02X6485000Y8206140I71140J0D01*
G02X6555860Y8141270I0J-71137D01*
G37*
G36*
G01X6288660Y8108250D02*
G02X6296140Y8076500I-63659J-31754D01*
G02X6153860I-71140J0D01*
G02X6161340Y8108250I71139J-4D01*
G02X6153860Y8140000I63659J31754D01*
G02X6296140I71140J0D01*
G02X6288660Y8108250I-71139J4D01*
G37*
G36*
G01X6193660Y8298250D02*
G02X6201140Y8266500I-63659J-31754D01*
G02X6058860I-71140J0D01*
G02X6066340Y8298250I71139J-4D01*
G02X6058860Y8330000I63659J31754D01*
G02X6201140I71140J0D01*
G02X6193660Y8298250I-71139J4D01*
G37*
G36*
G01X6651420Y8328890D02*
G02X6615000Y8318860I-36420J61107D01*
G02X6583250Y8326340I4J71139D01*
G02X6551500Y8318860I-31754J63659D01*
G02Y8461140I0J71140D01*
G02X6583250Y8453660I-4J-71139D01*
G02X6615000Y8461140I31754J-63659D01*
G02X6658740Y8446110I6J-71142D01*
G02X6695160Y8456140I36420J-61107D01*
G02X6726910Y8448660I-4J-71139D01*
G02X6758660Y8456140I31754J-63659D01*
G02Y8313860I0J-71140D01*
G02X6726910Y8321340I4J71139D01*
G02X6695160Y8313860I-31754J63659D01*
G02X6651420Y8328890I-6J71142D01*
G37*
G36*
G01X13418660Y8553250D02*
G02X13426140Y8521500I-63659J-31754D01*
G02X13283860I-71140J0D01*
G02X13291340Y8553250I71139J-4D01*
G02X13283860Y8585000I63659J31754D01*
G02X13426140I71140J0D01*
G02X13418660Y8553250I-71139J4D01*
G37*
G36*
G01X13223660Y8691750D02*
G02X13231140Y8660000I-63659J-31754D01*
G02X13088860I-71140J0D01*
G02X13096340Y8691750I71139J-4D01*
G02X13088860Y8723500I63659J31754D01*
G02X13231140I71140J0D01*
G02X13223660Y8691750I-71139J4D01*
G37*
G36*
G01X13428660Y8858250D02*
G02X13436140Y8826500I-63659J-31754D01*
G02X13293860I-71140J0D01*
G02X13301340Y8858250I71139J-4D01*
G02X13293860Y8890000I63659J31754D01*
G02X13436140I71140J0D01*
G02X13428660Y8858250I-71139J4D01*
G37*
G36*
G01X14278660Y9175320D02*
G02X14286140Y9143570I-63659J-31754D01*
G02X14143860I-71140J0D01*
G02X14151340Y9175320I71139J-4D01*
G02X14143860Y9207070I63659J31754D01*
G02X14286140I71140J0D01*
G02X14278660Y9175320I-71139J4D01*
G37*
G36*
G01X14452780Y9343660D02*
G02X14469500Y9349530I31741J-63664D01*
G02X14540000Y9411140I70500J-9531D01*
G02X14571750Y9403660I-4J-71139D01*
G02X14603500Y9411140I31754J-63659D01*
G02Y9268860I0J-71140D01*
G02X14571750Y9276340I4J71139D01*
G02X14555030Y9270470I-31741J63664D01*
G02X14484530Y9208860I-70500J9531D01*
G02X14452780Y9216340I4J71139D01*
G02X14421030Y9208860I-31754J63659D01*
G02Y9351140I0J71140D01*
G02X14452780Y9343660I-4J-71139D01*
G37*
G36*
G01X14886760Y9291800D02*
G02X14839530Y9273860I-47230J53200D01*
G02X14807780Y9281340I4J71139D01*
G02X14776030Y9273860I-31754J63659D01*
G02Y9416140I0J71140D01*
G02X14807780Y9408660I-4J-71139D01*
G02X14839530Y9416140I31754J-63659D01*
G02X14903400Y9376320I0J-71133D01*
G03X14919270Y9373200I9122J4477D01*
G02X14966500Y9391140I47230J-53200D01*
G02X14998250Y9383660I-4J-71139D01*
G02X15030000Y9391140I31754J-63659D01*
G02Y9248860I0J-71140D01*
G02X14998250Y9256340I4J71139D01*
G02X14966500Y9248860I-31754J63659D01*
G02X14902630Y9288680I0J71133D01*
G03X14886760Y9291800I-9122J-4477D01*
G37*
G36*
G01X12838660Y9548250D02*
G02X12846140Y9516500I-63659J-31754D01*
G02X12703860I-71140J0D01*
G02X12711340Y9548250I71139J-4D01*
G02X12703860Y9580000I63659J31754D01*
G02X12846140I71140J0D01*
G02X12838660Y9548250I-71139J4D01*
G37*
G36*
G01X8756040Y9707940D02*
G02X8787790Y9715420I31754J-63659D01*
G02X8830200Y9701390I-8J-71137D01*
G02X8873570Y9716140I43370J-56386D01*
G02X8905320Y9708660I-4J-71139D01*
G02X8937070Y9716140I31754J-63659D01*
G02Y9573860I0J-71140D01*
G02X8905320Y9581340I4J71139D01*
G02X8873570Y9573860I-31754J63659D01*
G02X8831160Y9587890I8J71137D01*
G02X8787790Y9573140I-43370J56386D01*
G02X8756040Y9580620I4J71139D01*
G02X8724290Y9573140I-31754J63659D01*
G02X8684060Y9585610I0J71129D01*
G02X8639070Y9569580I-44990J55120D01*
G02X8607320Y9577060I4J71139D01*
G02X8575570Y9569580I-31754J63659D01*
G02X8534320Y9582760I0J71141D01*
G02X8492070Y9568860I-42244J57242D01*
G02X8460320Y9576340I4J71139D01*
G02X8428570Y9568860I-31754J63659D01*
G02X8382820Y9585520I0J71147D01*
G02X8337070Y9568860I-45750J54487D01*
G02X8305320Y9576340I4J71139D01*
G02X8273570Y9568860I-31754J63659D01*
G02Y9711140I0J71140D01*
G02X8305320Y9703660I-4J-71139D01*
G02X8337070Y9711140I31754J-63659D01*
G02X8382820Y9694480I0J-71147D01*
G02X8428570Y9711140I45750J-54487D01*
G02X8460320Y9703660I-4J-71139D01*
G02X8492070Y9711140I31754J-63659D01*
G02X8533320Y9697960I0J-71141D01*
G02X8575570Y9711860I42244J-57242D01*
G02X8607320Y9704380I-4J-71139D01*
G02X8639070Y9711860I31754J-63659D01*
G02X8679300Y9699390I0J-71129D01*
G02X8724290Y9715420I44990J-55120D01*
G02X8756040Y9707940I-4J-71139D01*
G37*
G36*
G01X14573250Y9738660D02*
G02X14605000Y9746140I31754J-63659D01*
G02X14643250Y9734980I0J-71129D01*
G02X14681500Y9746140I38250J-59969D01*
G02X14713250Y9738660I-4J-71139D01*
G02X14745000Y9746140I31754J-63659D01*
G02Y9603860I0J-71140D01*
G02X14713250Y9611340I4J71139D01*
G02X14681500Y9603860I-31754J63659D01*
G02X14643250Y9615020I0J71129D01*
G02X14605000Y9603860I-38250J59969D01*
G02X14573250Y9611340I4J71139D01*
G02X14541500Y9603860I-31754J63659D01*
G02X14503250Y9615020I0J71129D01*
G02X14465000Y9603860I-38250J59969D01*
G02X14433250Y9611340I4J71139D01*
G02X14401500Y9603860I-31754J63659D01*
G02X14357580Y9619040I0J71126D01*
G02X14313660Y9603860I-43920J55946D01*
G02X14281910Y9611340I4J71139D01*
G02X14250160Y9603860I-31754J63659D01*
G02Y9746140I0J71140D01*
G02X14281910Y9738660I-4J-71139D01*
G02X14313660Y9746140I31754J-63659D01*
G02X14357580Y9730960I0J-71126D01*
G02X14401500Y9746140I43920J-55946D01*
G02X14433250Y9738660I-4J-71139D01*
G02X14465000Y9746140I31754J-63659D01*
G02X14503250Y9734980I0J-71129D01*
G02X14541500Y9746140I38250J-59969D01*
G02X14573250Y9738660I-4J-71139D01*
G37*
G36*
G01X12643660Y9649190D02*
G02X12651140Y9617440I-63659J-31754D01*
G02X12508860I-71140J0D01*
G02X12516340Y9649190I71139J-4D01*
G02X12508860Y9680940I63659J31754D01*
G02X12651140I71140J0D01*
G02X12643660Y9649190I-71139J4D01*
G37*
G36*
G01X7997240Y9822930D02*
G02X8028990Y9835740I31750J-32942D01*
G02Y9744260I0J-45740D01*
G02X7997240Y9757070I0J45752D01*
G02X7965490Y9744260I-31750J32942D01*
G02Y9835740I0J45740D01*
G02X7997240Y9822930I0J-45752D01*
G37*
G36*
G01X12861400Y9923660D02*
G02X12893150Y9931140I31754J-63659D01*
G02Y9788860I0J-71140D01*
G02X12861400Y9796340I4J71139D01*
G02X12829650Y9788860I-31754J63659D01*
G02Y9931140I0J71140D01*
G02X12861400Y9923660I-4J-71139D01*
G37*
G36*
G01X7524980Y5664980D02*
Y6175020D01*
X10065020D01*
Y5664980D01*
X7524980D01*
G37*
G36*
G01X15454550Y1379090D02*
G02X15429260Y1420000I20444J40910D01*
G02X15520740I45740J0D01*
G02X15495450Y1379090I-45734J0D01*
G03Y1360910I4546J-9090D01*
G02X15520740Y1320000I-20444J-40910D01*
G02X15429260I-45740J0D01*
G02X15454550Y1360910I45734J0D01*
G03Y1379090I-4546J9090D01*
G37*
G36*
G01X10105000Y3316810D02*
G02X10104260Y3325000I45000J8194D01*
G02X10150000Y3279260I45740J0D01*
G02X10129540Y3284090I0J45750D01*
G03X10115000Y3273190I-4543J-9087D01*
G02X10115740Y3265000I-45000J-8194D01*
G02X10070000Y3310740I-45740J0D01*
G02X10090460Y3305910I0J-45750D01*
G03X10105000Y3316810I4543J9087D01*
G37*
G36*
G01X14262390Y4352430D02*
G02X14239260Y4392190I22608J39760D01*
G02X14330740I45740J0D01*
G02X14307610Y4352430I-45738J0D01*
G03Y4334760I5018J-8835D01*
G02X14330740Y4295000I-22608J-39760D01*
G02X14317190Y4262500I-45751J0D01*
G02X14330740Y4230000I-32201J-32500D01*
G02X14239260I-45740J0D01*
G02X14252810Y4262500I45751J0D01*
G02X14239260Y4295000I32201J32500D01*
G02X14262390Y4334760I45738J0D01*
G03Y4352430I-5018J8835D01*
G37*
G36*
G01X13068540Y5335990D02*
G02X13025000Y5304260I-43540J14008D01*
G02Y5395740I0J45740D01*
G02X13059190Y5380380I0J-45732D01*
G03X13076460Y5384010I7599J6746D01*
G02X13120000Y5415740I43540J-14008D01*
G02Y5324260I0J-45740D01*
G02X13085810Y5339620I0J45732D01*
G03X13068540Y5335990I-7599J-6746D01*
G37*
G36*
G01X5530910Y5359550D02*
G02X5490000Y5334260I-40910J20444D01*
G02Y5425740I0J45740D01*
G02X5530910Y5400450I0J-45734D01*
G03X5549090I9090J4546D01*
G02X5590000Y5425740I40910J-20444D01*
G02Y5334260I0J-45740D01*
G02X5549090Y5359550I0J45734D01*
G03X5530910I-9090J-4546D01*
G37*
G36*
G01X4612640Y5830100D02*
G03X4624450Y5839190I1694J10016D01*
G02X4670000Y5880740I45550J-4193D01*
G02X4715740Y5835000I0J-45740D01*
G02X4692370Y5795100I-45746J0D01*
G03X4693280Y5776930I4971J-8859D01*
G02X4720740Y5735000I-18282J-41930D01*
G02X4675000Y5689260I-45740J0D01*
G02X4629380Y5731680I0J45741D01*
G03X4616660Y5740770I-10133J-734D01*
G02X4605000Y5739260I-11656J44231D01*
G02Y5830740I0J45740D01*
G02X4612640Y5830100I15J-45741D01*
G37*
G36*
G01X3482430Y5955220D02*
G02X3459260Y5995000I22564J39780D01*
G02X3505000Y6040740I45740J0D01*
G02X3546350Y6014540I0J-45730D01*
G03X3563620Y6012730I9185J4344D01*
G02X3600000Y6030740I36380J-27739D01*
G02Y5939260I0J-45740D01*
G02X3558650Y5965460I0J45730D01*
G03X3541380Y5967270I-9185J-4344D01*
G02X3535750Y5961140I-36364J27747D01*
G03X3537570Y5944780I6832J-7521D01*
G02X3560740Y5905000I-22564J-39780D01*
G02X3515000Y5859260I-45740J0D01*
G02X3475220Y5882430I0J45734D01*
G03X3458860Y5884250I-8839J-5012D01*
G02X3425000Y5869260I-33860J30747D01*
G02Y5960740I0J45740D01*
G02X3464780Y5937570I0J-45734D01*
G03X3481140Y5935750I8839J5012D01*
G02X3484250Y5938860I33860J-30750D01*
G03X3482430Y5955220I-6832J7521D01*
G37*
G36*
G01X13226770Y6235630D02*
G02X13200000Y6221960I-26770J19377D01*
G02Y6288040I0J33040D01*
G02X13226770Y6274370I0J-33047D01*
G03X13243230I8230J5952D01*
G02X13270000Y6288040I26770J-19377D01*
G02Y6221960I0J-33040D01*
G02X13243230Y6235630I0J33047D01*
G03X13226770I-8230J-5952D01*
G37*
G36*
G01X13927620Y6247930D02*
G02X13895000Y6234260I-32615J32072D01*
G02Y6325740I0J45740D01*
G02X13940120Y6287520I0J-45743D01*
G03X13957380Y6282070I10019J1673D01*
G02X13990000Y6295740I32615J-32072D01*
G02Y6204260I0J-45740D01*
G02X13944880Y6242480I0J45743D01*
G03X13927620Y6247930I-10019J-1673D01*
G37*
G36*
G01X10497170Y7616440D02*
G02X10565000Y7666140I67830J-21437D01*
G02X10596750Y7658660I-4J-71139D01*
G02X10628500Y7666140I31754J-63659D01*
G02Y7523860I0J-71140D01*
G02X10596750Y7531340I4J71139D01*
G02X10565000Y7523860I-31754J63659D01*
G02X10499100Y7568210I0J71136D01*
G03X10480650Y7569040I-9416J-3823D01*
G02X10440000Y7544260I-40650J20952D01*
G02Y7635740I0J45740D01*
G02X10478850Y7614140I0J-45738D01*
G03X10497170Y7616440I8631J5361D01*
G37*
G36*
G01X8169640Y8234260D02*
G02X8124260Y8280000I361J45740D01*
G02X8170000Y8325740I45740J0D01*
G02X8208870Y8304110I0J-45740D01*
G03X8226130I8630J5361D01*
G02X8265000Y8325740I38870J-24110D01*
G02X8310740Y8280000I0J-45740D01*
G02X8269350Y8234470I-45737J0D01*
G03X8261170Y8219930I966J-10114D01*
G02X8265740Y8200000I-41173J-19930D01*
G02X8174260I-45740J0D01*
G02X8178730Y8219720I45734J0D01*
G03X8169640Y8234260I-9166J4381D01*
G37*
G36*
G01X13066340Y9188250D02*
G02X13058860Y9220000I63659J31754D01*
G02X13201140I71140J0D01*
G02X13193660Y9188250I-71139J4D01*
G02X13201140Y9156500I-63659J-31754D01*
G02X13188920Y9116630I-71152J0D01*
G03X13198290Y9100820I8414J-5695D01*
G02X13205000Y9101140I6740J-70819D01*
G02X13276140Y9030000I0J-71140D01*
G02X13268660Y8998250I-71139J4D01*
G02X13276140Y8966500I-63659J-31754D01*
G02X13133860I-71140J0D01*
G02X13141340Y8998250I71139J-4D01*
G02X13133860Y9030000I63659J31754D01*
G02X13146080Y9069870I71152J0D01*
G03X13136710Y9085680I-8414J5695D01*
G02X13130000Y9085360I-6740J70819D01*
G02X13058860Y9156500I0J71140D01*
G02X13066340Y9188250I71139J-4D01*
G37*
G36*
G01X7501720Y9625000D02*
Y9545000D01*
G02X7326280I-87720J5D01*
G01Y9625000D01*
G02X7501720I87720J-5D01*
G37*
G36*
G01X5876260Y9545000D02*
Y9625000D01*
G02X6051720I87730J-5D01*
G01Y9545000D01*
G02X5876260I-87730J5D01*
G37*
G36*
G01Y8904000D02*
Y9083980D01*
G02X6051720I87730J5D01*
G01Y8904000D01*
G02X5876260I-87730J-5D01*
G37*
G54D37*
X4812500Y4617500D03*
G54D46*
X2580000Y5840000D03*
X13260000Y6005000D03*
X5140000Y6600000D03*
X10845000Y6395000D03*
Y6475000D03*
Y6555000D03*
X2085000Y8240000D03*
X7095000Y8445000D03*
X14160000Y8520000D03*
X14050000Y8900000D03*
X14690000Y9050000D03*
X12410000Y9300000D03*
X13110000Y9335000D03*
X15130000Y9710000D03*
X12440000Y9780000D03*
G54D39*
X3170000Y495000D03*
X3040000Y490000D03*
X4310000D03*
X4290000Y370000D03*
X1815000Y1030000D03*
X4310000Y735000D03*
X4315000Y985000D03*
X1345000Y1160000D03*
X2875000Y1425000D03*
X4020000Y1265000D03*
X4140000Y1145000D03*
X4020000D03*
X4040000Y1500000D03*
X4160000D03*
X4140000Y1265000D03*
X4260000D03*
X4280000Y1500000D03*
X4310000Y1610000D03*
X4260000Y1145000D03*
X5932500Y1620000D03*
X6045000D03*
X7790000Y1610000D03*
X7910000D03*
X9660000Y1630000D03*
X9790000D03*
X12430000Y1435000D03*
X12550000Y1430000D03*
X12655000Y1180000D03*
Y1430000D03*
X14795000Y1420000D03*
X15330000Y1260000D03*
X15475000Y1170000D03*
X2280000Y1655000D03*
X2945000Y1770000D03*
X3090000Y1670000D03*
X4330000Y1730000D03*
Y1975000D03*
X6280000Y1840000D03*
X6710000Y1845000D03*
X8160000Y1850000D03*
X8580000D03*
X10040000D03*
X10715000Y2095000D03*
X10460000Y1850000D03*
X11460000Y1930000D03*
X14290000D03*
X14505000Y1830000D03*
X14635000Y2080000D03*
X15600000Y1930000D03*
X3280000Y2330000D03*
X4040000Y2400000D03*
X4160000D03*
X4280000D03*
X4335000Y2225000D03*
X6145000Y2595000D03*
X6237500Y2507500D03*
X6327500Y2417500D03*
X6576100Y2220000D03*
X6765000D03*
X8017500Y2597500D03*
X8110000Y2510000D03*
X8205000Y2425000D03*
X8635000Y2230000D03*
X8446100D03*
X9982500Y2512500D03*
X9890000Y2600000D03*
X10075000Y2425000D03*
X10335000Y2235000D03*
X10526090D03*
X11205000Y2650000D03*
X11015000Y2595000D03*
X11647500Y2612500D03*
X11410000Y2340000D03*
X11455000Y2645000D03*
X11590000Y2190000D03*
X12790000Y2205000D03*
X13915000Y2565000D03*
X14425000Y2180000D03*
X3150000Y3000000D03*
X2915000Y2710000D03*
X3460000D03*
X4160000Y2755000D03*
X4040000D03*
X4330000Y2985000D03*
X4280000Y2755000D03*
X4310000Y2865000D03*
X9785000Y2945000D03*
X9675000D03*
X10210000Y2705000D03*
X10070000Y2710000D03*
X10302080Y3152080D03*
X11155000Y3000000D03*
X11320000Y3155000D03*
X11295000Y3050000D03*
Y2945000D03*
X10935000Y2675000D03*
X11627500Y2792500D03*
X11787500Y2952500D03*
X11707500Y2872500D03*
X11947500Y3112500D03*
X11865000Y3035000D03*
X14265000Y2720000D03*
X14410000Y3005000D03*
X14990000Y3090000D03*
X3285000Y3520000D03*
X4335000Y3480000D03*
X4330000Y3230000D03*
X5260000Y3555000D03*
X7220000Y3351100D03*
Y3541090D03*
X7715000Y3546100D03*
X7495000Y3645000D03*
X9285000Y3190000D03*
X9930000Y3265000D03*
X9980000Y3640000D03*
X10305000Y3325000D03*
X10467500Y3167500D03*
X11129980Y3274980D03*
X11270000Y3460000D03*
X11127500Y3587500D03*
X11010300Y3589710D03*
X11810000Y3400000D03*
X11615000Y3210000D03*
X12170000Y3365000D03*
X11860000Y3540000D03*
X12027500Y3192500D03*
X12500000Y3430000D03*
X12375000Y3435000D03*
X12500000Y3550000D03*
X14660000Y3655000D03*
X14665000Y3545000D03*
X14910000Y3355000D03*
X15185000Y3315000D03*
X15795000Y3640000D03*
X15610000Y3645000D03*
X15890000Y3525000D03*
X2985000Y3720000D03*
X3066000Y4040000D03*
X3500000Y3910000D03*
X4160000Y3715000D03*
X4040000D03*
X4280000D03*
X5260000Y3690000D03*
X5660000Y3980000D03*
X5970000D03*
X6120000D03*
X5820000D03*
X6120000Y4140000D03*
X6265000Y3950000D03*
X6290000Y4050000D03*
X6945000Y3785000D03*
X7290000Y3810000D03*
X7715000Y3736090D03*
X7460000Y3990000D03*
X9040000Y4045000D03*
X9745000Y3885000D03*
X10543940Y4085000D03*
X11017500Y3707500D03*
X11670000Y4010000D03*
X11590000Y3805000D03*
X11760000Y3935000D03*
X11500000Y3880000D03*
X12045000Y3685000D03*
X11925000Y3710000D03*
X12081850Y4053160D03*
X11880000Y4045000D03*
X12522190Y3952190D03*
X12365000Y3745000D03*
X14130000Y3930000D03*
X14580000Y3810000D03*
X14720000Y4075000D03*
X15790000Y3850000D03*
X3320000Y4330000D03*
X5540000Y4630000D03*
X6645000Y4505000D03*
X6275000Y4680000D03*
X6400000Y4525000D03*
X6530000Y4520000D03*
X7380000Y4500000D03*
X7575000Y4410000D03*
X8355000Y4470000D03*
X9215000Y4280000D03*
X9020000Y4470000D03*
X9615000Y4580000D03*
X9710000Y4625000D03*
X9355000Y4320000D03*
X9615000Y4350000D03*
X10510000Y4675000D03*
X10645000Y4310000D03*
X11790000Y4245000D03*
X11905000Y4190000D03*
X12850000Y4265000D03*
X12485000Y4565000D03*
X12735000Y4335000D03*
X12405000Y4645000D03*
X13955000Y4530000D03*
X14635000Y4610000D03*
X14843290Y4440280D03*
X14570000Y4455000D03*
X15600000Y4480000D03*
X15415000Y4290000D03*
X15420000Y4670000D03*
X15600000Y4375000D03*
X3915000Y5010000D03*
X6470000Y4970000D03*
X6870000Y4960000D03*
X7030000Y5010000D03*
X7895000Y4835000D03*
X8000000Y5040000D03*
X8030000Y4780000D03*
X9450000Y4760000D03*
X9930000Y4910000D03*
X10090000Y4730000D03*
X10750000Y4935000D03*
X11320000Y4804520D03*
X11031740Y4716740D03*
X11157500Y4697500D03*
X12215000Y4935000D03*
X12355000Y4835000D03*
X12325000Y4725000D03*
X11875000Y4770000D03*
X12815000Y5080000D03*
X12435000Y4755000D03*
X13890000Y4930000D03*
X14020000Y4715000D03*
X14100000Y5035000D03*
X14730000Y4940000D03*
X14940000Y5170000D03*
X15250000Y5110000D03*
X2655000Y5505000D03*
X3282500Y5472500D03*
X4145000Y5380000D03*
X4060000Y5460000D03*
X4210000Y5485000D03*
X3930000Y5670000D03*
X6130000Y5650000D03*
X6650000Y5245000D03*
X7290000Y5640000D03*
X8240000Y5435000D03*
X9625000Y5375000D03*
X10030000Y5350000D03*
X9940000Y5200000D03*
X10177500Y5442500D03*
X10420000Y5680000D03*
X10972500Y5607500D03*
X11380000Y5650000D03*
X11845000Y5205000D03*
X12135000Y5405000D03*
X11910000Y5305000D03*
X12110000Y5260000D03*
X12075000Y5540000D03*
X12245000Y5465000D03*
X12455000Y5300000D03*
X13255000Y5545000D03*
X13370000Y5595000D03*
X13700000Y5570000D03*
X13810000Y5585000D03*
X13480000Y5590000D03*
X14140000Y5580000D03*
X13895000Y5320000D03*
X3060000Y5790000D03*
X2920000Y5740000D03*
X3005000Y5995000D03*
X3140000Y6000000D03*
X3677500Y6062500D03*
X3280000Y6145000D03*
X3850000Y5755000D03*
X4330000Y6170000D03*
X5455000Y6020000D03*
X6130000Y5770000D03*
X10645000Y5735000D03*
X11235000Y5880000D03*
X10870000Y5885000D03*
X11465000Y5790000D03*
X11580000Y5810000D03*
X12135000Y6005000D03*
X11855000Y5795000D03*
X11980000Y6170000D03*
X12385000Y5990000D03*
X12515000Y6030000D03*
X12635000Y6025000D03*
X13575000Y5740000D03*
X14765000Y5975000D03*
X14570000D03*
X14685000Y5860000D03*
X14457260Y5862050D03*
X14570000Y5860000D03*
X14960000Y5975000D03*
X15100000Y5980000D03*
X15870000Y5825000D03*
X2330710Y6465000D03*
X3660000Y6570000D03*
X3360000Y6220000D03*
X3597500Y6332500D03*
X4330000Y6500000D03*
X4300000Y6400000D03*
X4310000Y6270000D03*
X4580000Y6680000D03*
X5545000D03*
X5455000Y6260000D03*
X5270000Y6490000D03*
X6595000Y6400000D03*
X6710000D03*
X6800000Y6310000D03*
X9980000Y6700000D03*
X13275000Y6505000D03*
X13360000Y6255000D03*
X14305000Y6250000D03*
X14200000D03*
X14095000D03*
X14640000Y6245000D03*
X14520000Y6250000D03*
X14410000D03*
X245000Y7100000D03*
X475000D03*
X360000D03*
X1912500Y7117500D03*
X2000000Y7045000D03*
X2150000Y6795000D03*
X2255000Y6855000D03*
X2335000Y6935000D03*
X3140000Y7220000D03*
X13355000Y6840000D03*
X13490000Y6880000D03*
X13790000Y6755000D03*
X13670000D03*
X13550000D03*
X14290000Y6945000D03*
X14315000Y6755000D03*
X14515000Y7190000D03*
X14870000Y6725000D03*
X14985000D03*
X15100000D03*
X15435000Y7125000D03*
X2520000Y7280000D03*
X2260000Y7560000D03*
Y7700000D03*
X7845000Y7570000D03*
X8170000Y7580000D03*
X8345000D03*
X8540000Y7595000D03*
X9980000Y7440000D03*
X10525000Y7350000D03*
X10775000D03*
X10650000D03*
X11030000Y7590000D03*
X14285000Y7335000D03*
X14715000Y7315000D03*
X355000Y8050000D03*
X560000Y7860000D03*
X220000Y7885010D03*
X455000Y8120000D03*
X260000D03*
X2260000Y7840000D03*
X8620000Y8090000D03*
X9785000Y7880000D03*
X9650000D03*
X9390000Y8120000D03*
X10370000Y8055000D03*
X10810000Y8115000D03*
X12020000Y8095000D03*
X6370000Y8383070D03*
X6900000Y8270000D03*
X7310000Y8370010D03*
X9020000Y8575000D03*
X9250000Y8480000D03*
X9475000Y8565000D03*
X10300000Y8535000D03*
X9840000D03*
X9950000D03*
X10060000D03*
X10170000D03*
X10610000Y8530000D03*
X10500000D03*
X11805000Y8520000D03*
X12017500Y8467500D03*
X8040000Y8950000D03*
X7805000Y8925000D03*
X10790000Y9365000D03*
Y9565000D03*
X12600000Y9900000D03*
G54D51*
X3931550Y9261500D03*
X5544450D03*
G54D36*
X3830000Y720000D03*
Y1960000D03*
Y3260000D03*
X6940000Y7090000D03*
G54D48*
X4128400Y6912000D03*
X5093600D03*
G54D45*
X9058000Y5310000D03*
G54D38*
X5990000Y6485000D03*
G54D43*
X340000Y3374000D03*
G54D34*
X12331000Y5700000D03*
X8588000Y3760000D03*
X9648000Y340000D03*
X7788000D03*
X5928000D03*
G54D42*
X340000Y3120000D03*
G54D44*
X630000Y4310000D03*
X1330000D03*
X630000Y5460000D03*
X1330000D03*
X630000Y6600000D03*
X1330000D03*
G54D41*
X462000Y2411000D03*
G54D49*
X4382400Y6912000D03*
X5347600D03*
G54D47*
X11280000Y6305000D03*
X16080000D03*
X11280000Y9605000D03*
X16080000D03*
G54D40*
X462000Y1911000D03*
G54D50*
X352990Y8880000D03*
X1667010D03*
X2142990D03*
X3457010D03*
G54D35*
X9096000Y3760000D03*
X9350000D03*
X8842000D03*
X8334000D03*
X10410000Y340000D03*
X9902000D03*
X10156000D03*
X9394000D03*
X8550000D03*
X8042000D03*
X8296000D03*
X7534000D03*
X6436000D03*
X6690000D03*
X6182000D03*
X5674000D03*
%LPD*%
G75*
G54D10*
X-415000Y1248000D03*
Y8812000D03*
X4128400Y7166000D03*
X4230000Y7420000D03*
X4534800Y7166000D03*
X4331600D03*
X4636400Y7420000D03*
X4433200D03*
X5144400Y7166000D03*
X4941200D03*
X5246000Y7420000D03*
X5042800D03*
X4839600D03*
X5347600Y7166000D03*
X5985000Y6485000D03*
X16975000Y1248000D03*
Y8812000D03*
G54D20*
X4103000Y8944000D03*
X5373000D03*
G54D11*
X127000Y127000D03*
Y254000D03*
Y381000D03*
X140000Y755000D03*
X127000Y889000D03*
Y1016000D03*
Y1397000D03*
Y1524000D03*
Y2540000D03*
Y2413000D03*
Y2286000D03*
Y3048000D03*
Y2794000D03*
Y2667000D03*
Y2921000D03*
Y3302000D03*
Y3175000D03*
Y3429000D03*
Y3556000D03*
Y4064000D03*
Y3810000D03*
Y3937000D03*
Y3683000D03*
Y4572000D03*
Y4445000D03*
Y4191000D03*
Y4318000D03*
Y5080000D03*
Y4953000D03*
Y4699000D03*
Y4826000D03*
Y5588000D03*
Y5461000D03*
Y5207000D03*
Y5334000D03*
Y5842000D03*
Y5969000D03*
Y5715000D03*
Y6096000D03*
Y6604000D03*
Y6350000D03*
Y6477000D03*
Y6223000D03*
Y6985000D03*
Y6858000D03*
Y6731000D03*
X100000Y7300000D03*
X127000Y7620000D03*
Y7747000D03*
X140000Y8440000D03*
X254000Y127000D03*
X360000Y7100000D03*
X475000D03*
X245000D03*
X570000Y7240000D03*
X180000Y7480000D03*
X305000Y7705000D03*
X470000D03*
X260000Y8120000D03*
X455000D03*
X355000Y8050000D03*
X470000Y7790000D03*
X305000D03*
X390000Y7745000D03*
X220000Y7885010D03*
X560000Y7860000D03*
X735000Y3940000D03*
X760000Y5090000D03*
X1100000Y8100000D03*
X730000D03*
X905000Y7995000D03*
X1100000D03*
X1165000Y8040000D03*
X970000Y8045000D03*
X843500D03*
X780000D03*
X1033500D03*
X920000Y8100000D03*
X1470000Y1490000D03*
X1345000Y1160000D03*
X1600000Y3579990D03*
X1375000Y3580000D03*
X1295000Y8005000D03*
X1228500Y8040000D03*
X1480000Y8140000D03*
Y8080000D03*
X1985000Y380000D03*
Y520000D03*
X1815000Y1030000D03*
X1715000Y1415000D03*
X1710000Y1670000D03*
X2150000Y6355000D03*
X2195000Y6235000D03*
X2000000Y7045000D03*
X1912500Y7117500D03*
X2150000Y6795000D03*
X1810000Y7690000D03*
X1800000Y7970000D03*
X2085000Y8240000D03*
X1800000Y8250000D03*
X1910000Y8505000D03*
X2250000Y470010D03*
X2315000Y1400000D03*
X2275000Y1760010D03*
X2280000Y1655000D03*
X2410000Y2830000D03*
X2650000D03*
X2575000Y3980000D03*
X2245000Y4320000D03*
X2500000Y4750000D03*
X2250000Y5000000D03*
X2500000Y5260000D03*
X2655000Y5505000D03*
X2430000Y6010000D03*
X2670000Y5770000D03*
X2510000Y5930000D03*
X2675000Y6190000D03*
X2272210Y6126820D03*
X2320000Y6085000D03*
X2580000Y5840000D03*
X2375000Y5935000D03*
X2435000Y5880000D03*
X2673740Y6533030D03*
X2522860Y6382140D03*
X2477950Y6427050D03*
X2330710Y6465000D03*
X2455000Y7055000D03*
X2705000Y6920000D03*
X2615000Y6815000D03*
X2570000Y6770000D03*
X2335000Y6935000D03*
X2255000Y6855000D03*
X2260000Y7700000D03*
Y7560000D03*
X2690000Y7340000D03*
X2645000Y7260000D03*
X2520000Y7280000D03*
X2260000Y7840000D03*
X2535000Y7980000D03*
X2595000Y8030000D03*
X2658500D03*
X2805000Y435000D03*
X2920000Y550000D03*
X3040000Y490000D03*
X3170000Y495000D03*
X2840000Y1015000D03*
X2990000Y1020000D03*
X2750000Y1050000D03*
X2875000Y1425000D03*
Y1285000D03*
X2790000Y1760000D03*
X2945000Y1770000D03*
X3090000Y1670000D03*
X2990000Y2300000D03*
X2830000Y2320000D03*
X2840000Y2950000D03*
X3150000Y3000000D03*
X2915000Y2710000D03*
X3000000Y3500000D03*
X2850000Y3495000D03*
X2740000Y3530000D03*
X2985000Y3720000D03*
X3066000Y4040000D03*
X2750000Y5690000D03*
X3025000Y5595000D03*
X2930000Y5370000D03*
X2719910Y6145090D03*
X3060000Y5790000D03*
X3005000Y5995000D03*
X3140000Y6000000D03*
X2920000Y5740000D03*
X2832840Y6373930D03*
Y6692130D03*
X3151040Y6373930D03*
Y6692130D03*
X2991940Y6214830D03*
Y6533030D03*
Y6851230D03*
X3120000Y7065000D03*
X3165000Y7010000D03*
X2750000Y6965000D03*
X3140000Y7220000D03*
X2740000Y7380000D03*
X3065000Y7980000D03*
X2875000Y8110000D03*
X2715000Y7970000D03*
X2885000D03*
X3005000Y8030000D03*
X2941500D03*
X2833500D03*
X2725000Y8110000D03*
X2770000Y8030000D03*
X3280000Y2330000D03*
X3460000Y2710000D03*
X3285000Y3520000D03*
X3500000Y3910000D03*
X3460000Y4680000D03*
X3315000Y4500000D03*
X3595000Y4365000D03*
X3685000D03*
X3320000Y4330000D03*
X3530000Y5075000D03*
X3460000Y4790000D03*
X3715000Y5260000D03*
X3530000Y5445000D03*
X3420000Y5640000D03*
X3345000Y5260000D03*
X3530000D03*
X3600000Y5700000D03*
X3282500Y5472500D03*
X3585000Y6075000D03*
X3667500Y6152500D03*
X3685000Y5775000D03*
X3677500Y6062500D03*
X3600000Y5985000D03*
X3515000Y5905000D03*
X3280000Y6145000D03*
X3425000Y5915000D03*
X3505000Y5995000D03*
X3310140Y6533030D03*
X3360000Y6220000D03*
X3597500Y6332500D03*
X3660000Y6570000D03*
X3365000Y7225000D03*
X3525000Y7065000D03*
X3680000Y6955000D03*
X3630150Y6994350D03*
X3315000Y6870000D03*
X3600000Y7160000D03*
X3540000Y7220000D03*
X3270090Y6914910D03*
X3595000Y7690000D03*
Y7970000D03*
X3260000Y8080000D03*
Y8140000D03*
X3595000Y8250000D03*
X3700000Y8472560D03*
X4140000Y1265000D03*
X4020000Y1145000D03*
X4140000D03*
X4020000Y1265000D03*
X4160000Y1500000D03*
X4040000D03*
X4160000Y2400000D03*
X4040000D03*
Y2755000D03*
X4160000D03*
X4040000Y3715000D03*
X4160000D03*
X3820000Y4330000D03*
X4010000Y5090000D03*
X4160000Y4990000D03*
X3915000Y5010000D03*
X4160000Y4900000D03*
X4145000Y5380000D03*
X4060000Y5460000D03*
X4210000Y5485000D03*
X3930000Y5670000D03*
X4225000Y6110000D03*
X4200000Y5990000D03*
X3850000Y5755000D03*
X4045000Y6290000D03*
X4095000Y6515000D03*
X3800000Y6460000D03*
X4290000Y370000D03*
X4310000Y490000D03*
X4315000Y985000D03*
X4310000Y735000D03*
X4595000Y1150000D03*
Y1270000D03*
X4260000Y1145000D03*
Y1265000D03*
X4310000Y1610000D03*
X4280000Y1500000D03*
X4330000Y1975000D03*
Y1730000D03*
X4615000Y2400000D03*
Y2280000D03*
X4335000Y2225000D03*
X4280000Y2400000D03*
X4310000Y2865000D03*
X4280000Y2755000D03*
X4330000Y2985000D03*
X4615000Y3650000D03*
Y3530000D03*
X4330000Y3230000D03*
X4335000Y3480000D03*
X4385000Y3870000D03*
X4280000Y3715000D03*
X4240000Y4470000D03*
X4675000Y5735000D03*
X4460000Y6020000D03*
X4670000Y5835000D03*
X4605000Y5785000D03*
X4330000Y6170000D03*
X4310000Y6270000D03*
X4300000Y6400000D03*
X4580000Y6680000D03*
X4330000Y6500000D03*
X4742400Y625000D03*
X4740000Y970000D03*
Y720000D03*
X4762400Y1755000D03*
X4760000Y1850000D03*
Y2100000D03*
X4755000Y3100000D03*
X4762400Y3010000D03*
X4760000Y3340000D03*
X4970000Y4030000D03*
Y4140000D03*
X5060000Y4030000D03*
Y3920000D03*
X4875000D03*
X5060000Y4140000D03*
X4970000Y3920000D03*
X4875000Y4030000D03*
Y4140000D03*
X5030010Y5465000D03*
X4805000Y5720000D03*
X5140000Y6600000D03*
X5580000Y1170000D03*
X5360000Y2650000D03*
X5615000Y2315000D03*
X5530000Y2480000D03*
X5260000Y3555000D03*
X5550000Y3795000D03*
X5260000Y3690000D03*
X5660000Y3980000D03*
X5550000Y4295000D03*
X5730000Y4430000D03*
X5347500Y4272500D03*
X5540000Y4630000D03*
X5390000Y4920000D03*
X5435000Y5195000D03*
X5290000Y5010000D03*
Y5100000D03*
X5390000Y5500000D03*
X5490000Y5380000D03*
X5590000D03*
X5455000Y6140000D03*
Y6020000D03*
Y6400000D03*
X5270000Y6490000D03*
X5455000Y6260000D03*
X5545000Y6680000D03*
X5730000Y8405000D03*
X6170000Y1260000D03*
X6045000Y1620000D03*
X5932500D03*
X5945000Y2130000D03*
X5820000Y2150000D03*
X6020000Y2055000D03*
X5890000Y2075000D03*
X5965000Y2000000D03*
X6075000Y2110000D03*
X6145000Y2595000D03*
X6237500Y2507500D03*
X6000000Y2185000D03*
X5875000Y2205000D03*
X5930000Y2260000D03*
X5805000Y2590000D03*
X5925000Y2710000D03*
X5845000Y3820000D03*
X6120000Y4140000D03*
X5820000Y3980000D03*
X6120000D03*
X5970000D03*
Y4430000D03*
X5920000Y4740000D03*
Y5100000D03*
X6250000Y5090000D03*
Y4955000D03*
Y4870000D03*
X5835000Y5570000D03*
X6130000Y5650000D03*
X6250000Y5240000D03*
Y5320000D03*
X5860000Y5980000D03*
X6195000Y6000000D03*
Y5936500D03*
X6130000Y5770000D03*
X5910000Y6995000D03*
X6235000Y7105000D03*
Y6890000D03*
Y6965940D03*
Y7029440D03*
X5910000Y7365000D03*
X6235000Y7250000D03*
X6230000Y7635000D03*
X6235000Y7470000D03*
Y7390000D03*
X6230730Y7711390D03*
X6235000Y7326500D03*
X5950000Y7740000D03*
X5915000Y8110000D03*
X6225000Y8000000D03*
X6185000Y8210000D03*
X6230000Y7850000D03*
X6225000Y8076500D03*
Y8140000D03*
X6230730Y7774890D03*
X5860000Y8405000D03*
X5980000D03*
X6130000Y8410000D03*
Y8266500D03*
Y8330000D03*
X6550000Y800000D03*
X6445000Y1405000D03*
X6380000Y1845000D03*
X6710000D03*
X6280000Y1840000D03*
X6327500Y2417500D03*
X6576100Y2220000D03*
X6765000D03*
X6670000Y2195000D03*
X6265000Y3950000D03*
X6290000Y4050000D03*
X6530000Y4520000D03*
X6500000Y4265000D03*
X6310000Y4525000D03*
X6400000D03*
X6645000Y4505000D03*
X6275000Y4680000D03*
X6370000Y4970000D03*
X6270000Y4770000D03*
X6470000Y4970000D03*
X6300000Y5625000D03*
X6550000Y5240000D03*
X6650000Y5245000D03*
X6710000Y6400000D03*
X6595000D03*
X6410000Y8120000D03*
X6550000Y8005000D03*
X6485000Y8135000D03*
X6530000Y8075000D03*
X6540000Y8300000D03*
X6660000Y8460000D03*
X6370000Y8383070D03*
X6551500Y8390000D03*
X6758660Y8385000D03*
X6615000Y8390000D03*
X6695160Y8385000D03*
X6289010Y9000990D03*
X6739010D03*
X6589010D03*
X6439010D03*
X6858000Y127000D03*
X6985000D03*
X7112000D03*
X6815000Y1405000D03*
X7070000Y1960000D03*
X6810000Y1845000D03*
X7235000Y2655000D03*
X7220000Y3541090D03*
Y3351100D03*
X7015000Y3840000D03*
X6945000Y3785000D03*
X7150000Y4450000D03*
X7270000D03*
X6995000Y4725000D03*
X7110000Y5065000D03*
X7030000Y5010000D03*
X6870000Y4960000D03*
X7265000Y5290000D03*
X6920000Y6130000D03*
X7000000Y6020000D03*
X7015000Y5840000D03*
Y5765000D03*
X7080000Y6485000D03*
X6940000D03*
X7000000Y6250000D03*
X6800000Y6310000D03*
X7200000Y8375000D03*
X7095000Y8350000D03*
X6810000Y8330000D03*
X6900000Y8270000D03*
X7095000Y8445000D03*
X7039010Y9000990D03*
X7215000Y8835000D03*
Y8920000D03*
X6839000Y9175000D03*
X6939000D03*
X7002500D03*
X7445000Y1155000D03*
X7760000Y2075000D03*
X7690000Y2150000D03*
X7745000Y2205000D03*
X7685000Y2590000D03*
X7405000Y2485000D03*
X7485000Y2315000D03*
X7495000Y3645000D03*
X7715000Y3546100D03*
Y3736090D03*
X7515000Y4160000D03*
X7460000Y3990000D03*
X7290000Y3810000D03*
X7380000Y4500000D03*
X7460000Y4555000D03*
X7575000Y4410000D03*
X7570000Y5050000D03*
X7740000Y5100000D03*
X7290000Y5640000D03*
X7520000Y7840000D03*
X7310000Y8370010D03*
X7695000Y8925000D03*
X7760000Y9470000D03*
X8010000Y1250000D03*
X7910000Y1610000D03*
X7790000D03*
X7945000Y2110000D03*
X7890000Y2055000D03*
X7815000Y2130000D03*
X7835000Y2000000D03*
X8260000Y1855000D03*
X8160000Y1850000D03*
X7800000Y2260000D03*
X7870000Y2185000D03*
X8205000Y2425000D03*
X8110000Y2510000D03*
X8017500Y2597500D03*
X7805000Y2710000D03*
X7860000Y3940000D03*
X7795000Y3890000D03*
X8150000Y4650000D03*
X8243210Y4488210D03*
X8030000Y4780000D03*
X7895000Y4835000D03*
X8000000Y5040000D03*
X7970000Y5430000D03*
X7870000Y5395000D03*
X8240000Y5435000D03*
X7845000Y7570000D03*
X8170000Y7580000D03*
Y7915000D03*
X7905000Y7895000D03*
X8220000Y8200000D03*
X7840000Y8370000D03*
X8170000Y8280000D03*
X8265000D03*
X8130000Y9055000D03*
X7805000Y8925000D03*
X8040000Y8950000D03*
X8228990Y9715000D03*
X8080000Y9700000D03*
X8132500Y9407500D03*
X8273570Y9640000D03*
X7874000Y9906000D03*
X8001000D03*
X7965490Y9790000D03*
X8028990D03*
X8763000Y127000D03*
X8421090Y801090D03*
X8685000Y1400000D03*
X8315000D03*
X8680000Y1850000D03*
X8580000D03*
X8540000Y2205000D03*
X8446100Y2230000D03*
X8635000D03*
X8355000Y4470000D03*
X8790000Y4869990D03*
X8720000Y7330000D03*
X8570000D03*
X8320000D03*
X8540000Y7595000D03*
X8345000Y7580000D03*
X8783500Y7930000D03*
X8720000D03*
X8655000Y7865000D03*
X8345000Y7915000D03*
X8775000Y8050000D03*
X8620000Y8090000D03*
X8780000Y8570000D03*
X8535000Y9715000D03*
X8379000D03*
X8680000D03*
X8639070Y9640720D03*
X8337070Y9640000D03*
X8724290Y9644280D03*
X8575570Y9640720D03*
X8787790Y9644280D03*
X8428570Y9640000D03*
X8492070D03*
X8890000Y127000D03*
X8925000Y1960000D03*
X9275000Y2485000D03*
X9105000Y2655000D03*
X9285000Y3190000D03*
X8820000Y4145000D03*
X9040000Y4045000D03*
X9215000Y4280000D03*
X9020000Y4470000D03*
X8870000Y7330000D03*
X9020000D03*
X9170000D03*
X9248500Y7865000D03*
X9185000D03*
X9113500Y7920000D03*
X9050000D03*
X8963500Y7865000D03*
X8900000D03*
X9190000Y7935000D03*
X9210000Y8105000D03*
X8890000Y8565000D03*
X9150000Y8480000D03*
X9250000D03*
X9020000Y8575000D03*
X8828990Y9715000D03*
X8979000D03*
X8937070Y9645000D03*
X8873570D03*
X9779000Y127000D03*
X9310000Y1155000D03*
X9790000Y1630000D03*
X9660000D03*
X9560000Y2150000D03*
X9685000Y2130000D03*
X9630000Y2075000D03*
X9705000Y2000000D03*
X9760000Y2055000D03*
X9815000Y2110000D03*
X9615000Y2205000D03*
X9670000Y2260000D03*
X9740000Y2185000D03*
X9355000Y2315000D03*
X9555000Y2590000D03*
X9785000Y2945000D03*
X9675000D03*
Y2710000D03*
X9705000Y3455000D03*
X9745000Y3885000D03*
X9615000Y4350000D03*
Y4580000D03*
X9710000Y4625000D03*
X9355000Y4320000D03*
X9815000Y4445000D03*
X9450000Y4760000D03*
X9405000Y4840000D03*
X9625000Y5375000D03*
X9520000Y5380000D03*
X9470000Y7330000D03*
X9320000D03*
X9355160Y7865000D03*
X9390000Y8120000D03*
X9650000Y7880000D03*
X9785000D03*
X9418660Y7865000D03*
X9600000Y8505000D03*
X9475000Y8565000D03*
X9565000Y9930000D03*
X9652000Y9906000D03*
X9779000D03*
X10287000Y127000D03*
X10033000D03*
X10290000Y810000D03*
X9890000Y1250000D03*
X10185000Y1400000D03*
X10140000Y1850000D03*
X10040000D03*
X9890000Y2600000D03*
X10075000Y2425000D03*
X9982500Y2512500D03*
X10140660Y3030660D03*
X10210000Y2705000D03*
X10070000Y2710000D03*
X10302080Y3152080D03*
X9980000Y3640000D03*
X9930000Y3265000D03*
X10230000Y3410000D03*
X10145000Y3485000D03*
X10150000Y3325000D03*
X10070000Y3265000D03*
X10305000Y3325000D03*
X10110000Y4385000D03*
X10260000Y4255000D03*
X10025000Y4395000D03*
X10177500Y4797500D03*
X9842500Y5132500D03*
X9930000Y4910000D03*
X10090000Y4730000D03*
X10027500Y5272500D03*
X10110000Y5350000D03*
X10270000Y5510000D03*
X10177500Y5442500D03*
X9940000Y5200000D03*
X10030000Y5350000D03*
X10220000Y6460000D03*
Y6396500D03*
X9980000Y6700000D03*
X10230000Y7200000D03*
X10100000Y7505000D03*
X9980000Y7440000D03*
X10290000Y8070000D03*
X10015000Y7835000D03*
X10170000Y8535000D03*
X10300000D03*
X10060000D03*
X9840000D03*
X9950000D03*
X9906000Y9906000D03*
X10033000D03*
X10160000D03*
X10287000D03*
X10795000Y127000D03*
X10668000D03*
X10541000D03*
X10555000Y1400000D03*
X10715000Y2095000D03*
X10560000Y1850000D03*
X10635000Y2065000D03*
X10460000Y1850000D03*
X10430000Y2205000D03*
X10335000Y2235000D03*
X10526090D03*
X10515000Y3110000D03*
X10380000Y2775000D03*
X10467500Y3167500D03*
X10405000Y3650000D03*
X10464950Y3610050D03*
X10480000Y3540000D03*
X10650000Y3510000D03*
Y3420000D03*
X10543940Y4085000D03*
X10792160Y4447160D03*
X10645000Y4310000D03*
X10510000Y4675000D03*
X10750000Y4935000D03*
X10580000Y5200000D03*
X10420000Y5680000D03*
X10665000Y5800000D03*
X10512500Y5747500D03*
X10645000Y5735000D03*
X10450000Y5790000D03*
X10710000Y5895000D03*
Y5985000D03*
X10370000Y5790000D03*
X10640000Y6330000D03*
X10810000Y7205000D03*
X10390000Y6850000D03*
X10565000Y7595000D03*
X10628500D03*
X10650000Y7350000D03*
X10775000D03*
X10525000D03*
X10440000Y7590000D03*
X10370000Y8055000D03*
X10605000D03*
X10810000Y8115000D03*
X10390000Y8530000D03*
X10790000Y8735000D03*
X10610000Y8530000D03*
X10500000D03*
X10790000Y9565000D03*
Y9365000D03*
X10680000Y9885000D03*
X10414000Y9906000D03*
X10541000D03*
X11303000Y127000D03*
X11176000D03*
X11049000D03*
X10922000D03*
X11330000Y635000D03*
X11205000Y2650000D03*
X11015000Y2595000D03*
X11155000Y3000000D03*
X11320000Y3155000D03*
X11295000Y3050000D03*
Y2945000D03*
X10935000Y2675000D03*
X11010300Y3589710D03*
X11270000Y3460000D03*
X11129980Y3274980D03*
X11127500Y3587500D03*
X11017500Y3707500D03*
X10840000Y3758840D03*
X10975000Y4650000D03*
X11320000Y4804520D03*
X11031740Y4716740D03*
X11157500Y4697500D03*
X10972500Y5607500D03*
X11235000Y5880000D03*
X11020000D03*
X10870000Y5885000D03*
X10845000Y6475000D03*
Y6395000D03*
Y6555000D03*
X10925000Y6850000D03*
X10940000Y7560000D03*
X11030000Y7590000D03*
X10930000Y8100000D03*
X11520000Y510000D03*
X11811000Y127000D03*
X11684000D03*
X11557000D03*
X11430000D03*
X11460000Y1930000D03*
X11647500Y2612500D03*
X11410000Y2340000D03*
X11590000Y2190000D03*
X11455000Y2645000D03*
X11707500Y2872500D03*
X11627500Y2792500D03*
X11787500Y2952500D03*
X11810000Y3400000D03*
X11615000Y3210000D03*
X11590000Y3805000D03*
X11500000Y3880000D03*
X11570890Y3725000D03*
X11760000Y3935000D03*
X11670000Y4010000D03*
X11591160Y4510000D03*
X11390000Y4225000D03*
X11790000Y4245000D03*
X11780000Y5375000D03*
X11380000Y5650000D03*
X11690000Y5370000D03*
X11440000Y5605000D03*
X11845000Y5205000D03*
X11780000Y5300000D03*
X11465000Y5790000D03*
X11750000Y5880000D03*
X11580000Y5810000D03*
X11805000Y8520000D03*
X11684000Y9906000D03*
X11811000D03*
X12319000Y127000D03*
X12192000D03*
X12065000D03*
X11938000D03*
X12204730Y3135270D03*
X12130000Y3090000D03*
X11865000Y3035000D03*
X11947500Y3112500D03*
X12085000Y3295000D03*
X12027500Y3192500D03*
X11860000Y3540000D03*
X12170000Y3365000D03*
X11880000Y4045000D03*
X12081850Y4053160D03*
X12045000Y3685000D03*
X11925000Y3710000D03*
X11905000Y4190000D03*
X12090000Y4210000D03*
X12355000Y4835000D03*
X12215000Y4935000D03*
X12240000Y4800000D03*
X11925000Y5130000D03*
X12115000Y4960000D03*
X11875000Y4770000D03*
X12325000Y4725000D03*
X12075000Y5540000D03*
X12245000Y5465000D03*
X12135000Y5405000D03*
X12110000Y5260000D03*
X11910000Y5305000D03*
X12135000Y6005000D03*
X11980000Y6170000D03*
X11940000Y5720000D03*
X11855000Y5795000D03*
X12020000Y8095000D03*
X12017500Y8467500D03*
X11938000Y9906000D03*
X12065000D03*
X12192000D03*
X12319000D03*
X12827000Y127000D03*
X12700000D03*
X12573000D03*
X12446000D03*
X12550000Y1430000D03*
X12430000Y1435000D03*
X12655000Y1430000D03*
Y1180000D03*
X12790000Y2205000D03*
X12505000Y3256320D03*
X12500000Y3430000D03*
Y3550000D03*
X12700000Y3345000D03*
Y3255000D03*
X12375000Y3435000D03*
X12522190Y3952190D03*
X12365000Y3745000D03*
X12735000Y4335000D03*
X12850000Y4265000D03*
X12485000Y4565000D03*
X12405000Y4645000D03*
X12585000Y4460000D03*
X12815000Y5080000D03*
X12435000Y4755000D03*
X12455000Y5300000D03*
X12515000Y6030000D03*
X12860000Y6165000D03*
X12385000Y5990000D03*
X12635000Y6025000D03*
X12820000Y6370000D03*
X12815000Y6480000D03*
X12775000Y6685000D03*
X12860000Y6305000D03*
X12852860Y6691500D03*
X12815000Y6620000D03*
X12860000Y6241500D03*
X12815000Y6556500D03*
X12855000Y6835000D03*
X12852860Y6755000D03*
X12530000Y9735000D03*
X12825000Y9635000D03*
Y9465000D03*
X12525000Y9570000D03*
X12785000Y9380000D03*
X12580000Y9617440D03*
X12775000Y9580000D03*
X12580000Y9680940D03*
X12775000Y9516500D03*
X12410000Y9300000D03*
X12446000Y9906000D03*
X12765000Y9900000D03*
X12829650Y9860000D03*
X12440000Y9780000D03*
X12600000Y9900000D03*
X12930000Y510000D03*
X13335000Y127000D03*
X13208000D03*
X13081000D03*
X12954000D03*
X13120000Y640000D03*
X13210000Y3235000D03*
X12895000Y3550000D03*
X13210000Y3865000D03*
X13255000Y5545000D03*
X13120000Y5370000D03*
X13025000Y5350000D03*
X13370000Y5595000D03*
X13190000Y6005000D03*
X13070000D03*
X12930000D03*
X12980000Y5935000D03*
X13043500D03*
X13260000Y6005000D03*
X13070010Y6500000D03*
X13350000Y6505000D03*
X13190000D03*
X12950000D03*
X13200000Y6255000D03*
X13270000D03*
X13275000Y6505000D03*
X13360000Y6255000D03*
X13355000Y6840000D03*
X13100000Y8620000D03*
X13295000Y8480000D03*
X13355000Y8585000D03*
Y8521500D03*
X13160000Y8660000D03*
Y8723500D03*
X13215000Y8775000D03*
X13140000Y8925000D03*
X13070000Y9110000D03*
X13260000Y9080000D03*
X13305000Y8780000D03*
X13365000Y8890000D03*
X13130000Y9220000D03*
X13205000Y8966500D03*
X13130000Y9156500D03*
X13365000Y8826500D03*
X13205000Y9030000D03*
X13070000Y9405000D03*
X13190000D03*
X13310000D03*
X13185000Y9270000D03*
X13110000Y9335000D03*
X13310000Y9905000D03*
X13190000D03*
X13070000D03*
X12955000Y9900000D03*
X12893150Y9860000D03*
X13843000Y127000D03*
X13716000D03*
X13589000D03*
X13462000D03*
X13525000Y3550000D03*
X13580000Y4220000D03*
X13485000Y4625000D03*
X13480000Y5590000D03*
X13700000Y5570000D03*
X13810000Y5585000D03*
X13390000Y6005000D03*
X13790000D03*
X13590000D03*
X13575000Y5740000D03*
X13470000Y6215000D03*
Y6285000D03*
X13750000Y6505000D03*
X13550000D03*
X13710000Y6280000D03*
X13790000Y6250000D03*
X13670000Y6755000D03*
X13790000D03*
X13490000Y6880000D03*
X13550000Y6755000D03*
X13415000Y8630000D03*
Y8945000D03*
X13430000Y9405000D03*
X13550000D03*
X13670000D03*
X13790000Y9905000D03*
X13670000D03*
X13550000D03*
X13430000D03*
X14360000Y510000D03*
X14351000Y127000D03*
X14224000D03*
X14097000D03*
X13970000D03*
X14170000Y640000D03*
X14290000Y1930000D03*
X13915000Y2565000D03*
X14265000Y2720000D03*
X14130000Y3930000D03*
X14265000Y4530000D03*
X14285000Y4295000D03*
Y4230000D03*
X13955000Y4530000D03*
X14285000Y4392190D03*
X13890000Y4930000D03*
X14020000Y4815000D03*
Y4715000D03*
X14100000Y5035000D03*
X13895000Y5320000D03*
X14140000Y5580000D03*
X14110000Y6005000D03*
X13990000D03*
X14230000D03*
X14350000D03*
X14230000Y6505000D03*
X14110000D03*
X13950000D03*
X13990000Y6250000D03*
X14305000D03*
X13895000Y6280000D03*
X14200000Y6250000D03*
X14095000D03*
X14050000Y6910000D03*
X14315000Y6755000D03*
X14030000D03*
X14070000Y6825000D03*
X14290000Y6945000D03*
X14040000Y7385000D03*
Y7245000D03*
X14285000Y7335000D03*
X14160000Y8520000D03*
X14215000Y9207070D03*
Y9143570D03*
Y9065000D03*
X14050000Y8900000D03*
X14030000Y9405000D03*
X14150000D03*
X14270000D03*
X14340000Y9280000D03*
X14170000Y9675000D03*
X14215000Y9285000D03*
X14355000Y9610000D03*
X14313660Y9675000D03*
X14250160D03*
X14270000Y9905000D03*
X14150000D03*
X14030000D03*
X13910000D03*
X14859000Y127000D03*
X14478000D03*
X14605000D03*
X14732000D03*
X14795000Y1420000D03*
X14505000Y1830000D03*
X14635000Y2080000D03*
X14425000Y2180000D03*
X14840000Y2995000D03*
X14410000Y3005000D03*
X14770000Y3550000D03*
X14665000Y3545000D03*
X14660000Y3655000D03*
X14580000Y3695000D03*
X14820000Y4075000D03*
X14720000D03*
X14580000Y3810000D03*
X14735000Y4435000D03*
X14843290Y4440280D03*
X14570000Y4455000D03*
X14635000Y4610000D03*
X14780000Y4870000D03*
X14805000Y4990000D03*
X14695000Y4740000D03*
X14570000Y5030000D03*
X14730000Y4940000D03*
X14710000Y5500000D03*
X14715000Y5320000D03*
X14490000Y5500000D03*
X14600000Y5530000D03*
X14570000Y5860000D03*
X14457260Y5862050D03*
X14685000Y5860000D03*
X14570000Y5975000D03*
X14765000D03*
X14870000Y6505000D03*
X14390000D03*
X14750000Y6265000D03*
X14640000Y6245000D03*
X14520000Y6250000D03*
X14410000D03*
X14830000Y6265000D03*
X14390000Y6860000D03*
X14870000Y6725000D03*
X14515000Y7190000D03*
X14715000Y7315000D03*
X14690000Y9050000D03*
X14484530Y9280000D03*
X14540000Y9340000D03*
X14603500D03*
X14776030Y9345000D03*
X14839530D03*
X14390000Y9410000D03*
X14870000D03*
X14630000D03*
X14510000D03*
X14630000Y9610000D03*
X14510000D03*
X14750000Y9410000D03*
X14815000Y9620000D03*
X14401500Y9675000D03*
X14541500D03*
X14745000D03*
X14465000D03*
X14605000D03*
X14681500D03*
X14421030Y9280000D03*
X14750000Y9905000D03*
X14870000D03*
X14630000D03*
X14510000D03*
X14390000D03*
X14986000Y127000D03*
X15367000D03*
X15113000D03*
X15240000D03*
X15330000Y1260000D03*
X14990000Y3090000D03*
X15185000Y3220000D03*
Y3315000D03*
X14910000Y3355000D03*
X14920000Y3710000D03*
X14940000Y5170000D03*
X15235000Y4970000D03*
X15250000Y5110000D03*
X15235000Y4906500D03*
X14900000Y4870000D03*
X15090000Y5700000D03*
X14955000Y5315000D03*
X15100000Y5980000D03*
X14960000Y5975000D03*
X14910000Y6265000D03*
X15015000Y6850000D03*
Y6925000D03*
X15100000Y6725000D03*
X14985000D03*
X14966500Y9320000D03*
X15030000D03*
X15075000Y9385000D03*
X14900000Y9275000D03*
X15130000Y9710000D03*
X15113000Y9906000D03*
X14986000D03*
X15760000Y510000D03*
X15875000Y127000D03*
X15494000D03*
X15748000D03*
X15621000D03*
X15475000Y1320000D03*
Y1420000D03*
Y1170000D03*
X15600000Y1930000D03*
X15890000Y3525000D03*
X15510000Y3650000D03*
X15795000Y3640000D03*
X15610000Y3645000D03*
X15790000Y3850000D03*
X15420000Y4670000D03*
X15415000Y4290000D03*
X15600000Y4375000D03*
Y4480000D03*
X15490000Y4940000D03*
X15780000Y5280000D03*
X15655000Y5700000D03*
X15770000Y5520000D03*
X15870000Y5825000D03*
X15655000Y5810000D03*
X15435000Y7125000D03*
X15621000Y9906000D03*
X15748000D03*
X15494000D03*
X16383000Y508000D03*
X16002000Y127000D03*
X16129000D03*
X16383000Y381000D03*
Y254000D03*
X16256000Y127000D03*
X16383000D03*
X15960000Y640000D03*
X16383000Y635000D03*
Y762000D03*
Y1016000D03*
Y889000D03*
Y1143000D03*
Y1270000D03*
Y1397000D03*
Y1524000D03*
Y1905000D03*
Y1778000D03*
Y1651000D03*
Y2032000D03*
Y2540000D03*
Y2286000D03*
Y2413000D03*
Y2159000D03*
Y2921000D03*
Y2667000D03*
Y3048000D03*
Y2794000D03*
X16345000Y4180000D03*
X16383000Y4064000D03*
Y4445000D03*
Y4318000D03*
X16110000Y4995000D03*
X16330010Y4955010D03*
X16383000Y4826000D03*
X15930000Y5290000D03*
X16383000Y5461000D03*
Y5334000D03*
Y5588000D03*
X16110000Y5855000D03*
X16330000Y5885000D03*
X16383000Y5969000D03*
Y6604000D03*
Y6731000D03*
Y8382000D03*
Y8509000D03*
Y8636000D03*
Y9017000D03*
Y9144000D03*
Y8763000D03*
Y8890000D03*
Y9271000D03*
Y9906000D03*
X16435000Y3110000D03*
Y3748410D03*
G54D12*
X462000Y1911000D03*
Y2411000D03*
G54D21*
X5674000Y340000D03*
X6182000D03*
X5928000D03*
X6690000D03*
X6436000D03*
X7788000D03*
X7534000D03*
X8296000D03*
X8042000D03*
X8334000Y3760000D03*
X8550000Y340000D03*
X8842000Y3760000D03*
X8588000D03*
X9350000D03*
X9096000D03*
X9648000Y340000D03*
X9394000D03*
X10156000D03*
X9902000D03*
X10410000D03*
X12331000Y5700000D03*
G54D30*
X12965000Y4680000D03*
X13215000Y4930000D03*
G54D22*
X5420000Y340000D03*
X7280000D03*
X8080000Y3760000D03*
X9140000Y340000D03*
X12585000Y5700000D03*
G54D13*
X340000Y3120000D03*
Y3374000D03*
G54D31*
X12855790Y5289210D03*
X12605790Y5039210D03*
X12785390Y4859610D03*
X13035390Y5109610D03*
G54D32*
G01X462000Y2275090D02*
Y2411000D01*
G01D02*
Y2546910D01*
G01X326090Y2411000D02*
X462000D01*
G01D02*
X597910D01*
G01X340000Y3316190D02*
Y3374000D01*
G01D02*
Y3431810D01*
G01X282190Y3374000D02*
X340000D01*
G01D02*
X397810D01*
G01X587190Y8680000D02*
X660000D01*
G01X352990Y8727200D02*
Y8880000D01*
G01D02*
Y9032800D01*
G01X200190Y8880000D02*
X352990D01*
G01D02*
X505790D01*
G01X1009990Y8457180D02*
Y8529990D01*
G01X937180D02*
X1009990D01*
G01D02*
X1082800D01*
G01X660000Y8680000D02*
X732810D01*
G01X1667010Y8727200D02*
Y8880000D01*
G01D02*
Y9032800D01*
G01X1514210Y8880000D02*
X1667010D01*
G01D02*
X1819810D01*
G01X2142990Y8727200D02*
Y8880000D01*
G01D02*
Y9032800D01*
G01X1990190Y8880000D02*
X2142990D01*
G01D02*
X2295790D01*
G01X2377190Y8680000D02*
X2450000D01*
G01D02*
X2522810D01*
G01X2799990Y8457180D02*
Y8529990D01*
G01X2727180D02*
X2799990D01*
G01D02*
X2872800D01*
G01X3457010Y8727200D02*
Y8880000D01*
G01D02*
Y9032800D01*
G01X3304210Y8880000D02*
X3457010D01*
G01D02*
X3609810D01*
G01X3931550Y9145910D02*
Y9261500D01*
G01D02*
Y9377090D01*
G01X3815960Y9261500D02*
X3931550D01*
G01D02*
X4047140D01*
G01X5544450Y9145910D02*
Y9261500D01*
G01D02*
Y9377090D01*
G01X5428860Y9261500D02*
X5544450D01*
G01D02*
X5660040D01*
G01X5928000Y214250D02*
Y340000D01*
G01D02*
Y465750D01*
G01X5827650Y340000D02*
X5928000D01*
G01D02*
X6028350D01*
G01X6134250Y3728000D02*
X6260000D01*
G01X5963990Y8811190D02*
Y8993990D01*
G01D02*
Y9176790D01*
G01X5871180Y8993990D02*
X5963990D01*
G01D02*
X6056800D01*
G01X5963990Y9452200D02*
Y9585000D01*
G01D02*
Y9717800D01*
G01X5871180Y9585000D02*
X5963990D01*
G01D02*
X6056800D01*
G01X6260000Y3627650D02*
Y3728000D01*
G01X6610000Y3627650D02*
Y3728000D01*
G01X6260000D02*
Y3828350D01*
G01Y3728000D02*
X6385750D01*
G01X6610000D02*
Y3828350D01*
G01X6484250Y3728000D02*
X6610000D01*
G01D02*
X6735750D01*
G01X7687650Y340000D02*
X7788000D01*
G01X7414000Y8811190D02*
Y8993990D01*
G01D02*
Y9176790D01*
G01X7321190Y8993990D02*
X7414000D01*
G01D02*
X7506810D01*
G01X7414000Y9452200D02*
Y9585000D01*
G01D02*
Y9717800D01*
G01X7321190Y9585000D02*
X7414000D01*
G01D02*
X7506810D01*
G01X7788000Y214250D02*
Y340000D01*
G01D02*
Y465750D01*
G01Y340000D02*
X7888350D01*
G01X8588000Y3634250D02*
Y3760000D01*
G01D02*
Y3885750D01*
G01X8487650Y3760000D02*
X8588000D01*
G01D02*
X8688350D01*
G01X9648000Y214250D02*
Y340000D01*
G01D02*
Y465750D01*
G01X9547650Y340000D02*
X9648000D01*
G01D02*
X9748350D01*
G01X11084000Y463650D02*
Y564000D01*
G01D02*
Y664350D01*
G01X10958250Y564000D02*
X11084000D01*
G01D02*
X11209750D01*
G01X12331000Y5574250D02*
Y5700000D01*
G01D02*
Y5825750D01*
G01X12230650Y5700000D02*
X12331000D01*
G01D02*
X12431350D01*
G01X12534830Y5110170D02*
X12605790Y5039210D01*
G01D02*
X12676750Y4968250D01*
G01X12516870Y4950290D02*
X12605790Y5039210D01*
G01D02*
X12694710Y5128130D01*
G01X12784830Y5360170D02*
X12855790Y5289210D01*
G01X12766870Y5200290D02*
X12855790Y5289210D01*
G01X13244250Y564000D02*
X13370000D01*
G01X12855790Y5289210D02*
X12926750Y5218250D01*
G01X12855790Y5289210D02*
X12944710Y5378130D01*
G01X13370000Y463650D02*
Y564000D01*
G01D02*
Y664350D01*
G01Y564000D02*
X13495750D01*
G01X13788250D02*
X13914000D01*
G01Y463650D02*
Y564000D01*
G01D02*
Y664350D01*
G01Y564000D02*
X14039750D01*
G01X16200000Y463650D02*
Y564000D01*
G01D02*
Y664350D01*
G01X16074250Y564000D02*
X16200000D01*
G01D02*
X16325750D01*
G54D23*
X6260000Y3220000D03*
X6610000D03*
X11084000Y2342000D03*
X13370000D03*
X13914000D03*
X15270000Y4100000D03*
X16200000Y2342000D03*
G54D14*
X630000Y4310000D03*
Y5460000D03*
Y6600000D03*
X1330000Y4310000D03*
Y5460000D03*
Y6600000D03*
G54D33*
G01X153290Y9697890D02*
X159850Y9703730D01*
X163790Y9710550D01*
X165100Y9719310D01*
X162480Y9728070D01*
X157230Y9734890D01*
X148040Y9739760D01*
X137540Y9740730D01*
X127040Y9738780D01*
X120480Y9733910D01*
X115230Y9727100D01*
X113920Y9720280D01*
X115230Y9713470D01*
X120480Y9704710D01*
X86360Y9707630D01*
Y9733910D01*
G54D24*
X6260000Y3728000D03*
Y3474000D03*
X6610000Y3728000D03*
Y3474000D03*
X11084000Y564000D03*
Y818000D03*
Y1072000D03*
Y1326000D03*
Y1580000D03*
Y1834000D03*
Y2088000D03*
X13370000Y564000D03*
Y1072000D03*
Y818000D03*
Y1580000D03*
Y1326000D03*
Y2088000D03*
Y1834000D03*
X13914000Y564000D03*
Y818000D03*
Y1072000D03*
Y1326000D03*
Y1580000D03*
Y1834000D03*
Y2088000D03*
X15270000Y3846000D03*
X16200000Y564000D03*
Y1072000D03*
Y818000D03*
Y1580000D03*
Y1326000D03*
Y2088000D03*
Y1834000D03*
G54D15*
X609990Y8529990D03*
X660000Y8680000D03*
X1209990Y8529990D03*
X1009990D03*
X809990D03*
X909990Y8680000D03*
X1109990D03*
X1410010Y8529990D03*
X1360000Y8680000D03*
X2599990Y8529990D03*
X2399990D03*
X2450000Y8680000D03*
X2699990D03*
X3200010Y8529990D03*
X2999990D03*
X2799990D03*
X2899990Y8680000D03*
X3150000D03*
G54D16*
X352990Y8880000D03*
X1667010D03*
X2142990D03*
X3457010D03*
G54D25*
X5963990Y8993990D03*
X7414000D03*
G54D26*
X5963990Y9585000D03*
X7414000D03*
G54D17*
X3120000Y745010D03*
X3175010Y800000D03*
X3065000D03*
Y689990D03*
X3175010D03*
X3120000Y2035010D03*
X3175010Y2090000D03*
X3065000D03*
Y1979990D03*
X3175010D03*
X3120000Y3235010D03*
X3175010Y3290000D03*
X3065000D03*
Y3179990D03*
X3175010D03*
G54D27*
X8550000Y5310000D03*
G54D18*
X4128400Y6912000D03*
X4382400D03*
X5093600D03*
X5347600D03*
G54D19*
X3931550Y9261500D03*
X5544450D03*
G54D28*
X8804000Y5310000D03*
X9058000D03*
G54D29*
X11280000Y6305000D03*
Y9605000D03*
X16080000Y6305000D03*
Y9605000D03*
M02*
