G04 ================== begin FILE IDENTIFICATION RECORD ==================*
G04 Layout Name:  rpi-cm4-carrierboard-v1_00-0a.brd*
G04 Film Name:    rpi-cm4-carrierboard-v1_00-0a-Silkscreen_bot*
G04 File Format:  Gerber RS274X*
G04 File Origin:  Cadence Allegro 22.1-S001*
G04 Origin Date:  Sun Dec 17 10:29:58 2023*
G04 *
G04 Layer:  REF DES/SILKSCREEN_BOTTOM*
G04 Layer:  PACKAGE GEOMETRY/SILKSCREEN_BOTTOM*
G04 Layer:  BOARD GEOMETRY/SILKSCREEN_BOTTOM*
G04 *
G04 Offset:    (0.0000 0.0000)*
G04 Mirror:    No*
G04 Mode:      Positive*
G04 Rotation:  0*
G04 FullContactRelief:  No*
G04 UndefLineWidth:     0.0000*
G04 ================== end FILE IDENTIFICATION RECORD ====================*
%FSLAX35Y35*MOMM*%
%IR0*IPPOS*OFA0.00000B0.00000*MIA0B0*SFA1.00000B1.00000*%
%ADD10C,.2032*%
%ADD11C,.127*%
%ADD12C,.3175*%
G75*
%LPD*%
G75*
G54D10*
G01X571600Y7465000D02*
G03I-101600J0D01*
G01X1246600Y1415000D02*
G03I-101600J0D01*
G01X1244600Y7112000D02*
G03I-101600J0D01*
G01X1371600Y8890000D02*
G03I-101600J0D01*
G01X2126600Y1025000D02*
G03I-101600J0D01*
G01X2260600Y2032000D02*
G03I-101600J0D01*
G01Y5842000D02*
G03I-101600J0D01*
G01X2070100Y7302500D02*
G03I-101600J0D01*
G01X2768600Y2667000D02*
G03I-101600J0D01*
G01X2387600Y7302500D02*
G03I-101600J0D01*
G01Y8128000D02*
G03I-101600J0D01*
G01X3276600Y4445000D02*
G03I-101600J0D01*
G01X3149600Y8890000D02*
G03I-101600J0D01*
G01X3771600Y1285000D02*
G03I-101600J0D01*
G01X3784600Y2667000D02*
G03I-101600J0D01*
G01Y3810000D02*
G03I-101600J0D01*
G01X4266600Y3990000D02*
G03I-101600J0D01*
G01X4246600Y5210000D02*
G03I-101600J0D01*
G01X4031600Y4810000D02*
G03I-101600J0D01*
G01X3911600Y5461000D02*
G03I-101600J0D01*
G01X4800600Y2540000D02*
G03I-101600J0D01*
G01X4673600Y5207000D02*
G03I-101600J0D01*
G01X4546600Y5588000D02*
G03I-101600J0D01*
G01X4921600Y5460000D02*
G03I-101600J0D01*
G01X4446600Y5880000D02*
G03I-101600J0D01*
G01X5631600Y5050000D02*
G03I-101600J0D01*
G01X5943600Y5334000D02*
G03I-101600J0D01*
G01X6705600Y6096000D02*
G03I-101600J0D01*
G01X6832600Y8128000D02*
G03I-101600J0D01*
G01X6971600Y5130000D02*
G03I-101600J0D01*
G01X8102600Y5207000D02*
G03I-101600J0D01*
G01X7971600Y7115000D02*
G03I-101600J0D01*
G01X8231600Y7375000D02*
G03I-101600J0D01*
G01X8941600Y3410000D02*
G03I-101600J0D01*
G01X9236600Y3400000D02*
G03I-101600J0D01*
G01X9146600Y4215000D02*
G03I-101600J0D01*
G01X9581600Y3210000D02*
G03I-101600J0D01*
G01X9880600Y4889500D02*
G03I-101600J0D01*
G01X9976600Y5430000D02*
G03I-101600J0D01*
G01X9821600Y7645000D02*
G03I-101600J0D01*
G01X9753600Y8128000D02*
G03I-101600J0D01*
G01Y8636000D02*
G03I-101600J0D01*
G01X10071100Y3111500D02*
G03I-101600J0D01*
G01X10291600Y5805000D02*
G03I-101600J0D01*
G01X10748810Y2408690D02*
Y2330000D01*
G01X10771190Y2408690D02*
X10726420D01*
G01X10689590Y2330000D02*
Y2408690D01*
X10666230D01*
X10658450Y2404750D01*
X10652610Y2395580D01*
X10650660Y2385080D01*
X10652610Y2374590D01*
X10657470Y2366720D01*
X10666230Y2362790D01*
X10689590D01*
G01X10609940D02*
X10603120Y2371970D01*
X10597280Y2377210D01*
X10589500Y2379840D01*
X10582690Y2377210D01*
X10577820Y2371970D01*
X10573930Y2364100D01*
X10572950Y2354920D01*
X10573930Y2347050D01*
X10577820Y2339180D01*
X10583660Y2332620D01*
X10590470Y2330000D01*
X10598260Y2332620D01*
X10605070Y2340490D01*
X10608960Y2352300D01*
X10609940Y2365410D01*
X10607990Y2382460D01*
X10605070Y2391640D01*
X10600200Y2400820D01*
X10593390Y2407380D01*
X10586580Y2408690D01*
X10579770Y2406070D01*
X10574900Y2399510D01*
G01X10769600Y2540000D02*
G03I-101600J0D01*
G01X10846600Y3230000D02*
G03I-101600J0D01*
G01X10636600Y5950000D02*
G03I-101600J0D01*
G01X11277600Y5334000D02*
G03I-101600J0D01*
G01X11251600Y5765000D02*
G03I-101600J0D01*
G01X11996600Y5930000D02*
G03I-101600J0D01*
G01X12039600Y5461000D02*
G03I-101600J0D01*
G01X13119100Y7112000D02*
G03I-101600J0D01*
G01X13361600Y7110000D02*
G03I-101600J0D01*
G01X13817600Y4953000D02*
G03I-101600J0D01*
G01Y5334000D02*
G03I-101600J0D01*
G01X13876600Y7110000D02*
G03I-101600J0D01*
G01X13616600D02*
G03I-101600J0D01*
G01X14325600Y2921000D02*
G03I-101600J0D01*
G01X14306600Y3445000D02*
G03I-101600J0D01*
G01X14325600Y5334000D02*
G03I-101600J0D01*
G01X14451600Y7110000D02*
G03I-101600J0D01*
G01X14579600Y4699000D02*
G03I-101600J0D01*
G01X14960600Y7112000D02*
G03I-101600J0D01*
G01X14579600Y7366000D02*
G03I-101600J0D01*
G01X15214600Y2921000D02*
G03I-101600J0D01*
G01X15087600Y8890000D02*
G03I-101600J0D01*
G54D11*
G01X564680Y7338500D02*
Y7275000D01*
G01X580260Y7338500D02*
X549100D01*
G01X522350Y7275000D02*
Y7338500D01*
X506090D01*
X500670Y7335320D01*
X496610Y7327920D01*
X495250Y7319450D01*
X496610Y7310980D01*
X499990Y7304630D01*
X506090Y7301460D01*
X522350D01*
G01X467820Y7287700D02*
X463760Y7280290D01*
X458340Y7276060D01*
X452240Y7275000D01*
X446820Y7276060D01*
X441400Y7281350D01*
X438020Y7287700D01*
X437340Y7294050D01*
X438700Y7301460D01*
X443440Y7306750D01*
X448180Y7308870D01*
X454270D01*
G01X448180D02*
X444110Y7312040D01*
X440730Y7317330D01*
X439370Y7323680D01*
X440730Y7330030D01*
X444110Y7335320D01*
X450210Y7338500D01*
X456310Y7337440D01*
X462400Y7333210D01*
G01X409910Y7301460D02*
X405170Y7308870D01*
X401100Y7313100D01*
X395690Y7315220D01*
X390940Y7313100D01*
X387560Y7308870D01*
X384850Y7302520D01*
X384170Y7295110D01*
X384850Y7288760D01*
X387560Y7282410D01*
X391620Y7277120D01*
X396360Y7275000D01*
X401780Y7277120D01*
X406520Y7283460D01*
X409230Y7292990D01*
X409910Y7303570D01*
X408560Y7317330D01*
X406520Y7324740D01*
X403140Y7332150D01*
X398390Y7337440D01*
X393650Y7338500D01*
X388910Y7336380D01*
X385520Y7331090D01*
G01X1229680Y1288500D02*
Y1225000D01*
G01X1245260Y1288500D02*
X1214100D01*
G01X1187350Y1225000D02*
Y1288500D01*
X1171090D01*
X1165670Y1285320D01*
X1161610Y1277920D01*
X1160250Y1269450D01*
X1161610Y1260980D01*
X1164990Y1254630D01*
X1171090Y1251460D01*
X1187350D01*
G01X1117920Y1225000D02*
Y1288500D01*
X1126050Y1275800D01*
G01Y1225000D02*
X1109790D01*
G01X1073560Y1232410D02*
X1068810Y1227120D01*
X1063390Y1225000D01*
X1057980Y1227120D01*
X1053230Y1233460D01*
X1049850Y1242990D01*
X1048490Y1252520D01*
Y1264160D01*
X1049850Y1273680D01*
X1053230Y1282150D01*
X1057300Y1286380D01*
X1062040Y1288500D01*
X1067460Y1286380D01*
X1071520Y1282150D01*
X1074230Y1275800D01*
X1075590Y1267330D01*
X1074230Y1259930D01*
X1070850Y1252520D01*
X1066780Y1248280D01*
X1062040Y1247220D01*
X1056620Y1249340D01*
X1052560Y1254630D01*
X1048490Y1264160D01*
G01X1229680Y6983500D02*
Y6920000D01*
G01X1245260Y6983500D02*
X1214100D01*
G01X1187350Y6920000D02*
Y6983500D01*
X1171090D01*
X1165670Y6980320D01*
X1161610Y6972920D01*
X1160250Y6964450D01*
X1161610Y6955980D01*
X1164990Y6949630D01*
X1171090Y6946460D01*
X1187350D01*
G01X1132820Y6932700D02*
X1128760Y6925290D01*
X1123340Y6921060D01*
X1117240Y6920000D01*
X1111820Y6921060D01*
X1106400Y6926350D01*
X1103020Y6932700D01*
X1102340Y6939050D01*
X1103700Y6946460D01*
X1108440Y6951750D01*
X1113180Y6953870D01*
X1119270D01*
G01X1113180D02*
X1109110Y6957040D01*
X1105730Y6962330D01*
X1104370Y6968680D01*
X1105730Y6975030D01*
X1109110Y6980320D01*
X1115210Y6983500D01*
X1121310Y6982440D01*
X1127400Y6978210D01*
G01X1053910Y6920000D02*
Y6983500D01*
X1078970Y6937990D01*
X1045110D01*
G01X1354680Y8763500D02*
Y8700000D01*
G01X1370260Y8763500D02*
X1339100D01*
G01X1312350Y8700000D02*
Y8763500D01*
X1296090D01*
X1290670Y8760320D01*
X1286610Y8752920D01*
X1285250Y8744450D01*
X1286610Y8735980D01*
X1289990Y8729630D01*
X1296090Y8726460D01*
X1312350D01*
G01X1257820Y8712700D02*
X1253760Y8705290D01*
X1248340Y8701060D01*
X1242240Y8700000D01*
X1236820Y8701060D01*
X1231400Y8706350D01*
X1228020Y8712700D01*
X1227340Y8719050D01*
X1228700Y8726460D01*
X1233440Y8731750D01*
X1238180Y8733870D01*
X1244270D01*
G01X1238180D02*
X1234110Y8737040D01*
X1230730Y8742330D01*
X1229370Y8748680D01*
X1230730Y8755030D01*
X1234110Y8760320D01*
X1240210Y8763500D01*
X1246310Y8762440D01*
X1252400Y8758210D01*
G01X1198560Y8707410D02*
X1193810Y8702120D01*
X1188390Y8700000D01*
X1182980Y8702120D01*
X1178230Y8708460D01*
X1174850Y8717990D01*
X1173490Y8727520D01*
Y8739160D01*
X1174850Y8748680D01*
X1178230Y8757150D01*
X1182300Y8761380D01*
X1187040Y8763500D01*
X1192460Y8761380D01*
X1196520Y8757150D01*
X1199230Y8750800D01*
X1200590Y8742330D01*
X1199230Y8734930D01*
X1195850Y8727520D01*
X1191780Y8723280D01*
X1187040Y8722220D01*
X1181620Y8724340D01*
X1177560Y8729630D01*
X1173490Y8739160D01*
G01X2104680Y903500D02*
Y840000D01*
G01X2120260Y903500D02*
X2089100D01*
G01X2062350Y840000D02*
Y903500D01*
X2046090D01*
X2040670Y900320D01*
X2036610Y892920D01*
X2035250Y884450D01*
X2036610Y875980D01*
X2039990Y869630D01*
X2046090Y866460D01*
X2062350D01*
G01X2005790Y892920D02*
X2001730Y899270D01*
X1996980Y902440D01*
X1991570Y903500D01*
X1984790Y901380D01*
X1980050Y896090D01*
X1978700Y889740D01*
X1979370Y883390D01*
X1982080Y878100D01*
X1995630Y867520D01*
X2001730Y860110D01*
X2005790Y849520D01*
X2007140Y840000D01*
X1978700D01*
G01X1937040Y903500D02*
X1942460Y901380D01*
X1946520Y896090D01*
X1949230Y889740D01*
X1951260Y881270D01*
X1951940Y871750D01*
X1951260Y862220D01*
X1949230Y853760D01*
X1946520Y847410D01*
X1942460Y842120D01*
X1937040Y840000D01*
X1931620Y842120D01*
X1927560Y847410D01*
X1924850Y853760D01*
X1922820Y862220D01*
X1922140Y871750D01*
X1922820Y881270D01*
X1924850Y889740D01*
X1927560Y896090D01*
X1931620Y901380D01*
X1937040Y903500D01*
G01X2234680Y1903500D02*
Y1840000D01*
G01X2250260Y1903500D02*
X2219100D01*
G01X2192350Y1840000D02*
Y1903500D01*
X2176090D01*
X2170670Y1900320D01*
X2166610Y1892920D01*
X2165250Y1884450D01*
X2166610Y1875980D01*
X2169990Y1869630D01*
X2176090Y1866460D01*
X2192350D01*
G01X2135790D02*
X2131050Y1873870D01*
X2126980Y1878100D01*
X2121570Y1880220D01*
X2116820Y1878100D01*
X2113440Y1873870D01*
X2110730Y1867520D01*
X2110050Y1860110D01*
X2110730Y1853760D01*
X2113440Y1847410D01*
X2117500Y1842120D01*
X2122240Y1840000D01*
X2127660Y1842120D01*
X2132400Y1848460D01*
X2135110Y1857990D01*
X2135790Y1868570D01*
X2134440Y1882330D01*
X2132400Y1889740D01*
X2129020Y1897150D01*
X2124270Y1902440D01*
X2119530Y1903500D01*
X2114790Y1901380D01*
X2111400Y1896090D01*
G01X2079910Y1892920D02*
X2075850Y1899270D01*
X2071100Y1902440D01*
X2065690Y1903500D01*
X2058910Y1901380D01*
X2054170Y1896090D01*
X2052820Y1889740D01*
X2053490Y1883390D01*
X2056200Y1878100D01*
X2069750Y1867520D01*
X2075850Y1860110D01*
X2079910Y1849520D01*
X2081260Y1840000D01*
X2052820D01*
G01X2239680Y5708500D02*
Y5645000D01*
G01X2255260Y5708500D02*
X2224100D01*
G01X2197350Y5645000D02*
Y5708500D01*
X2181090D01*
X2175670Y5705320D01*
X2171610Y5697920D01*
X2170250Y5689450D01*
X2171610Y5680980D01*
X2174990Y5674630D01*
X2181090Y5671460D01*
X2197350D01*
G01X2140790Y5697920D02*
X2136730Y5704270D01*
X2131980Y5707440D01*
X2126570Y5708500D01*
X2119790Y5706380D01*
X2115050Y5701090D01*
X2113700Y5694740D01*
X2114370Y5688390D01*
X2117080Y5683100D01*
X2130630Y5672520D01*
X2136730Y5665110D01*
X2140790Y5654520D01*
X2142140Y5645000D01*
X2113700D01*
G01X2084910Y5671460D02*
X2080170Y5678870D01*
X2076100Y5683100D01*
X2070690Y5685220D01*
X2065940Y5683100D01*
X2062560Y5678870D01*
X2059850Y5672520D01*
X2059170Y5665110D01*
X2059850Y5658760D01*
X2062560Y5652410D01*
X2066620Y5647120D01*
X2071360Y5645000D01*
X2076780Y5647120D01*
X2081520Y5653460D01*
X2084230Y5662990D01*
X2084910Y5673570D01*
X2083560Y5687330D01*
X2081520Y5694740D01*
X2078140Y5702150D01*
X2073390Y5707440D01*
X2068650Y5708500D01*
X2063910Y5706380D01*
X2060520Y5701090D01*
G01X2049680Y7178500D02*
Y7115000D01*
G01X2065260Y7178500D02*
X2034100D01*
G01X2007350Y7115000D02*
Y7178500D01*
X1991090D01*
X1985670Y7175320D01*
X1981610Y7167920D01*
X1980250Y7159450D01*
X1981610Y7150980D01*
X1984990Y7144630D01*
X1991090Y7141460D01*
X2007350D01*
G01X1952820Y7127700D02*
X1948760Y7120290D01*
X1943340Y7116060D01*
X1937240Y7115000D01*
X1931820Y7116060D01*
X1926400Y7121350D01*
X1923020Y7127700D01*
X1922340Y7134050D01*
X1923700Y7141460D01*
X1928440Y7146750D01*
X1933180Y7148870D01*
X1939270D01*
G01X1933180D02*
X1929110Y7152040D01*
X1925730Y7157330D01*
X1924370Y7163680D01*
X1925730Y7170030D01*
X1929110Y7175320D01*
X1935210Y7178500D01*
X1941310Y7177440D01*
X1947400Y7173210D01*
G01X1883390Y7115000D02*
X1882040Y7128760D01*
X1880010Y7140400D01*
X1877300Y7150980D01*
X1873910Y7162620D01*
X1868490Y7178500D01*
X1895590D01*
G01X2754680Y2538500D02*
Y2475000D01*
G01X2770260Y2538500D02*
X2739100D01*
G01X2712350Y2475000D02*
Y2538500D01*
X2696090D01*
X2690670Y2535320D01*
X2686610Y2527920D01*
X2685250Y2519450D01*
X2686610Y2510980D01*
X2689990Y2504630D01*
X2696090Y2501460D01*
X2712350D01*
G01X2655790D02*
X2651050Y2508870D01*
X2646980Y2513100D01*
X2641570Y2515220D01*
X2636820Y2513100D01*
X2633440Y2508870D01*
X2630730Y2502520D01*
X2630050Y2495110D01*
X2630730Y2488760D01*
X2633440Y2482410D01*
X2637500Y2477120D01*
X2642240Y2475000D01*
X2647660Y2477120D01*
X2652400Y2483460D01*
X2655110Y2492990D01*
X2655790Y2503570D01*
X2654440Y2517330D01*
X2652400Y2524740D01*
X2649020Y2532150D01*
X2644270Y2537440D01*
X2639530Y2538500D01*
X2634790Y2536380D01*
X2631400Y2531090D01*
G01X2578910Y2475000D02*
Y2538500D01*
X2603970Y2492990D01*
X2570110D01*
G01X2369680Y7178500D02*
Y7115000D01*
G01X2385260Y7178500D02*
X2354100D01*
G01X2327350Y7115000D02*
Y7178500D01*
X2311090D01*
X2305670Y7175320D01*
X2301610Y7167920D01*
X2300250Y7159450D01*
X2301610Y7150980D01*
X2304990Y7144630D01*
X2311090Y7141460D01*
X2327350D01*
G01X2272820Y7127700D02*
X2268760Y7120290D01*
X2263340Y7116060D01*
X2257240Y7115000D01*
X2251820Y7116060D01*
X2246400Y7121350D01*
X2243020Y7127700D01*
X2242340Y7134050D01*
X2243700Y7141460D01*
X2248440Y7146750D01*
X2253180Y7148870D01*
X2259270D01*
G01X2253180D02*
X2249110Y7152040D01*
X2245730Y7157330D01*
X2244370Y7163680D01*
X2245730Y7170030D01*
X2249110Y7175320D01*
X2255210Y7178500D01*
X2261310Y7177440D01*
X2267400Y7173210D01*
G01X2216940Y7124520D02*
X2212880Y7119230D01*
X2208140Y7116060D01*
X2202040Y7115000D01*
X2195940Y7117120D01*
X2191200Y7121350D01*
X2187820Y7128760D01*
X2187140Y7137220D01*
X2188490Y7145690D01*
X2191880Y7150980D01*
X2196620Y7155220D01*
X2201360Y7156270D01*
X2206100Y7155220D01*
X2212200Y7150980D01*
X2210170Y7178500D01*
X2191880D01*
G01X2364680Y7998500D02*
Y7935000D01*
G01X2380260Y7998500D02*
X2349100D01*
G01X2322350Y7935000D02*
Y7998500D01*
X2306090D01*
X2300670Y7995320D01*
X2296610Y7987920D01*
X2295250Y7979450D01*
X2296610Y7970980D01*
X2299990Y7964630D01*
X2306090Y7961460D01*
X2322350D01*
G01X2267820Y7947700D02*
X2263760Y7940290D01*
X2258340Y7936060D01*
X2252240Y7935000D01*
X2246820Y7936060D01*
X2241400Y7941350D01*
X2238020Y7947700D01*
X2237340Y7954050D01*
X2238700Y7961460D01*
X2243440Y7966750D01*
X2248180Y7968870D01*
X2254270D01*
G01X2248180D02*
X2244110Y7972040D01*
X2240730Y7977330D01*
X2239370Y7983680D01*
X2240730Y7990030D01*
X2244110Y7995320D01*
X2250210Y7998500D01*
X2256310Y7997440D01*
X2262400Y7993210D01*
G01X2211940Y7947700D02*
X2207880Y7940290D01*
X2202460Y7936060D01*
X2196360Y7935000D01*
X2190940Y7936060D01*
X2185520Y7941350D01*
X2182140Y7947700D01*
X2181460Y7954050D01*
X2182820Y7961460D01*
X2187560Y7966750D01*
X2192300Y7968870D01*
X2198390D01*
G01X2192300D02*
X2188230Y7972040D01*
X2184850Y7977330D01*
X2183490Y7983680D01*
X2184850Y7990030D01*
X2188230Y7995320D01*
X2194330Y7998500D01*
X2200430Y7997440D01*
X2206520Y7993210D01*
G01X3264680Y4308500D02*
Y4245000D01*
G01X3280260Y4308500D02*
X3249100D01*
G01X3222350Y4245000D02*
Y4308500D01*
X3206090D01*
X3200670Y4305320D01*
X3196610Y4297920D01*
X3195250Y4289450D01*
X3196610Y4280980D01*
X3199990Y4274630D01*
X3206090Y4271460D01*
X3222350D01*
G01X3165790D02*
X3161050Y4278870D01*
X3156980Y4283100D01*
X3151570Y4285220D01*
X3146820Y4283100D01*
X3143440Y4278870D01*
X3140730Y4272520D01*
X3140050Y4265110D01*
X3140730Y4258760D01*
X3143440Y4252410D01*
X3147500Y4247120D01*
X3152240Y4245000D01*
X3157660Y4247120D01*
X3162400Y4253460D01*
X3165110Y4262990D01*
X3165790Y4273570D01*
X3164440Y4287330D01*
X3162400Y4294740D01*
X3159020Y4302150D01*
X3154270Y4307440D01*
X3149530Y4308500D01*
X3144790Y4306380D01*
X3141400Y4301090D01*
G01X3111940Y4257700D02*
X3107880Y4250290D01*
X3102460Y4246060D01*
X3096360Y4245000D01*
X3090940Y4246060D01*
X3085520Y4251350D01*
X3082140Y4257700D01*
X3081460Y4264050D01*
X3082820Y4271460D01*
X3087560Y4276750D01*
X3092300Y4278870D01*
X3098390D01*
G01X3092300D02*
X3088230Y4282040D01*
X3084850Y4287330D01*
X3083490Y4293680D01*
X3084850Y4300030D01*
X3088230Y4305320D01*
X3094330Y4308500D01*
X3100430Y4307440D01*
X3106520Y4303210D01*
G01X3134680Y8763500D02*
Y8700000D01*
G01X3150260Y8763500D02*
X3119100D01*
G01X3092350Y8700000D02*
Y8763500D01*
X3076090D01*
X3070670Y8760320D01*
X3066610Y8752920D01*
X3065250Y8744450D01*
X3066610Y8735980D01*
X3069990Y8729630D01*
X3076090Y8726460D01*
X3092350D01*
G01X3037820Y8712700D02*
X3033760Y8705290D01*
X3028340Y8701060D01*
X3022240Y8700000D01*
X3016820Y8701060D01*
X3011400Y8706350D01*
X3008020Y8712700D01*
X3007340Y8719050D01*
X3008700Y8726460D01*
X3013440Y8731750D01*
X3018180Y8733870D01*
X3024270D01*
G01X3018180D02*
X3014110Y8737040D01*
X3010730Y8742330D01*
X3009370Y8748680D01*
X3010730Y8755030D01*
X3014110Y8760320D01*
X3020210Y8763500D01*
X3026310Y8762440D01*
X3032400Y8758210D01*
G01X2967040Y8700000D02*
X2962300Y8701060D01*
X2956880Y8704230D01*
X2953490Y8709520D01*
X2952140Y8716930D01*
X2953490Y8724340D01*
X2957560Y8730690D01*
X2963650Y8733870D01*
X2970430D01*
X2974490Y8735980D01*
X2977880Y8741270D01*
X2979230Y8748680D01*
X2977200Y8756090D01*
X2972460Y8761380D01*
X2967040Y8763500D01*
X2961620Y8761380D01*
X2956880Y8756090D01*
X2954850Y8748680D01*
X2956200Y8741270D01*
X2959590Y8735980D01*
X2963650Y8733870D01*
X2970430D01*
X2976520Y8730690D01*
X2980590Y8724340D01*
X2981940Y8716930D01*
X2980590Y8709520D01*
X2977200Y8704230D01*
X2971780Y8701060D01*
X2967040Y8700000D01*
G01X3754680Y1158500D02*
Y1095000D01*
G01X3770260Y1158500D02*
X3739100D01*
G01X3712350Y1095000D02*
Y1158500D01*
X3696090D01*
X3690670Y1155320D01*
X3686610Y1147920D01*
X3685250Y1139450D01*
X3686610Y1130980D01*
X3689990Y1124630D01*
X3696090Y1121460D01*
X3712350D01*
G01X3655790Y1147920D02*
X3651730Y1154270D01*
X3646980Y1157440D01*
X3641570Y1158500D01*
X3634790Y1156380D01*
X3630050Y1151090D01*
X3628700Y1144740D01*
X3629370Y1138390D01*
X3632080Y1133100D01*
X3645630Y1122520D01*
X3651730Y1115110D01*
X3655790Y1104520D01*
X3657140Y1095000D01*
X3628700D01*
G01X3601940Y1107700D02*
X3597880Y1100290D01*
X3592460Y1096060D01*
X3586360Y1095000D01*
X3580940Y1096060D01*
X3575520Y1101350D01*
X3572140Y1107700D01*
X3571460Y1114050D01*
X3572820Y1121460D01*
X3577560Y1126750D01*
X3582300Y1128870D01*
X3588390D01*
G01X3582300D02*
X3578230Y1132040D01*
X3574850Y1137330D01*
X3573490Y1143680D01*
X3574850Y1150030D01*
X3578230Y1155320D01*
X3584330Y1158500D01*
X3590430Y1157440D01*
X3596520Y1153210D01*
G01X3779680Y2533500D02*
Y2470000D01*
G01X3795260Y2533500D02*
X3764100D01*
G01X3737350Y2470000D02*
Y2533500D01*
X3721090D01*
X3715670Y2530320D01*
X3711610Y2522920D01*
X3710250Y2514450D01*
X3711610Y2505980D01*
X3714990Y2499630D01*
X3721090Y2496460D01*
X3737350D01*
G01X3680790Y2522920D02*
X3676730Y2529270D01*
X3671980Y2532440D01*
X3666570Y2533500D01*
X3659790Y2531380D01*
X3655050Y2526090D01*
X3653700Y2519740D01*
X3654370Y2513390D01*
X3657080Y2508100D01*
X3670630Y2497520D01*
X3676730Y2490110D01*
X3680790Y2479520D01*
X3682140Y2470000D01*
X3653700D01*
G01X3612040D02*
Y2533500D01*
X3620170Y2520800D01*
G01Y2470000D02*
X3603910D01*
G01X3774680Y3683500D02*
Y3620000D01*
G01X3790260Y3683500D02*
X3759100D01*
G01X3732350Y3620000D02*
Y3683500D01*
X3716090D01*
X3710670Y3680320D01*
X3706610Y3672920D01*
X3705250Y3664450D01*
X3706610Y3655980D01*
X3709990Y3649630D01*
X3716090Y3646460D01*
X3732350D01*
G01X3675790Y3672920D02*
X3671730Y3679270D01*
X3666980Y3682440D01*
X3661570Y3683500D01*
X3654790Y3681380D01*
X3650050Y3676090D01*
X3648700Y3669740D01*
X3649370Y3663390D01*
X3652080Y3658100D01*
X3665630Y3647520D01*
X3671730Y3640110D01*
X3675790Y3629520D01*
X3677140Y3620000D01*
X3648700D01*
G01X3619910Y3672920D02*
X3615850Y3679270D01*
X3611100Y3682440D01*
X3605690Y3683500D01*
X3598910Y3681380D01*
X3594170Y3676090D01*
X3592820Y3669740D01*
X3593490Y3663390D01*
X3596200Y3658100D01*
X3609750Y3647520D01*
X3615850Y3640110D01*
X3619910Y3629520D01*
X3621260Y3620000D01*
X3592820D01*
G01X4249680Y3863500D02*
Y3800000D01*
G01X4265260Y3863500D02*
X4234100D01*
G01X4207350Y3800000D02*
Y3863500D01*
X4191090D01*
X4185670Y3860320D01*
X4181610Y3852920D01*
X4180250Y3844450D01*
X4181610Y3835980D01*
X4184990Y3829630D01*
X4191090Y3826460D01*
X4207350D01*
G01X4150790Y3852920D02*
X4146730Y3859270D01*
X4141980Y3862440D01*
X4136570Y3863500D01*
X4129790Y3861380D01*
X4125050Y3856090D01*
X4123700Y3849740D01*
X4124370Y3843390D01*
X4127080Y3838100D01*
X4140630Y3827520D01*
X4146730Y3820110D01*
X4150790Y3809520D01*
X4152140Y3800000D01*
X4123700D01*
G01X4096940Y3809520D02*
X4092880Y3804230D01*
X4088140Y3801060D01*
X4082040Y3800000D01*
X4075940Y3802120D01*
X4071200Y3806350D01*
X4067820Y3813760D01*
X4067140Y3822220D01*
X4068490Y3830690D01*
X4071880Y3835980D01*
X4076620Y3840220D01*
X4081360Y3841270D01*
X4086100Y3840220D01*
X4092200Y3835980D01*
X4090170Y3863500D01*
X4071880D01*
G01X4019680Y4683500D02*
Y4620000D01*
G01X4035260Y4683500D02*
X4004100D01*
G01X3977350Y4620000D02*
Y4683500D01*
X3961090D01*
X3955670Y4680320D01*
X3951610Y4672920D01*
X3950250Y4664450D01*
X3951610Y4655980D01*
X3954990Y4649630D01*
X3961090Y4646460D01*
X3977350D01*
G01X3899790Y4620000D02*
Y4683500D01*
X3924850Y4637990D01*
X3890990D01*
G01X3864910Y4646460D02*
X3860170Y4653870D01*
X3856100Y4658100D01*
X3850690Y4660220D01*
X3845940Y4658100D01*
X3842560Y4653870D01*
X3839850Y4647520D01*
X3839170Y4640110D01*
X3839850Y4633760D01*
X3842560Y4627410D01*
X3846620Y4622120D01*
X3851360Y4620000D01*
X3856780Y4622120D01*
X3861520Y4628460D01*
X3864230Y4637990D01*
X3864910Y4648570D01*
X3863560Y4662330D01*
X3861520Y4669740D01*
X3858140Y4677150D01*
X3853390Y4682440D01*
X3848650Y4683500D01*
X3843910Y4681380D01*
X3840520Y4676090D01*
G01X4229680Y5083500D02*
Y5020000D01*
G01X4245260Y5083500D02*
X4214100D01*
G01X4187350Y5020000D02*
Y5083500D01*
X4171090D01*
X4165670Y5080320D01*
X4161610Y5072920D01*
X4160250Y5064450D01*
X4161610Y5055980D01*
X4164990Y5049630D01*
X4171090Y5046460D01*
X4187350D01*
G01X4109790Y5020000D02*
Y5083500D01*
X4134850Y5037990D01*
X4100990D01*
G01X4053910Y5020000D02*
Y5083500D01*
X4078970Y5037990D01*
X4045110D01*
G01X4309680Y5758500D02*
Y5695000D01*
G01X4325260Y5758500D02*
X4294100D01*
G01X4267350Y5695000D02*
Y5758500D01*
X4251090D01*
X4245670Y5755320D01*
X4241610Y5747920D01*
X4240250Y5739450D01*
X4241610Y5730980D01*
X4244990Y5724630D01*
X4251090Y5721460D01*
X4267350D01*
G01X4189790Y5695000D02*
Y5758500D01*
X4214850Y5712990D01*
X4180990D01*
G01X4142040Y5695000D02*
Y5758500D01*
X4150170Y5745800D01*
G01Y5695000D02*
X4133910D01*
G01X3889680Y5333500D02*
Y5270000D01*
G01X3905260Y5333500D02*
X3874100D01*
G01X3847350Y5270000D02*
Y5333500D01*
X3831090D01*
X3825670Y5330320D01*
X3821610Y5322920D01*
X3820250Y5314450D01*
X3821610Y5305980D01*
X3824990Y5299630D01*
X3831090Y5296460D01*
X3847350D01*
G01X3769790Y5270000D02*
Y5333500D01*
X3794850Y5287990D01*
X3760990D01*
G01X3736940Y5282700D02*
X3732880Y5275290D01*
X3727460Y5271060D01*
X3721360Y5270000D01*
X3715940Y5271060D01*
X3710520Y5276350D01*
X3707140Y5282700D01*
X3706460Y5289050D01*
X3707820Y5296460D01*
X3712560Y5301750D01*
X3717300Y5303870D01*
X3723390D01*
G01X3717300D02*
X3713230Y5307040D01*
X3709850Y5312330D01*
X3708490Y5318680D01*
X3709850Y5325030D01*
X3713230Y5330320D01*
X3719330Y5333500D01*
X3725430Y5332440D01*
X3731520Y5328210D01*
G01X4789680Y2418500D02*
Y2355000D01*
G01X4805260Y2418500D02*
X4774100D01*
G01X4747350Y2355000D02*
Y2418500D01*
X4731090D01*
X4725670Y2415320D01*
X4721610Y2407920D01*
X4720250Y2399450D01*
X4721610Y2390980D01*
X4724990Y2384630D01*
X4731090Y2381460D01*
X4747350D01*
G01X4690790Y2407920D02*
X4686730Y2414270D01*
X4681980Y2417440D01*
X4676570Y2418500D01*
X4669790Y2416380D01*
X4665050Y2411090D01*
X4663700Y2404740D01*
X4664370Y2398390D01*
X4667080Y2393100D01*
X4680630Y2382520D01*
X4686730Y2375110D01*
X4690790Y2364520D01*
X4692140Y2355000D01*
X4663700D01*
G01X4613910D02*
Y2418500D01*
X4638970Y2372990D01*
X4605110D01*
G01X4654680Y5083500D02*
Y5020000D01*
G01X4670260Y5083500D02*
X4639100D01*
G01X4612350Y5020000D02*
Y5083500D01*
X4596090D01*
X4590670Y5080320D01*
X4586610Y5072920D01*
X4585250Y5064450D01*
X4586610Y5055980D01*
X4589990Y5049630D01*
X4596090Y5046460D01*
X4612350D01*
G01X4534790Y5020000D02*
Y5083500D01*
X4559850Y5037990D01*
X4525990D01*
G01X4501940Y5029520D02*
X4497880Y5024230D01*
X4493140Y5021060D01*
X4487040Y5020000D01*
X4480940Y5022120D01*
X4476200Y5026350D01*
X4472820Y5033760D01*
X4472140Y5042220D01*
X4473490Y5050690D01*
X4476880Y5055980D01*
X4481620Y5060220D01*
X4486360Y5061270D01*
X4491100Y5060220D01*
X4497200Y5055980D01*
X4495170Y5083500D01*
X4476880D01*
G01X4539680Y5463500D02*
Y5400000D01*
G01X4555260Y5463500D02*
X4524100D01*
G01X4497350Y5400000D02*
Y5463500D01*
X4481090D01*
X4475670Y5460320D01*
X4471610Y5452920D01*
X4470250Y5444450D01*
X4471610Y5435980D01*
X4474990Y5429630D01*
X4481090Y5426460D01*
X4497350D01*
G01X4419790Y5400000D02*
Y5463500D01*
X4444850Y5417990D01*
X4410990D01*
G01X4372040Y5463500D02*
X4377460Y5461380D01*
X4381520Y5456090D01*
X4384230Y5449740D01*
X4386260Y5441270D01*
X4386940Y5431750D01*
X4386260Y5422220D01*
X4384230Y5413760D01*
X4381520Y5407410D01*
X4377460Y5402120D01*
X4372040Y5400000D01*
X4366620Y5402120D01*
X4362560Y5407410D01*
X4359850Y5413760D01*
X4357820Y5422220D01*
X4357140Y5431750D01*
X4357820Y5441270D01*
X4359850Y5449740D01*
X4362560Y5456090D01*
X4366620Y5461380D01*
X4372040Y5463500D01*
G01X4904680Y5333500D02*
Y5270000D01*
G01X4920260Y5333500D02*
X4889100D01*
G01X4862350Y5270000D02*
Y5333500D01*
X4846090D01*
X4840670Y5330320D01*
X4836610Y5322920D01*
X4835250Y5314450D01*
X4836610Y5305980D01*
X4839990Y5299630D01*
X4846090Y5296460D01*
X4862350D01*
G01X4784790Y5270000D02*
Y5333500D01*
X4809850Y5287990D01*
X4775990D01*
G01X4749910Y5322920D02*
X4745850Y5329270D01*
X4741100Y5332440D01*
X4735690Y5333500D01*
X4728910Y5331380D01*
X4724170Y5326090D01*
X4722820Y5319740D01*
X4723490Y5313390D01*
X4726200Y5308100D01*
X4739750Y5297520D01*
X4745850Y5290110D01*
X4749910Y5279520D01*
X4751260Y5270000D01*
X4722820D01*
G01X5787290Y80000D02*
Y143500D01*
X5769680Y90580D01*
X5752070Y143500D01*
Y80000D01*
G01X5713800D02*
X5719220Y81060D01*
X5723960Y85290D01*
X5728020Y91640D01*
X5730730Y99050D01*
X5732090Y107520D01*
Y115980D01*
X5730730Y124450D01*
X5728020Y131860D01*
X5723960Y138210D01*
X5719220Y142440D01*
X5713800Y143500D01*
X5708380Y142440D01*
X5703640Y138210D01*
X5699580Y131860D01*
X5696870Y124450D01*
X5695510Y115980D01*
Y107520D01*
X5696870Y99050D01*
X5699580Y91640D01*
X5703640Y85290D01*
X5708380Y81060D01*
X5713800Y80000D01*
G01X5657920Y143500D02*
Y80000D01*
G01X5673500Y143500D02*
X5642340D01*
G01X5610850Y101170D02*
X5593230D01*
G01X5527290Y80000D02*
Y143500D01*
X5509680Y90580D01*
X5492070Y143500D01*
Y80000D01*
G01X5453800D02*
X5459220Y81060D01*
X5463960Y85290D01*
X5468020Y91640D01*
X5470730Y99050D01*
X5472090Y107520D01*
Y115980D01*
X5470730Y124450D01*
X5468020Y131860D01*
X5463960Y138210D01*
X5459220Y142440D01*
X5453800Y143500D01*
X5448380Y142440D01*
X5443640Y138210D01*
X5439580Y131860D01*
X5436870Y124450D01*
X5435510Y115980D01*
Y107520D01*
X5436870Y99050D01*
X5439580Y91640D01*
X5443640Y85290D01*
X5448380Y81060D01*
X5453800Y80000D01*
G01X5397920Y143500D02*
Y80000D01*
G01X5413500Y143500D02*
X5382340D01*
G01X5340000Y130000D02*
Y90000D01*
G01X5260000Y60000D02*
Y610000D01*
G01X6850000Y60000D02*
X5260000D01*
G01X5320000Y110000D02*
X5360000D01*
G01X5260000Y610000D02*
X6850000D01*
G01X5619680Y4918500D02*
Y4855000D01*
G01X5635260Y4918500D02*
X5604100D01*
G01X5577350Y4855000D02*
Y4918500D01*
X5561090D01*
X5555670Y4915320D01*
X5551610Y4907920D01*
X5550250Y4899450D01*
X5551610Y4890980D01*
X5554990Y4884630D01*
X5561090Y4881460D01*
X5577350D01*
G01X5499790Y4855000D02*
Y4918500D01*
X5524850Y4872990D01*
X5490990D01*
G01X5452040Y4855000D02*
X5447300Y4856060D01*
X5441880Y4859230D01*
X5438490Y4864520D01*
X5437140Y4871930D01*
X5438490Y4879340D01*
X5442560Y4885690D01*
X5448650Y4888870D01*
X5455430D01*
X5459490Y4890980D01*
X5462880Y4896270D01*
X5464230Y4903680D01*
X5462200Y4911090D01*
X5457460Y4916380D01*
X5452040Y4918500D01*
X5446620Y4916380D01*
X5441880Y4911090D01*
X5439850Y4903680D01*
X5441200Y4896270D01*
X5444590Y4890980D01*
X5448650Y4888870D01*
X5455430D01*
X5461520Y4885690D01*
X5465590Y4879340D01*
X5466940Y4871930D01*
X5465590Y4864520D01*
X5462200Y4859230D01*
X5456780Y4856060D01*
X5452040Y4855000D01*
G01X6224580Y89520D02*
X6220520Y84230D01*
X6215780Y81060D01*
X6209680Y80000D01*
X6203580Y82120D01*
X6198840Y86350D01*
X6195460Y93760D01*
X6194780Y102220D01*
X6196130Y110690D01*
X6199520Y115980D01*
X6204260Y120220D01*
X6209000Y121270D01*
X6213740Y120220D01*
X6219840Y115980D01*
X6217810Y143500D01*
X6199520D01*
G01X6170730D02*
X6153800Y80000D01*
X6136870Y143500D01*
G01X5975620Y111750D02*
X5962070D01*
Y92700D01*
X5966130Y86350D01*
X5970870Y82120D01*
X5977650Y80000D01*
X5984420Y82120D01*
X5989160Y86350D01*
X5993230Y92700D01*
X5995940Y100110D01*
X5997290Y108570D01*
Y115980D01*
X5995940Y122330D01*
X5993230Y129740D01*
X5989160Y136090D01*
X5985100Y140320D01*
X5979680Y143500D01*
X5974940D01*
X5969520Y141380D01*
X5965460Y137150D01*
G01X5939380Y80000D02*
Y143500D01*
X5908220Y80000D01*
Y143500D01*
G01X5882820Y80000D02*
Y143500D01*
X5869270D01*
X5863860Y140320D01*
X5859790Y136090D01*
X5856400Y129740D01*
X5853700Y122330D01*
X5853020Y111750D01*
X5853700Y101170D01*
X5856400Y93760D01*
X5859790Y87410D01*
X5863860Y83170D01*
X5869270Y80000D01*
X5882820D01*
G01X6207290Y520000D02*
Y583500D01*
X6189680Y530580D01*
X6172070Y583500D01*
Y520000D01*
G01X6133800D02*
X6139220Y521060D01*
X6143960Y525290D01*
X6148020Y531640D01*
X6150730Y539050D01*
X6152090Y547520D01*
Y555980D01*
X6150730Y564450D01*
X6148020Y571860D01*
X6143960Y578210D01*
X6139220Y582440D01*
X6133800Y583500D01*
X6128380Y582440D01*
X6123640Y578210D01*
X6119580Y571860D01*
X6116870Y564450D01*
X6115510Y555980D01*
Y547520D01*
X6116870Y539050D01*
X6119580Y531640D01*
X6123640Y525290D01*
X6128380Y521060D01*
X6133800Y520000D01*
G01X6077920Y583500D02*
Y520000D01*
G01X6093500Y583500D02*
X6062340D01*
G01X6022040Y520000D02*
X6027460Y521060D01*
X6032200Y525290D01*
X6036260Y531640D01*
X6038970Y539050D01*
X6040330Y547520D01*
Y555980D01*
X6038970Y564450D01*
X6036260Y571860D01*
X6032200Y578210D01*
X6027460Y582440D01*
X6022040Y583500D01*
X6016620Y582440D01*
X6011880Y578210D01*
X6007820Y571860D01*
X6005110Y564450D01*
X6003750Y555980D01*
Y547520D01*
X6005110Y539050D01*
X6007820Y531640D01*
X6011880Y525290D01*
X6016620Y521060D01*
X6022040Y520000D01*
G01X5979710D02*
Y583500D01*
X5962770D01*
X5957350Y580320D01*
X5953970Y576090D01*
X5952610Y567620D01*
X5953970Y559160D01*
X5958030Y553870D01*
X5962770Y550690D01*
X5979710D01*
G01X5962770D02*
X5952610Y520000D01*
G01X5910280D02*
Y583500D01*
X5918410Y570800D01*
G01Y520000D02*
X5902150D01*
G01X5924680Y5208500D02*
Y5145000D01*
G01X5940260Y5208500D02*
X5909100D01*
G01X5882350Y5145000D02*
Y5208500D01*
X5866090D01*
X5860670Y5205320D01*
X5856610Y5197920D01*
X5855250Y5189450D01*
X5856610Y5180980D01*
X5859990Y5174630D01*
X5866090Y5171460D01*
X5882350D01*
G01X5804790Y5145000D02*
Y5208500D01*
X5829850Y5162990D01*
X5795990D01*
G01X5758390Y5145000D02*
X5757040Y5158760D01*
X5755010Y5170400D01*
X5752300Y5180980D01*
X5748910Y5192620D01*
X5743490Y5208500D01*
X5770590D01*
G01X6749680Y80000D02*
X6755100Y81060D01*
X6759840Y85290D01*
X6763900Y91640D01*
X6766610Y99050D01*
X6767970Y107520D01*
Y115980D01*
X6766610Y124450D01*
X6763900Y131860D01*
X6759840Y138210D01*
X6755100Y142440D01*
X6749680Y143500D01*
X6744260Y142440D01*
X6739520Y138210D01*
X6735460Y131860D01*
X6732750Y124450D01*
X6731390Y115980D01*
Y107520D01*
X6732750Y99050D01*
X6735460Y91640D01*
X6739520Y85290D01*
X6744260Y81060D01*
X6749680Y80000D01*
G01X6744260Y96930D02*
X6736130Y80000D01*
G01X6680250D02*
X6707350D01*
Y143500D01*
X6680250D01*
G01X6691090Y112810D02*
X6707350D01*
G01X6632500Y113870D02*
X6629790Y117040D01*
X6627760Y122330D01*
X6626400Y129740D01*
X6627760Y136090D01*
X6630470Y140320D01*
X6635210Y143500D01*
X6653500D01*
Y80000D01*
X6631150D01*
X6626400Y84230D01*
X6623700Y90580D01*
X6622340Y97990D01*
X6623700Y105400D01*
X6627760Y111750D01*
X6632500Y113870D01*
X6653500D01*
G01X6489680Y80000D02*
X6495100Y81060D01*
X6499840Y85290D01*
X6503900Y91640D01*
X6506610Y99050D01*
X6507970Y107520D01*
Y115980D01*
X6506610Y124450D01*
X6503900Y131860D01*
X6499840Y138210D01*
X6495100Y142440D01*
X6489680Y143500D01*
X6484260Y142440D01*
X6479520Y138210D01*
X6475460Y131860D01*
X6472750Y124450D01*
X6471390Y115980D01*
Y107520D01*
X6472750Y99050D01*
X6475460Y91640D01*
X6479520Y85290D01*
X6484260Y81060D01*
X6489680Y80000D01*
G01X6484260Y96930D02*
X6476130Y80000D01*
G01X6420250D02*
X6447350D01*
Y143500D01*
X6420250D01*
G01X6431090Y112810D02*
X6447350D01*
G01X6394850Y80000D02*
X6377920Y143500D01*
X6360990Y80000D01*
G01X6367080Y102220D02*
X6388760D01*
G01X6694680Y5968500D02*
Y5905000D01*
G01X6710260Y5968500D02*
X6679100D01*
G01X6652350Y5905000D02*
Y5968500D01*
X6636090D01*
X6630670Y5965320D01*
X6626610Y5957920D01*
X6625250Y5949450D01*
X6626610Y5940980D01*
X6629990Y5934630D01*
X6636090Y5931460D01*
X6652350D01*
G01X6582920Y5905000D02*
Y5968500D01*
X6591050Y5955800D01*
G01Y5905000D02*
X6574790D01*
G01X6527040D02*
Y5968500D01*
X6535170Y5955800D01*
G01Y5905000D02*
X6518910D01*
G01X6809680Y7998500D02*
Y7935000D01*
G01X6825260Y7998500D02*
X6794100D01*
G01X6767350Y7935000D02*
Y7998500D01*
X6751090D01*
X6745670Y7995320D01*
X6741610Y7987920D01*
X6740250Y7979450D01*
X6741610Y7970980D01*
X6744990Y7964630D01*
X6751090Y7961460D01*
X6767350D01*
G01X6712820Y7947700D02*
X6708760Y7940290D01*
X6703340Y7936060D01*
X6697240Y7935000D01*
X6691820Y7936060D01*
X6686400Y7941350D01*
X6683020Y7947700D01*
X6682340Y7954050D01*
X6683700Y7961460D01*
X6688440Y7966750D01*
X6693180Y7968870D01*
X6699270D01*
G01X6693180D02*
X6689110Y7972040D01*
X6685730Y7977330D01*
X6684370Y7983680D01*
X6685730Y7990030D01*
X6689110Y7995320D01*
X6695210Y7998500D01*
X6701310Y7997440D01*
X6707400Y7993210D01*
G01X6642040Y7935000D02*
Y7998500D01*
X6650170Y7985800D01*
G01Y7935000D02*
X6633910D01*
G01X7387290Y80000D02*
Y143500D01*
X7369680Y90580D01*
X7352070Y143500D01*
Y80000D01*
G01X7313800D02*
X7319220Y81060D01*
X7323960Y85290D01*
X7328020Y91640D01*
X7330730Y99050D01*
X7332090Y107520D01*
Y115980D01*
X7330730Y124450D01*
X7328020Y131860D01*
X7323960Y138210D01*
X7319220Y142440D01*
X7313800Y143500D01*
X7308380Y142440D01*
X7303640Y138210D01*
X7299580Y131860D01*
X7296870Y124450D01*
X7295510Y115980D01*
Y107520D01*
X7296870Y99050D01*
X7299580Y91640D01*
X7303640Y85290D01*
X7308380Y81060D01*
X7313800Y80000D01*
G01X7257920Y143500D02*
Y80000D01*
G01X7273500Y143500D02*
X7242340D01*
G01X7200000Y130000D02*
Y90000D01*
G01X7120000Y60000D02*
Y610000D01*
G01X8710000Y60000D02*
X7120000D01*
G01X6850000Y610000D02*
Y60000D01*
G01X7180000Y110000D02*
X7220000D01*
G01X7120000Y610000D02*
X8710000D01*
G01X6919680Y5003500D02*
Y4940000D01*
G01X6935260Y5003500D02*
X6904100D01*
G01X6877350Y4940000D02*
Y5003500D01*
X6861090D01*
X6855670Y5000320D01*
X6851610Y4992920D01*
X6850250Y4984450D01*
X6851610Y4975980D01*
X6854990Y4969630D01*
X6861090Y4966460D01*
X6877350D01*
G01X6819440Y4947410D02*
X6814690Y4942120D01*
X6809270Y4940000D01*
X6803860Y4942120D01*
X6799110Y4948460D01*
X6795730Y4957990D01*
X6794370Y4967520D01*
Y4979160D01*
X6795730Y4988680D01*
X6799110Y4997150D01*
X6803180Y5001380D01*
X6807920Y5003500D01*
X6813340Y5001380D01*
X6817400Y4997150D01*
X6820110Y4990800D01*
X6821470Y4982330D01*
X6820110Y4974930D01*
X6816730Y4967520D01*
X6812660Y4963280D01*
X6807920Y4962220D01*
X6802500Y4964340D01*
X6798440Y4969630D01*
X6794370Y4979160D01*
G01X7647290Y80000D02*
Y143500D01*
X7629680Y90580D01*
X7612070Y143500D01*
Y80000D01*
G01X7573800D02*
X7579220Y81060D01*
X7583960Y85290D01*
X7588020Y91640D01*
X7590730Y99050D01*
X7592090Y107520D01*
Y115980D01*
X7590730Y124450D01*
X7588020Y131860D01*
X7583960Y138210D01*
X7579220Y142440D01*
X7573800Y143500D01*
X7568380Y142440D01*
X7563640Y138210D01*
X7559580Y131860D01*
X7556870Y124450D01*
X7555510Y115980D01*
Y107520D01*
X7556870Y99050D01*
X7559580Y91640D01*
X7563640Y85290D01*
X7568380Y81060D01*
X7573800Y80000D01*
G01X7517920Y143500D02*
Y80000D01*
G01X7533500Y143500D02*
X7502340D01*
G01X7470850Y101170D02*
X7453230D01*
G01X7835620Y111750D02*
X7822070D01*
Y92700D01*
X7826130Y86350D01*
X7830870Y82120D01*
X7837650Y80000D01*
X7844420Y82120D01*
X7849160Y86350D01*
X7853230Y92700D01*
X7855940Y100110D01*
X7857290Y108570D01*
Y115980D01*
X7855940Y122330D01*
X7853230Y129740D01*
X7849160Y136090D01*
X7845100Y140320D01*
X7839680Y143500D01*
X7834940D01*
X7829520Y141380D01*
X7825460Y137150D01*
G01X7799380Y80000D02*
Y143500D01*
X7768220Y80000D01*
Y143500D01*
G01X7742820Y80000D02*
Y143500D01*
X7729270D01*
X7723860Y140320D01*
X7719790Y136090D01*
X7716400Y129740D01*
X7713700Y122330D01*
X7713020Y111750D01*
X7713700Y101170D01*
X7716400Y93760D01*
X7719790Y87410D01*
X7723860Y83170D01*
X7729270Y80000D01*
X7742820D01*
G01X8077290Y520000D02*
Y583500D01*
X8059680Y530580D01*
X8042070Y583500D01*
Y520000D01*
G01X8003800D02*
X8009220Y521060D01*
X8013960Y525290D01*
X8018020Y531640D01*
X8020730Y539050D01*
X8022090Y547520D01*
Y555980D01*
X8020730Y564450D01*
X8018020Y571860D01*
X8013960Y578210D01*
X8009220Y582440D01*
X8003800Y583500D01*
X7998380Y582440D01*
X7993640Y578210D01*
X7989580Y571860D01*
X7986870Y564450D01*
X7985510Y555980D01*
Y547520D01*
X7986870Y539050D01*
X7989580Y531640D01*
X7993640Y525290D01*
X7998380Y521060D01*
X8003800Y520000D01*
G01X7947920Y583500D02*
Y520000D01*
G01X7963500Y583500D02*
X7932340D01*
G01X7892040Y520000D02*
X7897460Y521060D01*
X7902200Y525290D01*
X7906260Y531640D01*
X7908970Y539050D01*
X7910330Y547520D01*
Y555980D01*
X7908970Y564450D01*
X7906260Y571860D01*
X7902200Y578210D01*
X7897460Y582440D01*
X7892040Y583500D01*
X7886620Y582440D01*
X7881880Y578210D01*
X7877820Y571860D01*
X7875110Y564450D01*
X7873750Y555980D01*
Y547520D01*
X7875110Y539050D01*
X7877820Y531640D01*
X7881880Y525290D01*
X7886620Y521060D01*
X7892040Y520000D01*
G01X7849710D02*
Y583500D01*
X7832770D01*
X7827350Y580320D01*
X7823970Y576090D01*
X7822610Y567620D01*
X7823970Y559160D01*
X7828030Y553870D01*
X7832770Y550690D01*
X7849710D01*
G01X7832770D02*
X7822610Y520000D01*
G01X7793150Y572920D02*
X7789090Y579270D01*
X7784340Y582440D01*
X7778930Y583500D01*
X7772150Y581380D01*
X7767410Y576090D01*
X7766060Y569740D01*
X7766730Y563390D01*
X7769440Y558100D01*
X7782990Y547520D01*
X7789090Y540110D01*
X7793150Y529520D01*
X7794500Y520000D01*
X7766060D01*
G01X8084580Y89520D02*
X8080520Y84230D01*
X8075780Y81060D01*
X8069680Y80000D01*
X8063580Y82120D01*
X8058840Y86350D01*
X8055460Y93760D01*
X8054780Y102220D01*
X8056130Y110690D01*
X8059520Y115980D01*
X8064260Y120220D01*
X8069000Y121270D01*
X8073740Y120220D01*
X8079840Y115980D01*
X8077810Y143500D01*
X8059520D01*
G01X8030730D02*
X8013800Y80000D01*
X7996870Y143500D01*
G01X8349680Y80000D02*
X8355100Y81060D01*
X8359840Y85290D01*
X8363900Y91640D01*
X8366610Y99050D01*
X8367970Y107520D01*
Y115980D01*
X8366610Y124450D01*
X8363900Y131860D01*
X8359840Y138210D01*
X8355100Y142440D01*
X8349680Y143500D01*
X8344260Y142440D01*
X8339520Y138210D01*
X8335460Y131860D01*
X8332750Y124450D01*
X8331390Y115980D01*
Y107520D01*
X8332750Y99050D01*
X8335460Y91640D01*
X8339520Y85290D01*
X8344260Y81060D01*
X8349680Y80000D01*
G01X8344260Y96930D02*
X8336130Y80000D01*
G01X8280250D02*
X8307350D01*
Y143500D01*
X8280250D01*
G01X8291090Y112810D02*
X8307350D01*
G01X8254850Y80000D02*
X8237920Y143500D01*
X8220990Y80000D01*
G01X8227080Y102220D02*
X8248760D01*
G01X8079680Y5083500D02*
Y5020000D01*
G01X8095260Y5083500D02*
X8064100D01*
G01X8037350Y5020000D02*
Y5083500D01*
X8021090D01*
X8015670Y5080320D01*
X8011610Y5072920D01*
X8010250Y5064450D01*
X8011610Y5055980D01*
X8014990Y5049630D01*
X8021090Y5046460D01*
X8037350D01*
G01X7967920Y5020000D02*
Y5083500D01*
X7976050Y5070800D01*
G01Y5020000D02*
X7959790D01*
G01X7912040Y5083500D02*
X7917460Y5081380D01*
X7921520Y5076090D01*
X7924230Y5069740D01*
X7926260Y5061270D01*
X7926940Y5051750D01*
X7926260Y5042220D01*
X7924230Y5033760D01*
X7921520Y5027410D01*
X7917460Y5022120D01*
X7912040Y5020000D01*
X7906620Y5022120D01*
X7902560Y5027410D01*
X7899850Y5033760D01*
X7897820Y5042220D01*
X7897140Y5051750D01*
X7897820Y5061270D01*
X7899850Y5069740D01*
X7902560Y5076090D01*
X7906620Y5081380D01*
X7912040Y5083500D01*
G01X8219680Y7248500D02*
Y7185000D01*
G01X8235260Y7248500D02*
X8204100D01*
G01X8177350Y7185000D02*
Y7248500D01*
X8161090D01*
X8155670Y7245320D01*
X8151610Y7237920D01*
X8150250Y7229450D01*
X8151610Y7220980D01*
X8154990Y7214630D01*
X8161090Y7211460D01*
X8177350D01*
G01X8107920Y7185000D02*
Y7248500D01*
X8116050Y7235800D01*
G01Y7185000D02*
X8099790D01*
G01X8064910Y7237920D02*
X8060850Y7244270D01*
X8056100Y7247440D01*
X8050690Y7248500D01*
X8043910Y7246380D01*
X8039170Y7241090D01*
X8037820Y7234740D01*
X8038490Y7228390D01*
X8041200Y7223100D01*
X8054750Y7212520D01*
X8060850Y7205110D01*
X8064910Y7194520D01*
X8066260Y7185000D01*
X8037820D01*
G01X7954680Y6988500D02*
Y6925000D01*
G01X7970260Y6988500D02*
X7939100D01*
G01X7912350Y6925000D02*
Y6988500D01*
X7896090D01*
X7890670Y6985320D01*
X7886610Y6977920D01*
X7885250Y6969450D01*
X7886610Y6960980D01*
X7889990Y6954630D01*
X7896090Y6951460D01*
X7912350D01*
G01X7842920Y6925000D02*
Y6988500D01*
X7851050Y6975800D01*
G01Y6925000D02*
X7834790D01*
G01X7801940Y6937700D02*
X7797880Y6930290D01*
X7792460Y6926060D01*
X7786360Y6925000D01*
X7780940Y6926060D01*
X7775520Y6931350D01*
X7772140Y6937700D01*
X7771460Y6944050D01*
X7772820Y6951460D01*
X7777560Y6956750D01*
X7782300Y6958870D01*
X7788390D01*
G01X7782300D02*
X7778230Y6962040D01*
X7774850Y6967330D01*
X7773490Y6973680D01*
X7774850Y6980030D01*
X7778230Y6985320D01*
X7784330Y6988500D01*
X7790430Y6987440D01*
X7796520Y6983210D01*
G01X8609680Y80000D02*
X8615100Y81060D01*
X8619840Y85290D01*
X8623900Y91640D01*
X8626610Y99050D01*
X8627970Y107520D01*
Y115980D01*
X8626610Y124450D01*
X8623900Y131860D01*
X8619840Y138210D01*
X8615100Y142440D01*
X8609680Y143500D01*
X8604260Y142440D01*
X8599520Y138210D01*
X8595460Y131860D01*
X8592750Y124450D01*
X8591390Y115980D01*
Y107520D01*
X8592750Y99050D01*
X8595460Y91640D01*
X8599520Y85290D01*
X8604260Y81060D01*
X8609680Y80000D01*
G01X8604260Y96930D02*
X8596130Y80000D01*
G01X8540250D02*
X8567350D01*
Y143500D01*
X8540250D01*
G01X8551090Y112810D02*
X8567350D01*
G01X8492500Y113870D02*
X8489790Y117040D01*
X8487760Y122330D01*
X8486400Y129740D01*
X8487760Y136090D01*
X8490470Y140320D01*
X8495210Y143500D01*
X8513500D01*
Y80000D01*
X8491150D01*
X8486400Y84230D01*
X8483700Y90580D01*
X8482340Y97990D01*
X8483700Y105400D01*
X8487760Y111750D01*
X8492500Y113870D01*
X8513500D01*
G01X8710000Y610000D02*
Y60000D01*
G01X8924680Y3278500D02*
Y3215000D01*
G01X8940260Y3278500D02*
X8909100D01*
G01X8882350Y3215000D02*
Y3278500D01*
X8866090D01*
X8860670Y3275320D01*
X8856610Y3267920D01*
X8855250Y3259450D01*
X8856610Y3250980D01*
X8859990Y3244630D01*
X8866090Y3241460D01*
X8882350D01*
G01X8825790D02*
X8821050Y3248870D01*
X8816980Y3253100D01*
X8811570Y3255220D01*
X8806820Y3253100D01*
X8803440Y3248870D01*
X8800730Y3242520D01*
X8800050Y3235110D01*
X8800730Y3228760D01*
X8803440Y3222410D01*
X8807500Y3217120D01*
X8812240Y3215000D01*
X8817660Y3217120D01*
X8822400Y3223460D01*
X8825110Y3232990D01*
X8825790Y3243570D01*
X8824440Y3257330D01*
X8822400Y3264740D01*
X8819020Y3272150D01*
X8814270Y3277440D01*
X8809530Y3278500D01*
X8804790Y3276380D01*
X8801400Y3271090D01*
G01X8771940Y3224520D02*
X8767880Y3219230D01*
X8763140Y3216060D01*
X8757040Y3215000D01*
X8750940Y3217120D01*
X8746200Y3221350D01*
X8742820Y3228760D01*
X8742140Y3237220D01*
X8743490Y3245690D01*
X8746880Y3250980D01*
X8751620Y3255220D01*
X8756360Y3256270D01*
X8761100Y3255220D01*
X8767200Y3250980D01*
X8765170Y3278500D01*
X8746880D01*
G01X9247290Y80000D02*
Y143500D01*
X9229680Y90580D01*
X9212070Y143500D01*
Y80000D01*
G01X9173800D02*
X9179220Y81060D01*
X9183960Y85290D01*
X9188020Y91640D01*
X9190730Y99050D01*
X9192090Y107520D01*
Y115980D01*
X9190730Y124450D01*
X9188020Y131860D01*
X9183960Y138210D01*
X9179220Y142440D01*
X9173800Y143500D01*
X9168380Y142440D01*
X9163640Y138210D01*
X9159580Y131860D01*
X9156870Y124450D01*
X9155510Y115980D01*
Y107520D01*
X9156870Y99050D01*
X9159580Y91640D01*
X9163640Y85290D01*
X9168380Y81060D01*
X9173800Y80000D01*
G01X9117920Y143500D02*
Y80000D01*
G01X9133500Y143500D02*
X9102340D01*
G01X9060000Y130000D02*
Y90000D01*
G01X8980000Y610000D02*
X10570000D01*
Y60000D01*
X8980000D01*
Y610000D01*
G01X9040000Y110000D02*
X9080000D01*
G01X9224680Y3273500D02*
Y3210000D01*
G01X9240260Y3273500D02*
X9209100D01*
G01X9182350Y3210000D02*
Y3273500D01*
X9166090D01*
X9160670Y3270320D01*
X9156610Y3262920D01*
X9155250Y3254450D01*
X9156610Y3245980D01*
X9159990Y3239630D01*
X9166090Y3236460D01*
X9182350D01*
G01X9125790D02*
X9121050Y3243870D01*
X9116980Y3248100D01*
X9111570Y3250220D01*
X9106820Y3248100D01*
X9103440Y3243870D01*
X9100730Y3237520D01*
X9100050Y3230110D01*
X9100730Y3223760D01*
X9103440Y3217410D01*
X9107500Y3212120D01*
X9112240Y3210000D01*
X9117660Y3212120D01*
X9122400Y3218460D01*
X9125110Y3227990D01*
X9125790Y3238570D01*
X9124440Y3252330D01*
X9122400Y3259740D01*
X9119020Y3267150D01*
X9114270Y3272440D01*
X9109530Y3273500D01*
X9104790Y3271380D01*
X9101400Y3266090D01*
G01X9069910Y3236460D02*
X9065170Y3243870D01*
X9061100Y3248100D01*
X9055690Y3250220D01*
X9050940Y3248100D01*
X9047560Y3243870D01*
X9044850Y3237520D01*
X9044170Y3230110D01*
X9044850Y3223760D01*
X9047560Y3217410D01*
X9051620Y3212120D01*
X9056360Y3210000D01*
X9061780Y3212120D01*
X9066520Y3218460D01*
X9069230Y3227990D01*
X9069910Y3238570D01*
X9068560Y3252330D01*
X9066520Y3259740D01*
X9063140Y3267150D01*
X9058390Y3272440D01*
X9053650Y3273500D01*
X9048910Y3271380D01*
X9045520Y3266090D01*
G01X9129680Y4083500D02*
Y4020000D01*
G01X9145260Y4083500D02*
X9114100D01*
G01X9087350Y4020000D02*
Y4083500D01*
X9071090D01*
X9065670Y4080320D01*
X9061610Y4072920D01*
X9060250Y4064450D01*
X9061610Y4055980D01*
X9064990Y4049630D01*
X9071090Y4046460D01*
X9087350D01*
G01X9032820Y4029520D02*
X9028760Y4024230D01*
X9024020Y4021060D01*
X9017920Y4020000D01*
X9011820Y4022120D01*
X9007080Y4026350D01*
X9003700Y4033760D01*
X9003020Y4042220D01*
X9004370Y4050690D01*
X9007760Y4055980D01*
X9012500Y4060220D01*
X9017240Y4061270D01*
X9021980Y4060220D01*
X9028080Y4055980D01*
X9026050Y4083500D01*
X9007760D01*
G01X8963390Y4020000D02*
X8962040Y4033760D01*
X8960010Y4045400D01*
X8957300Y4055980D01*
X8953910Y4067620D01*
X8948490Y4083500D01*
X8975590D01*
G01X9507290Y80000D02*
Y143500D01*
X9489680Y90580D01*
X9472070Y143500D01*
Y80000D01*
G01X9433800D02*
X9439220Y81060D01*
X9443960Y85290D01*
X9448020Y91640D01*
X9450730Y99050D01*
X9452090Y107520D01*
Y115980D01*
X9450730Y124450D01*
X9448020Y131860D01*
X9443960Y138210D01*
X9439220Y142440D01*
X9433800Y143500D01*
X9428380Y142440D01*
X9423640Y138210D01*
X9419580Y131860D01*
X9416870Y124450D01*
X9415510Y115980D01*
Y107520D01*
X9416870Y99050D01*
X9419580Y91640D01*
X9423640Y85290D01*
X9428380Y81060D01*
X9433800Y80000D01*
G01X9377920Y143500D02*
Y80000D01*
G01X9393500Y143500D02*
X9362340D01*
G01X9330850Y101170D02*
X9313230D01*
G01X9695620Y111750D02*
X9682070D01*
Y92700D01*
X9686130Y86350D01*
X9690870Y82120D01*
X9697650Y80000D01*
X9704420Y82120D01*
X9709160Y86350D01*
X9713230Y92700D01*
X9715940Y100110D01*
X9717290Y108570D01*
Y115980D01*
X9715940Y122330D01*
X9713230Y129740D01*
X9709160Y136090D01*
X9705100Y140320D01*
X9699680Y143500D01*
X9694940D01*
X9689520Y141380D01*
X9685460Y137150D01*
G01X9659380Y80000D02*
Y143500D01*
X9628220Y80000D01*
Y143500D01*
G01X9602820Y80000D02*
Y143500D01*
X9589270D01*
X9583860Y140320D01*
X9579790Y136090D01*
X9576400Y129740D01*
X9573700Y122330D01*
X9573020Y111750D01*
X9573700Y101170D01*
X9576400Y93760D01*
X9579790Y87410D01*
X9583860Y83170D01*
X9589270Y80000D01*
X9602820D01*
G01X9937290Y520000D02*
Y583500D01*
X9919680Y530580D01*
X9902070Y583500D01*
Y520000D01*
G01X9863800D02*
X9869220Y521060D01*
X9873960Y525290D01*
X9878020Y531640D01*
X9880730Y539050D01*
X9882090Y547520D01*
Y555980D01*
X9880730Y564450D01*
X9878020Y571860D01*
X9873960Y578210D01*
X9869220Y582440D01*
X9863800Y583500D01*
X9858380Y582440D01*
X9853640Y578210D01*
X9849580Y571860D01*
X9846870Y564450D01*
X9845510Y555980D01*
Y547520D01*
X9846870Y539050D01*
X9849580Y531640D01*
X9853640Y525290D01*
X9858380Y521060D01*
X9863800Y520000D01*
G01X9807920Y583500D02*
Y520000D01*
G01X9823500Y583500D02*
X9792340D01*
G01X9752040Y520000D02*
X9757460Y521060D01*
X9762200Y525290D01*
X9766260Y531640D01*
X9768970Y539050D01*
X9770330Y547520D01*
Y555980D01*
X9768970Y564450D01*
X9766260Y571860D01*
X9762200Y578210D01*
X9757460Y582440D01*
X9752040Y583500D01*
X9746620Y582440D01*
X9741880Y578210D01*
X9737820Y571860D01*
X9735110Y564450D01*
X9733750Y555980D01*
Y547520D01*
X9735110Y539050D01*
X9737820Y531640D01*
X9741880Y525290D01*
X9746620Y521060D01*
X9752040Y520000D01*
G01X9709710D02*
Y583500D01*
X9692770D01*
X9687350Y580320D01*
X9683970Y576090D01*
X9682610Y567620D01*
X9683970Y559160D01*
X9688030Y553870D01*
X9692770Y550690D01*
X9709710D01*
G01X9692770D02*
X9682610Y520000D01*
G01X9655180Y532700D02*
X9651120Y525290D01*
X9645700Y521060D01*
X9639600Y520000D01*
X9634180Y521060D01*
X9628760Y526350D01*
X9625380Y532700D01*
X9624700Y539050D01*
X9626060Y546460D01*
X9630800Y551750D01*
X9635540Y553870D01*
X9641630D01*
G01X9635540D02*
X9631470Y557040D01*
X9628090Y562330D01*
X9626730Y568680D01*
X9628090Y575030D01*
X9631470Y580320D01*
X9637570Y583500D01*
X9643670Y582440D01*
X9649760Y578210D01*
G01X9569680Y3073500D02*
Y3010000D01*
G01X9585260Y3073500D02*
X9554100D01*
G01X9527350Y3010000D02*
Y3073500D01*
X9511090D01*
X9505670Y3070320D01*
X9501610Y3062920D01*
X9500250Y3054450D01*
X9501610Y3045980D01*
X9504990Y3039630D01*
X9511090Y3036460D01*
X9527350D01*
G01X9470790Y3062920D02*
X9466730Y3069270D01*
X9461980Y3072440D01*
X9456570Y3073500D01*
X9449790Y3071380D01*
X9445050Y3066090D01*
X9443700Y3059740D01*
X9444370Y3053390D01*
X9447080Y3048100D01*
X9460630Y3037520D01*
X9466730Y3030110D01*
X9470790Y3019520D01*
X9472140Y3010000D01*
X9443700D01*
G01X9403390D02*
X9402040Y3023760D01*
X9400010Y3035400D01*
X9397300Y3045980D01*
X9393910Y3057620D01*
X9388490Y3073500D01*
X9415590D01*
G01X9859680Y4763500D02*
Y4700000D01*
G01X9875260Y4763500D02*
X9844100D01*
G01X9817350Y4700000D02*
Y4763500D01*
X9801090D01*
X9795670Y4760320D01*
X9791610Y4752920D01*
X9790250Y4744450D01*
X9791610Y4735980D01*
X9794990Y4729630D01*
X9801090Y4726460D01*
X9817350D01*
G01X9762820Y4709520D02*
X9758760Y4704230D01*
X9754020Y4701060D01*
X9747920Y4700000D01*
X9741820Y4702120D01*
X9737080Y4706350D01*
X9733700Y4713760D01*
X9733020Y4722220D01*
X9734370Y4730690D01*
X9737760Y4735980D01*
X9742500Y4740220D01*
X9747240Y4741270D01*
X9751980Y4740220D01*
X9758080Y4735980D01*
X9756050Y4763500D01*
X9737760D01*
G01X9706940Y4709520D02*
X9702880Y4704230D01*
X9698140Y4701060D01*
X9692040Y4700000D01*
X9685940Y4702120D01*
X9681200Y4706350D01*
X9677820Y4713760D01*
X9677140Y4722220D01*
X9678490Y4730690D01*
X9681880Y4735980D01*
X9686620Y4740220D01*
X9691360Y4741270D01*
X9696100Y4740220D01*
X9702200Y4735980D01*
X9700170Y4763500D01*
X9681880D01*
G01X9959680Y5303500D02*
Y5240000D01*
G01X9975260Y5303500D02*
X9944100D01*
G01X9917350Y5240000D02*
Y5303500D01*
X9901090D01*
X9895670Y5300320D01*
X9891610Y5292920D01*
X9890250Y5284450D01*
X9891610Y5275980D01*
X9894990Y5269630D01*
X9901090Y5266460D01*
X9917350D01*
G01X9862820Y5249520D02*
X9858760Y5244230D01*
X9854020Y5241060D01*
X9847920Y5240000D01*
X9841820Y5242120D01*
X9837080Y5246350D01*
X9833700Y5253760D01*
X9833020Y5262220D01*
X9834370Y5270690D01*
X9837760Y5275980D01*
X9842500Y5280220D01*
X9847240Y5281270D01*
X9851980Y5280220D01*
X9858080Y5275980D01*
X9856050Y5303500D01*
X9837760D01*
G01X9804910Y5266460D02*
X9800170Y5273870D01*
X9796100Y5278100D01*
X9790690Y5280220D01*
X9785940Y5278100D01*
X9782560Y5273870D01*
X9779850Y5267520D01*
X9779170Y5260110D01*
X9779850Y5253760D01*
X9782560Y5247410D01*
X9786620Y5242120D01*
X9791360Y5240000D01*
X9796780Y5242120D01*
X9801520Y5248460D01*
X9804230Y5257990D01*
X9804910Y5268570D01*
X9803560Y5282330D01*
X9801520Y5289740D01*
X9798140Y5297150D01*
X9793390Y5302440D01*
X9788650Y5303500D01*
X9783910Y5301380D01*
X9780520Y5296090D01*
G01X9799680Y7523500D02*
Y7460000D01*
G01X9815260Y7523500D02*
X9784100D01*
G01X9757350Y7460000D02*
Y7523500D01*
X9741090D01*
X9735670Y7520320D01*
X9731610Y7512920D01*
X9730250Y7504450D01*
X9731610Y7495980D01*
X9734990Y7489630D01*
X9741090Y7486460D01*
X9757350D01*
G01X9687920Y7460000D02*
Y7523500D01*
X9696050Y7510800D01*
G01Y7460000D02*
X9679790D01*
G01X9623910D02*
Y7523500D01*
X9648970Y7477990D01*
X9615110D01*
G01X9729680Y8008500D02*
Y7945000D01*
G01X9745260Y8008500D02*
X9714100D01*
G01X9687350Y7945000D02*
Y8008500D01*
X9671090D01*
X9665670Y8005320D01*
X9661610Y7997920D01*
X9660250Y7989450D01*
X9661610Y7980980D01*
X9664990Y7974630D01*
X9671090Y7971460D01*
X9687350D01*
G01X9630790Y7997920D02*
X9626730Y8004270D01*
X9621980Y8007440D01*
X9616570Y8008500D01*
X9609790Y8006380D01*
X9605050Y8001090D01*
X9603700Y7994740D01*
X9604370Y7988390D01*
X9607080Y7983100D01*
X9620630Y7972520D01*
X9626730Y7965110D01*
X9630790Y7954520D01*
X9632140Y7945000D01*
X9603700D01*
G01X9573560Y7952410D02*
X9568810Y7947120D01*
X9563390Y7945000D01*
X9557980Y7947120D01*
X9553230Y7953460D01*
X9549850Y7962990D01*
X9548490Y7972520D01*
Y7984160D01*
X9549850Y7993680D01*
X9553230Y8002150D01*
X9557300Y8006380D01*
X9562040Y8008500D01*
X9567460Y8006380D01*
X9571520Y8002150D01*
X9574230Y7995800D01*
X9575590Y7987330D01*
X9574230Y7979930D01*
X9570850Y7972520D01*
X9566780Y7968280D01*
X9562040Y7967220D01*
X9556620Y7969340D01*
X9552560Y7974630D01*
X9548490Y7984160D01*
G01X9739680Y8508500D02*
Y8445000D01*
G01X9755260Y8508500D02*
X9724100D01*
G01X9697350Y8445000D02*
Y8508500D01*
X9681090D01*
X9675670Y8505320D01*
X9671610Y8497920D01*
X9670250Y8489450D01*
X9671610Y8480980D01*
X9674990Y8474630D01*
X9681090Y8471460D01*
X9697350D01*
G01X9642820Y8457700D02*
X9638760Y8450290D01*
X9633340Y8446060D01*
X9627240Y8445000D01*
X9621820Y8446060D01*
X9616400Y8451350D01*
X9613020Y8457700D01*
X9612340Y8464050D01*
X9613700Y8471460D01*
X9618440Y8476750D01*
X9623180Y8478870D01*
X9629270D01*
G01X9623180D02*
X9619110Y8482040D01*
X9615730Y8487330D01*
X9614370Y8493680D01*
X9615730Y8500030D01*
X9619110Y8505320D01*
X9625210Y8508500D01*
X9631310Y8507440D01*
X9637400Y8503210D01*
G01X9572040Y8508500D02*
X9577460Y8506380D01*
X9581520Y8501090D01*
X9584230Y8494740D01*
X9586260Y8486270D01*
X9586940Y8476750D01*
X9586260Y8467220D01*
X9584230Y8458760D01*
X9581520Y8452410D01*
X9577460Y8447120D01*
X9572040Y8445000D01*
X9566620Y8447120D01*
X9562560Y8452410D01*
X9559850Y8458760D01*
X9557820Y8467220D01*
X9557140Y8476750D01*
X9557820Y8486270D01*
X9559850Y8494740D01*
X9562560Y8501090D01*
X9566620Y8506380D01*
X9572040Y8508500D01*
G01X9944580Y89520D02*
X9940520Y84230D01*
X9935780Y81060D01*
X9929680Y80000D01*
X9923580Y82120D01*
X9918840Y86350D01*
X9915460Y93760D01*
X9914780Y102220D01*
X9916130Y110690D01*
X9919520Y115980D01*
X9924260Y120220D01*
X9929000Y121270D01*
X9933740Y120220D01*
X9939840Y115980D01*
X9937810Y143500D01*
X9919520D01*
G01X9890730D02*
X9873800Y80000D01*
X9856870Y143500D01*
G01X10209680Y80000D02*
X10215100Y81060D01*
X10219840Y85290D01*
X10223900Y91640D01*
X10226610Y99050D01*
X10227970Y107520D01*
Y115980D01*
X10226610Y124450D01*
X10223900Y131860D01*
X10219840Y138210D01*
X10215100Y142440D01*
X10209680Y143500D01*
X10204260Y142440D01*
X10199520Y138210D01*
X10195460Y131860D01*
X10192750Y124450D01*
X10191390Y115980D01*
Y107520D01*
X10192750Y99050D01*
X10195460Y91640D01*
X10199520Y85290D01*
X10204260Y81060D01*
X10209680Y80000D01*
G01X10204260Y96930D02*
X10196130Y80000D01*
G01X10140250D02*
X10167350D01*
Y143500D01*
X10140250D01*
G01X10151090Y112810D02*
X10167350D01*
G01X10114850Y80000D02*
X10097920Y143500D01*
X10080990Y80000D01*
G01X10087080Y102220D02*
X10108760D01*
G01X10054680Y2983500D02*
Y2920000D01*
G01X10070260Y2983500D02*
X10039100D01*
G01X10012350Y2920000D02*
Y2983500D01*
X9996090D01*
X9990670Y2980320D01*
X9986610Y2972920D01*
X9985250Y2964450D01*
X9986610Y2955980D01*
X9989990Y2949630D01*
X9996090Y2946460D01*
X10012350D01*
G01X9957820Y2929520D02*
X9953760Y2924230D01*
X9949020Y2921060D01*
X9942920Y2920000D01*
X9936820Y2922120D01*
X9932080Y2926350D01*
X9928700Y2933760D01*
X9928020Y2942220D01*
X9929370Y2950690D01*
X9932760Y2955980D01*
X9937500Y2960220D01*
X9942240Y2961270D01*
X9946980Y2960220D01*
X9953080Y2955980D01*
X9951050Y2983500D01*
X9932760D01*
G01X9898560Y2927410D02*
X9893810Y2922120D01*
X9888390Y2920000D01*
X9882980Y2922120D01*
X9878230Y2928460D01*
X9874850Y2937990D01*
X9873490Y2947520D01*
Y2959160D01*
X9874850Y2968680D01*
X9878230Y2977150D01*
X9882300Y2981380D01*
X9887040Y2983500D01*
X9892460Y2981380D01*
X9896520Y2977150D01*
X9899230Y2970800D01*
X9900590Y2962330D01*
X9899230Y2954930D01*
X9895850Y2947520D01*
X9891780Y2943280D01*
X9887040Y2942220D01*
X9881620Y2944340D01*
X9877560Y2949630D01*
X9873490Y2959160D01*
G01X10274680Y5678500D02*
Y5615000D01*
G01X10290260Y5678500D02*
X10259100D01*
G01X10232350Y5615000D02*
Y5678500D01*
X10216090D01*
X10210670Y5675320D01*
X10206610Y5667920D01*
X10205250Y5659450D01*
X10206610Y5650980D01*
X10209990Y5644630D01*
X10216090Y5641460D01*
X10232350D01*
G01X10177820Y5624520D02*
X10173760Y5619230D01*
X10169020Y5616060D01*
X10162920Y5615000D01*
X10156820Y5617120D01*
X10152080Y5621350D01*
X10148700Y5628760D01*
X10148020Y5637220D01*
X10149370Y5645690D01*
X10152760Y5650980D01*
X10157500Y5655220D01*
X10162240Y5656270D01*
X10166980Y5655220D01*
X10173080Y5650980D01*
X10171050Y5678500D01*
X10152760D01*
G01X10121940Y5627700D02*
X10117880Y5620290D01*
X10112460Y5616060D01*
X10106360Y5615000D01*
X10100940Y5616060D01*
X10095520Y5621350D01*
X10092140Y5627700D01*
X10091460Y5634050D01*
X10092820Y5641460D01*
X10097560Y5646750D01*
X10102300Y5648870D01*
X10108390D01*
G01X10102300D02*
X10098230Y5652040D01*
X10094850Y5657330D01*
X10093490Y5663680D01*
X10094850Y5670030D01*
X10098230Y5675320D01*
X10104330Y5678500D01*
X10110430Y5677440D01*
X10116520Y5673210D01*
G01X10469680Y80000D02*
X10475100Y81060D01*
X10479840Y85290D01*
X10483900Y91640D01*
X10486610Y99050D01*
X10487970Y107520D01*
Y115980D01*
X10486610Y124450D01*
X10483900Y131860D01*
X10479840Y138210D01*
X10475100Y142440D01*
X10469680Y143500D01*
X10464260Y142440D01*
X10459520Y138210D01*
X10455460Y131860D01*
X10452750Y124450D01*
X10451390Y115980D01*
Y107520D01*
X10452750Y99050D01*
X10455460Y91640D01*
X10459520Y85290D01*
X10464260Y81060D01*
X10469680Y80000D01*
G01X10464260Y96930D02*
X10456130Y80000D01*
G01X10400250D02*
X10427350D01*
Y143500D01*
X10400250D01*
G01X10411090Y112810D02*
X10427350D01*
G01X10352500Y113870D02*
X10349790Y117040D01*
X10347760Y122330D01*
X10346400Y129740D01*
X10347760Y136090D01*
X10350470Y140320D01*
X10355210Y143500D01*
X10373500D01*
Y80000D01*
X10351150D01*
X10346400Y84230D01*
X10343700Y90580D01*
X10342340Y97990D01*
X10343700Y105400D01*
X10347760Y111750D01*
X10352500Y113870D01*
X10373500D01*
G01X10829680Y3098500D02*
Y3035000D01*
G01X10845260Y3098500D02*
X10814100D01*
G01X10787350Y3035000D02*
Y3098500D01*
X10771090D01*
X10765670Y3095320D01*
X10761610Y3087920D01*
X10760250Y3079450D01*
X10761610Y3070980D01*
X10764990Y3064630D01*
X10771090Y3061460D01*
X10787350D01*
G01X10732820Y3044520D02*
X10728760Y3039230D01*
X10724020Y3036060D01*
X10717920Y3035000D01*
X10711820Y3037120D01*
X10707080Y3041350D01*
X10703700Y3048760D01*
X10703020Y3057220D01*
X10704370Y3065690D01*
X10707760Y3070980D01*
X10712500Y3075220D01*
X10717240Y3076270D01*
X10721980Y3075220D01*
X10728080Y3070980D01*
X10726050Y3098500D01*
X10707760D01*
G01X10662040Y3035000D02*
X10657300Y3036060D01*
X10651880Y3039230D01*
X10648490Y3044520D01*
X10647140Y3051930D01*
X10648490Y3059340D01*
X10652560Y3065690D01*
X10658650Y3068870D01*
X10665430D01*
X10669490Y3070980D01*
X10672880Y3076270D01*
X10674230Y3083680D01*
X10672200Y3091090D01*
X10667460Y3096380D01*
X10662040Y3098500D01*
X10656620Y3096380D01*
X10651880Y3091090D01*
X10649850Y3083680D01*
X10651200Y3076270D01*
X10654590Y3070980D01*
X10658650Y3068870D01*
X10665430D01*
X10671520Y3065690D01*
X10675590Y3059340D01*
X10676940Y3051930D01*
X10675590Y3044520D01*
X10672200Y3039230D01*
X10666780Y3036060D01*
X10662040Y3035000D01*
G01X10624680Y5823500D02*
Y5760000D01*
G01X10640260Y5823500D02*
X10609100D01*
G01X10582350Y5760000D02*
Y5823500D01*
X10566090D01*
X10560670Y5820320D01*
X10556610Y5812920D01*
X10555250Y5804450D01*
X10556610Y5795980D01*
X10559990Y5789630D01*
X10566090Y5786460D01*
X10582350D01*
G01X10527820Y5769520D02*
X10523760Y5764230D01*
X10519020Y5761060D01*
X10512920Y5760000D01*
X10506820Y5762120D01*
X10502080Y5766350D01*
X10498700Y5773760D01*
X10498020Y5782220D01*
X10499370Y5790690D01*
X10502760Y5795980D01*
X10507500Y5800220D01*
X10512240Y5801270D01*
X10516980Y5800220D01*
X10523080Y5795980D01*
X10521050Y5823500D01*
X10502760D01*
G01X10448910Y5760000D02*
Y5823500D01*
X10473970Y5777990D01*
X10440110D01*
G01X11259680Y5208500D02*
Y5145000D01*
G01X11275260Y5208500D02*
X11244100D01*
G01X11217350Y5145000D02*
Y5208500D01*
X11201090D01*
X11195670Y5205320D01*
X11191610Y5197920D01*
X11190250Y5189450D01*
X11191610Y5180980D01*
X11194990Y5174630D01*
X11201090Y5171460D01*
X11217350D01*
G01X11162820Y5154520D02*
X11158760Y5149230D01*
X11154020Y5146060D01*
X11147920Y5145000D01*
X11141820Y5147120D01*
X11137080Y5151350D01*
X11133700Y5158760D01*
X11133020Y5167220D01*
X11134370Y5175690D01*
X11137760Y5180980D01*
X11142500Y5185220D01*
X11147240Y5186270D01*
X11151980Y5185220D01*
X11158080Y5180980D01*
X11156050Y5208500D01*
X11137760D01*
G01X11092040D02*
X11097460Y5206380D01*
X11101520Y5201090D01*
X11104230Y5194740D01*
X11106260Y5186270D01*
X11106940Y5176750D01*
X11106260Y5167220D01*
X11104230Y5158760D01*
X11101520Y5152410D01*
X11097460Y5147120D01*
X11092040Y5145000D01*
X11086620Y5147120D01*
X11082560Y5152410D01*
X11079850Y5158760D01*
X11077820Y5167220D01*
X11077140Y5176750D01*
X11077820Y5186270D01*
X11079850Y5194740D01*
X11082560Y5201090D01*
X11086620Y5206380D01*
X11092040Y5208500D01*
G01X11229680Y5643500D02*
Y5580000D01*
G01X11245260Y5643500D02*
X11214100D01*
G01X11187350Y5580000D02*
Y5643500D01*
X11171090D01*
X11165670Y5640320D01*
X11161610Y5632920D01*
X11160250Y5624450D01*
X11161610Y5615980D01*
X11164990Y5609630D01*
X11171090Y5606460D01*
X11187350D01*
G01X11132820Y5589520D02*
X11128760Y5584230D01*
X11124020Y5581060D01*
X11117920Y5580000D01*
X11111820Y5582120D01*
X11107080Y5586350D01*
X11103700Y5593760D01*
X11103020Y5602220D01*
X11104370Y5610690D01*
X11107760Y5615980D01*
X11112500Y5620220D01*
X11117240Y5621270D01*
X11121980Y5620220D01*
X11128080Y5615980D01*
X11126050Y5643500D01*
X11107760D01*
G01X11062040Y5580000D02*
Y5643500D01*
X11070170Y5630800D01*
G01Y5580000D02*
X11053910D01*
G01X11984680Y5808500D02*
Y5745000D01*
G01X12000260Y5808500D02*
X11969100D01*
G01X11942350Y5745000D02*
Y5808500D01*
X11926090D01*
X11920670Y5805320D01*
X11916610Y5797920D01*
X11915250Y5789450D01*
X11916610Y5780980D01*
X11919990Y5774630D01*
X11926090Y5771460D01*
X11942350D01*
G01X11887820Y5754520D02*
X11883760Y5749230D01*
X11879020Y5746060D01*
X11872920Y5745000D01*
X11866820Y5747120D01*
X11862080Y5751350D01*
X11858700Y5758760D01*
X11858020Y5767220D01*
X11859370Y5775690D01*
X11862760Y5780980D01*
X11867500Y5785220D01*
X11872240Y5786270D01*
X11876980Y5785220D01*
X11883080Y5780980D01*
X11881050Y5808500D01*
X11862760D01*
G01X11829910Y5797920D02*
X11825850Y5804270D01*
X11821100Y5807440D01*
X11815690Y5808500D01*
X11808910Y5806380D01*
X11804170Y5801090D01*
X11802820Y5794740D01*
X11803490Y5788390D01*
X11806200Y5783100D01*
X11819750Y5772520D01*
X11825850Y5765110D01*
X11829910Y5754520D01*
X11831260Y5745000D01*
X11802820D01*
G01X12019680Y5333500D02*
Y5270000D01*
G01X12035260Y5333500D02*
X12004100D01*
G01X11977350Y5270000D02*
Y5333500D01*
X11961090D01*
X11955670Y5330320D01*
X11951610Y5322920D01*
X11950250Y5314450D01*
X11951610Y5305980D01*
X11954990Y5299630D01*
X11961090Y5296460D01*
X11977350D01*
G01X11899790Y5270000D02*
Y5333500D01*
X11924850Y5287990D01*
X11890990D01*
G01X11863560Y5277410D02*
X11858810Y5272120D01*
X11853390Y5270000D01*
X11847980Y5272120D01*
X11843230Y5278460D01*
X11839850Y5287990D01*
X11838490Y5297520D01*
Y5309160D01*
X11839850Y5318680D01*
X11843230Y5327150D01*
X11847300Y5331380D01*
X11852040Y5333500D01*
X11857460Y5331380D01*
X11861520Y5327150D01*
X11864230Y5320800D01*
X11865590Y5312330D01*
X11864230Y5304930D01*
X11860850Y5297520D01*
X11856780Y5293280D01*
X11852040Y5292220D01*
X11846620Y5294340D01*
X11842560Y5299630D01*
X11838490Y5309160D01*
G01X13069680Y6978500D02*
Y6915000D01*
G01X13085260Y6978500D02*
X13054100D01*
G01X13027350Y6915000D02*
Y6978500D01*
X13011090D01*
X13005670Y6975320D01*
X13001610Y6967920D01*
X13000250Y6959450D01*
X13001610Y6950980D01*
X13004990Y6944630D01*
X13011090Y6941460D01*
X13027350D01*
G01X12957920Y6915000D02*
Y6978500D01*
X12966050Y6965800D01*
G01Y6915000D02*
X12949790D01*
G01X13309680Y6983500D02*
Y6920000D01*
G01X13325260Y6983500D02*
X13294100D01*
G01X13267350Y6920000D02*
Y6983500D01*
X13251090D01*
X13245670Y6980320D01*
X13241610Y6972920D01*
X13240250Y6964450D01*
X13241610Y6955980D01*
X13244990Y6949630D01*
X13251090Y6946460D01*
X13267350D01*
G01X13210790Y6972920D02*
X13206730Y6979270D01*
X13201980Y6982440D01*
X13196570Y6983500D01*
X13189790Y6981380D01*
X13185050Y6976090D01*
X13183700Y6969740D01*
X13184370Y6963390D01*
X13187080Y6958100D01*
X13200630Y6947520D01*
X13206730Y6940110D01*
X13210790Y6929520D01*
X13212140Y6920000D01*
X13183700D01*
G01X13764680Y5213500D02*
Y5150000D01*
G01X13780260Y5213500D02*
X13749100D01*
G01X13722350Y5150000D02*
Y5213500D01*
X13706090D01*
X13700670Y5210320D01*
X13696610Y5202920D01*
X13695250Y5194450D01*
X13696610Y5185980D01*
X13699990Y5179630D01*
X13706090Y5176460D01*
X13722350D01*
G01X13652920Y5150000D02*
X13648180Y5151060D01*
X13642760Y5154230D01*
X13639370Y5159520D01*
X13638020Y5166930D01*
X13639370Y5174340D01*
X13643440Y5180690D01*
X13649530Y5183870D01*
X13656310D01*
X13660370Y5185980D01*
X13663760Y5191270D01*
X13665110Y5198680D01*
X13663080Y5206090D01*
X13658340Y5211380D01*
X13652920Y5213500D01*
X13647500Y5211380D01*
X13642760Y5206090D01*
X13640730Y5198680D01*
X13642080Y5191270D01*
X13645470Y5185980D01*
X13649530Y5183870D01*
X13656310D01*
X13662400Y5180690D01*
X13666470Y5174340D01*
X13667820Y5166930D01*
X13666470Y5159520D01*
X13663080Y5154230D01*
X13657660Y5151060D01*
X13652920Y5150000D01*
G01X13799680Y4828500D02*
Y4765000D01*
G01X13815260Y4828500D02*
X13784100D01*
G01X13757350Y4765000D02*
Y4828500D01*
X13741090D01*
X13735670Y4825320D01*
X13731610Y4817920D01*
X13730250Y4809450D01*
X13731610Y4800980D01*
X13734990Y4794630D01*
X13741090Y4791460D01*
X13757350D01*
G01X13687920Y4765000D02*
Y4828500D01*
X13696050Y4815800D01*
G01Y4765000D02*
X13679790D01*
G01X13633390D02*
X13632040Y4778760D01*
X13630010Y4790400D01*
X13627300Y4800980D01*
X13623910Y4812620D01*
X13618490Y4828500D01*
X13645590D01*
G01X13864680Y6983500D02*
Y6920000D01*
G01X13880260Y6983500D02*
X13849100D01*
G01X13822350Y6920000D02*
Y6983500D01*
X13806090D01*
X13800670Y6980320D01*
X13796610Y6972920D01*
X13795250Y6964450D01*
X13796610Y6955980D01*
X13799990Y6949630D01*
X13806090Y6946460D01*
X13822350D01*
G01X13765790D02*
X13761050Y6953870D01*
X13756980Y6958100D01*
X13751570Y6960220D01*
X13746820Y6958100D01*
X13743440Y6953870D01*
X13740730Y6947520D01*
X13740050Y6940110D01*
X13740730Y6933760D01*
X13743440Y6927410D01*
X13747500Y6922120D01*
X13752240Y6920000D01*
X13757660Y6922120D01*
X13762400Y6928460D01*
X13765110Y6937990D01*
X13765790Y6948570D01*
X13764440Y6962330D01*
X13762400Y6969740D01*
X13759020Y6977150D01*
X13754270Y6982440D01*
X13749530Y6983500D01*
X13744790Y6981380D01*
X13741400Y6976090D01*
G01X13697040Y6983500D02*
X13702460Y6981380D01*
X13706520Y6976090D01*
X13709230Y6969740D01*
X13711260Y6961270D01*
X13711940Y6951750D01*
X13711260Y6942220D01*
X13709230Y6933760D01*
X13706520Y6927410D01*
X13702460Y6922120D01*
X13697040Y6920000D01*
X13691620Y6922120D01*
X13687560Y6927410D01*
X13684850Y6933760D01*
X13682820Y6942220D01*
X13682140Y6951750D01*
X13682820Y6961270D01*
X13684850Y6969740D01*
X13687560Y6976090D01*
X13691620Y6981380D01*
X13697040Y6983500D01*
G01X13599680Y6978500D02*
Y6915000D01*
G01X13615260Y6978500D02*
X13584100D01*
G01X13557350Y6915000D02*
Y6978500D01*
X13541090D01*
X13535670Y6975320D01*
X13531610Y6967920D01*
X13530250Y6959450D01*
X13531610Y6950980D01*
X13534990Y6944630D01*
X13541090Y6941460D01*
X13557350D01*
G01X13500790D02*
X13496050Y6948870D01*
X13491980Y6953100D01*
X13486570Y6955220D01*
X13481820Y6953100D01*
X13478440Y6948870D01*
X13475730Y6942520D01*
X13475050Y6935110D01*
X13475730Y6928760D01*
X13478440Y6922410D01*
X13482500Y6917120D01*
X13487240Y6915000D01*
X13492660Y6917120D01*
X13497400Y6923460D01*
X13500110Y6932990D01*
X13500790Y6943570D01*
X13499440Y6957330D01*
X13497400Y6964740D01*
X13494020Y6972150D01*
X13489270Y6977440D01*
X13484530Y6978500D01*
X13479790Y6976380D01*
X13476400Y6971090D01*
G01X13432040Y6915000D02*
Y6978500D01*
X13440170Y6965800D01*
G01Y6915000D02*
X13423910D01*
G01X14309680Y2798500D02*
Y2735000D01*
G01X14325260Y2798500D02*
X14294100D01*
G01X14267350Y2735000D02*
Y2798500D01*
X14251090D01*
X14245670Y2795320D01*
X14241610Y2787920D01*
X14240250Y2779450D01*
X14241610Y2770980D01*
X14244990Y2764630D01*
X14251090Y2761460D01*
X14267350D01*
G01X14197920Y2735000D02*
Y2798500D01*
X14206050Y2785800D01*
G01Y2735000D02*
X14189790D01*
G01X14154910Y2761460D02*
X14150170Y2768870D01*
X14146100Y2773100D01*
X14140690Y2775220D01*
X14135940Y2773100D01*
X14132560Y2768870D01*
X14129850Y2762520D01*
X14129170Y2755110D01*
X14129850Y2748760D01*
X14132560Y2742410D01*
X14136620Y2737120D01*
X14141360Y2735000D01*
X14146780Y2737120D01*
X14151520Y2743460D01*
X14154230Y2752990D01*
X14154910Y2763570D01*
X14153560Y2777330D01*
X14151520Y2784740D01*
X14148140Y2792150D01*
X14143390Y2797440D01*
X14138650Y2798500D01*
X14133910Y2796380D01*
X14130520Y2791090D01*
G01X14294680Y3318500D02*
Y3255000D01*
G01X14310260Y3318500D02*
X14279100D01*
G01X14252350Y3255000D02*
Y3318500D01*
X14236090D01*
X14230670Y3315320D01*
X14226610Y3307920D01*
X14225250Y3299450D01*
X14226610Y3290980D01*
X14229990Y3284630D01*
X14236090Y3281460D01*
X14252350D01*
G01X14182920Y3255000D02*
Y3318500D01*
X14191050Y3305800D01*
G01Y3255000D02*
X14174790D01*
G01X14141940Y3264520D02*
X14137880Y3259230D01*
X14133140Y3256060D01*
X14127040Y3255000D01*
X14120940Y3257120D01*
X14116200Y3261350D01*
X14112820Y3268760D01*
X14112140Y3277220D01*
X14113490Y3285690D01*
X14116880Y3290980D01*
X14121620Y3295220D01*
X14126360Y3296270D01*
X14131100Y3295220D01*
X14137200Y3290980D01*
X14135170Y3318500D01*
X14116880D01*
G01X14299680Y5203500D02*
Y5140000D01*
G01X14315260Y5203500D02*
X14284100D01*
G01X14257350Y5140000D02*
Y5203500D01*
X14241090D01*
X14235670Y5200320D01*
X14231610Y5192920D01*
X14230250Y5184450D01*
X14231610Y5175980D01*
X14234990Y5169630D01*
X14241090Y5166460D01*
X14257350D01*
G01X14200790Y5192920D02*
X14196730Y5199270D01*
X14191980Y5202440D01*
X14186570Y5203500D01*
X14179790Y5201380D01*
X14175050Y5196090D01*
X14173700Y5189740D01*
X14174370Y5183390D01*
X14177080Y5178100D01*
X14190630Y5167520D01*
X14196730Y5160110D01*
X14200790Y5149520D01*
X14202140Y5140000D01*
X14173700D01*
G01X14132040D02*
X14127300Y5141060D01*
X14121880Y5144230D01*
X14118490Y5149520D01*
X14117140Y5156930D01*
X14118490Y5164340D01*
X14122560Y5170690D01*
X14128650Y5173870D01*
X14135430D01*
X14139490Y5175980D01*
X14142880Y5181270D01*
X14144230Y5188680D01*
X14142200Y5196090D01*
X14137460Y5201380D01*
X14132040Y5203500D01*
X14126620Y5201380D01*
X14121880Y5196090D01*
X14119850Y5188680D01*
X14121200Y5181270D01*
X14124590Y5175980D01*
X14128650Y5173870D01*
X14135430D01*
X14141520Y5170690D01*
X14145590Y5164340D01*
X14146940Y5156930D01*
X14145590Y5149520D01*
X14142200Y5144230D01*
X14136780Y5141060D01*
X14132040Y5140000D01*
G01X14444680Y6983500D02*
Y6920000D01*
G01X14460260Y6983500D02*
X14429100D01*
G01X14402350Y6920000D02*
Y6983500D01*
X14386090D01*
X14380670Y6980320D01*
X14376610Y6972920D01*
X14375250Y6964450D01*
X14376610Y6955980D01*
X14379990Y6949630D01*
X14386090Y6946460D01*
X14402350D01*
G01X14347820Y6929520D02*
X14343760Y6924230D01*
X14339020Y6921060D01*
X14332920Y6920000D01*
X14326820Y6922120D01*
X14322080Y6926350D01*
X14318700Y6933760D01*
X14318020Y6942220D01*
X14319370Y6950690D01*
X14322760Y6955980D01*
X14327500Y6960220D01*
X14332240Y6961270D01*
X14336980Y6960220D01*
X14343080Y6955980D01*
X14341050Y6983500D01*
X14322760D01*
G01X14559680Y4573500D02*
Y4510000D01*
G01X14575260Y4573500D02*
X14544100D01*
G01X14517350Y4510000D02*
Y4573500D01*
X14501090D01*
X14495670Y4570320D01*
X14491610Y4562920D01*
X14490250Y4554450D01*
X14491610Y4545980D01*
X14494990Y4539630D01*
X14501090Y4536460D01*
X14517350D01*
G01X14462820Y4522700D02*
X14458760Y4515290D01*
X14453340Y4511060D01*
X14447240Y4510000D01*
X14441820Y4511060D01*
X14436400Y4516350D01*
X14433020Y4522700D01*
X14432340Y4529050D01*
X14433700Y4536460D01*
X14438440Y4541750D01*
X14443180Y4543870D01*
X14449270D01*
G01X14443180D02*
X14439110Y4547040D01*
X14435730Y4552330D01*
X14434370Y4558680D01*
X14435730Y4565030D01*
X14439110Y4570320D01*
X14445210Y4573500D01*
X14451310Y4572440D01*
X14457400Y4568210D01*
G01X14404910Y4562920D02*
X14400850Y4569270D01*
X14396100Y4572440D01*
X14390690Y4573500D01*
X14383910Y4571380D01*
X14379170Y4566090D01*
X14377820Y4559740D01*
X14378490Y4553390D01*
X14381200Y4548100D01*
X14394750Y4537520D01*
X14400850Y4530110D01*
X14404910Y4519520D01*
X14406260Y4510000D01*
X14377820D01*
G01X14909680Y6978500D02*
Y6915000D01*
G01X14925260Y6978500D02*
X14894100D01*
G01X14867350Y6915000D02*
Y6978500D01*
X14851090D01*
X14845670Y6975320D01*
X14841610Y6967920D01*
X14840250Y6959450D01*
X14841610Y6950980D01*
X14844990Y6944630D01*
X14851090Y6941460D01*
X14867350D01*
G01X14789790Y6915000D02*
Y6978500D01*
X14814850Y6932990D01*
X14780990D01*
G01X14744680Y7423500D02*
Y7360000D01*
G01X14760260Y7423500D02*
X14729100D01*
G01X14702350Y7360000D02*
Y7423500D01*
X14686090D01*
X14680670Y7420320D01*
X14676610Y7412920D01*
X14675250Y7404450D01*
X14676610Y7395980D01*
X14679990Y7389630D01*
X14686090Y7386460D01*
X14702350D01*
G01X14647820Y7372700D02*
X14643760Y7365290D01*
X14638340Y7361060D01*
X14632240Y7360000D01*
X14626820Y7361060D01*
X14621400Y7366350D01*
X14618020Y7372700D01*
X14617340Y7379050D01*
X14618700Y7386460D01*
X14623440Y7391750D01*
X14628180Y7393870D01*
X14634270D01*
G01X14628180D02*
X14624110Y7397040D01*
X14620730Y7402330D01*
X14619370Y7408680D01*
X14620730Y7415030D01*
X14624110Y7420320D01*
X14630210Y7423500D01*
X14636310Y7422440D01*
X14642400Y7418210D01*
G01X15189680Y2798500D02*
Y2735000D01*
G01X15205260Y2798500D02*
X15174100D01*
G01X15147350Y2735000D02*
Y2798500D01*
X15131090D01*
X15125670Y2795320D01*
X15121610Y2787920D01*
X15120250Y2779450D01*
X15121610Y2770980D01*
X15124990Y2764630D01*
X15131090Y2761460D01*
X15147350D01*
G01X15077920Y2735000D02*
Y2798500D01*
X15086050Y2785800D01*
G01Y2735000D02*
X15069790D01*
G01X15022040D02*
X15017300Y2736060D01*
X15011880Y2739230D01*
X15008490Y2744520D01*
X15007140Y2751930D01*
X15008490Y2759340D01*
X15012560Y2765690D01*
X15018650Y2768870D01*
X15025430D01*
X15029490Y2770980D01*
X15032880Y2776270D01*
X15034230Y2783680D01*
X15032200Y2791090D01*
X15027460Y2796380D01*
X15022040Y2798500D01*
X15016620Y2796380D01*
X15011880Y2791090D01*
X15009850Y2783680D01*
X15011200Y2776270D01*
X15014590Y2770980D01*
X15018650Y2768870D01*
X15025430D01*
X15031520Y2765690D01*
X15035590Y2759340D01*
X15036940Y2751930D01*
X15035590Y2744520D01*
X15032200Y2739230D01*
X15026780Y2736060D01*
X15022040Y2735000D01*
G01X15075680Y8743500D02*
Y8680000D01*
G01X15091260Y8743500D02*
X15060100D01*
G01X15033350Y8680000D02*
Y8743500D01*
X15017090D01*
X15011670Y8740320D01*
X15007610Y8732920D01*
X15006250Y8724450D01*
X15007610Y8715980D01*
X15010990Y8709630D01*
X15017090Y8706460D01*
X15033350D01*
G01X14965270Y8680000D02*
X14963920Y8693760D01*
X14961890Y8705400D01*
X14959180Y8715980D01*
X14955790Y8727620D01*
X14950370Y8743500D01*
X14977470D01*
G54D12*
G01X100000Y1739690D02*
X260020D01*
X228020Y1715810D01*
G01X100000D02*
Y1763560D01*
G01X233350Y1861910D02*
X249350Y1873840D01*
X257350Y1887770D01*
X260020Y1903690D01*
X254690Y1923590D01*
X241350Y1937510D01*
X225350Y1941490D01*
X209340Y1939500D01*
X196010Y1931540D01*
X169340Y1891750D01*
X150670Y1873840D01*
X124000Y1861910D01*
X100000Y1857930D01*
Y1941490D01*
G01X260020Y2009990D02*
X100000Y2059730D01*
X260020Y2109470D01*
G01X180010Y2261630D02*
Y2301420D01*
X132000D01*
X116000Y2289480D01*
X105330Y2275560D01*
X100000Y2255660D01*
X105330Y2235760D01*
X116000Y2221840D01*
X132000Y2209900D01*
X150670Y2201940D01*
X172010Y2197960D01*
X190680D01*
X206680Y2201940D01*
X225350Y2209900D01*
X241350Y2221840D01*
X252020Y2233770D01*
X260020Y2249690D01*
Y2263620D01*
X254690Y2279530D01*
X244020Y2291470D01*
G01X100000Y2363950D02*
X260020D01*
X100000Y2455470D01*
X260020D01*
G01X100000Y2525960D02*
X260020D01*
Y2565750D01*
X252020Y2581670D01*
X241350Y2593610D01*
X225350Y2603560D01*
X206680Y2611510D01*
X180010Y2613500D01*
X153340Y2611510D01*
X134670Y2603560D01*
X118670Y2593610D01*
X108000Y2581670D01*
X100000Y2565750D01*
Y2525960D01*
G01Y3037960D02*
X260020D01*
X126670Y3089690D01*
X260020Y3141420D01*
X100000D01*
G01X260020Y3225830D02*
Y3273580D01*
G01Y3249710D02*
X100000D01*
G01Y3225830D02*
Y3273580D01*
G01X246680Y3453500D02*
X254690Y3441560D01*
X260020Y3427640D01*
Y3411720D01*
X252020Y3393810D01*
X238680Y3379890D01*
X222680Y3369940D01*
X196010Y3361980D01*
X172010Y3359990D01*
X148010Y3363970D01*
X132000Y3369940D01*
X116000Y3381880D01*
X105330Y3395800D01*
X100000Y3409730D01*
Y3423660D01*
X105330Y3437580D01*
X113330Y3449520D01*
X124000Y3459470D01*
G01X260020Y3859900D02*
X100000D01*
Y3939480D01*
G01X206680Y4059710D02*
X100000D01*
G01X249350D02*
X252020Y4055730D01*
X257350D01*
X260020Y4059710D01*
X257350Y4063690D01*
X252020D01*
X249350Y4059710D01*
G01X100000Y4185900D02*
X206680D01*
G01X180010D02*
X193340Y4193860D01*
X204010Y4205800D01*
X206680Y4221720D01*
X204010Y4235650D01*
X193340Y4247580D01*
X174670Y4253560D01*
X100000D01*
G01X172010Y4349910D02*
Y4413580D01*
X190680Y4407600D01*
X201340Y4397660D01*
X206680Y4383730D01*
X204010Y4369800D01*
X196010Y4357860D01*
X177340Y4349910D01*
X161340Y4345920D01*
X145340D01*
X129340Y4349910D01*
X113330Y4359850D01*
X102670Y4371790D01*
X100000Y4385720D01*
X105330Y4399650D01*
X121330Y4413580D01*
G01X260020Y4515890D02*
Y4563640D01*
G01Y4539770D02*
X100000D01*
G01Y4515890D02*
Y4563640D01*
G01Y4665960D02*
X206680D01*
G01X180010D02*
X193340Y4673920D01*
X204010Y4685860D01*
X206680Y4701780D01*
X204010Y4715710D01*
X193340Y4727640D01*
X174670Y4733620D01*
X100000D01*
G01X260020Y4939900D02*
X100000D01*
Y5019480D01*
G01X206680Y5139710D02*
X100000D01*
G01X249350D02*
X252020Y5135730D01*
X257350D01*
X260020Y5139710D01*
X257350Y5143690D01*
X252020D01*
X249350Y5139710D01*
G01X100000Y5265900D02*
X206680D01*
G01X180010D02*
X193340Y5273860D01*
X204010Y5285800D01*
X206680Y5301720D01*
X204010Y5315650D01*
X193340Y5327580D01*
X174670Y5333560D01*
X100000D01*
G01X172010Y5429910D02*
Y5493580D01*
X190680Y5487600D01*
X201340Y5477660D01*
X206680Y5463730D01*
X204010Y5449800D01*
X196010Y5437860D01*
X177340Y5429910D01*
X161340Y5425920D01*
X145340D01*
X129340Y5429910D01*
X113330Y5439850D01*
X102670Y5451790D01*
X100000Y5465720D01*
X105330Y5479650D01*
X121330Y5493580D01*
G01X100000Y5619770D02*
X102670Y5603850D01*
X113330Y5589930D01*
X129340Y5577990D01*
X148010Y5570030D01*
X169340Y5566050D01*
X190680D01*
X212010Y5570030D01*
X230680Y5577990D01*
X246680Y5589930D01*
X257350Y5603850D01*
X260020Y5619770D01*
X257350Y5635690D01*
X246680Y5649610D01*
X230680Y5661550D01*
X212010Y5669510D01*
X190680Y5673490D01*
X169340D01*
X148010Y5669510D01*
X129340Y5661550D01*
X113330Y5649610D01*
X102670Y5635690D01*
X100000Y5619770D01*
G01X206680Y5745960D02*
X132000D01*
X113330Y5753920D01*
X102670Y5765860D01*
X100000Y5779790D01*
X102670Y5793720D01*
X113330Y5805660D01*
X132000Y5813620D01*
G01X100000D02*
X206680D01*
G01X260020Y5939810D02*
X100000D01*
G01X206680Y5911960D02*
Y5967660D01*
G01X100000Y6247910D02*
X260020D01*
G01Y6331470D02*
X100000D01*
G01X180010D02*
Y6247910D01*
G01X46660Y6413890D02*
X206680D01*
G01X182680D02*
X196010Y6423840D01*
X204010Y6433790D01*
X206680Y6449710D01*
X204010Y6463640D01*
X190680Y6477560D01*
X172010Y6483540D01*
X153340Y6485530D01*
X134670Y6483540D01*
X116000Y6477560D01*
X105330Y6465630D01*
X100000Y6449710D01*
X102670Y6435780D01*
X110670Y6421860D01*
X121330Y6413890D01*
G01X100000Y6609730D02*
X102670Y6593810D01*
X113330Y6579890D01*
X129340Y6567950D01*
X148010Y6559990D01*
X169340Y6556010D01*
X190680D01*
X212010Y6559990D01*
X230680Y6567950D01*
X246680Y6579890D01*
X257350Y6593810D01*
X260020Y6609730D01*
X257350Y6625650D01*
X246680Y6639570D01*
X230680Y6651510D01*
X212010Y6659470D01*
X190680Y6663450D01*
X169340D01*
X148010Y6659470D01*
X129340Y6651510D01*
X113330Y6639570D01*
X102670Y6625650D01*
X100000Y6609730D01*
G01X206680Y6735920D02*
X132000D01*
X113330Y6743880D01*
X102670Y6755820D01*
X100000Y6769750D01*
X102670Y6783680D01*
X113330Y6795620D01*
X132000Y6803580D01*
G01X100000D02*
X206680D01*
G01X260020Y6929770D02*
X100000D01*
G01X206680Y6901920D02*
Y6957620D01*
G01X1304080Y10000020D02*
Y9885340D01*
X1296130Y9861330D01*
X1280210Y9845330D01*
X1260310Y9840000D01*
X1240410Y9845330D01*
X1224490Y9861330D01*
X1216540Y9885340D01*
Y10000020D01*
G01X1142070Y9861330D02*
X1126160Y9848000D01*
X1108250Y9840000D01*
X1092330D01*
X1076410Y9848000D01*
X1064470Y9861330D01*
X1058510Y9880010D01*
X1062490Y9898670D01*
X1072440Y9914670D01*
X1090340Y9925350D01*
X1114220Y9930680D01*
X1128140Y9941340D01*
X1134120Y9960010D01*
X1130130Y9978680D01*
X1120190Y9992020D01*
X1106260Y10000020D01*
X1092330D01*
X1078400Y9994690D01*
X1066460Y9981350D01*
G01X924350Y9925350D02*
X916390Y9933340D01*
X910430Y9946680D01*
X906440Y9965350D01*
X910430Y9981350D01*
X918380Y9992020D01*
X932310Y10000020D01*
X986030D01*
Y9840000D01*
X920370D01*
X906440Y9850670D01*
X898490Y9866670D01*
X894510Y9885340D01*
X898490Y9904000D01*
X910430Y9920010D01*
X924350Y9925350D01*
X986030D01*
G01X818050Y9973350D02*
X806120Y9989350D01*
X792190Y9997350D01*
X776270Y10000020D01*
X756370Y9994690D01*
X742450Y9981350D01*
X738470Y9965350D01*
X740460Y9949340D01*
X748420Y9936010D01*
X788210Y9909340D01*
X806120Y9890670D01*
X818050Y9864000D01*
X822030Y9840000D01*
X738470D01*
G01X3094080Y10000020D02*
Y9885340D01*
X3086130Y9861330D01*
X3070210Y9845330D01*
X3050310Y9840000D01*
X3030410Y9845330D01*
X3014490Y9861330D01*
X3006540Y9885340D01*
Y10000020D01*
G01X2932070Y9861330D02*
X2916160Y9848000D01*
X2898250Y9840000D01*
X2882330D01*
X2866410Y9848000D01*
X2854470Y9861330D01*
X2848510Y9880010D01*
X2852490Y9898670D01*
X2862440Y9914670D01*
X2880340Y9925350D01*
X2904220Y9930680D01*
X2918140Y9941340D01*
X2924120Y9960010D01*
X2920130Y9978680D01*
X2910190Y9992020D01*
X2896260Y10000020D01*
X2882330D01*
X2868400Y9994690D01*
X2856460Y9981350D01*
G01X2714350Y9925350D02*
X2706390Y9933340D01*
X2700430Y9946680D01*
X2696440Y9965350D01*
X2700430Y9981350D01*
X2708380Y9992020D01*
X2722310Y10000020D01*
X2776030D01*
Y9840000D01*
X2710370D01*
X2696440Y9850670D01*
X2688490Y9866670D01*
X2684510Y9885340D01*
X2688490Y9904000D01*
X2700430Y9920010D01*
X2714350Y9925350D01*
X2776030D01*
G01X2570250Y9840000D02*
Y10000020D01*
X2594130Y9968020D01*
G01Y9840000D02*
X2546380D01*
G01X5330520D02*
X5410100D01*
Y10000020D01*
X5330520D01*
G01X5362350Y9922680D02*
X5410100D01*
G01X5210290Y10000020D02*
Y9840000D01*
G01X5256050Y10000020D02*
X5164530D01*
G01X5092050Y9840000D02*
Y10000020D01*
G01X5008490D02*
Y9840000D01*
G01Y9920010D02*
X5092050D01*
G01X4730230Y9840000D02*
Y10000020D01*
X4754110Y9968020D01*
G01Y9840000D02*
X4706360D01*
G01X4558270Y9920010D02*
X4518480D01*
Y9872000D01*
X4530420Y9856000D01*
X4544340Y9845330D01*
X4564240Y9840000D01*
X4584140Y9845330D01*
X4598060Y9856000D01*
X4610000Y9872000D01*
X4617960Y9890670D01*
X4621940Y9912010D01*
Y9930680D01*
X4617960Y9946680D01*
X4610000Y9965350D01*
X4598060Y9981350D01*
X4586130Y9992020D01*
X4570210Y10000020D01*
X4556280D01*
X4540370Y9994690D01*
X4528430Y9984020D01*
G01X4446010Y9840000D02*
Y10000020D01*
G01Y9920010D02*
X4436060Y9936010D01*
X4424120Y9944010D01*
X4412180Y9946680D01*
X4394270Y9941340D01*
X4382340Y9930680D01*
X4374370Y9912010D01*
Y9890670D01*
X4378360Y9869340D01*
X4386310Y9853330D01*
X4400240Y9842670D01*
X4412180Y9840000D01*
X4424120Y9842670D01*
X4436060Y9850670D01*
X4446010Y9864000D01*
G01X4285990Y9786660D02*
Y9946680D01*
G01Y9922680D02*
X4276040Y9936010D01*
X4266090Y9944010D01*
X4250170Y9946680D01*
X4236240Y9944010D01*
X4222320Y9930680D01*
X4216340Y9912010D01*
X4214350Y9893340D01*
X4216340Y9874670D01*
X4222320Y9856000D01*
X4234250Y9845330D01*
X4250170Y9840000D01*
X4264100Y9842670D01*
X4278020Y9850670D01*
X4285990Y9861330D01*
G01X4119990Y9858670D02*
X4110050Y9848000D01*
X4096120Y9840000D01*
X4084180D01*
X4072240Y9845330D01*
X4064280Y9853330D01*
X4060310Y9864000D01*
X4062300Y9880010D01*
X4070250Y9888010D01*
X4106070Y9904000D01*
X4114030Y9922680D01*
X4110050Y9936010D01*
X4102090Y9944010D01*
X4090150Y9946680D01*
X4078210Y9944010D01*
X4066270Y9936010D01*
G01X7072090Y9830000D02*
Y9990020D01*
G01X6988530D02*
Y9830000D01*
G01Y9910010D02*
X7072090D01*
G01X6914060Y9830000D02*
Y9990020D01*
X6874270D01*
X6858350Y9982020D01*
X6846410Y9971350D01*
X6836460Y9955350D01*
X6828510Y9936680D01*
X6826520Y9910010D01*
X6828510Y9883340D01*
X6836460Y9864670D01*
X6846410Y9848670D01*
X6858350Y9838000D01*
X6874270Y9830000D01*
X6914060D01*
G01X6762000D02*
Y9990020D01*
X6710270Y9856670D01*
X6658540Y9990020D01*
Y9830000D01*
G01X6574130Y9990020D02*
X6526380D01*
G01X6550250D02*
Y9830000D01*
G01X6574130D02*
X6526380D01*
G01X6390230Y9990020D02*
X6406150Y9984690D01*
X6418080Y9971350D01*
X6426050Y9955350D01*
X6432010Y9934010D01*
X6434000Y9910010D01*
X6432010Y9886000D01*
X6426050Y9864670D01*
X6418080Y9848670D01*
X6406150Y9835330D01*
X6390230Y9830000D01*
X6374310Y9835330D01*
X6362380Y9848670D01*
X6354410Y9864670D01*
X6348450Y9886000D01*
X6346460Y9910010D01*
X6348450Y9934010D01*
X6354410Y9955350D01*
X6362380Y9971350D01*
X6374310Y9984690D01*
X6390230Y9990020D01*
G01X8651540Y9976680D02*
X8663480Y9984690D01*
X8677400Y9990020D01*
X8693320D01*
X8711230Y9982020D01*
X8725150Y9968680D01*
X8735100Y9952680D01*
X8743060Y9926010D01*
X8745050Y9902010D01*
X8741070Y9878010D01*
X8735100Y9862000D01*
X8723160Y9846000D01*
X8709240Y9835330D01*
X8695310Y9830000D01*
X8681380D01*
X8667460Y9835330D01*
X8655520Y9843330D01*
X8645570Y9854000D01*
G01X8585030Y9830000D02*
X8535290Y9990020D01*
X8485550Y9830000D01*
G01X8503460Y9886000D02*
X8567130D01*
G01X8427000Y9830000D02*
Y9990020D01*
X8375270Y9856670D01*
X8323540Y9990020D01*
Y9830000D01*
G01X8215250D02*
Y9990020D01*
X8239130Y9958020D01*
G01Y9830000D02*
X8191380D01*
G01X10284140Y9941680D02*
Y9867000D01*
X10276180Y9848330D01*
X10264240Y9837670D01*
X10250310Y9835000D01*
X10236380Y9837670D01*
X10224440Y9848330D01*
X10216480Y9867000D01*
G01Y9835000D02*
Y9941680D01*
G01X10132070Y9856330D02*
X10116160Y9843000D01*
X10098250Y9835000D01*
X10082330D01*
X10066410Y9843000D01*
X10054470Y9856330D01*
X10048510Y9875010D01*
X10052490Y9893670D01*
X10062440Y9909670D01*
X10080340Y9920350D01*
X10104220Y9925680D01*
X10118140Y9936340D01*
X10124120Y9955010D01*
X10120130Y9973680D01*
X10110190Y9987020D01*
X10096260Y9995020D01*
X10082330D01*
X10068400Y9989690D01*
X10056460Y9976350D01*
G01X9974040Y9835000D02*
Y9995020D01*
X9934250D01*
X9918330Y9987020D01*
X9906390Y9976350D01*
X9896440Y9960350D01*
X9888490Y9941680D01*
X9886500Y9915010D01*
X9888490Y9888340D01*
X9896440Y9869670D01*
X9906390Y9853670D01*
X9918330Y9843000D01*
X9934250Y9835000D01*
X9974040D01*
G01X12902090Y211330D02*
X12886180Y198000D01*
X12868270Y190000D01*
X12852350D01*
X12836430Y198000D01*
X12824490Y211330D01*
X12818530Y230010D01*
X12822510Y248670D01*
X12832460Y264670D01*
X12850360Y275350D01*
X12874240Y280680D01*
X12888160Y291340D01*
X12894140Y310010D01*
X12890150Y328680D01*
X12880210Y342020D01*
X12866280Y350020D01*
X12852350D01*
X12838420Y344690D01*
X12826480Y331350D01*
G01X12700290Y190000D02*
X12712230Y192670D01*
X12724170Y203330D01*
X12732130Y222000D01*
X12736110Y243340D01*
X12732130Y264670D01*
X12724170Y283340D01*
X12712230Y294010D01*
X12700290Y296680D01*
X12688350Y294010D01*
X12676410Y283340D01*
X12668460Y264670D01*
X12666460Y243340D01*
X12668460Y222000D01*
X12676410Y203330D01*
X12688350Y192670D01*
X12700290Y190000D01*
G01X12508440Y283340D02*
X12522360Y294010D01*
X12534300Y296680D01*
X12550220Y291340D01*
X12562160Y280680D01*
X12570110Y262010D01*
X12572110Y243340D01*
X12570110Y224670D01*
X12562160Y208670D01*
X12550220Y195330D01*
X12534300Y190000D01*
X12520370Y195330D01*
X12508440Y206000D01*
G01X12414080Y190000D02*
Y350020D01*
G01X12350410Y296680D02*
X12414080Y235340D01*
G01X12388210Y259340D02*
X12346420Y190000D01*
G01X12250070Y262010D02*
X12186400D01*
X12192380Y280680D01*
X12202320Y291340D01*
X12216250Y296680D01*
X12230180Y294010D01*
X12242120Y286010D01*
X12250070Y267340D01*
X12254060Y251340D01*
Y235340D01*
X12250070Y219340D01*
X12240130Y203330D01*
X12228190Y192670D01*
X12214260Y190000D01*
X12200330Y195330D01*
X12186400Y211330D01*
G01X12060210Y350020D02*
Y190000D01*
G01X12088060Y296680D02*
X12032360D01*
G01X11779960Y136660D02*
X11740170Y350020D01*
G01X11700380D02*
X11740170Y136660D01*
G01X11799860Y216670D02*
X11680480D01*
G01Y270010D02*
X11799860D01*
G01X11617950Y323350D02*
X11606020Y339350D01*
X11592090Y347350D01*
X11576170Y350020D01*
X11556270Y344690D01*
X11542350Y331350D01*
X11538370Y315350D01*
X11540360Y299340D01*
X11548320Y286010D01*
X11588110Y259340D01*
X11606020Y240670D01*
X11617950Y214000D01*
X11621930Y190000D01*
X11538370D01*
G01X15762090Y211330D02*
X15746180Y198000D01*
X15728270Y190000D01*
X15712350D01*
X15696430Y198000D01*
X15684490Y211330D01*
X15678530Y230010D01*
X15682510Y248670D01*
X15692460Y264670D01*
X15710360Y275350D01*
X15734240Y280680D01*
X15748160Y291340D01*
X15754140Y310010D01*
X15750150Y328680D01*
X15740210Y342020D01*
X15726280Y350020D01*
X15712350D01*
X15698420Y344690D01*
X15686480Y331350D01*
G01X15560290Y190000D02*
X15572230Y192670D01*
X15584170Y203330D01*
X15592130Y222000D01*
X15596110Y243340D01*
X15592130Y264670D01*
X15584170Y283340D01*
X15572230Y294010D01*
X15560290Y296680D01*
X15548350Y294010D01*
X15536410Y283340D01*
X15528460Y264670D01*
X15526460Y243340D01*
X15528460Y222000D01*
X15536410Y203330D01*
X15548350Y192670D01*
X15560290Y190000D01*
G01X15368440Y283340D02*
X15382360Y294010D01*
X15394300Y296680D01*
X15410220Y291340D01*
X15422160Y280680D01*
X15430110Y262010D01*
X15432110Y243340D01*
X15430110Y224670D01*
X15422160Y208670D01*
X15410220Y195330D01*
X15394300Y190000D01*
X15380370Y195330D01*
X15368440Y206000D01*
G01X15274080Y190000D02*
Y350020D01*
G01X15210410Y296680D02*
X15274080Y235340D01*
G01X15248210Y259340D02*
X15206420Y190000D01*
G01X15110070Y262010D02*
X15046400D01*
X15052380Y280680D01*
X15062320Y291340D01*
X15076250Y296680D01*
X15090180Y294010D01*
X15102120Y286010D01*
X15110070Y267340D01*
X15114060Y251340D01*
Y235340D01*
X15110070Y219340D01*
X15100130Y203330D01*
X15088190Y192670D01*
X15074260Y190000D01*
X15060330Y195330D01*
X15046400Y211330D01*
G01X14920210Y350020D02*
Y190000D01*
G01X14948060Y296680D02*
X14892360D01*
G01X14639960Y136660D02*
X14600170Y350020D01*
G01X14560380D02*
X14600170Y136660D01*
G01X14659860Y216670D02*
X14540480D01*
G01Y270010D02*
X14659860D01*
G01X14440150Y190000D02*
Y350020D01*
X14464030Y318020D01*
G01Y190000D02*
X14416280D01*
G01X16455020Y4895920D02*
X16340340D01*
X16316330Y4903870D01*
X16300330Y4919790D01*
X16295000Y4939690D01*
X16300330Y4959590D01*
X16316330Y4975510D01*
X16340340Y4983460D01*
X16455020D01*
G01X16316330Y5057930D02*
X16303000Y5073840D01*
X16295000Y5091750D01*
Y5107670D01*
X16303000Y5123590D01*
X16316330Y5135530D01*
X16335010Y5141490D01*
X16353670Y5137510D01*
X16369670Y5127560D01*
X16380350Y5109660D01*
X16385680Y5085780D01*
X16396340Y5071860D01*
X16415010Y5065880D01*
X16433680Y5069870D01*
X16447020Y5079810D01*
X16455020Y5093740D01*
Y5107670D01*
X16449690Y5121600D01*
X16436350Y5133540D01*
G01X16380350Y5275650D02*
X16388340Y5283610D01*
X16401680Y5289570D01*
X16420350Y5293560D01*
X16436350Y5289570D01*
X16447020Y5281620D01*
X16455020Y5267690D01*
Y5213970D01*
X16295000D01*
Y5279630D01*
X16305670Y5293560D01*
X16321670Y5301510D01*
X16340340Y5305490D01*
X16359000Y5301510D01*
X16375010Y5289570D01*
X16380350Y5275650D01*
Y5213970D01*
G01X16295000Y5579770D02*
X16297670Y5563850D01*
X16308330Y5549930D01*
X16324340Y5537990D01*
X16343010Y5530030D01*
X16364340Y5526050D01*
X16385680D01*
X16407010Y5530030D01*
X16425680Y5537990D01*
X16441680Y5549930D01*
X16452350Y5563850D01*
X16455020Y5579770D01*
X16452350Y5595690D01*
X16441680Y5609610D01*
X16425680Y5621550D01*
X16407010Y5629510D01*
X16385680Y5633490D01*
X16364340D01*
X16343010Y5629510D01*
X16324340Y5621550D01*
X16308330Y5609610D01*
X16297670Y5595690D01*
X16295000Y5579770D01*
G01X16455020Y5739790D02*
X16295000D01*
G01X16455020Y5694030D02*
Y5785550D01*
G01X16375010Y5911750D02*
Y5951540D01*
X16327000D01*
X16311000Y5939600D01*
X16300330Y5925680D01*
X16295000Y5905780D01*
X16300330Y5885880D01*
X16311000Y5871960D01*
X16327000Y5860020D01*
X16345670Y5852060D01*
X16367010Y5848080D01*
X16385680D01*
X16401680Y5852060D01*
X16420350Y5860020D01*
X16436350Y5871960D01*
X16447020Y5883890D01*
X16455020Y5899810D01*
Y5913740D01*
X16449690Y5929650D01*
X16439020Y5941590D01*
M02*
