M48
METRIC,TZ
T01C.1999
T02C.2032
T03C.5499
T04C.7
T05C.889
T06C.9652
T07C1.016
T08C1.0922
T09C1.4732
T10C1.5748
T11C1.7
T12C2.3
T13C3.2512
T14C3.7
T15C3.9624
;LEADER: 12 
;HEADER: 
;CODE  : ASCII 
;FILE  : rpi-cm4-carrierboard-v1_00-0a-1-6.drl for  ... layers TOP and BOTTOM
;DESIGN: rpi-cm4-carrierboard-v1_00-0a.brd
;T01 Holesize 1. = 0.199900 Tolerance = +0.009900/-0.009900 PLATED MM Quantity = 15
;T02 Holesize 2. = 0.203200 Tolerance = +0.012700/-0.012700 PLATED MM Quantity = 1252
;T03 Holesize 3. = 0.549900 Tolerance = +0.000000/-0.100100 PLATED MM Quantity = 2
;T04 Holesize 4. = 0.700000 Tolerance = +0.050000/-0.050000 PLATED MM Quantity = 18
;T05 Holesize 5. = 0.889000 Tolerance = +0.000000/-0.000000 PLATED MM Quantity = 12
;T06 Holesize 6. = 0.965200 Tolerance = +0.000000/-0.000000 PLATED MM Quantity = 3
;T07 Holesize 7. = 1.016000 Tolerance = +0.000000/-0.000000 PLATED MM Quantity = 4
;T08 Holesize 8. = 1.092200 Tolerance = +0.076200/-0.076200 PLATED MM Quantity = 72
;T09 Holesize 9. = 1.473200 Tolerance = +0.000000/-0.000000 PLATED MM Quantity = 2
;T10 Holesize 10. = 1.574800 Tolerance = +0.000000/-0.000000 PLATED MM Quantity = 2
;T11 Holesize 11. = 1.700000 Tolerance = +0.100100/-0.100100 PLATED MM Quantity = 6
;T12 Holesize 12. = 2.300000 Tolerance = +0.000000/-0.000000 PLATED MM Quantity = 4
;T13 Holesize 13. = 3.251200 Tolerance = +0.000000/-0.000000 PLATED MM Quantity = 2
;T14 Holesize 14. = 3.700000 Tolerance = +0.100000/-0.100000 PLATED MM Quantity = 4
;T15 Holesize 15. = 3.962400 Tolerance = +0.000000/-0.000000 NON_PLATED MM Quantity = 5
%
G90
T01
X3175010Y689990
X3065000Y689990
X3065000Y800000
X3175010Y800000
X3120000Y745010
X3175010Y1979990
X3065000Y1979990
X3065000Y2090000
X3175010Y2090000
X3120000Y2035010
X3175010Y3179990
X3065000Y3179990
X3065000Y3290000
X3175010Y3290000
X3120000Y3235010
T02
X10090000Y4730000
X11780000Y5300000
X14410000Y3005000
X14285000Y4392190
X14660000Y3655000
X10370000Y5790000
X11157500Y4697500
X3460000Y2710000
X3280000Y2330000
X14580000Y3810000
X12790000Y2205000
X3320000Y4330000
X14421030Y9280000
X9418660Y7865000
X8000000Y5040000
X6870000Y4960000
X14830000Y6265000
X14715000Y7315000
X11805000Y8520000
X10935000Y2675000
X12635000Y6025000
X6800000Y6310000
X14095000Y6250000
X9950000Y8535000
X14290000Y6945000
X10500000Y8530000
X14200000Y6250000
X11925000Y3710000
X13575000Y5740000
X13790000Y6250000
X9840000Y8535000
X14410000Y6250000
X14285000Y7335000
X13895000Y6280000
X12045000Y3685000
X8355000Y4470000
X9020000Y4470000
X10610000Y8530000
X14305000Y6250000
X13810000Y5585000
X13360000Y6255000
X14070000Y6825000
X10060000Y8535000
X14130000Y3930000
X13955000Y4530000
X8220000Y8200000
X13370000Y5595000
X8620000Y8090000
X10790000Y9365000
X10790000Y9565000
X14425000Y2180000
X15475000Y1170000
X14290000Y1930000
X15475000Y1420000
X11460000Y1930000
X12655000Y1180000
X15600000Y4480000
X12655000Y1430000
X6275000Y4680000
X10440000Y7590000
X4330000Y6170000
X15610000Y3645000
X11030000Y7590000
X15600000Y4375000
X3090000Y1670000
X10420000Y5680000
X9745000Y3885000
X11455000Y2645000
X7290000Y3810000
X7220000Y3351100
X7795000Y3890000
X7715000Y3546100
X2150000Y6795000
X7575000Y4410000
X7290000Y5640000
X7030000Y5010000
X8240000Y5435000
X6650000Y5245000
X11590000Y2190000
X7695000Y8925000
X8040000Y8950000
X7805000Y8925000
X6250000Y5320000
X2920000Y5740000
X6250000Y5240000
X4040000Y1500000
R02X120000
X4310000Y1610000
X4040000Y2400000
X4330000Y6500000
X4280000Y2400000
X4160000Y2400000
X4330000Y1730000
X4330000Y1975000
X4335000Y2225000
X5545000Y6680000
X5455000Y6260000
X12325000Y4725000
X5270000Y6490000
X10750000Y4935000
X10972500Y5607500
X10710000Y5985000
X4580000Y6680000
X11875000Y4770000
X10510000Y4675000
X11845000Y5205000
X10710000Y5895000
X9020000Y8575000
X3660000Y6570000
X12170000Y3365000
X2330710Y6465000
X9250000Y8480000
X11860000Y3540000
X11015000Y2595000
X10302080Y3152080
X2255000Y6855000
X10305000Y3325000
X5455000Y6020000
X10650000Y3420000
X10650000Y3510000
X2335000Y6935000
X3140000Y7220000
X13550000Y6755000
X3505000Y5995000
X12600000Y9900000
X14030000Y6755000
X3597500Y6332500
X3425000Y5915000
X14315000Y6755000
X13990000Y6250000
X10300000Y8535000
X14515000Y7190000
X14635000Y4610000
X12017500Y8467500
X12020000Y8095000
X9930000Y4910000
X9475000Y8565000
X9980000Y6700000
X7310000Y8370010
X9980000Y7440000
X7860000Y3940000
X5540000Y4630000
X7895000Y4835000
X4160000Y4900000
X2655000Y5505000
X14990000Y3090000
X14960000Y5975000
X14910000Y3355000
X4300000Y6400000
X3140000Y6000000
X4310000Y6270000
X3005000Y5995000
X10450000Y5790000
X13275000Y6505000
X12081850Y4053160
X10526090Y2235000
X14570000Y4455000
X14100000Y5035000
X14020000Y4715000
X14870000Y6725000
R02X115000
X14681500Y9675000
X6695160Y8385000
X12027500Y3192500
X9982500Y2512500
X3915000Y5010000
X14690000Y9050000
X7002500Y9175000
X14160000Y8520000
X7095000Y8445000
X11947500Y3112500
X10075000Y2425000
X14605000Y9675000
X6615000Y8390000
X11880000Y4045000
X10335000Y2235000
X15130000Y9710000
X6939000Y9175000
X12375000Y3435000
X9890000Y2600000
X14050000Y8900000
X6839000Y9175000
X14465000Y9675000
X6530000Y8075000
X11670000Y4010000
X10070000Y2710000
X8635000Y2230000
X14250160Y9675000
X6130000Y8330000
X11295000Y2945000
X8017500Y2597500
X10030000Y5350000
X14745000Y9675000
X6758660Y8385000
X11865000Y3035000
X8110000Y2510000
X14541500Y9675000
X6551500Y8390000
X11760000Y3935000
X10210000Y2705000
X8446100Y2230000
X1912500Y7117500
X3280000Y6145000
X11787500Y2952500
X8205000Y2425000
X560000Y7860000
X3515000Y5905000
X6485000Y8135000
X14401500Y9675000
X220000Y7885010
X3600000Y5985000
X14313660Y9675000
X6130000Y8266500
X2000000Y7045000
X3360000Y6220000
X3285000Y3520000
X3500000Y3910000
X8028990Y9790000
X14520000Y6250000
X14640000Y6245000
X7965490Y9790000
X14750000Y6265000
X14730000Y4940000
X3270090Y6914910
X2770000Y8030000
X9940000Y5200000
X6645000Y4505000
X2435000Y5880000
X2375000Y5935000
X3677500Y6062500
X5970000Y3980000
X3540000Y7220000
X5660000Y3980000
X3600000Y7160000
X3060000Y5790000
X2520000Y7280000
X6120000Y3980000
X5820000Y3980000
X2645000Y7260000
X6120000Y4140000
X11790000Y4245000
X7220000Y3541090
X10025000Y4395000
X10645000Y4310000
X13160000Y8723500
X8492070Y9640000
X13160000Y8660000
X8428570Y9640000
X13205000Y9030000
X8787790Y9644280
X13365000Y8826500
X8575570Y9640720
X13130000Y9156500
X8873570Y9645000
X13355000Y8521500
X8273570Y9640000
X13205000Y8966500
X8724290Y9644280
X13355000Y8585000
X8337070Y9640000
X13130000Y9220000
X8937070Y9645000
X13365000Y8890000
X8639070Y9640720
X3850000Y5755000
X3930000Y5670000
X5290000Y5100000
X5290000Y5010000
X11580000Y5810000
X5590000Y5380000
X3685000Y4365000
X5490000Y5380000
X3282500Y5472500
X3595000Y4365000
X4160000Y4990000
X2945000Y1770000
X2915000Y2710000
X3066000Y4040000
X13700000Y5570000
X12365000Y3745000
X9285000Y3190000
X11855000Y5795000
X15185000Y3315000
X15100000Y5980000
X12700000Y3255000
X11615000Y3210000
X15795000Y3640000
X12700000Y3345000
X11127500Y3587500
X15790000Y3850000
X15415000Y4290000
X12500000Y3550000
X15420000Y4670000
X12500000Y3430000
X1345000Y1160000
X8345000Y7580000
X8170000Y7580000
X6595000Y6400000
X6710000Y6400000
X11129980Y3274980
X10070000Y3265000
X7845000Y7570000
X9040000Y4045000
X12435000Y4755000
X10645000Y5735000
X11270000Y3460000
X10150000Y3325000
X1480000Y8080000
X1480000Y8140000
X920000Y8100000
X14765000Y5975000
X14843290Y4440280
X2725000Y8110000
X3260000Y8140000
X3260000Y8080000
X10525000Y7350000
X10775000Y7350000
X10650000Y7350000
X9785000Y7880000
X9650000Y7880000
X14285000Y4230000
X15015000Y6925000
X14050000Y6910000
X4605000Y5785000
X2750000Y6965000
X1033500Y8045000
X13490000Y6880000
X4670000Y5835000
X15015000Y6850000
X14285000Y4295000
X780000Y8045000
X2570000Y6770000
X1228500Y8040000
X2740000Y7380000
X2615000Y6815000
X843500Y8045000
X970000Y8045000
X2705000Y6920000
X1165000Y8040000
X2690000Y7340000
X12815000Y6556500
X6230730Y7774890
X2833500Y8030000
X3315000Y6870000
X10845000Y6555000
X5140000Y6600000
X13260000Y6005000
X2941500Y8030000
X3630150Y6994350
X12852860Y6755000
X6235000Y7326500
X3005000Y8030000
X3680000Y6955000
X13043500Y5935000
X6235000Y7029440
X2658500Y8030000
X3165000Y7010000
X12860000Y6241500
X6225000Y8140000
X12815000Y6620000
X6230730Y7711390
X2595000Y8030000
X3120000Y7065000
X10845000Y6395000
X13270000Y6255000
X10845000Y6475000
X13200000Y6255000
X12440000Y9780000
X2580000Y5840000
X10810000Y8115000
X9390000Y8120000
X13480000Y5590000
X10480000Y3540000
X10177500Y5442500
X2985000Y3720000
X6400000Y4525000
X3150000Y3000000
X6250000Y4870000
X6250000Y4955000
X4335000Y3480000
X4160000Y2755000
X4330000Y2985000
X4330000Y3230000
X4280000Y2755000
X4310000Y2865000
X4160000Y3715000
X4040000Y3715000
X4280000Y3715000
X4040000Y2755000
X13790000Y6755000
X10464950Y3610050
X2085000Y8240000
X12410000Y9300000
X13110000Y9335000
X13670000Y6755000
X10405000Y3650000
X12829650Y9860000
X2320000Y6085000
X12980000Y5935000
X6235000Y6965940
X10467500Y3167500
X13710000Y6280000
X12775000Y9516500
X2719910Y6145090
X12852860Y6691500
X6235000Y7390000
X12580000Y9680940
X2477950Y6427050
X12860000Y6305000
X6225000Y8076500
X12893150Y9860000
X2272210Y6126820
X12775000Y9580000
X2675000Y6190000
X12580000Y9617440
X2522860Y6382140
X14665000Y3545000
X4020000Y1265000
X4260000Y1265000
X4310000Y735000
X4310000Y490000
X4315000Y985000
X4140000Y1145000
X14570000Y5975000
X6280000Y1840000
X6470000Y4970000
X7015000Y5765000
X7015000Y5840000
X6130000Y5650000
X14720000Y4075000
X6130000Y5770000
X4290000Y370000
X4020000Y1145000
X6290000Y4050000
X5260000Y3555000
X3170000Y495000
X5260000Y3690000
X6710000Y1845000
X8580000Y1850000
X10040000Y1850000
X8160000Y1850000
X10460000Y1850000
X9660000Y1630000
X9790000Y1630000
X7790000Y1610000
X7910000Y1610000
X5932500Y1620000
X6045000Y1620000
X6945000Y3785000
X7460000Y3990000
X245000Y7100000
X475000Y7100000
X4140000Y1265000
X360000Y7100000
X8265000Y8280000
X8170000Y8280000
X14685000Y5860000
X14457260Y5862050
X14570000Y5860000
X4260000Y1145000
X12385000Y5990000
X10870000Y5885000
X7215000Y8920000
X7215000Y8835000
X6370000Y8383070
X6900000Y8270000
X10220000Y6396500
X6195000Y5936500
X3040000Y490000
X1815000Y1030000
X11031740Y4716740
X2280000Y1655000
X7495000Y3645000
X6195000Y6000000
X10220000Y6460000
X14140000Y5580000
X8540000Y7595000
X11390000Y4225000
X12090000Y4210000
X10260000Y4255000
X10380000Y2775000
X12785000Y9380000
X8243210Y4488210
X12855000Y6835000
X12775000Y6685000
X12815000Y6480000
X12820000Y6370000
X12860000Y6165000
X14040000Y7245000
X14040000Y7385000
X10145000Y3485000
X14390000Y6860000
X6810000Y8330000
X1100000Y7995000
X905000Y7995000
X12525000Y9570000
X13295000Y8480000
X13415000Y8630000
X13100000Y8620000
X13305000Y8780000
X13415000Y8945000
X13260000Y9080000
X13185000Y9270000
X13070000Y9110000
X13140000Y8925000
X12825000Y9465000
X12825000Y9635000
X12765000Y9900000
X12955000Y9900000
X6235000Y6890000
X6235000Y7105000
X6235000Y7470000
X6230000Y7850000
X6660000Y8460000
X1295000Y8005000
X6230000Y7635000
X6235000Y7250000
X13215000Y8775000
X6185000Y8210000
X14815000Y9620000
X14750000Y9410000
X14355000Y9610000
X14510000Y9610000
X14630000Y9610000
X14510000Y9410000
X14630000Y9410000
X14870000Y9410000
X14732000Y127000
X12930000Y6005000
X13070000Y6005000
X12530000Y9735000
X7112000Y127000
X6550000Y8005000
X6130000Y8410000
X6225000Y8000000
X2885000Y7970000
X2715000Y7970000
X730000Y8100000
X14840000Y2995000
X14770000Y3550000
X12895000Y3550000
X14020000Y4815000
X14265000Y4530000
X13525000Y3550000
X13210000Y3865000
X13485000Y4625000
X13210000Y3235000
X13580000Y4220000
X6985000Y127000
X6858000Y127000
X8763000Y127000
X8890000Y127000
X9779000Y127000
R03X254000
X10668000Y127000
R29X127000
X14605000Y127000
X14478000Y127000
X14859000Y127000
X16383000Y2032000
X15494000Y9906000
X10541000Y9906000
X10414000Y9906000
R02X-127000
X16383000Y8890000
X10033000Y9906000
X9906000Y9906000
X16383000Y8763000
X16383000Y1524000
X16383000Y127000
X9779000Y9906000
X9652000Y9906000
X16383000Y8636000
X16383000Y9271000
X16383000Y2159000
X16383000Y9144000
X16383000Y1651000
X16383000Y1778000
X16383000Y2413000
X16383000Y2286000
X16383000Y2794000
X16256000Y127000
X16383000Y3048000
X12319000Y9906000
X127000Y381000
X127000Y2921000
X16383000Y8509000
X16383000Y1397000
X15240000Y127000
X127000Y3683000
X12192000Y9906000
X15748000Y9906000
X15621000Y9906000
X15621000Y127000
X16383000Y8382000
X15748000Y127000
X14986000Y9906000
X15113000Y9906000
X15494000Y127000
X127000Y3937000
X16383000Y5969000
X127000Y6223000
X127000Y6096000
X127000Y5334000
X127000Y5207000
X127000Y4826000
X127000Y2286000
X127000Y1524000
X16383000Y2540000
X16383000Y4826000
X127000Y7620000
X127000Y2413000
X127000Y4318000
X127000Y3810000
X16383000Y1270000
X16383000Y254000
X11811000Y9906000
X127000Y3556000
X127000Y254000
X12065000Y9906000
X127000Y3429000
X16383000Y5588000
X16383000Y889000
X16383000Y4318000
X16383000Y1905000
X127000Y2667000
X16383000Y9017000
X15113000Y127000
X127000Y2794000
X127000Y4064000
X16383000Y1016000
X127000Y127000
X127000Y5715000
X127000Y1016000
X127000Y5969000
X16383000Y381000
X127000Y889000
X254000Y127000
X127000Y4699000
X127000Y3175000
X127000Y1397000
X12446000Y9906000
X15367000Y127000
X127000Y5461000
X127000Y7747000
X127000Y3048000
X127000Y6731000
X16383000Y2667000
X11938000Y9906000
X16383000Y9906000
X16383000Y1143000
X127000Y6477000
X127000Y4191000
X127000Y4953000
X14986000Y127000
X127000Y6350000
X127000Y6604000
X127000Y2540000
X127000Y4445000
X16383000Y5334000
X16383000Y2921000
X127000Y4572000
X16129000Y127000
X16383000Y6731000
X15875000Y127000
X16383000Y762000
X8001000Y9906000
X7874000Y9906000
X16383000Y635000
X127000Y5588000
X16383000Y4445000
X127000Y5080000
X11684000Y9906000
X16383000Y4064000
X127000Y6858000
X16383000Y6604000
X16383000Y5461000
X127000Y6985000
X127000Y3302000
X16002000Y127000
X16383000Y508000
X127000Y5842000
X10925000Y6850000
X10640000Y6330000
X2920000Y550000
X10390000Y6850000
X10810000Y7205000
X6250000Y5090000
X10230000Y7200000
X9105000Y2655000
X9275000Y2485000
X7485000Y2315000
X5530000Y2480000
X7405000Y2485000
X9675000Y2710000
X9555000Y2590000
X7805000Y2710000
X7685000Y2590000
X9355000Y2315000
X7235000Y2655000
X5805000Y2590000
X15760000Y510000
X15960000Y640000
X14360000Y510000
X14170000Y640000
X12930000Y510000
X11330000Y635000
X5615000Y2315000
X5360000Y2650000
X8775000Y8050000
X7905000Y7895000
X15770000Y5520000
X10790000Y8735000
X5835000Y5570000
X9210000Y8105000
X5390000Y5500000
X7520000Y7840000
X7870000Y5395000
X7970000Y5430000
X7265000Y5290000
X15655000Y5700000
X7740000Y5100000
X16330000Y5885000
X16330010Y4955010
X15655000Y5810000
X15930000Y5290000
X10930000Y8100000
X9520000Y5380000
X10605000Y8055000
X14735000Y4435000
X14600000Y5530000
X16110000Y5855000
X7000000Y6250000
X11520000Y510000
X16345000Y4180000
X16435000Y3748410
X14570000Y5030000
X8345000Y7915000
X14490000Y5500000
X14820000Y4075000
X16435000Y3110000
X6940000Y6485000
X8170000Y7915000
X7110000Y5065000
X14715000Y5320000
X14695000Y4740000
X7000000Y6020000
X7080000Y6485000
X14920000Y3710000
X5970000Y4430000
X2830000Y2320000
X2990000Y2300000
X2805000Y435000
X2740000Y3530000
X2650000Y2830000
X1375000Y3580000
X2250000Y470010
X2750000Y1050000
X2275000Y1760010
X2875000Y1285000
X1600000Y3579990
X2990000Y1020000
X1985000Y520000
X1985000Y380000
X2315000Y1400000
X2790000Y1760000
X14580000Y3695000
X1710000Y1670000
X2840000Y2950000
X1715000Y1415000
X2840000Y1015000
X1470000Y1490000
X2410000Y2830000
X6380000Y1845000
X6810000Y1845000
X8925000Y1960000
X7070000Y1960000
X10635000Y2065000
X10140000Y1850000
X8260000Y1855000
X10185000Y1400000
X8680000Y1850000
X8315000Y1400000
X10290000Y810000
X6815000Y1405000
X10555000Y1400000
X6550000Y800000
X9890000Y1250000
X10560000Y1850000
X6445000Y1405000
X6170000Y1260000
X5845000Y3820000
X8685000Y1400000
X8010000Y1250000
X5347500Y4272500
X140000Y8440000
X8421090Y801090
X1910000Y8505000
X7760000Y9470000
X1810000Y7690000
X5980000Y8405000
X5730000Y8405000
X3700000Y8472560
X1800000Y7970000
X1800000Y8250000
X5860000Y8405000
X3595000Y7970000
X3595000Y8250000
X3595000Y7690000
X9405000Y4840000
X7015000Y3840000
X9815000Y4445000
X6995000Y4725000
X7270000Y4450000
X9842500Y5132500
X7150000Y4450000
X3525000Y7065000
X6550000Y5240000
X7515000Y4160000
X8150000Y4650000
X8790000Y4869990
X9705000Y3455000
X6310000Y4525000
X7570000Y5050000
X7460000Y4555000
X9600000Y8505000
X9310000Y1155000
X13120000Y640000
X7445000Y1155000
X5730000Y4430000
X14710000Y5500000
X9150000Y8480000
X8540000Y2205000
X6670000Y2195000
X16110000Y4995000
X5550000Y4295000
X5580000Y1170000
X11940000Y5720000
X9565000Y9930000
X5550000Y3795000
X6300000Y5625000
X5435000Y5195000
X5920000Y5100000
X10430000Y2205000
X15510000Y3650000
X390000Y7745000
X11750000Y5880000
X470000Y7705000
X305000Y7705000
X4615000Y2280000
X1100000Y8100000
X8890000Y8565000
X100000Y7300000
X4742400Y625000
X4595000Y1270000
X7095000Y8350000
X5860000Y5980000
X8130000Y9055000
X14955000Y5315000
X6920000Y6130000
X4595000Y1150000
X8132500Y9407500
X15780000Y5280000
X305000Y7790000
X4740000Y720000
X4760000Y2100000
X4760000Y1850000
X2875000Y8110000
X5390000Y4920000
X470000Y7790000
X4762400Y3010000
X4200000Y5990000
X5030010Y5465000
X14805000Y4990000
X12585000Y4460000
X4805000Y5720000
X4615000Y2400000
X8680000Y9715000
X11440000Y5605000
X14900000Y4870000
X5920000Y4740000
X8979000Y9715000
X6270000Y4770000
X11020000Y5880000
X2850000Y3495000
X12115000Y4960000
X11925000Y5130000
X8379000Y9715000
X10270000Y5510000
X8820000Y4145000
X10110000Y5350000
X12240000Y4800000
X4460000Y6020000
X5925000Y2710000
X8535000Y9715000
X2535000Y7980000
X6410000Y8120000
X15090000Y5700000
X4762400Y1755000
X5455000Y6400000
X10680000Y9885000
X10512500Y5747500
X10665000Y5800000
X10177500Y4797500
X5455000Y6140000
X8828990Y9715000
X8080000Y9700000
X10027500Y5272500
X10580000Y5200000
X3460000Y4790000
X735000Y3940000
X760000Y5090000
X2575000Y3980000
X10015000Y7835000
X8780000Y8570000
X10940000Y7560000
X5910000Y7365000
X2195000Y6235000
X10290000Y8070000
X3800000Y6460000
X4615000Y3530000
X2250000Y5000000
X3315000Y4500000
X2500000Y5260000
X10100000Y7505000
X5915000Y8110000
X8320000Y7330000
X180000Y7480000
X15185000Y3220000
X9320000Y7330000
X5910000Y6995000
X2150000Y6355000
X7840000Y8370000
X12505000Y3256320
X4225000Y6110000
X14780000Y4870000
X3600000Y5700000
X4095000Y6515000
X3460000Y4680000
X2245000Y4320000
X4760000Y3340000
X9170000Y7330000
X3000000Y3500000
X8228990Y9715000
X4740000Y970000
X4615000Y3650000
X8570000Y7330000
X8720000Y7330000
X12085000Y3295000
X10230000Y3410000
X3685000Y5775000
X10515000Y3110000
X5950000Y7740000
X4045000Y6290000
X3365000Y7225000
X2510000Y5930000
X10140660Y3030660
X2500000Y4750000
X11570890Y3725000
X10390000Y8530000
X2930000Y5370000
X2455000Y7055000
X4755000Y3100000
X3025000Y5595000
X11591160Y4510000
X10840000Y3758840
X9470000Y7330000
X10975000Y4650000
X10792160Y4447160
X8655000Y7865000
X9020000Y7330000
X3667500Y6152500
X7200000Y8375000
X3585000Y6075000
X2670000Y5770000
X6540000Y8300000
X6500000Y4265000
X2750000Y5690000
X15490000Y4940000
X8870000Y7330000
X14215000Y9285000
X14215000Y9065000
X14170000Y9675000
X2430000Y6010000
X14900000Y9275000
X15075000Y9385000
X7745000Y2205000
X14340000Y9280000
X14390000Y9410000
X14270000Y9405000
R02X-120000
X13670000Y9405000
R05X-120000
X13070000Y9905000
R02X120000
X4875000Y4140000
X6075000Y2110000
X13430000Y9905000
X13550000Y9905000
X4875000Y4030000
X13670000Y9905000
R02X120000
X9815000Y2110000
X9760000Y2055000
X9705000Y2000000
X9630000Y2075000
X9685000Y2130000
X9740000Y2185000
X9670000Y2260000
X9615000Y2205000
X9560000Y2150000
X14030000Y9905000
X5930000Y2260000
X5965000Y2000000
X14150000Y9905000
R04X120000
X3530000Y5075000
X12950000Y6505000
X3530000Y5260000
X5890000Y2075000
X5875000Y2205000
X13190000Y6505000
X13350000Y6505000
X13550000Y6505000
X4970000Y3920000
X5060000Y4140000
X4875000Y3920000
X13750000Y6505000
X13950000Y6505000
X6020000Y2055000
X4010000Y5090000
X7690000Y2150000
X3820000Y4330000
X14110000Y6505000
X7870000Y2185000
X3345000Y5260000
X5060000Y3920000
X5060000Y4030000
X14230000Y6505000
X7800000Y2260000
X6370000Y4970000
X14390000Y6505000
X7835000Y2000000
X7760000Y2075000
X14870000Y6505000
X7815000Y2130000
X14350000Y6005000
X14230000Y6005000
X13990000Y6005000
X5820000Y2150000
X14110000Y6005000
X13190000Y6005000
X6000000Y2185000
X13590000Y6005000
X13070010Y6500000
X14870000Y9905000
X13790000Y6005000
X4970000Y4140000
X14750000Y9905000
X13390000Y6005000
X4970000Y4030000
X5945000Y2130000
X4385000Y3870000
X3420000Y5640000
X3530000Y5445000
X570000Y7240000
X7890000Y2055000
X3065000Y7980000
X3715000Y5260000
X7945000Y2110000
X140000Y755000
X4240000Y4470000
X6439010Y9000990
R02X150000
X6289010Y9000990
X7039010Y9000990
X9190000Y7935000
X10370000Y8055000
X10170000Y8535000
X11410000Y2340000
X11910000Y5305000
X12455000Y5300000
X12815000Y5080000
X11500000Y3880000
X9675000Y2945000
X6765000Y2220000
X11590000Y3805000
X9785000Y2945000
X6576100Y2220000
X11627500Y2792500
X11295000Y3050000
X6327500Y2417500
X11707500Y2872500
X11320000Y3155000
X6237500Y2507500
X11465000Y5790000
X9625000Y5375000
X7380000Y4500000
X11235000Y5880000
X2875000Y1425000
X9355000Y4320000
X13890000Y4930000
X6530000Y4520000
X11690000Y5370000
X12130000Y3090000
X12430000Y1435000
X11810000Y3400000
X11205000Y2650000
X11155000Y3000000
X6145000Y2595000
X9710000Y4625000
X11320000Y4804520
X11380000Y5650000
X9215000Y4280000
X6265000Y3950000
X10715000Y2095000
X9930000Y3265000
X10110000Y4385000
X12204730Y3135270
X12550000Y1430000
X15600000Y1930000
X13025000Y5350000
X13120000Y5370000
X12522190Y3952190
X13915000Y2565000
X12215000Y4935000
X12355000Y4835000
X14795000Y1420000
X12405000Y4645000
X15475000Y1320000
X11010300Y3589710
X14265000Y2720000
X12485000Y4565000
X11905000Y4190000
X7715000Y3736090
X15330000Y1260000
X11017500Y3707500
X11647500Y2612500
X12850000Y4265000
X14635000Y2080000
X12735000Y4335000
X14505000Y1830000
X10628500Y7595000
X15235000Y4906500
X15870000Y5825000
X15250000Y5110000
X10565000Y7595000
X15235000Y4970000
X12515000Y6030000
X11980000Y6170000
X15435000Y7125000
X15890000Y3525000
X9450000Y4760000
X8030000Y4780000
X13895000Y5320000
X9980000Y3640000
X9615000Y4580000
X13470000Y6285000
X13355000Y6840000
X11780000Y5375000
X10543940Y4085000
X9615000Y4350000
X12110000Y5260000
X13255000Y5545000
X12135000Y6005000
X12135000Y5405000
X4210000Y5485000
X4060000Y5460000
X13470000Y6215000
X4145000Y5380000
X12245000Y5465000
X14215000Y9143570
X8900000Y7865000
X12075000Y5540000
X4675000Y5735000
X14215000Y9207070
X8963500Y7865000
X15030000Y9320000
X8720000Y7930000
X14966500Y9320000
X8783500Y7930000
X14910000Y6265000
X14940000Y5170000
X14839530Y9345000
X9050000Y7920000
X14776030Y9345000
X9113500Y7920000
X2260000Y7560000
X2260000Y7840000
X355000Y8050000
X2260000Y7700000
X455000Y8120000
X260000Y8120000
X14603500Y9340000
X9185000Y7865000
X14540000Y9340000
X9248500Y7865000
X14484530Y9280000
X9355160Y7865000
X2991940Y6533030
X2991940Y6851230
X3310140Y6533030
X2991940Y6214830
X2673740Y6533030
X3151040Y6692130
X3151040Y6373930
X2832840Y6692130
X2832840Y6373930
T03
X340000Y3120000
X340000Y3374000
T04
X3150000Y8680000
X2899990Y8680000
X2699990Y8680000
X2450000Y8680000
X2399990Y8529990
R03X200000
X3200010Y8529990
X1360000Y8680000
X1109990Y8680000
X909990Y8680000
X660000Y8680000
X609990Y8529990
R03X200000
X1410010Y8529990
T05
X4230000Y7420000
R05X203200
X4128400Y7166000
R02X203200
X4941200Y7166000
R02X203200
T06
X8550000Y5310000
R02X254000
T07
X4128400Y6912000
X4382400Y6912000
X5093600Y6912000
X5347600Y6912000
T08
X13914000Y2342000
R07Y-254000
X16200000Y564000
R07Y254000
X11084000Y2342000
R07Y-254000
X13370000Y564000
R07Y254000
X5420000Y340000
R05X254000
X7280000Y340000
R05X254000
X9140000Y340000
R05X254000
X13215000Y4930000
X13035390Y5109610
X12855790Y5289210
X12965000Y4680000
X12785390Y4859610
X12605790Y5039210
X12585000Y5700000
X12331000Y5700000
X15270000Y4100000
X15270000Y3846000
X8080000Y3760000
R05X254000
X6610000Y3220000
R02Y254000
X6260000Y3220000
R02Y254000
T09
X462000Y1911000
X462000Y2411000
T10
X3931550Y9261500
X5544450Y9261500
T11
X630000Y6600000
X1330000Y6600000
X630000Y5460000
X1330000Y5460000
X630000Y4310000
X1330000Y4310000
T12
X3457010Y8880000
X2142990Y8880000
X1667010Y8880000
X352990Y8880000
T13
X4103000Y8944000
X5373000Y8944000
T14
X16080000Y6305000
X11280000Y6305000
X16080000Y9605000
X11280000Y9605000
T15
X-415000Y1248000
X5985000Y6485000
X-415000Y8812000
X16975000Y8812000
X16975000Y1248000
M30
