G04 ================== begin FILE IDENTIFICATION RECORD ==================*
G04 Layout Name:  rpi-cm4-carrierboard-v1_00-0a.brd*
G04 Film Name:    rpi-cm4-carrierboard-v1_00-0a-Soldermask_bot*
G04 File Format:  Gerber RS274X*
G04 File Origin:  Cadence Allegro 22.1-S001*
G04 Origin Date:  Sun Dec 17 10:29:58 2023*
G04 *
G04 Layer:  VIA CLASS/SOLDERMASK_BOTTOM*
G04 Layer:  PIN/SOLDERMASK_BOTTOM*
G04 Layer:  PACKAGE GEOMETRY/SOLDERMASK_BOTTOM*
G04 Layer:  BOARD GEOMETRY/SOLDERMASK_BOTTOM*
G04 *
G04 Offset:    (0.0000 0.0000)*
G04 Mirror:    No*
G04 Mode:      Positive*
G04 Rotation:  0*
G04 FullContactRelief:  No*
G04 UndefLineWidth:     0.0000*
G04 ================== end FILE IDENTIFICATION RECORD ====================*
%FSLAX35Y35*MOMM*%
%IR0*IPPOS*OFA0.00000B0.00000*MIA0B0*SFA1.00000B1.00000*%
%ADD30O,24.5X3.5*%
%AMMACRO35*
21,1,1.905,.508,0.0,0.0,135.*
1,1,1.905,.179605,.179605*
1,1,1.905,-.179605,-.179605*%
%ADD35MACRO35*%
%AMMACRO34*
21,1,1.905,2.413,0.0,0.0,135.*%
%ADD34MACRO34*%
%ADD11C,.5588*%
%ADD13C,1.*%
%ADD14C,2.*%
%ADD23O,8.5X3.5*%
%ADD19C,2.032*%
%ADD27O,2.413X1.905*%
%ADD22C,3.5*%
%ADD16C,1.1501*%
%ADD24O,1.905X2.413*%
%ADD33C,6.4*%
%ADD26R,2.413X1.905*%
%ADD25R,1.905X2.413*%
%ADD20C,1.524*%
%ADD10C,5.08*%
%ADD18R,1.7501X1.7501*%
%ADD17C,2.7501*%
%ADD32C,1.7018*%
%ADD15C,1.7272*%
%ADD21C,2.2098*%
%ADD29O,1.5499X2.35*%
%ADD12C,2.794*%
%ADD28O,1.5499X3.35*%
%ADD31R,1.7018X1.7018*%
G75*
%LPD*%
G75*
G36*
G01X200000Y9855200D02*
X60000D01*
Y9347200D01*
X200000D01*
Y9855200D01*
G37*
G54D10*
X-415000Y1248000D03*
Y8812000D03*
X5985000Y6485000D03*
X16975000Y1248000D03*
Y8812000D03*
G54D20*
X4128400Y7166000D03*
X4230000Y7420000D03*
X4534800Y7166000D03*
X4331600D03*
X4636400Y7420000D03*
X4433200D03*
X5144400Y7166000D03*
X4941200D03*
X5246000Y7420000D03*
X5042800D03*
X4839600D03*
X5347600Y7166000D03*
G54D11*
X127000Y127000D03*
Y254000D03*
Y381000D03*
X140000Y755000D03*
X127000Y889000D03*
Y1016000D03*
Y1397000D03*
Y1524000D03*
Y2540000D03*
Y2413000D03*
Y2286000D03*
Y3048000D03*
Y2794000D03*
Y2667000D03*
Y2921000D03*
Y3302000D03*
Y3175000D03*
Y3429000D03*
Y3556000D03*
Y4064000D03*
Y3810000D03*
Y3937000D03*
Y3683000D03*
Y4572000D03*
Y4445000D03*
Y4191000D03*
Y4318000D03*
Y5080000D03*
Y4953000D03*
Y4699000D03*
Y4826000D03*
Y5588000D03*
Y5461000D03*
Y5207000D03*
Y5334000D03*
Y5842000D03*
Y5969000D03*
Y5715000D03*
Y6096000D03*
Y6604000D03*
Y6350000D03*
Y6477000D03*
Y6223000D03*
Y6985000D03*
Y6858000D03*
Y6731000D03*
X100000Y7300000D03*
X127000Y7620000D03*
Y7747000D03*
X140000Y8440000D03*
X254000Y127000D03*
X360000Y7100000D03*
X475000D03*
X245000D03*
X570000Y7240000D03*
X180000Y7480000D03*
X305000Y7705000D03*
X470000D03*
X260000Y8120000D03*
X455000D03*
X355000Y8050000D03*
X470000Y7790000D03*
X305000D03*
X390000Y7745000D03*
X220000Y7885010D03*
X560000Y7860000D03*
X735000Y3940000D03*
X760000Y5090000D03*
X1100000Y8100000D03*
X730000D03*
X905000Y7995000D03*
X1100000D03*
X1165000Y8040000D03*
X970000Y8045000D03*
X843500D03*
X780000D03*
X1033500D03*
X920000Y8100000D03*
X1470000Y1490000D03*
X1345000Y1160000D03*
X1600000Y3579990D03*
X1375000Y3580000D03*
X1295000Y8005000D03*
X1228500Y8040000D03*
X1480000Y8140000D03*
Y8080000D03*
X1985000Y380000D03*
Y520000D03*
X1815000Y1030000D03*
X1715000Y1415000D03*
X1710000Y1670000D03*
X2150000Y6355000D03*
X2195000Y6235000D03*
X2000000Y7045000D03*
X1912500Y7117500D03*
X2150000Y6795000D03*
X1810000Y7690000D03*
X1800000Y7970000D03*
X2085000Y8240000D03*
X1800000Y8250000D03*
X1910000Y8505000D03*
X2250000Y470010D03*
X2315000Y1400000D03*
X2275000Y1760010D03*
X2280000Y1655000D03*
X2410000Y2830000D03*
X2650000D03*
X2575000Y3980000D03*
X2245000Y4320000D03*
X2500000Y4750000D03*
X2250000Y5000000D03*
X2500000Y5260000D03*
X2655000Y5505000D03*
X2430000Y6010000D03*
X2670000Y5770000D03*
X2510000Y5930000D03*
X2675000Y6190000D03*
X2272210Y6126820D03*
X2320000Y6085000D03*
X2580000Y5840000D03*
X2375000Y5935000D03*
X2435000Y5880000D03*
X2673740Y6533030D03*
X2522860Y6382140D03*
X2477950Y6427050D03*
X2330710Y6465000D03*
X2455000Y7055000D03*
X2705000Y6920000D03*
X2615000Y6815000D03*
X2570000Y6770000D03*
X2335000Y6935000D03*
X2255000Y6855000D03*
X2260000Y7700000D03*
Y7560000D03*
X2690000Y7340000D03*
X2645000Y7260000D03*
X2520000Y7280000D03*
X2260000Y7840000D03*
X2535000Y7980000D03*
X2595000Y8030000D03*
X2658500D03*
X2805000Y435000D03*
X2920000Y550000D03*
X3040000Y490000D03*
X3170000Y495000D03*
X2840000Y1015000D03*
X2990000Y1020000D03*
X2750000Y1050000D03*
X2875000Y1425000D03*
Y1285000D03*
X2790000Y1760000D03*
X2945000Y1770000D03*
X3090000Y1670000D03*
X2990000Y2300000D03*
X2830000Y2320000D03*
X2840000Y2950000D03*
X3150000Y3000000D03*
X2915000Y2710000D03*
X3000000Y3500000D03*
X2850000Y3495000D03*
X2740000Y3530000D03*
X2985000Y3720000D03*
X3066000Y4040000D03*
X2750000Y5690000D03*
X3025000Y5595000D03*
X2930000Y5370000D03*
X2719910Y6145090D03*
X3060000Y5790000D03*
X3005000Y5995000D03*
X3140000Y6000000D03*
X2920000Y5740000D03*
X2832840Y6373930D03*
Y6692130D03*
X3151040Y6373930D03*
Y6692130D03*
X2991940Y6214830D03*
Y6533030D03*
Y6851230D03*
X3120000Y7065000D03*
X3165000Y7010000D03*
X2750000Y6965000D03*
X3140000Y7220000D03*
X2740000Y7380000D03*
X3065000Y7980000D03*
X2875000Y8110000D03*
X2715000Y7970000D03*
X2885000D03*
X3005000Y8030000D03*
X2941500D03*
X2833500D03*
X2725000Y8110000D03*
X2770000Y8030000D03*
X3280000Y2330000D03*
X3460000Y2710000D03*
X3285000Y3520000D03*
X3500000Y3910000D03*
X3460000Y4680000D03*
X3315000Y4500000D03*
X3595000Y4365000D03*
X3685000D03*
X3320000Y4330000D03*
X3530000Y5075000D03*
X3460000Y4790000D03*
X3715000Y5260000D03*
X3530000Y5445000D03*
X3420000Y5640000D03*
X3345000Y5260000D03*
X3530000D03*
X3600000Y5700000D03*
X3282500Y5472500D03*
X3585000Y6075000D03*
X3667500Y6152500D03*
X3685000Y5775000D03*
X3677500Y6062500D03*
X3600000Y5985000D03*
X3515000Y5905000D03*
X3280000Y6145000D03*
X3425000Y5915000D03*
X3505000Y5995000D03*
X3310140Y6533030D03*
X3360000Y6220000D03*
X3597500Y6332500D03*
X3660000Y6570000D03*
X3365000Y7225000D03*
X3525000Y7065000D03*
X3680000Y6955000D03*
X3630150Y6994350D03*
X3315000Y6870000D03*
X3600000Y7160000D03*
X3540000Y7220000D03*
X3270090Y6914910D03*
X3595000Y7690000D03*
Y7970000D03*
X3260000Y8080000D03*
Y8140000D03*
X3595000Y8250000D03*
X3700000Y8472560D03*
X4140000Y1265000D03*
X4020000Y1145000D03*
X4140000D03*
X4020000Y1265000D03*
X4160000Y1500000D03*
X4040000D03*
X4160000Y2400000D03*
X4040000D03*
Y2755000D03*
X4160000D03*
X4040000Y3715000D03*
X4160000D03*
X3820000Y4330000D03*
X4010000Y5090000D03*
X4160000Y4990000D03*
X3915000Y5010000D03*
X4160000Y4900000D03*
X4145000Y5380000D03*
X4060000Y5460000D03*
X4210000Y5485000D03*
X3930000Y5670000D03*
X4225000Y6110000D03*
X4200000Y5990000D03*
X3850000Y5755000D03*
X4045000Y6290000D03*
X4095000Y6515000D03*
X3800000Y6460000D03*
X4290000Y370000D03*
X4310000Y490000D03*
X4315000Y985000D03*
X4310000Y735000D03*
X4595000Y1150000D03*
Y1270000D03*
X4260000Y1145000D03*
Y1265000D03*
X4310000Y1610000D03*
X4280000Y1500000D03*
X4330000Y1975000D03*
Y1730000D03*
X4615000Y2400000D03*
Y2280000D03*
X4335000Y2225000D03*
X4280000Y2400000D03*
X4310000Y2865000D03*
X4280000Y2755000D03*
X4330000Y2985000D03*
X4615000Y3650000D03*
Y3530000D03*
X4330000Y3230000D03*
X4335000Y3480000D03*
X4385000Y3870000D03*
X4280000Y3715000D03*
X4240000Y4470000D03*
X4675000Y5735000D03*
X4460000Y6020000D03*
X4670000Y5835000D03*
X4605000Y5785000D03*
X4330000Y6170000D03*
X4310000Y6270000D03*
X4300000Y6400000D03*
X4580000Y6680000D03*
X4330000Y6500000D03*
X4742400Y625000D03*
X4740000Y970000D03*
Y720000D03*
X4762400Y1755000D03*
X4760000Y1850000D03*
Y2100000D03*
X4755000Y3100000D03*
X4762400Y3010000D03*
X4760000Y3340000D03*
X4970000Y4030000D03*
Y4140000D03*
X5060000Y4030000D03*
Y3920000D03*
X4875000D03*
X5060000Y4140000D03*
X4970000Y3920000D03*
X4875000Y4030000D03*
Y4140000D03*
X5030010Y5465000D03*
X4805000Y5720000D03*
X5140000Y6600000D03*
X5580000Y1170000D03*
X5360000Y2650000D03*
X5615000Y2315000D03*
X5530000Y2480000D03*
X5260000Y3555000D03*
X5550000Y3795000D03*
X5260000Y3690000D03*
X5660000Y3980000D03*
X5550000Y4295000D03*
X5730000Y4430000D03*
X5347500Y4272500D03*
X5540000Y4630000D03*
X5390000Y4920000D03*
X5435000Y5195000D03*
X5290000Y5010000D03*
Y5100000D03*
X5390000Y5500000D03*
X5490000Y5380000D03*
X5590000D03*
X5455000Y6140000D03*
Y6020000D03*
Y6400000D03*
X5270000Y6490000D03*
X5455000Y6260000D03*
X5545000Y6680000D03*
X5730000Y8405000D03*
X6170000Y1260000D03*
X6045000Y1620000D03*
X5932500D03*
X5945000Y2130000D03*
X5820000Y2150000D03*
X6020000Y2055000D03*
X5890000Y2075000D03*
X5965000Y2000000D03*
X6075000Y2110000D03*
X6145000Y2595000D03*
X6237500Y2507500D03*
X6000000Y2185000D03*
X5875000Y2205000D03*
X5930000Y2260000D03*
X5805000Y2590000D03*
X5925000Y2710000D03*
X5845000Y3820000D03*
X6120000Y4140000D03*
X5820000Y3980000D03*
X6120000D03*
X5970000D03*
Y4430000D03*
X5920000Y4740000D03*
Y5100000D03*
X6250000Y5090000D03*
Y4955000D03*
Y4870000D03*
X5835000Y5570000D03*
X6130000Y5650000D03*
X6250000Y5240000D03*
Y5320000D03*
X5860000Y5980000D03*
X6195000Y6000000D03*
Y5936500D03*
X6130000Y5770000D03*
X5910000Y6995000D03*
X6235000Y7105000D03*
Y6890000D03*
Y6965940D03*
Y7029440D03*
X5910000Y7365000D03*
X6235000Y7250000D03*
X6230000Y7635000D03*
X6235000Y7470000D03*
Y7390000D03*
X6230730Y7711390D03*
X6235000Y7326500D03*
X5950000Y7740000D03*
X5915000Y8110000D03*
X6225000Y8000000D03*
X6185000Y8210000D03*
X6230000Y7850000D03*
X6225000Y8076500D03*
Y8140000D03*
X6230730Y7774890D03*
X5860000Y8405000D03*
X5980000D03*
X6130000Y8410000D03*
Y8266500D03*
Y8330000D03*
X6550000Y800000D03*
X6445000Y1405000D03*
X6380000Y1845000D03*
X6710000D03*
X6280000Y1840000D03*
X6327500Y2417500D03*
X6576100Y2220000D03*
X6765000D03*
X6670000Y2195000D03*
X6265000Y3950000D03*
X6290000Y4050000D03*
X6530000Y4520000D03*
X6500000Y4265000D03*
X6310000Y4525000D03*
X6400000D03*
X6645000Y4505000D03*
X6275000Y4680000D03*
X6370000Y4970000D03*
X6270000Y4770000D03*
X6470000Y4970000D03*
X6300000Y5625000D03*
X6550000Y5240000D03*
X6650000Y5245000D03*
X6710000Y6400000D03*
X6595000D03*
X6410000Y8120000D03*
X6550000Y8005000D03*
X6485000Y8135000D03*
X6530000Y8075000D03*
X6540000Y8300000D03*
X6660000Y8460000D03*
X6370000Y8383070D03*
X6551500Y8390000D03*
X6758660Y8385000D03*
X6615000Y8390000D03*
X6695160Y8385000D03*
X6289010Y9000990D03*
X6739010D03*
X6589010D03*
X6439010D03*
X6858000Y127000D03*
X6985000D03*
X7112000D03*
X6815000Y1405000D03*
X7070000Y1960000D03*
X6810000Y1845000D03*
X7235000Y2655000D03*
X7220000Y3541090D03*
Y3351100D03*
X7015000Y3840000D03*
X6945000Y3785000D03*
X7150000Y4450000D03*
X7270000D03*
X6995000Y4725000D03*
X7110000Y5065000D03*
X7030000Y5010000D03*
X6870000Y4960000D03*
X7265000Y5290000D03*
X6920000Y6130000D03*
X7000000Y6020000D03*
X7015000Y5840000D03*
Y5765000D03*
X7080000Y6485000D03*
X6940000D03*
X7000000Y6250000D03*
X6800000Y6310000D03*
X7200000Y8375000D03*
X7095000Y8350000D03*
X6810000Y8330000D03*
X6900000Y8270000D03*
X7095000Y8445000D03*
X7039010Y9000990D03*
X7215000Y8835000D03*
Y8920000D03*
X6839000Y9175000D03*
X6939000D03*
X7002500D03*
X7445000Y1155000D03*
X7760000Y2075000D03*
X7690000Y2150000D03*
X7745000Y2205000D03*
X7685000Y2590000D03*
X7405000Y2485000D03*
X7485000Y2315000D03*
X7495000Y3645000D03*
X7715000Y3546100D03*
Y3736090D03*
X7515000Y4160000D03*
X7460000Y3990000D03*
X7290000Y3810000D03*
X7380000Y4500000D03*
X7460000Y4555000D03*
X7575000Y4410000D03*
X7570000Y5050000D03*
X7740000Y5100000D03*
X7290000Y5640000D03*
X7520000Y7840000D03*
X7310000Y8370010D03*
X7695000Y8925000D03*
X7760000Y9470000D03*
X8010000Y1250000D03*
X7910000Y1610000D03*
X7790000D03*
X7945000Y2110000D03*
X7890000Y2055000D03*
X7815000Y2130000D03*
X7835000Y2000000D03*
X8260000Y1855000D03*
X8160000Y1850000D03*
X7800000Y2260000D03*
X7870000Y2185000D03*
X8205000Y2425000D03*
X8110000Y2510000D03*
X8017500Y2597500D03*
X7805000Y2710000D03*
X7860000Y3940000D03*
X7795000Y3890000D03*
X8150000Y4650000D03*
X8243210Y4488210D03*
X8030000Y4780000D03*
X7895000Y4835000D03*
X8000000Y5040000D03*
X7970000Y5430000D03*
X7870000Y5395000D03*
X8240000Y5435000D03*
X7845000Y7570000D03*
X8170000Y7580000D03*
Y7915000D03*
X7905000Y7895000D03*
X8220000Y8200000D03*
X7840000Y8370000D03*
X8170000Y8280000D03*
X8265000D03*
X8130000Y9055000D03*
X7805000Y8925000D03*
X8040000Y8950000D03*
X8228990Y9715000D03*
X8080000Y9700000D03*
X8132500Y9407500D03*
X8273570Y9640000D03*
X7874000Y9906000D03*
X8001000D03*
X7965490Y9790000D03*
X8028990D03*
X8763000Y127000D03*
X8421090Y801090D03*
X8685000Y1400000D03*
X8315000D03*
X8680000Y1850000D03*
X8580000D03*
X8540000Y2205000D03*
X8446100Y2230000D03*
X8635000D03*
X8355000Y4470000D03*
X8790000Y4869990D03*
X8720000Y7330000D03*
X8570000D03*
X8320000D03*
X8540000Y7595000D03*
X8345000Y7580000D03*
X8783500Y7930000D03*
X8720000D03*
X8655000Y7865000D03*
X8345000Y7915000D03*
X8775000Y8050000D03*
X8620000Y8090000D03*
X8780000Y8570000D03*
X8535000Y9715000D03*
X8379000D03*
X8680000D03*
X8639070Y9640720D03*
X8337070Y9640000D03*
X8724290Y9644280D03*
X8575570Y9640720D03*
X8787790Y9644280D03*
X8428570Y9640000D03*
X8492070D03*
X8890000Y127000D03*
X8925000Y1960000D03*
X9275000Y2485000D03*
X9105000Y2655000D03*
X9285000Y3190000D03*
X8820000Y4145000D03*
X9040000Y4045000D03*
X9215000Y4280000D03*
X9020000Y4470000D03*
X8870000Y7330000D03*
X9020000D03*
X9170000D03*
X9248500Y7865000D03*
X9185000D03*
X9113500Y7920000D03*
X9050000D03*
X8963500Y7865000D03*
X8900000D03*
X9190000Y7935000D03*
X9210000Y8105000D03*
X8890000Y8565000D03*
X9150000Y8480000D03*
X9250000D03*
X9020000Y8575000D03*
X8828990Y9715000D03*
X8979000D03*
X8937070Y9645000D03*
X8873570D03*
X9779000Y127000D03*
X9310000Y1155000D03*
X9790000Y1630000D03*
X9660000D03*
X9560000Y2150000D03*
X9685000Y2130000D03*
X9630000Y2075000D03*
X9705000Y2000000D03*
X9760000Y2055000D03*
X9815000Y2110000D03*
X9615000Y2205000D03*
X9670000Y2260000D03*
X9740000Y2185000D03*
X9355000Y2315000D03*
X9555000Y2590000D03*
X9785000Y2945000D03*
X9675000D03*
Y2710000D03*
X9705000Y3455000D03*
X9745000Y3885000D03*
X9615000Y4350000D03*
Y4580000D03*
X9710000Y4625000D03*
X9355000Y4320000D03*
X9815000Y4445000D03*
X9450000Y4760000D03*
X9405000Y4840000D03*
X9625000Y5375000D03*
X9520000Y5380000D03*
X9470000Y7330000D03*
X9320000D03*
X9355160Y7865000D03*
X9390000Y8120000D03*
X9650000Y7880000D03*
X9785000D03*
X9418660Y7865000D03*
X9600000Y8505000D03*
X9475000Y8565000D03*
X9565000Y9930000D03*
X9652000Y9906000D03*
X9779000D03*
X10287000Y127000D03*
X10033000D03*
X10290000Y810000D03*
X9890000Y1250000D03*
X10185000Y1400000D03*
X10140000Y1850000D03*
X10040000D03*
X9890000Y2600000D03*
X10075000Y2425000D03*
X9982500Y2512500D03*
X10140660Y3030660D03*
X10210000Y2705000D03*
X10070000Y2710000D03*
X10302080Y3152080D03*
X9980000Y3640000D03*
X9930000Y3265000D03*
X10230000Y3410000D03*
X10145000Y3485000D03*
X10150000Y3325000D03*
X10070000Y3265000D03*
X10305000Y3325000D03*
X10110000Y4385000D03*
X10260000Y4255000D03*
X10025000Y4395000D03*
X10177500Y4797500D03*
X9842500Y5132500D03*
X9930000Y4910000D03*
X10090000Y4730000D03*
X10027500Y5272500D03*
X10110000Y5350000D03*
X10270000Y5510000D03*
X10177500Y5442500D03*
X9940000Y5200000D03*
X10030000Y5350000D03*
X10220000Y6460000D03*
Y6396500D03*
X9980000Y6700000D03*
X10230000Y7200000D03*
X10100000Y7505000D03*
X9980000Y7440000D03*
X10290000Y8070000D03*
X10015000Y7835000D03*
X10170000Y8535000D03*
X10300000D03*
X10060000D03*
X9840000D03*
X9950000D03*
X9906000Y9906000D03*
X10033000D03*
X10160000D03*
X10287000D03*
X10795000Y127000D03*
X10668000D03*
X10541000D03*
X10555000Y1400000D03*
X10715000Y2095000D03*
X10560000Y1850000D03*
X10635000Y2065000D03*
X10460000Y1850000D03*
X10430000Y2205000D03*
X10335000Y2235000D03*
X10526090D03*
X10515000Y3110000D03*
X10380000Y2775000D03*
X10467500Y3167500D03*
X10405000Y3650000D03*
X10464950Y3610050D03*
X10480000Y3540000D03*
X10650000Y3510000D03*
Y3420000D03*
X10543940Y4085000D03*
X10792160Y4447160D03*
X10645000Y4310000D03*
X10510000Y4675000D03*
X10750000Y4935000D03*
X10580000Y5200000D03*
X10420000Y5680000D03*
X10665000Y5800000D03*
X10512500Y5747500D03*
X10645000Y5735000D03*
X10450000Y5790000D03*
X10710000Y5895000D03*
Y5985000D03*
X10370000Y5790000D03*
X10640000Y6330000D03*
X10810000Y7205000D03*
X10390000Y6850000D03*
X10565000Y7595000D03*
X10628500D03*
X10650000Y7350000D03*
X10775000D03*
X10525000D03*
X10440000Y7590000D03*
X10370000Y8055000D03*
X10605000D03*
X10810000Y8115000D03*
X10390000Y8530000D03*
X10790000Y8735000D03*
X10610000Y8530000D03*
X10500000D03*
X10790000Y9565000D03*
Y9365000D03*
X10680000Y9885000D03*
X10414000Y9906000D03*
X10541000D03*
X11303000Y127000D03*
X11176000D03*
X11049000D03*
X10922000D03*
X11330000Y635000D03*
X11205000Y2650000D03*
X11015000Y2595000D03*
X11155000Y3000000D03*
X11320000Y3155000D03*
X11295000Y3050000D03*
Y2945000D03*
X10935000Y2675000D03*
X11010300Y3589710D03*
X11270000Y3460000D03*
X11129980Y3274980D03*
X11127500Y3587500D03*
X11017500Y3707500D03*
X10840000Y3758840D03*
X10975000Y4650000D03*
X11320000Y4804520D03*
X11031740Y4716740D03*
X11157500Y4697500D03*
X10972500Y5607500D03*
X11235000Y5880000D03*
X11020000D03*
X10870000Y5885000D03*
X10845000Y6475000D03*
Y6395000D03*
Y6555000D03*
X10925000Y6850000D03*
X10940000Y7560000D03*
X11030000Y7590000D03*
X10930000Y8100000D03*
X11520000Y510000D03*
X11811000Y127000D03*
X11684000D03*
X11557000D03*
X11430000D03*
X11460000Y1930000D03*
X11647500Y2612500D03*
X11410000Y2340000D03*
X11590000Y2190000D03*
X11455000Y2645000D03*
X11707500Y2872500D03*
X11627500Y2792500D03*
X11787500Y2952500D03*
X11810000Y3400000D03*
X11615000Y3210000D03*
X11590000Y3805000D03*
X11500000Y3880000D03*
X11570890Y3725000D03*
X11760000Y3935000D03*
X11670000Y4010000D03*
X11591160Y4510000D03*
X11390000Y4225000D03*
X11790000Y4245000D03*
X11780000Y5375000D03*
X11380000Y5650000D03*
X11690000Y5370000D03*
X11440000Y5605000D03*
X11845000Y5205000D03*
X11780000Y5300000D03*
X11465000Y5790000D03*
X11750000Y5880000D03*
X11580000Y5810000D03*
X11805000Y8520000D03*
X11684000Y9906000D03*
X11811000D03*
X12319000Y127000D03*
X12192000D03*
X12065000D03*
X11938000D03*
X12204730Y3135270D03*
X12130000Y3090000D03*
X11865000Y3035000D03*
X11947500Y3112500D03*
X12085000Y3295000D03*
X12027500Y3192500D03*
X11860000Y3540000D03*
X12170000Y3365000D03*
X11880000Y4045000D03*
X12081850Y4053160D03*
X12045000Y3685000D03*
X11925000Y3710000D03*
X11905000Y4190000D03*
X12090000Y4210000D03*
X12355000Y4835000D03*
X12215000Y4935000D03*
X12240000Y4800000D03*
X11925000Y5130000D03*
X12115000Y4960000D03*
X11875000Y4770000D03*
X12325000Y4725000D03*
X12075000Y5540000D03*
X12245000Y5465000D03*
X12135000Y5405000D03*
X12110000Y5260000D03*
X11910000Y5305000D03*
X12135000Y6005000D03*
X11980000Y6170000D03*
X11940000Y5720000D03*
X11855000Y5795000D03*
X12020000Y8095000D03*
X12017500Y8467500D03*
X11938000Y9906000D03*
X12065000D03*
X12192000D03*
X12319000D03*
X12827000Y127000D03*
X12700000D03*
X12573000D03*
X12446000D03*
X12550000Y1430000D03*
X12430000Y1435000D03*
X12655000Y1430000D03*
Y1180000D03*
X12790000Y2205000D03*
X12505000Y3256320D03*
X12500000Y3430000D03*
Y3550000D03*
X12700000Y3345000D03*
Y3255000D03*
X12375000Y3435000D03*
X12522190Y3952190D03*
X12365000Y3745000D03*
X12735000Y4335000D03*
X12850000Y4265000D03*
X12485000Y4565000D03*
X12405000Y4645000D03*
X12585000Y4460000D03*
X12815000Y5080000D03*
X12435000Y4755000D03*
X12455000Y5300000D03*
X12515000Y6030000D03*
X12860000Y6165000D03*
X12385000Y5990000D03*
X12635000Y6025000D03*
X12820000Y6370000D03*
X12815000Y6480000D03*
X12775000Y6685000D03*
X12860000Y6305000D03*
X12852860Y6691500D03*
X12815000Y6620000D03*
X12860000Y6241500D03*
X12815000Y6556500D03*
X12855000Y6835000D03*
X12852860Y6755000D03*
X12530000Y9735000D03*
X12825000Y9635000D03*
Y9465000D03*
X12525000Y9570000D03*
X12785000Y9380000D03*
X12580000Y9617440D03*
X12775000Y9580000D03*
X12580000Y9680940D03*
X12775000Y9516500D03*
X12410000Y9300000D03*
X12446000Y9906000D03*
X12765000Y9900000D03*
X12829650Y9860000D03*
X12440000Y9780000D03*
X12600000Y9900000D03*
X12930000Y510000D03*
X13335000Y127000D03*
X13208000D03*
X13081000D03*
X12954000D03*
X13120000Y640000D03*
X13210000Y3235000D03*
X12895000Y3550000D03*
X13210000Y3865000D03*
X13255000Y5545000D03*
X13120000Y5370000D03*
X13025000Y5350000D03*
X13370000Y5595000D03*
X13190000Y6005000D03*
X13070000D03*
X12930000D03*
X12980000Y5935000D03*
X13043500D03*
X13260000Y6005000D03*
X13070010Y6500000D03*
X13350000Y6505000D03*
X13190000D03*
X12950000D03*
X13200000Y6255000D03*
X13270000D03*
X13275000Y6505000D03*
X13360000Y6255000D03*
X13355000Y6840000D03*
X13100000Y8620000D03*
X13295000Y8480000D03*
X13355000Y8585000D03*
Y8521500D03*
X13160000Y8660000D03*
Y8723500D03*
X13215000Y8775000D03*
X13140000Y8925000D03*
X13070000Y9110000D03*
X13260000Y9080000D03*
X13305000Y8780000D03*
X13365000Y8890000D03*
X13130000Y9220000D03*
X13205000Y8966500D03*
X13130000Y9156500D03*
X13365000Y8826500D03*
X13205000Y9030000D03*
X13070000Y9405000D03*
X13190000D03*
X13310000D03*
X13185000Y9270000D03*
X13110000Y9335000D03*
X13310000Y9905000D03*
X13190000D03*
X13070000D03*
X12955000Y9900000D03*
X12893150Y9860000D03*
X13843000Y127000D03*
X13716000D03*
X13589000D03*
X13462000D03*
X13525000Y3550000D03*
X13580000Y4220000D03*
X13485000Y4625000D03*
X13480000Y5590000D03*
X13700000Y5570000D03*
X13810000Y5585000D03*
X13390000Y6005000D03*
X13790000D03*
X13590000D03*
X13575000Y5740000D03*
X13470000Y6215000D03*
Y6285000D03*
X13750000Y6505000D03*
X13550000D03*
X13710000Y6280000D03*
X13790000Y6250000D03*
X13670000Y6755000D03*
X13790000D03*
X13490000Y6880000D03*
X13550000Y6755000D03*
X13415000Y8630000D03*
Y8945000D03*
X13430000Y9405000D03*
X13550000D03*
X13670000D03*
X13790000Y9905000D03*
X13670000D03*
X13550000D03*
X13430000D03*
X14360000Y510000D03*
X14351000Y127000D03*
X14224000D03*
X14097000D03*
X13970000D03*
X14170000Y640000D03*
X14290000Y1930000D03*
X13915000Y2565000D03*
X14265000Y2720000D03*
X14130000Y3930000D03*
X14265000Y4530000D03*
X14285000Y4295000D03*
Y4230000D03*
X13955000Y4530000D03*
X14285000Y4392190D03*
X13890000Y4930000D03*
X14020000Y4815000D03*
Y4715000D03*
X14100000Y5035000D03*
X13895000Y5320000D03*
X14140000Y5580000D03*
X14110000Y6005000D03*
X13990000D03*
X14230000D03*
X14350000D03*
X14230000Y6505000D03*
X14110000D03*
X13950000D03*
X13990000Y6250000D03*
X14305000D03*
X13895000Y6280000D03*
X14200000Y6250000D03*
X14095000D03*
X14050000Y6910000D03*
X14315000Y6755000D03*
X14030000D03*
X14070000Y6825000D03*
X14290000Y6945000D03*
X14040000Y7385000D03*
Y7245000D03*
X14285000Y7335000D03*
X14160000Y8520000D03*
X14215000Y9207070D03*
Y9143570D03*
Y9065000D03*
X14050000Y8900000D03*
X14030000Y9405000D03*
X14150000D03*
X14270000D03*
X14340000Y9280000D03*
X14170000Y9675000D03*
X14215000Y9285000D03*
X14355000Y9610000D03*
X14313660Y9675000D03*
X14250160D03*
X14270000Y9905000D03*
X14150000D03*
X14030000D03*
X13910000D03*
X14859000Y127000D03*
X14478000D03*
X14605000D03*
X14732000D03*
X14795000Y1420000D03*
X14505000Y1830000D03*
X14635000Y2080000D03*
X14425000Y2180000D03*
X14840000Y2995000D03*
X14410000Y3005000D03*
X14770000Y3550000D03*
X14665000Y3545000D03*
X14660000Y3655000D03*
X14580000Y3695000D03*
X14820000Y4075000D03*
X14720000D03*
X14580000Y3810000D03*
X14735000Y4435000D03*
X14843290Y4440280D03*
X14570000Y4455000D03*
X14635000Y4610000D03*
X14780000Y4870000D03*
X14805000Y4990000D03*
X14695000Y4740000D03*
X14570000Y5030000D03*
X14730000Y4940000D03*
X14710000Y5500000D03*
X14715000Y5320000D03*
X14490000Y5500000D03*
X14600000Y5530000D03*
X14570000Y5860000D03*
X14457260Y5862050D03*
X14685000Y5860000D03*
X14570000Y5975000D03*
X14765000D03*
X14870000Y6505000D03*
X14390000D03*
X14750000Y6265000D03*
X14640000Y6245000D03*
X14520000Y6250000D03*
X14410000D03*
X14830000Y6265000D03*
X14390000Y6860000D03*
X14870000Y6725000D03*
X14515000Y7190000D03*
X14715000Y7315000D03*
X14690000Y9050000D03*
X14484530Y9280000D03*
X14540000Y9340000D03*
X14603500D03*
X14776030Y9345000D03*
X14839530D03*
X14390000Y9410000D03*
X14870000D03*
X14630000D03*
X14510000D03*
X14630000Y9610000D03*
X14510000D03*
X14750000Y9410000D03*
X14815000Y9620000D03*
X14401500Y9675000D03*
X14541500D03*
X14745000D03*
X14465000D03*
X14605000D03*
X14681500D03*
X14421030Y9280000D03*
X14750000Y9905000D03*
X14870000D03*
X14630000D03*
X14510000D03*
X14390000D03*
X14986000Y127000D03*
X15367000D03*
X15113000D03*
X15240000D03*
X15330000Y1260000D03*
X14990000Y3090000D03*
X15185000Y3220000D03*
Y3315000D03*
X14910000Y3355000D03*
X14920000Y3710000D03*
X14940000Y5170000D03*
X15235000Y4970000D03*
X15250000Y5110000D03*
X15235000Y4906500D03*
X14900000Y4870000D03*
X15090000Y5700000D03*
X14955000Y5315000D03*
X15100000Y5980000D03*
X14960000Y5975000D03*
X14910000Y6265000D03*
X15015000Y6850000D03*
Y6925000D03*
X15100000Y6725000D03*
X14985000D03*
X14966500Y9320000D03*
X15030000D03*
X15075000Y9385000D03*
X14900000Y9275000D03*
X15130000Y9710000D03*
X15113000Y9906000D03*
X14986000D03*
X15760000Y510000D03*
X15875000Y127000D03*
X15494000D03*
X15748000D03*
X15621000D03*
X15475000Y1320000D03*
Y1420000D03*
Y1170000D03*
X15600000Y1930000D03*
X15890000Y3525000D03*
X15510000Y3650000D03*
X15795000Y3640000D03*
X15610000Y3645000D03*
X15790000Y3850000D03*
X15420000Y4670000D03*
X15415000Y4290000D03*
X15600000Y4375000D03*
Y4480000D03*
X15490000Y4940000D03*
X15780000Y5280000D03*
X15655000Y5700000D03*
X15770000Y5520000D03*
X15870000Y5825000D03*
X15655000Y5810000D03*
X15435000Y7125000D03*
X15621000Y9906000D03*
X15748000D03*
X15494000D03*
X16383000Y508000D03*
X16002000Y127000D03*
X16129000D03*
X16383000Y381000D03*
Y254000D03*
X16256000Y127000D03*
X16383000D03*
X15960000Y640000D03*
X16383000Y635000D03*
Y762000D03*
Y1016000D03*
Y889000D03*
Y1143000D03*
Y1270000D03*
Y1397000D03*
Y1524000D03*
Y1905000D03*
Y1778000D03*
Y1651000D03*
Y2032000D03*
Y2540000D03*
Y2286000D03*
Y2413000D03*
Y2159000D03*
Y2921000D03*
Y2667000D03*
Y3048000D03*
Y2794000D03*
X16345000Y4180000D03*
X16383000Y4064000D03*
Y4445000D03*
Y4318000D03*
X16110000Y4995000D03*
X16330010Y4955010D03*
X16383000Y4826000D03*
X15930000Y5290000D03*
X16383000Y5461000D03*
Y5334000D03*
Y5588000D03*
X16110000Y5855000D03*
X16330000Y5885000D03*
X16383000Y5969000D03*
Y6604000D03*
Y6731000D03*
Y8382000D03*
Y8509000D03*
Y8636000D03*
Y9017000D03*
Y9144000D03*
Y8763000D03*
Y8890000D03*
Y9271000D03*
Y9906000D03*
X16435000Y3110000D03*
Y3748410D03*
G54D12*
X462000Y1911000D03*
Y2411000D03*
G54D21*
X3931550Y9261500D03*
X5544450D03*
G54D30*
X8795000Y5920000D03*
G54D31*
X8550000Y5310000D03*
G54D22*
X4103000Y8944000D03*
X5373000D03*
G54D13*
X340000Y3120000D03*
Y3374000D03*
G54D32*
X8804000Y5310000D03*
X9058000D03*
G54D23*
X4812000Y4618000D03*
G54D14*
X630000Y4310000D03*
Y5460000D03*
Y6600000D03*
X1330000Y4310000D03*
Y5460000D03*
Y6600000D03*
G54D15*
X470000Y7465000D03*
X1145000Y1415000D03*
X1143000Y7112000D03*
X1270000Y8890000D03*
X2025000Y1025000D03*
X2159000Y2032000D03*
Y5842000D03*
X1968500Y7302500D03*
X2667000Y2667000D03*
X2286000Y7302500D03*
Y8128000D03*
X3175000Y4445000D03*
X3048000Y8890000D03*
X3670000Y1285000D03*
X3683000Y2667000D03*
Y3810000D03*
X4165000Y3990000D03*
X4145000Y5210000D03*
X3930000Y4810000D03*
X3810000Y5461000D03*
X4699000Y2540000D03*
X4572000Y5207000D03*
X4445000Y5588000D03*
X4345000Y5880000D03*
X4820000Y5460000D03*
X5530000Y5050000D03*
X5842000Y5334000D03*
X6604000Y6096000D03*
X6731000Y8128000D03*
X6870000Y5130000D03*
X8001000Y5207000D03*
X7870000Y7115000D03*
X8130000Y7375000D03*
X8840000Y3410000D03*
X9135000Y3400000D03*
X9045000Y4215000D03*
X9480000Y3210000D03*
X9779000Y4889500D03*
X9720000Y7645000D03*
X9652000Y8128000D03*
Y8636000D03*
X9969500Y3111500D03*
X9875000Y5430000D03*
X10190000Y5805000D03*
X10668000Y2540000D03*
X10745000Y3230000D03*
X10535000Y5950000D03*
X11176000Y5334000D03*
X11150000Y5765000D03*
X11895000Y5930000D03*
X11938000Y5461000D03*
X13017500Y7112000D03*
X13260000Y7110000D03*
X13716000Y4953000D03*
Y5334000D03*
X13775000Y7110000D03*
X13515000D03*
X14224000Y2921000D03*
X14205000Y3445000D03*
X14224000Y5334000D03*
X14350000Y7110000D03*
X14478000Y4699000D03*
X14859000Y7112000D03*
X14478000Y7366000D03*
X15113000Y2921000D03*
X14986000Y8890000D03*
G54D33*
X11280000Y6305000D03*
Y9605000D03*
X16080000Y6305000D03*
Y9605000D03*
G54D24*
X5674000Y340000D03*
X6182000D03*
X5928000D03*
X6690000D03*
X6436000D03*
X7788000D03*
X7534000D03*
X8296000D03*
X8042000D03*
X8334000Y3760000D03*
X8550000Y340000D03*
X8842000Y3760000D03*
X8588000D03*
X9350000D03*
X9096000D03*
X9648000Y340000D03*
X9394000D03*
X10156000D03*
X9902000D03*
X10410000D03*
X12331000Y5700000D03*
G54D25*
X5420000Y340000D03*
X7280000D03*
X8080000Y3760000D03*
X9140000Y340000D03*
X12585000Y5700000D03*
G54D16*
X609990Y8529990D03*
X660000Y8680000D03*
X1209990Y8529990D03*
X1009990D03*
X809990D03*
X909990Y8680000D03*
X1109990D03*
X1410010Y8529990D03*
X1360000Y8680000D03*
X2599990Y8529990D03*
X2399990D03*
X2450000Y8680000D03*
X2699990D03*
X3200010Y8529990D03*
X2999990D03*
X2799990D03*
X2899990Y8680000D03*
X3150000D03*
G54D34*
X12965000Y4680000D03*
X13215000Y4930000D03*
G54D17*
X352990Y8880000D03*
X1667010D03*
X2142990D03*
X3457010D03*
G54D26*
X6260000Y3220000D03*
X6610000D03*
X11084000Y2342000D03*
X13370000D03*
X13914000D03*
X15270000Y4100000D03*
X16200000Y2342000D03*
G54D35*
X12855790Y5289210D03*
X12605790Y5039210D03*
X12785390Y4859610D03*
X13035390Y5109610D03*
G54D18*
X3120000Y745010D03*
Y2035010D03*
Y3235010D03*
G54D27*
X6260000Y3728000D03*
Y3474000D03*
X6610000Y3728000D03*
Y3474000D03*
X11084000Y564000D03*
Y818000D03*
Y1072000D03*
Y1326000D03*
Y1580000D03*
Y1834000D03*
Y2088000D03*
X13370000Y564000D03*
Y1072000D03*
Y818000D03*
Y1580000D03*
Y1326000D03*
Y2088000D03*
Y1834000D03*
X13914000Y564000D03*
Y818000D03*
Y1072000D03*
Y1326000D03*
Y1580000D03*
Y1834000D03*
Y2088000D03*
X15270000Y3846000D03*
X16200000Y564000D03*
Y1072000D03*
Y818000D03*
Y1580000D03*
Y1326000D03*
Y2088000D03*
Y1834000D03*
G54D28*
X5963990Y8993990D03*
X7414000D03*
G54D19*
X4128400Y6912000D03*
X4382400D03*
X5093600D03*
X5347600D03*
G54D29*
X5963990Y9585000D03*
X7414000D03*
M02*
