G04 ================== begin FILE IDENTIFICATION RECORD ==================*
G04 Layout Name:  rpi-cm4-carrierboard-v1_00-0a.brd*
G04 Film Name:    rpi-cm4-carrierboard-v1_00-0a-POW_INNER3*
G04 File Format:  Gerber RS274X*
G04 File Origin:  Cadence Allegro 22.1-S001*
G04 Origin Date:  Sun Dec 17 09:19:52 2023*
G04 *
G04 Layer:  ETCH/POW_INNER3*
G04 Layer:  PIN/POW_INNER3*
G04 Layer:  VIA CLASS/POW_INNER3*
G04 *
G04 Offset:    (0.0000 0.0000)*
G04 Mirror:    No*
G04 Mode:      Positive*
G04 Rotation:  0*
G04 FullContactRelief:  No*
G04 UndefLineWidth:     0.0000*
G04 ================== end FILE IDENTIFICATION RECORD ====================*
%FSLAX35Y35*MOMM*%
%IR0*IPPOS*OFA0.00000B0.00000*MIA0B0*SFA1.00000B1.00000*%
%ADD17C,.4*%
%AMMACRO31*
21,1,1.651,.508,0.0,0.0,135.*
1,1,1.651,.179605,.179605*
1,1,1.651,-.179605,-.179605*%
%ADD31MACRO31*%
%ADD13C,.8001*%
%AMMACRO30*
21,1,1.651,2.159,0.0,0.0,135.*%
%ADD30MACRO30*%
%ADD11C,.4064*%
%ADD26O,1.5001X2.3*%
%ADD25O,1.5001X3.3*%
%ADD14C,2.*%
%ADD15C,1.1001*%
%ADD29C,6.*%
%ADD16C,2.7*%
%ADD10C,1.27*%
%ADD24O,2.159X1.651*%
%ADD20C,3.2512*%
%ADD21O,1.651X2.159*%
%ADD12C,2.3622*%
%ADD23R,2.159X1.651*%
%ADD22R,1.651X2.159*%
%ADD18C,1.778*%
%ADD28C,1.5748*%
%ADD19C,1.9558*%
%ADD27R,1.5748X1.5748*%
%ADD32C,.127*%
%ADD33C,.254*%
%ADD34C,.1905*%
%ADD45C,.6608*%
%ADD36C,.9148*%
%ADD35R,2.6004X7.0004*%
%ADD46C,2.0324*%
%ADD48C,4.7004*%
%ADD43C,2.0832*%
%ADD42R,6.4004X6.4004*%
%ADD41O,1.9054X2.4134*%
%ADD38C,1.3086*%
%ADD39C,2.5084*%
%ADD47C,2.2864*%
%ADD44C,6.5084*%
%ADD37C,2.8706*%
%ADD40O,2.1594X2.6674*%
G75*
%LPD*%
G75*
G36*
G01X140000Y7370000D02*
X1185000D01*
X1245000Y7310000D01*
Y6692220D01*
G03Y6507780I84992J-92220D01*
G01Y5552220D01*
G03Y5367780I84992J-92220D01*
G01Y4402220D01*
G03Y4217780I84992J-92220D01*
G01Y1755000D01*
X1452610Y1547390D01*
G02X1449890Y1531080I-7185J-7184D01*
G03X1424260Y1490000I20107J-41080D01*
G03X1470000Y1444260I45740J0D01*
G03X1511080Y1469890I0J45737D01*
G02X1527390Y1472610I9126J-4465D01*
G01X1660000Y1340000D01*
X2841620D01*
G02X2847690Y1321690I3J-10160D01*
G03X2829260Y1285000I27306J-36690D01*
G03X2920740I45740J0D01*
G03X2902310Y1321690I-45736J0D01*
G02X2908380Y1340000I6067J8150D01*
G01X4390000D01*
X4515000Y1215000D01*
Y310000D01*
X4390000Y185000D01*
X800000D01*
X185000Y800000D01*
Y7005000D01*
X80000Y7110000D01*
Y7244970D01*
G02X91950Y7254970I10158J1D01*
G03X100000Y7254260I8028J45032D01*
G03X145740Y7300000I0J45740D01*
G03X125310Y7338100I-45741J0D01*
G02X123750Y7353750I5621J8463D01*
G01X140000Y7370000D01*
G37*
G36*
G01X16360000Y10000000D02*
G02X16500000Y9870000I3691J-136409D01*
G01Y9150020D01*
X16499980D01*
Y8474980D01*
X16500000D01*
Y8305020D01*
X15629980D01*
Y6804980D01*
X16500000D01*
Y5835420D01*
X16369630D01*
G02X16362430Y5852740I5J10159D01*
G03X16375740Y5885000I-32440J32260D01*
G03X16369440Y5908160I-45739J-5D01*
G02X16379070Y5923430I8761J5146D01*
G03X16383000Y5923260I3940J45570D01*
G03X16337260Y5969000I0J45740D01*
G03X16343560Y5945840I45739J5D01*
G02X16333930Y5930570I-8761J-5146D01*
G03X16330000Y5930740I-3940J-45570D01*
G03X16284260Y5885000I0J-45740D01*
G03X16297570Y5852740I45750J0D01*
G02X16290370Y5835420I-7205J-7161D01*
G01X16165100D01*
G02X16155090Y5847290I3J10158D01*
G03X16155740Y5855000I-45092J7684D01*
G03X16064260I-45740J0D01*
G03X16064910Y5847290I45742J-26D01*
G02X16054900Y5835420I-10013J-1712D01*
G01X15914690D01*
X15913560Y5838950D01*
G03X15826440I-43560J-13949D01*
G01X15825310Y5835420D01*
X15693030D01*
G03X15616970I-38030J-25428D01*
G01X14825530D01*
X14748200Y5912750D01*
G02X14757130Y5929940I7184J7182D01*
G03X14765000Y5929260I7858J45061D01*
G03Y6020740I0J45740D01*
G03X14728650Y6002770I0J-45750D01*
G02X14710420Y6008940I-8072J6168D01*
G01Y6174580D01*
X15080530D01*
X15250420Y6344470D01*
Y6805530D01*
X15195530Y6860420D01*
X15059690D01*
X15058560Y6863950D01*
G03X15048920Y6880680I-43557J-13956D01*
G02Y6894320I7535J6820D01*
G03X15060740Y6925000I-33907J30680D01*
G03X14969260I-45740J0D01*
G03X14981080Y6894320I45727J0D01*
G02Y6880680I-7535J-6820D01*
G03X14971440Y6863950I33917J-30686D01*
G01X14970310Y6860420D01*
X14579470D01*
X14384470Y6665420D01*
X13849470D01*
X13749580Y6565530D01*
Y6550960D01*
X13745050Y6550470D01*
G03Y6459530I4948J-45470D01*
G01X13749580Y6459040D01*
Y6327530D01*
G02X13734070Y6318890I-10161J-1D01*
G03X13710000Y6325740I-24077J-38888D01*
G03Y6234260I0J-45740D01*
G03X13732370Y6240100I6J45742D01*
G02X13746910Y6234650I4971J-8858D01*
G03X13749580Y6228590I43083J15364D01*
G01Y6026410D01*
G03Y5983590I40422J-21410D01*
G01Y5609630D01*
G02X13732260Y5602430I-10159J5D01*
G03X13700000Y5615740I-32260J-32440D01*
G03X13660010Y5592210I0J-45747D01*
G02X13643950Y5589960I-8879J4935D01*
G01X13436950Y5796950D01*
G03X13410000Y5808120I-26958J-26947D01*
G01X12905790D01*
X12741950Y5971950D01*
G03X12715000Y5983120I-26958J-26947D01*
G01X12681030D01*
G02X12672660Y5999040I-1J10160D01*
G03X12680740Y6025000I-37663J25960D01*
G03X12589260I-45740J0D01*
G03X12597340Y5999040I45743J0D01*
G02X12588970Y5983120I-8369J-5760D01*
G01X12557150D01*
G02X12549490Y5999950I0J10158D01*
G03X12560740Y6030000I-34492J30044D01*
G03X12515000Y6075740I-45740J0D01*
G03X12469530Y6034970I0J-45741D01*
G02X12456390Y6026380I-10099J1103D01*
G03X12445000Y6028120I-11386J-36381D01*
G01X12410280D01*
G03X12385000Y6035740I-25280J-38124D01*
G03Y5944260I0J-45740D01*
G03X12409090Y5951120I0J45728D01*
G01X12410320Y5951880D01*
X12429210D01*
X12463050Y5918050D01*
G03X12490000Y5906880I26958J26947D01*
G01X12699210D01*
X12863050Y5743050D01*
G03X12890000Y5731880I26958J26947D01*
G01X13394210D01*
X13474470Y5651620D01*
G02X13469600Y5634540I-7182J-7186D01*
G03X13434260Y5590000I10398J-44540D01*
G03X13480000Y5544260I45740J0D01*
G03X13524540Y5579600I0J45738D01*
G02X13541620Y5584470I9894J-2312D01*
G01X13696880Y5429210D01*
Y4870000D01*
G03X13708050Y4843050I38117J8D01*
G01X14171880Y4379210D01*
Y4110000D01*
G03X14183050Y4083050I38117J8D01*
G01X14194580Y4071510D01*
Y3919470D01*
X14299580Y3814470D01*
Y3499470D01*
X14374470Y3424580D01*
X15000530D01*
X15090420Y3514470D01*
Y3854470D01*
X15124800Y3888850D01*
G02X15141670Y3878600I7184J-7184D01*
G03X15136630Y3846000I102930J-32603D01*
G03X15244600Y3738030I107970J0D01*
G01X15295400D01*
G03X15403370Y3846000I0J107970D01*
G03X15379980Y3913110I-107970J0D01*
G02X15387940Y3929580I7962J6310D01*
G01X15395530D01*
X15505420Y4039470D01*
Y4629470D01*
X15545530Y4669580D01*
X15644470D01*
X15684580Y4629470D01*
Y1070530D01*
X15459470Y845420D01*
X14709470D01*
X14549470Y685420D01*
X14175410D01*
X14175120Y685450D01*
G03X14170000Y685740I-5142J-45449D01*
G03X14164880Y685450I22J-45739D01*
G01X14164590Y685420D01*
X13720530D01*
X13665420Y740530D01*
Y869470D01*
X13680950Y885000D01*
X13575530Y990420D01*
X13489490D01*
G02X13481400Y1006720I4J10160D01*
G03X13503370Y1072000I-85999J65280D01*
G03X13395400Y1179970I-107970J0D01*
G01X13344600D01*
G03X13236630Y1072000I0J-107970D01*
G03X13258600Y1006720I107969J0D01*
G02X13250510Y990420I-8094J-6140D01*
G01X11964470D01*
X11664470Y690420D01*
X10930530D01*
X10850420Y770530D01*
Y1805530D01*
X10690530Y1965420D01*
X9755280D01*
G02X9746140Y1980020I1J10161D01*
G03X9750730Y1999270I-41141J19982D01*
G02X9760730Y2009270I10161J-161D01*
G03X9805730Y2054270I-730J45730D01*
G02X9815730Y2064270I10161J-161D01*
G03X9860740Y2110000I-726J45730D01*
G03X9815000Y2155740I-45740J0D01*
G03X9769270Y2110730I0J-45736D01*
G02X9759270Y2100730I-10161J161D01*
G03X9714270Y2055730I730J-45730D01*
G02X9704270Y2045730I-10161J161D01*
G03X9659260Y2000000I726J-45730D01*
G03X9663860Y1980020I45738J11D01*
G02X9654720Y1965420I-9141J-4439D01*
G01X8970600D01*
X8969750Y1969450D01*
G03X8880250I-44750J-9446D01*
G01X8879400Y1965420D01*
X7885280D01*
G02X7876140Y1980020I1J10161D01*
G03X7880730Y1999270I-41141J19982D01*
G02X7890730Y2009270I10161J-161D01*
G03X7935730Y2054270I-730J45730D01*
G02X7945730Y2064270I10161J-161D01*
G03X7990740Y2110000I-726J45730D01*
G03X7945000Y2155740I-45740J0D01*
G03X7899270Y2110730I0J-45736D01*
G02X7889270Y2100730I-10161J161D01*
G03X7844270Y2055730I730J-45730D01*
G02X7834270Y2045730I-10161J161D01*
G03X7789260Y2000000I726J-45730D01*
G03X7793860Y1980020I45738J11D01*
G02X7784720Y1965420I-9141J-4439D01*
G01X7115600D01*
X7114750Y1969450D01*
G03X7025250I-44750J-9446D01*
G01X7024400Y1965420D01*
X6015280D01*
G02X6006140Y1980020I1J10161D01*
G03X6010730Y1999270I-41141J19982D01*
G02X6020730Y2009270I10161J-161D01*
G03X6065730Y2054270I-730J45730D01*
G02X6075730Y2064270I10161J-161D01*
G03X6120740Y2110000I-726J45730D01*
G03X6075000Y2155740I-45740J0D01*
G03X6029270Y2110730I0J-45736D01*
G02X6019270Y2100730I-10161J161D01*
G03X5974270Y2055730I730J-45730D01*
G02X5964270Y2045730I-10161J161D01*
G03X5919260Y2000000I726J-45730D01*
G03X5923860Y1980020I45738J11D01*
G02X5914720Y1965420I-9141J-4439D01*
G01X5634470D01*
X5034470Y1365420D01*
X2365280D01*
G02X2356140Y1380020I1J10161D01*
G03X2360740Y1400000I-41138J19991D01*
G03X2269260I-45740J0D01*
G03X2273860Y1380020I45738J11D01*
G02X2264720Y1365420I-9141J-4439D01*
G01X1754630D01*
G02X1747430Y1382740I5J10159D01*
G03X1760740Y1415000I-32440J32260D01*
G03X1669260I-45740J0D01*
G03X1682570Y1382740I45750J0D01*
G02X1675370Y1365420I-7205J-7161D01*
G01X1670530D01*
X1270420Y1765530D01*
Y4183750D01*
G02X1284280Y4193210I10160J-2D01*
G03X1330000Y4184580I45720J116793D01*
G03Y4435420I0J125420D01*
G03X1284280Y4426790I0J-125423D01*
G02X1270420Y4436250I-3700J9462D01*
G01Y5333750D01*
G02X1284280Y5343210I10160J-2D01*
G03X1330000Y5334580I45720J116793D01*
G03Y5585420I0J125420D01*
G03X1284280Y5576790I0J-125423D01*
G02X1270420Y5586250I-3700J9462D01*
G01Y6473750D01*
G02X1284280Y6483210I10160J-2D01*
G03X1330000Y6474580I45720J116793D01*
G03Y6725420I0J125420D01*
G03X1284280Y6716790I0J-125423D01*
G02X1270420Y6726250I-3700J9462D01*
G01Y7320530D01*
X1195530Y7395420D01*
X129470D01*
X77340Y7343290D01*
G02X60000Y7350480I-7180J7187D01*
G01Y8480000D01*
X-34980D01*
Y8724980D01*
X60020D01*
Y9150020D01*
X60000D01*
Y9347180D01*
X200020D01*
Y9566250D01*
X200050D01*
Y9694570D01*
X200020D01*
Y9860020D01*
X70840D01*
G02X60740Y9871280I1J10161D01*
G02X200000Y10000000I143604J-15671D01*
G01X16360000D01*
G37*
G36*
G01X14455420Y6174470D02*
X14455530Y6174580D01*
X14685000D01*
Y5940000D01*
X14815000Y5810000D01*
X15609030D01*
X15609490Y5805430D01*
G03X15700510I45510J4569D01*
G01X15700970Y5810000D01*
X15826660D01*
X15827980Y5806930D01*
G03X15912020I42020J18071D01*
G01X15913340Y5810000D01*
X16101790D01*
X16102220Y5809930D01*
G03X16110000Y5809260I7800J45068D01*
G03X16117780Y5809930I-20J45738D01*
G01X16118210Y5810000D01*
X16485000D01*
Y3787620D01*
G02X16467600Y3780490I-10161J0D01*
G03X16435000Y3794150I-32600J-32070D01*
G03Y3702670I0J-45740D01*
G03X16467600Y3716330I0J45730D01*
G02X16485000Y3709200I7239J-7130D01*
G01Y3149210D01*
G02X16467600Y3142080I-10161J0D01*
G03X16435000Y3155740I-32600J-32070D01*
G03X16389260Y3110000I0J-45740D01*
G03X16389540Y3104920I45741J-27D01*
G02X16380090Y3093650I-10094J-1133D01*
G03X16337260Y3048000I2913J-45650D01*
G03X16428740I45740J0D01*
G03X16428460Y3053080I-45741J27D01*
G02X16437910Y3064350I10094J1133D01*
G03X16467600Y3077920I-2917J45647D01*
G02X16485000Y3070790I7239J-7130D01*
G01Y340000D01*
X16430520Y285520D01*
G02X16416000Y285670I-7187J7182D01*
G03X16383000Y299740I-33000J-31664D01*
G03X16337260Y254000I0J-45740D01*
G03X16351330Y221000I45734J0D01*
G02X16351480Y206480I-7032J-7333D01*
G01X16330000Y185000D01*
X4414530D01*
G02X4407340Y202340I-2J10160D01*
G01X4515000Y310000D01*
Y1215000D01*
X4407340Y1322660D01*
G02X4414530Y1340000I7188J7180D01*
G01X5045000D01*
X5645000Y1940000D01*
X7028860D01*
G03X7111140I41140J20007D01*
G01X8883860D01*
G03X8966140I41140J20007D01*
G01X10680000D01*
X10825000Y1795000D01*
Y760000D01*
X10920000Y665000D01*
X10983080D01*
G02X10989580Y647030I3J-10159D01*
G03X10950630Y564000I69023J-83030D01*
G03X11058600Y456030I107970J0D01*
G01X11109400D01*
G03X11217370Y564000I0J107970D01*
G03X11178420Y647030I-107973J0D01*
G02X11184920Y665000I6497J7811D01*
G01X11277740D01*
G02X11287240Y651230I2J-10161D01*
G03X11284260Y635000I42758J-16239D01*
G03X11375740I45740J0D01*
G03X11372760Y651230I-45738J-9D01*
G02X11382260Y665000I9498J3609D01*
G01X11675000D01*
X11975000Y965000D01*
X13330160D01*
X13330490Y964960D01*
G03X13344600Y964030I14141J107038D01*
G01X13395400D01*
G03X13409510Y964960I-31J107968D01*
G01X13409840Y965000D01*
X13565000D01*
X13640000Y890000D01*
Y730000D01*
X13710000Y660000D01*
X13807450D01*
G02X13814430Y642460I-4J-10160D01*
G03X13780630Y564000I74165J-78460D01*
G03X13888600Y456030I107970J0D01*
G01X13939400D01*
G03X14047370Y564000I0J107970D01*
G03X14013570Y642460I-107965J0D01*
G02X14020550Y660000I6984J7380D01*
G01X14114970D01*
G02X14124970Y648050I1J-10158D01*
G03X14124260Y640000I45032J-8028D01*
G03X14215740I45740J0D01*
G03X14215030Y648050I-45742J22D01*
G02X14225030Y660000I9999J1792D01*
G01X14560000D01*
X14720000Y820000D01*
X15470000D01*
X15710000Y1060000D01*
Y4640000D01*
X15655000Y4695000D01*
X15535000D01*
X15480000Y4640000D01*
Y4050000D01*
X15385000Y3955000D01*
X15155000D01*
X15065000Y3865000D01*
Y3525000D01*
X14990000Y3450000D01*
X14385000D01*
X14325000Y3510000D01*
Y3825000D01*
X14220000Y3930000D01*
Y4374520D01*
G02X14237340Y4381710I10160J3D01*
G01X14241730Y4377320D01*
X14242120Y4376280D01*
G03X14269090Y4349310I42880J15910D01*
G01X14270130Y4348920D01*
X14275910Y4343140D01*
X14271480Y4338710D01*
X14270350Y4338330D01*
G03X14239260Y4295000I14649J-43330D01*
G03X14252810Y4262500I45751J0D01*
G03X14239260Y4230000I32201J-32500D01*
G03X14330740I45740J0D01*
G03X14317190Y4262500I-45751J0D01*
G03X14330740Y4295000I-32201J32500D01*
G03X14317430Y4327260I-45750J0D01*
G02X14324630Y4344580I7205J7161D01*
G01X14640530D01*
X14690420Y4394470D01*
Y4408100D01*
X14697920D01*
X14699450Y4406220D01*
G03X14735000Y4389260I35550J28778D01*
G03Y4480740I0J45740D01*
G03X14706840Y4471040I4J-45738D01*
G02X14690420Y4479050I-6259J8004D01*
G01Y4560530D01*
X14670320Y4580630D01*
X14672710Y4584110D01*
G03X14680740Y4610000I-37722J25890D01*
G03X14635000Y4655740I-45740J0D01*
G03X14605770Y4645180I0J-45734D01*
G01X14220000Y5030950D01*
Y5780000D01*
X14249580Y5809580D01*
X14320530D01*
X14455420Y5944470D01*
Y6174470D01*
G37*
G36*
G01X15058340Y6835000D02*
X15185000D01*
X15225000Y6795000D01*
Y6355000D01*
X15070000Y6200000D01*
X14683710D01*
G02X14675770Y6216490I5J10159D01*
G03X14685740Y6245000I-35778J28510D01*
G03X14594260I-45740J0D01*
G03X14604230Y6216490I45748J0D01*
G02X14596290Y6200000I-7945J-6331D01*
G01X14559210D01*
G02X14552080Y6217400I0J10161D01*
G03X14565740Y6250000I-32070J32600D01*
G03X14474260I-45740J0D01*
G03X14487920Y6217400I45730J0D01*
G02X14480790Y6200000I-7130J-7239D01*
G01X14445000D01*
X14430000Y6185000D01*
Y5955000D01*
X14310000Y5835000D01*
X14235000D01*
X14190000Y5790000D01*
Y5619210D01*
G02X14172600Y5612080I-10161J0D01*
G03X14140000Y5625740I-32600J-32070D01*
G03Y5534260I0J-45740D01*
G03X14172600Y5547920I0J45730D01*
G02X14190000Y5540790I7239J-7130D01*
G01Y5025000D01*
X14591270Y4623730D01*
X14590590Y4620940D01*
G03X14589260Y4610000I44409J-10950D01*
G03X14635000Y4564260I45740J0D01*
G03X14645940Y4565590I-10J45739D01*
G01X14648730Y4566270D01*
X14665000Y4550000D01*
Y4405000D01*
X14630000Y4370000D01*
X14339590D01*
G02X14329670Y4382350I0J10159D01*
G03X14330740Y4392190I-44670J9836D01*
G03X14285000Y4437930I-45740J0D01*
G03X14251100Y4422890I6J-45738D01*
G02X14236380Y4422530I-7531J6821D01*
G01X13775000Y4883910D01*
Y5534920D01*
G02X13789670Y5544020I10158J-1D01*
G03X13810000Y5539260I20318J40983D01*
G03Y5630740I0J45740D01*
G03X13789670Y5625980I-12J-45743D01*
G02X13775000Y5635080I-4512J9101D01*
G01Y5949310D01*
G02X13786040Y5959430I10159J-1D01*
G03X13790000Y5959260I3940J45571D01*
G03Y6050740I0J45740D01*
G03X13786040Y6050570I-20J-45741D01*
G02X13775000Y6060690I-881J10121D01*
G01Y6194310D01*
G02X13786040Y6204430I10159J-1D01*
G03X13790000Y6204260I3940J45571D01*
G03Y6295740I0J45740D01*
G03X13786040Y6295570I-20J-45741D01*
G02X13775000Y6305690I-881J10121D01*
G01Y6466700D01*
G03Y6543300I-24994J38300D01*
G01Y6555000D01*
X13860000Y6640000D01*
X14395000D01*
X14590000Y6835000D01*
X14971660D01*
X14972980Y6831930D01*
G03X15057020I42020J18071D01*
G01X15058340Y6835000D01*
G37*
%LPC*%
G75*
G36*
G01X3124250Y790230D02*
G03X3129790Y795760I481J5058D01*
G02X3129590Y800000I45219J4258D01*
G02X3220430I45420J0D01*
G02X3175470Y754580I-45422J0D01*
G03X3165420Y744530I107J-10157D01*
G02X3165220Y740740I-45419J496D01*
G03X3170750Y735210I5057J-473D01*
G02X3175010Y735410I4258J-45220D01*
G02Y644570I0J-45420D01*
G02X3129590Y689530I0J45422D01*
G03X3119540Y699590I-10158J-98D01*
G02X3115750Y699790I496J45418D01*
G03X3110220Y694250I-473J-5058D01*
G02X3110420Y689990I-45220J-4258D01*
G02X3019580I-45420J0D01*
G02X3064530Y735410I45422J0D01*
G03X3074580Y745460I-108J10158D01*
G02X3074780Y749250I45417J-496D01*
G03X3069250Y754780I-5059J471D01*
G02X3065000Y754580I-4258J45220D01*
G02Y845420I0J45420D01*
G02X3110420Y800480I0J-45423D01*
G03X3120470Y790430I10157J107D01*
G02X3124250Y790230I-508J-45418D01*
G37*
G36*
G01X2778470Y1014200D02*
G02X2750000Y1004260I-28470J35802D01*
G02Y1095740I0J45740D01*
G02X2795180Y1057160I0J-45745D01*
G03X2811530Y1050800I10032J1595D01*
G02X2840000Y1060740I28470J-35802D01*
G02Y969260I0J-45740D01*
G02X2794820Y1007840I0J45745D01*
G03X2778470Y1014200I-10032J-1595D01*
G37*
G36*
G01X7238980Y9545000D02*
Y9625000D01*
G02X7589020I175020J-5D01*
G01Y9545000D01*
G02X7238980I-175020J5D01*
G37*
G36*
G01X5788960D02*
Y9625000D01*
G02X6139020I175030J-5D01*
G01Y9545000D01*
G02X5788960I-175030J5D01*
G37*
G36*
G01Y8904000D02*
Y9083980D01*
G02X6139020I175030J5D01*
G01Y8904000D01*
G02X5788960I-175030J-5D01*
G37*
G36*
G01X12477030Y5592050D02*
Y5807950D01*
G02X12502450Y5833370I25420J0D01*
G01X12667550D01*
G02X12692970Y5807950I0J-25420D01*
G01Y5592050D01*
G02X12667550Y5566630I-25420J0D01*
G01X12502450D01*
G02X12477030Y5592050I0J25420D01*
G37*
G36*
G01X12941080Y5168000D02*
X12977000Y5203920D01*
G02X13129700Y5051220I76350J-76350D01*
G01X13093780Y5015300D01*
G02X12941080Y5168000I-76350J76350D01*
G37*
G36*
G01X13179060Y4777320D02*
X13062320Y4894060D01*
G02Y4930010I17976J17975D01*
G01X13214990Y5082680D01*
G02X13250940I17975J-17976D01*
G01X13367680Y4965940D01*
G02Y4929990I-17976J-17975D01*
G01X13215010Y4777320D01*
G02X13179060I-17975J17976D01*
G37*
G36*
G01X12691080Y4918000D02*
X12727000Y4953920D01*
G02X12879700Y4801220I76350J-76350D01*
G01X12843780Y4765300D01*
G02X12691080Y4918000I-76350J76350D01*
G37*
G36*
G01X12511480Y5097600D02*
X12547400Y5133520D01*
G02X12700100Y4980820I76350J-76350D01*
G01X12664180Y4944900D01*
G02X12511480Y5097600I-76350J76350D01*
G37*
G36*
G01X12929060Y4527320D02*
X12812320Y4644060D01*
G02Y4680010I17976J17975D01*
G01X12964990Y4832680D01*
G02X13000940I17975J-17976D01*
G01X13117680Y4715940D01*
G02Y4679990I-17976J-17975D01*
G01X12965010Y4527320D01*
G02X12929060I-17975J17976D01*
G37*
G36*
G01X7972030Y3652050D02*
Y3867950D01*
G02X7997450Y3893370I25420J0D01*
G01X8162550D01*
G02X8187970Y3867950I0J-25420D01*
G01Y3652050D01*
G02X8162550Y3626630I-25420J0D01*
G01X7997450D01*
G02X7972030Y3652050I0J25420D01*
G37*
G36*
G01X6584600Y3581970D02*
X6635400D01*
G02Y3366030I0J-107970D01*
G01X6584600D01*
G02Y3581970I0J107970D01*
G37*
G36*
G01Y3835970D02*
X6635400D01*
G02Y3620030I0J-107970D01*
G01X6584600D01*
G02Y3835970I0J107970D01*
G37*
G36*
G01X6234600Y3581970D02*
X6285400D01*
G02Y3366030I0J-107970D01*
G01X6234600D01*
G02Y3581970I0J107970D01*
G37*
G36*
G01Y3835970D02*
X6285400D01*
G02Y3620030I0J-107970D01*
G01X6234600D01*
G02Y3835970I0J107970D01*
G37*
G36*
G01X6476630Y3137450D02*
Y3302550D01*
G02X6502050Y3327970I25420J0D01*
G01X6717950D01*
G02X6743370Y3302550I0J-25420D01*
G01Y3137450D01*
G02X6717950Y3112030I-25420J0D01*
G01X6502050D01*
G02X6476630Y3137450I0J25420D01*
G37*
G36*
G01X6126630D02*
Y3302550D01*
G02X6152050Y3327970I25420J0D01*
G01X6367950D01*
G02X6393370Y3302550I0J-25420D01*
G01Y3137450D01*
G02X6367950Y3112030I-25420J0D01*
G01X6152050D01*
G02X6126630Y3137450I0J25420D01*
G37*
G36*
G01X13780630Y2259450D02*
Y2424550D01*
G02X13806050Y2449970I25420J0D01*
G01X14021950D01*
G02X14047370Y2424550I0J-25420D01*
G01Y2259450D01*
G02X14021950Y2234030I-25420J0D01*
G01X13806050D01*
G02X13780630Y2259450I0J25420D01*
G37*
G36*
G01X13236630D02*
Y2424550D01*
G02X13262050Y2449970I25420J0D01*
G01X13477950D01*
G02X13503370Y2424550I0J-25420D01*
G01Y2259450D01*
G02X13477950Y2234030I-25420J0D01*
G01X13262050D01*
G02X13236630Y2259450I0J25420D01*
G37*
G36*
G01X10950630D02*
Y2424550D01*
G02X10976050Y2449970I25420J0D01*
G01X11191950D01*
G02X11217370Y2424550I0J-25420D01*
G01Y2259450D01*
G02X11191950Y2234030I-25420J0D01*
G01X10976050D01*
G02X10950630Y2259450I0J25420D01*
G37*
G36*
G01X13888600Y2195970D02*
X13939400D01*
G02Y1980030I0J-107970D01*
G01X13888600D01*
G02Y2195970I0J107970D01*
G37*
G36*
G01Y1941970D02*
X13939400D01*
G02Y1726030I0J-107970D01*
G01X13888600D01*
G02Y1941970I0J107970D01*
G37*
G36*
G01X13344600D02*
X13395400D01*
G02Y1726030I0J-107970D01*
G01X13344600D01*
G02Y1941970I0J107970D01*
G37*
G36*
G01Y2195970D02*
X13395400D01*
G02Y1980030I0J-107970D01*
G01X13344600D01*
G02Y2195970I0J107970D01*
G37*
G36*
G01X11058600D02*
X11109400D01*
G02Y1980030I0J-107970D01*
G01X11058600D01*
G02Y2195970I0J107970D01*
G37*
G36*
G01Y1941970D02*
X11109400D01*
G02Y1726030I0J-107970D01*
G01X11058600D01*
G02Y1941970I0J107970D01*
G37*
G36*
G01X13888600Y1687970D02*
X13939400D01*
G02Y1472030I0J-107970D01*
G01X13888600D01*
G02Y1687970I0J107970D01*
G37*
G36*
G01Y1433970D02*
X13939400D01*
G02Y1218030I0J-107970D01*
G01X13888600D01*
G02Y1433970I0J107970D01*
G37*
G36*
G01X13344600D02*
X13395400D01*
G02Y1218030I0J-107970D01*
G01X13344600D01*
G02Y1433970I0J107970D01*
G37*
G36*
G01Y1687970D02*
X13395400D01*
G02Y1472030I0J-107970D01*
G01X13344600D01*
G02Y1687970I0J107970D01*
G37*
G36*
G01X11058600D02*
X11109400D01*
G02Y1472030I0J-107970D01*
G01X11058600D01*
G02Y1687970I0J107970D01*
G37*
G36*
G01Y1433970D02*
X11109400D01*
G02Y1218030I0J-107970D01*
G01X11058600D01*
G02Y1433970I0J107970D01*
G37*
G36*
G01X13888600Y1179970D02*
X13939400D01*
G02Y964030I0J-107970D01*
G01X13888600D01*
G02Y1179970I0J107970D01*
G37*
G36*
G01Y913270D02*
X13939400D01*
G02Y722730I0J-95270D01*
G01X13888600D01*
G02Y913270I0J95270D01*
G37*
G36*
G01X11058600Y1179970D02*
X11109400D01*
G02Y964030I0J-107970D01*
G01X11058600D01*
G02Y1179970I0J107970D01*
G37*
G36*
G01Y913270D02*
X11109400D01*
G02Y722730I0J-95270D01*
G01X11058600D01*
G02Y913270I0J95270D01*
G37*
G36*
G01X3124250Y2080230D02*
G03X3129790Y2085760I481J5058D01*
G02X3129590Y2090000I45219J4258D01*
G02X3220430I45420J0D01*
G02X3175470Y2044580I-45422J0D01*
G03X3165420Y2034530I107J-10157D01*
G02X3165220Y2030740I-45419J496D01*
G03X3170750Y2025210I5057J-473D01*
G02X3175010Y2025410I4258J-45220D01*
G02Y1934570I0J-45420D01*
G02X3129590Y1979530I0J45422D01*
G03X3119540Y1989590I-10158J-98D01*
G02X3115750Y1989790I496J45418D01*
G03X3110220Y1984250I-473J-5058D01*
G02X3110420Y1979990I-45220J-4258D01*
G02X3019580I-45420J0D01*
G02X3064530Y2025410I45422J0D01*
G03X3074580Y2035460I-108J10158D01*
G02X3074780Y2039250I45417J-496D01*
G03X3069250Y2044780I-5059J471D01*
G02X3065000Y2044580I-4258J45220D01*
G02Y2135420I0J45420D01*
G02X3110420Y2090480I0J-45423D01*
G03X3120470Y2080430I10157J107D01*
G02X3124250Y2080230I-508J-45418D01*
G37*
G36*
G01X10692630Y2055100D02*
G03X10678090Y2049650I-4971J-8858D01*
G02X10635000Y2019260I-43090J15354D01*
G02Y2110740I0J45740D01*
G02X10657370Y2104900I6J-45742D01*
G03X10671910Y2110350I4971J8858D01*
G02X10715000Y2140740I43090J-15354D01*
G02Y2049260I0J-45740D01*
G02X10692630Y2055100I-6J45742D01*
G37*
G36*
G01X5944270Y2175730D02*
G03X5954270Y2185730I-163J10163D01*
G02X6000000Y2230740I45730J-726D01*
G02X6045740Y2185000I0J-45740D01*
G02X6000730Y2139270I-45736J0D01*
G03X5990730Y2129270I163J-10163D01*
G02X5945730Y2084270I-45730J730D01*
G03X5935730Y2074270I163J-10163D01*
G02X5890000Y2029260I-45730J726D01*
G02X5844260Y2075000I0J45740D01*
G02X5889270Y2120730I45736J0D01*
G03X5899270Y2130730I-163J10163D01*
G02X5944270Y2175730I45730J-730D01*
G37*
G36*
G01X7814270D02*
G03X7824270Y2185730I-163J10163D01*
G02X7870000Y2230740I45730J-726D01*
G02X7915740Y2185000I0J-45740D01*
G02X7870730Y2139270I-45736J0D01*
G03X7860730Y2129270I163J-10163D01*
G02X7815730Y2084270I-45730J730D01*
G03X7805730Y2074270I163J-10163D01*
G02X7760000Y2029260I-45730J726D01*
G02X7714260Y2075000I0J45740D01*
G02X7759270Y2120730I45736J0D01*
G03X7769270Y2130730I-163J10163D01*
G02X7814270Y2175730I45730J-730D01*
G37*
G36*
G01X9684270D02*
G03X9694270Y2185730I-163J10163D01*
G02X9740000Y2230740I45730J-726D01*
G02X9785740Y2185000I0J-45740D01*
G02X9740730Y2139270I-45736J0D01*
G03X9730730Y2129270I163J-10163D01*
G02X9685730Y2084270I-45730J730D01*
G03X9675730Y2074270I163J-10163D01*
G02X9630000Y2029260I-45730J726D01*
G02X9584260Y2075000I0J45740D01*
G02X9629270Y2120730I45736J0D01*
G03X9639270Y2130730I-163J10163D01*
G02X9684270Y2175730I45730J-730D01*
G37*
G36*
G01X5874270Y2250730D02*
G03X5884270Y2260730I-163J10163D01*
G02X5930000Y2305740I45730J-726D01*
G02X5975740Y2260000I0J-45740D01*
G02X5930730Y2214270I-45736J0D01*
G03X5920730Y2204270I163J-10163D01*
G02X5875730Y2159270I-45730J730D01*
G03X5865730Y2149270I163J-10163D01*
G02X5820000Y2104260I-45730J726D01*
G02X5774260Y2150000I0J45740D01*
G02X5819270Y2195730I45736J0D01*
G03X5829270Y2205730I-163J10163D01*
G02X5874270Y2250730I45730J-730D01*
G37*
G36*
G01X7744270D02*
G03X7754270Y2260730I-163J10163D01*
G02X7800000Y2305740I45730J-726D01*
G02X7845740Y2260000I0J-45740D01*
G02X7800730Y2214270I-45736J0D01*
G03X7790730Y2204270I163J-10163D01*
G02X7745730Y2159270I-45730J730D01*
G03X7735730Y2149270I163J-10163D01*
G02X7690000Y2104260I-45730J726D01*
G02X7644260Y2150000I0J45740D01*
G02X7689270Y2195730I45736J0D01*
G03X7699270Y2205730I-163J10163D01*
G02X7744270Y2250730I45730J-730D01*
G37*
G36*
G01X9614270D02*
G03X9624270Y2260730I-163J10163D01*
G02X9670000Y2305740I45730J-726D01*
G02X9715740Y2260000I0J-45740D01*
G02X9670730Y2214270I-45736J0D01*
G03X9660730Y2204270I163J-10163D01*
G02X9615730Y2159270I-45730J730D01*
G03X9605730Y2149270I163J-10163D01*
G02X9560000Y2104260I-45730J726D01*
G02X9514260Y2150000I0J45740D01*
G02X9559270Y2195730I45736J0D01*
G03X9569270Y2205730I-163J10163D01*
G02X9614270Y2250730I45730J-730D01*
G37*
G36*
G01X4732500Y3044610D02*
G03X4731150Y3060970I-6644J7687D01*
G02X4709260Y3100000I23850J39030D01*
G02X4800740I45740J0D01*
G02X4784900Y3065390I-45731J0D01*
G03X4786250Y3049030I6644J-7687D01*
G02X4808140Y3010000I-23850J-39030D01*
G02X4716660I-45740J0D01*
G02X4732500Y3044610I45731J0D01*
G37*
G36*
G01X12145790Y3132930D02*
G03X12159370Y3141160I3505J9535D01*
G02X12204730Y3181010I45360J-5891D01*
G02Y3089530I0J-45740D01*
G02X12188940Y3092340I-5J45741D01*
G03X12175360Y3084110I-3505J-9535D01*
G02X12130000Y3044260I-45360J5891D01*
G02Y3135740I0J45740D01*
G02X12145790Y3132930I5J-45741D01*
G37*
G36*
G01X10469300Y3111820D02*
G03X10460660Y3122270I-10152J404D01*
G02X10421760Y3167500I6845J45230D01*
G02X10513240I45740J0D01*
G02X10513200Y3165680I-45738J95D01*
G03X10521840Y3155230I10152J-404D01*
G02X10560740Y3110000I-6845J-45230D01*
G02X10469260I-45740J0D01*
G02X10469300Y3111820I45738J-95D01*
G37*
G36*
G01X3124250Y3280230D02*
G03X3129790Y3285760I481J5058D01*
G02X3129590Y3290000I45219J4258D01*
G02X3220430I45420J0D01*
G02X3175470Y3244580I-45422J0D01*
G03X3165420Y3234530I107J-10157D01*
G02X3165220Y3230740I-45419J496D01*
G03X3170750Y3225210I5057J-473D01*
G02X3175010Y3225410I4258J-45220D01*
G02Y3134570I0J-45420D01*
G02X3129590Y3179530I0J45422D01*
G03X3119540Y3189590I-10158J-98D01*
G02X3115750Y3189790I496J45418D01*
G03X3110220Y3184250I-473J-5058D01*
G02X3110420Y3179990I-45220J-4258D01*
G02X3019580I-45420J0D01*
G02X3064530Y3225410I45422J0D01*
G03X3074580Y3235460I-108J10158D01*
G02X3074780Y3239250I45417J-496D01*
G03X3069250Y3244780I-5059J471D01*
G02X3065000Y3244580I-4258J45220D01*
G02Y3335420I0J45420D01*
G02X3110420Y3290480I0J-45423D01*
G03X3120470Y3280430I10157J107D01*
G02X3124250Y3280230I-508J-45418D01*
G37*
G36*
G01X12672860Y3291820D02*
G03Y3308180I-6023J8180D01*
G02X12654260Y3345000I27144J36820D01*
G02X12745740I45740J0D01*
G02X12727140Y3308180I-45744J0D01*
G03Y3291820I6023J-8180D01*
G02X12745740Y3255000I-27144J-36820D01*
G02X12654260I-45740J0D01*
G02X12672860Y3291820I45744J0D01*
G37*
G36*
G01X10420080Y3601180D02*
G03X10414090Y3605170I-4982J-989D01*
G02X10405000Y3604260I-9079J44831D01*
G02Y3695740I0J45740D01*
G02X10449870Y3658870I0J-45738D01*
G03X10455860Y3654880I4982J989D01*
G02X10464950Y3655790I9079J-44831D01*
G02X10510690Y3610050I0J-45740D01*
G02X10503440Y3585340I-45734J0D01*
G03X10504950Y3578340I4276J-2740D01*
G02X10525740Y3540000I-24957J-38340D01*
G02X10434260I-45740J0D01*
G02X10441510Y3564710I45734J0D01*
G03X10440000Y3571710I-4276J2740D01*
G02X10420080Y3601180I24953J38334D01*
G37*
G36*
G01X11548580Y3764930D02*
G03X11552050Y3779470I-4959J8868D01*
G02X11544260Y3805000I37939J25530D01*
G02X11635740I45740J0D01*
G02X11612310Y3765070I-45740J0D01*
G03X11608840Y3750530I4959J-8868D01*
G02X11616630Y3725000I-37939J-25530D01*
G02X11525150I-45740J0D01*
G02X11548580Y3764930I45740J0D01*
G37*
G36*
G01X6956540Y3829260D02*
G03X6969270Y3839260I2570J9831D01*
G02X6969260Y3840000I45727J988D01*
G02X7015000Y3794260I45740J0D01*
G02X7003460Y3795740I0J45730D01*
G03X6990730Y3785740I-2570J-9831D01*
G02X6990740Y3785000I-45727J-988D01*
G02X6945000Y3830740I-45740J0D01*
G02X6956540Y3829260I0J-45730D01*
G37*
G36*
G01X10071790Y4359860D02*
G03X10056340Y4361680I-8490J-5580D01*
G02X10025000Y4349260I-31340J33331D01*
G02Y4440740I0J45740D01*
G02X10063210Y4420140I0J-45737D01*
G03X10078660Y4418320I8490J5580D01*
G02X10110000Y4430740I31340J-33331D01*
G02Y4339260I0J-45740D01*
G02X10071790Y4359860I0J45737D01*
G37*
G36*
G01X10976560Y4695710D02*
G03X10986870Y4707840I345J10154D01*
G02X10986000Y4716740I44872J8879D01*
G02X11031740Y4671000I45740J0D01*
G02X11030180Y4671030I99J45738D01*
G03X11019870Y4658900I-345J-10154D01*
G02X11020740Y4650000I-44872J-8879D01*
G02X10975000Y4695740I-45740J0D01*
G02X10976560Y4695710I-99J-45738D01*
G37*
G36*
G01X6220290Y4904780D02*
G03Y4920220I-6602J7720D01*
G02X6204260Y4955000I29716J34780D01*
G02X6295740I45740J0D01*
G02X6279710Y4920220I-45746J0D01*
G03Y4904780I6602J-7720D01*
G02X6295740Y4870000I-29716J-34780D01*
G02X6204260I-45740J0D01*
G02X6220290Y4904780I45746J0D01*
G37*
G36*
G01X11744680Y5345940D02*
G03X11728320Y5345030I-7846J-6456D01*
G02X11690000Y5324260I-38320J24965D01*
G02Y5415740I0J45740D01*
G02X11725320Y5399060I0J-45735D01*
G03X11741680Y5399970I7846J6456D01*
G02X11780000Y5420740I38320J-24965D01*
G02X11825740Y5375000I0J-45740D01*
G02X11813920Y5344320I-45727J0D01*
G03Y5330680I7535J-6820D01*
G02X11825740Y5300000I-33907J-30680D01*
G02X11734260I-45740J0D01*
G02X11746080Y5330680I45727J0D01*
G03Y5344320I-7535J6820D01*
G02X11744680Y5345940I33897J30708D01*
G37*
G36*
G01X8628740Y5439560D02*
G02X8679560Y5388740I0J-50820D01*
G01Y5367220D01*
X8687720D01*
X8689140Y5369950D01*
G02X8804000Y5439560I114860J-59957D01*
G02Y5180440I0J-129560D01*
G02X8689140Y5250050I0J129567D01*
G01X8687720Y5252780D01*
X8679560D01*
Y5231260D01*
G02X8628740Y5180440I-50820J0D01*
G01X8471260D01*
G02X8420440Y5231260I0J50820D01*
G01Y5388740D01*
G02X8471260Y5439560I50820J0D01*
G01X8628740D01*
G37*
G36*
G01X11395100Y5596270D02*
G03X11384200Y5604450I-9972J-1936D01*
G02X11380000Y5604260I-4165J45552D01*
G02Y5695740I0J45740D01*
G02X11424900Y5658730I0J-45741D01*
G03X11435800Y5650550I9972J1936D01*
G02X11440000Y5650740I4165J-45552D01*
G02Y5559260I0J-45740D01*
G02X11395100Y5596270I0J45741D01*
G37*
G36*
G01X10417270Y5758050D02*
G03X10402730I-7270J-7098D01*
G02X10370000Y5744260I-32730J31947D01*
G02Y5835740I0J45740D01*
G02X10402730Y5821950I0J-45737D01*
G03X10417270I7270J7098D01*
G02X10450000Y5835740I32730J-31947D01*
G02X10494520Y5800480I0J-45736D01*
G03X10505880Y5792760I9889J2333D01*
G02X10512500Y5793240I6609J-45261D01*
G02Y5701760I0J-45740D01*
G02X10467980Y5737020I0J45736D01*
G03X10456620Y5744740I-9889J-2333D01*
G02X10450000Y5744260I-6609J45261D01*
G02X10417270Y5758050I0J45737D01*
G37*
G36*
G01X11426880Y5405000D02*
G02X11438050Y5431950I38117J-8D01*
G01X11810140Y5804050D01*
X11810470Y5805460D01*
G02X11855000Y5840740I44530J-10463D01*
G02X11900740Y5795000I0J-45740D01*
G02X11865460Y5750470I-45743J0D01*
G01X11864050Y5750140D01*
X11503120Y5389210D01*
Y4480000D01*
G02X11491950Y4453050I-38117J8D01*
G01X10966950Y3928050D01*
G02X10940000Y3916880I-26958J26947D01*
G01X9965790D01*
X9523120Y3474210D01*
Y3390000D01*
G02X9511950Y3363050I-38117J8D01*
G01X9329860Y3180950D01*
X9329530Y3179540D01*
G02X9285000Y3144260I-44530J10463D01*
G02X9239260Y3190000I0J45740D01*
G02X9274540Y3234530I45743J0D01*
G01X9275950Y3234860D01*
X9446880Y3405790D01*
Y3490000D01*
G02X9458050Y3516950I38117J-8D01*
G01X9923050Y3981950D01*
G02X9950000Y3993120I26958J-26947D01*
G01X10924210D01*
X11426880Y4495790D01*
Y5405000D01*
G37*
G36*
G01X10621510Y5774250D02*
G03X10623510Y5780750I-2607J4360D01*
G02X10619260Y5800000I41489J19254D01*
G02X10710740I45740J0D01*
G02X10688490Y5760750I-45744J0D01*
G03X10686490Y5754250I2607J-4360D01*
G02X10690740Y5735000I-41489J-19254D01*
G02X10599260I-45740J0D01*
G02X10621510Y5774250I45744J0D01*
G37*
G36*
G01X6981080Y5795680D02*
G03Y5809320I-7535J6820D01*
G02X6969260Y5840000I33907J30680D01*
G02X7060740I45740J0D01*
G02X7048920Y5809320I-45727J0D01*
G03Y5795680I7535J-6820D01*
G02X7060740Y5765000I-33907J-30680D01*
G02X6969260I-45740J0D01*
G02X6981080Y5795680I45727J0D01*
G37*
G36*
G01X13011750Y5998660D02*
G02X13024280Y6003500I31785J-63646D01*
G02X13024260Y6005000I45722J1360D01*
G02X13115740I45740J0D01*
G02X13103260Y5973600I-45742J0D01*
G02X13114640Y5935000I-59774J-38600D01*
G02X13043500Y5863860I-71140J0D01*
G02X13011750Y5871340I4J71139D01*
G02X12980000Y5863860I-31754J63659D01*
G02X12908860Y5935000I0J71140D01*
G02X12912570Y5957690I71143J16D01*
G03X12909980Y5963870I-4813J1616D01*
G02X12884260Y6005000I20026J41130D01*
G02X12930000Y6050740I45740J0D01*
G02X12975400Y6010600I0J-45745D01*
G03X12980410Y6006140I5040J618D01*
G02X13011750Y5998660I-416J-71139D01*
G37*
G36*
G01X13240110Y5978620D02*
G03X13225990Y5976780I-6123J-8110D01*
G02X13190000Y5959260I-35996J28217D01*
G02Y6050740I0J45740D01*
G02X13225990Y6033220I-6J-45737D01*
G03X13240110Y6031380I7997J6270D01*
G02X13260000Y6038040I19890J-26371D01*
G02Y5971960I0J-33040D01*
G02X13240110Y5978620I0J33031D01*
G37*
G36*
G01X6258660Y5968250D02*
G02X6266140Y5936500I-63659J-31754D01*
G02X6123860I-71140J0D01*
G02X6131340Y5968250I71139J-4D01*
G02X6123860Y6000000I63659J31754D01*
G02X6266140I71140J0D01*
G02X6258660Y5968250I-71139J4D01*
G37*
G36*
G01X13436840Y6246500D02*
G03Y6253500I-3686J3500D01*
G02X13424260Y6285000I33148J31500D01*
G02X13515740I45740J0D01*
G02X13503160Y6253500I-45728J0D01*
G03Y6246500I3686J-3500D01*
G02X13515740Y6215000I-33148J-31500D01*
G02X13424260I-45740J0D01*
G02X13436840Y6246500I45728J0D01*
G37*
G36*
G01X12796340Y6273250D02*
G02X12788860Y6305000I63659J31754D01*
G02X12794260Y6332190I71153J0D01*
G02X12774260Y6370000I25740J37810D01*
G02X12820000Y6415740I45740J0D01*
G02X12865350Y6375940I0J-45737D01*
G02X12931140Y6305000I-5352J-70940D01*
G02X12923660Y6273250I-71139J4D01*
G02X12931140Y6241500I-63659J-31754D01*
G02X12901680Y6183850I-71137J0D01*
G02X12905740Y6165000I-41682J-18840D01*
G02X12814260I-45740J0D01*
G02X12818320Y6183850I45742J10D01*
G02X12788860Y6241500I41677J57650D01*
G02X12796340Y6273250I71139J-4D01*
G37*
G36*
G01X2545420Y6449610D02*
G02X2594000Y6382140I-22563J-67470D01*
G02X2522860Y6311000I-71140J0D01*
G02X2455390Y6359580I0J71143D01*
G02X2406810Y6427050I22563J67470D01*
G02X2477950Y6498190I71140J0D01*
G02X2545420Y6449610I0J-71143D01*
G37*
G36*
G01X10283660Y6428250D02*
G02X10291140Y6396500I-63659J-31754D01*
G02X10148860I-71140J0D01*
G02X10156340Y6428250I71139J-4D01*
G02X10148860Y6460000I63659J31754D01*
G02X10291140I71140J0D01*
G02X10283660Y6428250I-71139J4D01*
G37*
G36*
G01X13224780Y6534710D02*
G03X13240220I7720J6602D01*
G02X13275000Y6550740I34780J-29716D01*
G02X13305680Y6538920I0J-45727D01*
G03X13319320I6820J7535D01*
G02X13350000Y6550740I30680J-33907D01*
G02Y6459260I0J-45740D01*
G02X13319320Y6471080I0J45727D01*
G03X13305680I-6820J-7535D01*
G02X13275000Y6459260I-30680J33907D01*
G02X13240220Y6475290I0J45746D01*
G03X13224780I-7720J-6602D01*
G02X13190000Y6459260I-34780J29716D01*
G02Y6550740I0J45740D01*
G02X13224780Y6534710I0J-45746D01*
G37*
G36*
G01X12782800Y6742620D02*
G02X12781720Y6755000I70063J12349D01*
G02X12814050Y6814620I71138J0D01*
G02X12809260Y6835000I40960J20380D01*
G02X12900740I45740J0D01*
G02X12894800Y6812460I-45735J0D01*
G02X12924000Y6755000I-41935J-57460D01*
G02X12916520Y6723250I-71139J4D01*
G02X12924000Y6691500I-63659J-31754D01*
G02X12885650Y6628370I-71136J0D01*
G02X12886140Y6620000I-70652J-8335D01*
G02X12878660Y6588250I-71139J4D01*
G02X12886140Y6556500I-63659J-31754D01*
G02X12856680Y6498850I-71137J0D01*
G02X12860740Y6480000I-41682J-18840D01*
G02X12769260I-45740J0D01*
G02X12773320Y6498850I45742J10D01*
G02X12743860Y6556500I41677J57650D01*
G02X12751340Y6588250I71139J-4D01*
G02X12743860Y6620000I63659J31754D01*
G02X12749260Y6647190I71153J0D01*
G02X12729260Y6685000I25740J37810D01*
G02X12773200Y6730700I45735J0D01*
G03X12782800Y6742620I-404J10151D01*
G37*
G36*
G01X14034010Y6853230D02*
G03X14030380Y6868680I-7990J6274D01*
G02X14004260Y6910000I19623J41320D01*
G02X14095740I45740J0D01*
G02X14085990Y6881770I-45743J0D01*
G03X14089620Y6866320I7990J-6274D01*
G02X14115740Y6825000I-19623J-41320D01*
G02X14024260I-45740J0D01*
G02X14034010Y6853230I45743J0D01*
G37*
G36*
G01X6171340Y6997690D02*
G02X6163860Y7029440I63659J31754D01*
G02X6193010Y7086860I71128J0D01*
G02X6189260Y7105000I42000J18140D01*
G02X6280740I45740J0D01*
G02X6276990Y7086860I-45750J0D01*
G02X6306140Y7029440I-41978J-57420D01*
G02X6298660Y6997690I-71139J4D01*
G02X6306140Y6965940I-63659J-31754D01*
G02X6276870Y6908420I-71153J0D01*
G02X6280740Y6890000I-41871J-18414D01*
G02X6189260I-45740J0D01*
G02X6193130Y6908420I45741J6D01*
G02X6163860Y6965940I41883J57520D01*
G02X6171340Y6997690I71139J-4D01*
G37*
G36*
G01X4207040Y7207500D02*
G03X4225460Y7208470I8986J4741D01*
G02X4331600Y7280320I106140J-42472D01*
G02X4424910Y7232050I0J-114323D01*
G03X4441490I8290J5871D01*
G02X4534800Y7280320I93310J-66053D01*
G02Y7051680I0J-114320D01*
G02X4441490Y7099950I0J114323D01*
G03X4424910I-8290J-5871D01*
G02X4331600Y7051680I-93310J66053D01*
G02X4225460Y7123530I0J114322D01*
G03X4207040Y7124500I-9434J-3771D01*
G02X4128400Y7077080I-78640J41497D01*
G02Y7254920I0J88920D01*
G02X4207040Y7207500I0J-88917D01*
G37*
G36*
G01X5051090Y7099950D02*
G03X5034510I-8290J-5871D01*
G02X4941200Y7051680I-93310J66053D01*
G02Y7280320I0J114320D01*
G02X5034510Y7232050I0J-114323D01*
G03X5051090I8290J5871D01*
G02X5144400Y7280320I93310J-66053D01*
G02X5250540Y7208470I0J-114322D01*
G03X5268960Y7207500I9434J3771D01*
G02X5347600Y7254920I78640J-41497D01*
G02Y7077080I0J-88920D01*
G02X5268960Y7124500I0J88917D01*
G03X5250540Y7123530I-8986J-4741D01*
G02X5144400Y7051680I-106140J42472D01*
G02X5051090Y7099950I0J114323D01*
G37*
G36*
G01X6171340Y7358250D02*
G02X6163860Y7390000I63659J31754D01*
G02X6194600Y7448550I71130J0D01*
G02X6189260Y7470000I40411J21450D01*
G02X6280740I45740J0D01*
G02X6275400Y7448550I-45751J0D01*
G02X6306140Y7390000I-40390J-58550D01*
G02X6298660Y7358250I-71139J4D01*
G02X6306140Y7326500I-63659J-31754D01*
G02X6276680Y7268850I-71137J0D01*
G02X6280740Y7250000I-41682J-18840D01*
G02X6189260I-45740J0D01*
G02X6193320Y7268850I45742J10D01*
G02X6163860Y7326500I41677J57650D01*
G02X6171340Y7358250I71139J-4D01*
G37*
G36*
G01X4729710Y7486050D02*
G03X4746290I8290J5871D01*
G02X4932910I93310J-66053D01*
G03X4949490I8290J5871D01*
G02X5042800Y7534320I93310J-66053D01*
G02X5148940Y7462470I0J-114322D01*
G03X5167360Y7461500I9434J3771D01*
G02X5246000Y7508920I78640J-41497D01*
G02Y7331080I0J-88920D01*
G02X5167360Y7378500I0J88917D01*
G03X5148940Y7377530I-8986J-4741D01*
G02X5042800Y7305680I-106140J42472D01*
G02X4949490Y7353950I0J114323D01*
G03X4932910I-8290J-5871D01*
G02X4746290I-93310J66053D01*
G03X4729710I-8290J-5871D01*
G02X4543090I-93310J66053D01*
G03X4526510I-8290J-5871D01*
G02X4433200Y7305680I-93310J66053D01*
G02X4327060Y7377530I0J114322D01*
G03X4308640Y7378500I-9434J-3771D01*
G02X4230000Y7331080I-78640J41497D01*
G02Y7508920I0J88920D01*
G02X4308640Y7461500I0J-88917D01*
G03X4327060Y7462470I8986J4741D01*
G02X4433200Y7534320I106140J-42472D01*
G02X4526510Y7486050I0J-114323D01*
G03X4543090I8290J5871D01*
G02X4729710I93310J-66053D01*
G37*
G36*
G01X10596750Y7658660D02*
G02X10628500Y7666140I31754J-63659D01*
G02Y7523860I0J-71140D01*
G02X10596750Y7531340I4J71139D01*
G02X10565000Y7523860I-31754J63659D01*
G02Y7666140I0J71140D01*
G02X10596750Y7658660I-4J-71139D01*
G37*
G36*
G01X6167070Y7743140D02*
G02X6159590Y7774890I63659J31754D01*
G02X6188040Y7831800I71145J0D01*
G02X6184260Y7850000I41959J18207D01*
G02X6275740I45740J0D01*
G02X6272310Y7832620I-45748J0D01*
G02X6301870Y7774890I-41593J-57730D01*
G02X6294390Y7743140I-71139J4D01*
G02X6301870Y7711390I-63659J-31754D01*
G02X6271890Y7653370I-71133J0D01*
G02X6275740Y7635000I-41901J-18370D01*
G02X6184260I-45740J0D01*
G02X6188470Y7654160I45738J-7D01*
G02X6159590Y7711390I42265J57230D01*
G02X6167070Y7743140I71139J-4D01*
G37*
G36*
G01X10331490Y8030320D02*
G03X10316950Y8033040I-8551J-5486D01*
G02X10290000Y8024260I-26950J36971D01*
G02Y8115740I0J45740D01*
G02X10328510Y8094680I0J-45739D01*
G03X10343050Y8091960I8551J5486D01*
G02X10370000Y8100740I26950J-36971D01*
G02Y8009260I0J-45740D01*
G02X10331490Y8030320I0J45739D01*
G37*
G36*
G01X2824970Y8100630D02*
G03X2829430Y8106100I-602J5044D01*
G02X2829260Y8110000I45568J3940D01*
G02X2875000Y8155740I45740J0D01*
G02X2920740Y8110500I0J-45743D01*
G03X2932220Y8100530I10159J103D01*
G02X2941500Y8101140I9296J-70529D01*
G02X2973250Y8093660I-4J-71139D01*
G02X3005000Y8101140I31754J-63659D01*
G02X3076140Y8030000I0J-71140D01*
G02X3075920Y8024420I-71140J10D01*
G02X3110740Y7980000I-10923J-44420D01*
G02X3065000Y7934260I-45740J0D01*
G02X3023280Y7961250I0J45740D01*
G02X3005000Y7958860I-18285J68749D01*
G02X2973250Y7966340I4J71139D01*
G02X2941500Y7958860I-31754J63659D01*
G02X2929600Y7959860I-14J71141D01*
G02X2885000Y7924260I-44600J10138D01*
G02X2840550Y7959210I0J45741D01*
G02X2833500Y7958860I-7048J70790D01*
G02X2801750Y7966340I4J71139D01*
G02X2770000Y7958860I-31754J63659D01*
G02X2759550Y7959630I-11J71141D01*
G02X2715000Y7924260I-44550J10371D01*
G02X2670400Y7959860I0J45738D01*
G02X2658500Y7958860I-11886J70141D01*
G02X2626750Y7966340I4J71139D01*
G02X2595000Y7958860I-31754J63659D01*
G02X2576720Y7961250I5J71139D01*
G02X2535000Y7934260I-41720J18750D01*
G02X2489260Y7980000I0J45740D01*
G02X2524080Y8024420I45743J0D01*
G02X2523860Y8030000I70920J5590D01*
G02X2595000Y8101140I71140J0D01*
G02X2626750Y8093660I-4J-71139D01*
G02X2658500Y8101140I31754J-63659D01*
G02X2667780Y8100530I-16J-71139D01*
G03X2679260Y8110500I1321J10073D01*
G02X2725000Y8155740I45740J-503D01*
G02X2770740Y8110000I0J-45740D01*
G02X2770600Y8106410I-45741J-14D01*
G03X2775290Y8100940I5064J-403D01*
G02X2801750Y8093660I-5287J-70942D01*
G02X2824970Y8100630I31764J-63656D01*
G37*
G36*
G01X1514530Y8110000D02*
G02X1525740Y8080000I-34538J-30000D01*
G02X1434260I-45740J0D01*
G02X1445470Y8110000I45748J0D01*
G02X1434260Y8140000I34538J30000D01*
G02X1525740I45740J0D01*
G02X1514530Y8110000I-45748J0D01*
G37*
G36*
G01X3294530D02*
G02X3305740Y8080000I-34538J-30000D01*
G02X3214260I-45740J0D01*
G02X3225470Y8110000I45748J0D01*
G02X3214260Y8140000I34538J30000D01*
G02X3305740I45740J0D01*
G02X3294530Y8110000I-45748J0D01*
G37*
G36*
G01X6459140Y8068730D02*
G02X6436640Y8082820I25844J66280D01*
G02X6410000Y8074260I-26640J37174D01*
G02Y8165740I0J45740D01*
G02X6420300Y8164570I20J-45742D01*
G02X6485000Y8206140I64700J-29565D01*
G02X6555860Y8141270I0J-71137D01*
G02X6601140Y8075000I-25855J-66270D01*
G02X6586800Y8032170I-71131J0D01*
G02X6595740Y8005000I-36802J-27165D01*
G02X6504260I-45740J0D01*
G02X6504400Y8008620I45742J44D01*
G02X6459140Y8068730I25604J66373D01*
G37*
G36*
G01X6066340Y8298250D02*
G02X6058860Y8330000I63659J31754D01*
G02X6089600Y8388550I71130J0D01*
G02X6084260Y8410000I40411J21450D01*
G02X6175740I45740J0D01*
G02X6170400Y8388550I-45751J0D01*
G02X6201140Y8330000I-40390J-58550D01*
G02X6193660Y8298250I-71139J4D01*
G02X6201140Y8266500I-63659J-31754D01*
G02X6199890Y8253250I-71137J27D01*
G02X6230730Y8210910I-14891J-43248D01*
G02X6296140Y8140000I-5731J-70910D01*
G02X6288660Y8108250I-71139J4D01*
G02X6296140Y8076500I-63659J-31754D01*
G02X6266680Y8018850I-71137J0D01*
G02X6270740Y8000000I-41682J-18840D01*
G02X6179260I-45740J0D01*
G02X6183320Y8018850I45742J10D01*
G02X6153860Y8076500I41677J57650D01*
G02X6161340Y8108250I71139J-4D01*
G02X6153860Y8140000I63659J31754D01*
G02X6161000Y8171060I71128J0D01*
G02X6141370Y8196270I24002J38937D01*
G02X6130000Y8195360I-11342J70232D01*
G02X6058860Y8266500I0J71140D01*
G02X6066340Y8298250I71139J-4D01*
G37*
G36*
G01X10351680Y8505030D02*
G03X10335320Y8505940I-8514J-5546D01*
G02X10300000Y8489260I-35320J29055D01*
G02Y8580740I0J45740D01*
G02X10338320Y8559970I0J-45735D01*
G03X10354680Y8559060I8514J5546D01*
G02X10390000Y8575740I35320J-29055D01*
G02Y8484260I0J-45740D01*
G02X10351680Y8505030I0J45735D01*
G37*
G36*
G01X13283920Y8524380D02*
G02X13291340Y8553250I71081J-2880D01*
G02X13283860Y8585000I63659J31754D01*
G02X13355000Y8656140I71140J0D01*
G02X13375530Y8653110I-11J-71138D01*
G02X13415000Y8675740I39470J-23106D01*
G02X13460740Y8630000I0J-45740D01*
G02X13426140Y8585640I-45737J0D01*
G01Y8585000D01*
G02X13418660Y8553250I-71139J4D01*
G02X13426140Y8521500I-63659J-31754D01*
G02X13355000Y8450360I-71140J0D01*
G02X13332610Y8453970I-16J71143D01*
G02X13295000Y8434260I-37610J26028D01*
G02X13249260Y8480000I0J45740D01*
G02X13283920Y8524380I45743J0D01*
G37*
G36*
G01X800200Y8635370D02*
G03X808950Y8648510I-946J10113D01*
G02X804160Y8680000I101042J31479D01*
G02X909990Y8785830I105830J0D01*
G02X1001230Y8733620I0J-105829D01*
G03X1018750I8760J5147D01*
G02X1109990Y8785830I91240J-53619D01*
G02X1215820Y8680000I0J-105830D01*
G02X1211030Y8648510I-105832J-11D01*
G03X1219780Y8635370I9696J-3027D01*
G02X1301240Y8583590I-9795J-105376D01*
G03X1318760I8760J5150D01*
G02X1325620Y8593860I91284J-53548D01*
G03X1322290Y8608960I-8100J6131D01*
G02X1279570Y8680000I37707J71040D01*
G02X1440430I80430J0D01*
G02X1432800Y8645800I-80432J-7D01*
G03X1439190Y8631720I9195J-4317D01*
G02X1515840Y8529990I-29183J-101730D01*
G02X1410010Y8424160I-105830J0D01*
G02X1318760Y8476390I0J105826D01*
G03X1301240I-8760J-5150D01*
G02X1209990Y8424160I-91250J53596D01*
G02X1104160Y8529990I0J105830D01*
G02X1108950Y8561480I105832J11D01*
G03X1100200Y8574620I-9696J3027D01*
G02X1094910Y8575250I9866J105370D01*
G03X1084100Y8561250I-1449J-10055D01*
G02X1090420Y8529990I-74112J-31252D01*
G02X929560I-80430J0D01*
G02X935880Y8561250I80432J8D01*
G03X925070Y8575250I-9361J3945D01*
G02X919780Y8574620I-15156J104740D01*
G03X911030Y8561480I946J-10113D01*
G02X915820Y8529990I-101042J-31479D01*
G02X809990Y8424160I-105830J0D01*
G02X718750Y8476370I0J105829D01*
G03X701230I-8760J-5147D01*
G02X609990Y8424160I-91240J53619D01*
G02X504160Y8529990I0J105830D01*
G02X580810Y8631720I105833J0D01*
G03X587200Y8645800I-2805J9763D01*
G02X579570Y8680000I72802J34193D01*
G02X740430I80430J0D01*
G02X697710Y8608960I-80427J0D01*
G03X694380Y8593860I4770J-8969D01*
G02X701230Y8583610I-84417J-63829D01*
G03X718750I8760J5147D01*
G02X800200Y8635370I91244J-53617D01*
G37*
G36*
G01X2590200D02*
G03X2598950Y8648510I-946J10113D01*
G02X2594160Y8680000I101042J31479D01*
G02X2699990Y8785830I105830J0D01*
G02X2791230Y8733620I0J-105829D01*
G03X2808750I8760J5147D01*
G02X2899990Y8785830I91240J-53619D01*
G02X3005820Y8680000I0J-105830D01*
G02X3001030Y8648510I-105832J-11D01*
G03X3009780Y8635370I9696J-3027D01*
G02X3091240Y8583590I-9795J-105376D01*
G03X3108760I8760J5150D01*
G02X3115620Y8593860I91284J-53549D01*
G03X3112290Y8608960I-8100J6131D01*
G02X3069570Y8680000I37707J71040D01*
G02X3230430I80430J0D01*
G02X3222800Y8645800I-80432J-7D01*
G03X3229190Y8631720I9195J-4317D01*
G02X3305840Y8529990I-29183J-101730D01*
G02X3200010Y8424160I-105830J0D01*
G02X3108760Y8476390I0J105826D01*
G03X3091240I-8760J-5150D01*
G02X2999990Y8424160I-91250J53596D01*
G02X2894160Y8529990I0J105830D01*
G02X2898950Y8561480I105832J11D01*
G03X2890200Y8574620I-9696J3027D01*
G02X2884910Y8575250I9866J105370D01*
G03X2874100Y8561250I-1449J-10055D01*
G02X2880420Y8529990I-74112J-31252D01*
G02X2719560I-80430J0D01*
G02X2725880Y8561250I80432J8D01*
G03X2715070Y8575250I-9361J3945D01*
G02X2709780Y8574620I-15156J104740D01*
G03X2701030Y8561480I946J-10113D01*
G02X2705820Y8529990I-101042J-31479D01*
G02X2599990Y8424160I-105830J0D01*
G02X2508750Y8476370I0J105829D01*
G03X2491230I-8760J-5147D01*
G02X2399990Y8424160I-91240J53619D01*
G02X2294160Y8529990I0J105830D01*
G02X2370810Y8631720I105833J0D01*
G03X2377200Y8645800I-2805J9763D01*
G02X2369570Y8680000I72802J34193D01*
G02X2530430I80430J0D01*
G02X2487710Y8608960I-80427J0D01*
G03X2484380Y8593860I4770J-8969D01*
G02X2491230Y8583610I-84417J-63829D01*
G03X2508750I8760J5147D01*
G02X2590200Y8635370I91244J-53617D01*
G37*
G36*
G01X13293890Y8824370D02*
G02X13293860Y8826500I71111J2067D01*
G02X13301340Y8858250I71139J-4D01*
G02X13293860Y8890000I63659J31754D01*
G02X13365000Y8961140I71140J0D01*
G02X13372070Y8960790I22J-71141D01*
G02X13415000Y8990740I42930J-15793D01*
G02X13460740Y8945000I0J-45740D01*
G02X13434800Y8903770I-45736J0D01*
G02X13436140Y8890000I-69803J-13743D01*
G02X13428660Y8858250I-71139J4D01*
G02X13436140Y8826500I-63659J-31754D01*
G02X13365000Y8755360I-71140J0D01*
G02X13345200Y8758170I-3J71140D01*
G02X13305000Y8734260I-40200J21839D01*
G02X13269680Y8750940I0J45735D01*
G03X13253320Y8750030I-7846J-6456D01*
G02X13230630Y8732010I-38327J24964D01*
G02X13231140Y8723500I-70630J-8503D01*
G02X13223660Y8691750I-71139J4D01*
G02X13231140Y8660000I-63659J-31754D01*
G02X13160000Y8588860I-71140J0D01*
G02X13136750Y8592770I10J71138D01*
G02X13100000Y8574260I-36750J27227D01*
G02X13054260Y8620000I0J45740D01*
G02X13089000Y8664400I45743J0D01*
G02X13096340Y8691750I71002J-4395D01*
G02X13088860Y8723500I63659J31754D01*
G02X13160000Y8794640I71140J0D01*
G02X13173130Y8793420I11J-71141D01*
G02X13215000Y8820740I41870J-18424D01*
G02X13250320Y8804060I0J-45735D01*
G03X13266680Y8804970I7846J6456D01*
G02X13293890Y8824370I38323J-24969D01*
G37*
G36*
G01X6978220Y9152600D02*
G03X6963280I-7470J-6894D01*
G02X6939000Y9141960I-24286J22397D01*
G02Y9208040I0J33040D01*
G02X6963280Y9197400I-6J-33037D01*
G03X6978220I7470J6894D01*
G02X7002500Y9208040I24286J-22397D01*
G02Y9141960I0J-33040D01*
G02X6978220Y9152600I6J33037D01*
G37*
G36*
G01X14151340Y9175320D02*
G02X14143860Y9207070I63659J31754D01*
G02X14173820Y9265080I71141J0D01*
G02X14169260Y9285000I41182J19909D01*
G02X14260740I45740J0D01*
G02X14256180Y9265080I-45742J-11D01*
G02X14286140Y9207070I-41181J-58010D01*
G02X14278660Y9175320I-71139J4D01*
G02X14286140Y9143570I-63659J-31754D01*
G02X14255940Y9085390I-71142J0D01*
G02X14260740Y9065000I-40938J-20397D01*
G02X14169260I-45740J0D01*
G02X14174060Y9085390I45738J-7D01*
G02X14143860Y9143570I40942J58180D01*
G02X14151340Y9175320I71139J-4D01*
G37*
G36*
G01X14571750Y9403660D02*
G02X14584280Y9408500I31785J-63646D01*
G02X14584260Y9410000I45722J1360D01*
G02X14675740I45740J0D01*
G02X14663260Y9378600I-45742J0D01*
G02X14674640Y9340000I-59774J-38600D01*
G02X14603500Y9268860I-71140J0D01*
G02X14571750Y9276340I4J71139D01*
G02X14555030Y9270470I-31741J63664D01*
G02X14484530Y9208860I-70500J9531D01*
G02X14452780Y9216340I4J71139D01*
G02X14421030Y9208860I-31754J63659D01*
G02X14362200Y9240010I0J71128D01*
G02X14340000Y9234260I-22200J39981D01*
G02Y9325740I0J45740D01*
G02X14362200Y9319990I0J-45731D01*
G02X14421030Y9351140I58830J-39978D01*
G02X14452780Y9343660I-4J-71139D01*
G02X14469500Y9349530I31741J-63664D01*
G02X14478910Y9376450I70497J-9538D01*
G02X14464260Y9410000I31091J33550D01*
G02X14555740I45740J0D01*
G01Y9409380D01*
G02X14571750Y9403660I-15759J-69373D01*
G37*
G36*
G01X14795610Y9413390D02*
G02X14807780Y9408660I-19577J-68392D01*
G02X14824480Y9414530I31757J-63658D01*
G02X14870000Y9455740I45520J-4535D01*
G02X14915740Y9410000I0J-45740D01*
G02X14902600Y9377910I-45742J-5D01*
G02X14906050Y9370220I-63068J-32914D01*
G03X14914510Y9368560I4747J1806D01*
G02X14966500Y9391140I51990J-48563D01*
G02X14998250Y9383660I-4J-71139D01*
G02X15029670Y9391140I31755J-63659D01*
G02X15075000Y9430740I45330J-6145D01*
G02X15120740Y9385000I0J-45740D01*
G02X15096700Y9344740I-45732J0D01*
G02X15101140Y9320000I-66707J-24740D01*
G02X15030000Y9248860I-71140J0D01*
G02X14998250Y9256340I4J71139D01*
G02X14966500Y9248860I-31754J63659D01*
G02X14940520Y9253770I-9J71142D01*
G02X14900000Y9229260I-40520J21239D01*
G02X14855170Y9265920I0J45740D01*
G03X14844500Y9274030I-9955J-2023D01*
G02X14839530Y9273860I-4916J70972D01*
G02X14807780Y9281340I4J71139D01*
G02X14776030Y9273860I-31754J63659D01*
G02X14704890Y9345000I0J71140D01*
G02X14714650Y9380970I71142J6D01*
G02X14704260Y9410000I35360J29030D01*
G02X14750000Y9455740I45740J0D01*
G02X14795610Y9413390I0J-45735D01*
G37*
G36*
G01X3952640Y9048140D02*
G03X3943670Y9064060I-8353J5780D01*
G02X3931550Y9063690I-12093J197441D01*
G02X4129360Y9261500I0J197810D01*
G02X4090000Y9143080I-197821J0D01*
G03X4098390Y9126840I8137J-6084D01*
G02X4103000Y9126900I4685J-182839D01*
G02X3920100Y8944000I0J-182900D01*
G02X3952640Y9048140I182913J0D01*
G37*
G36*
G01X5377610Y9126840D02*
G03X5386000Y9143080I253J10156D01*
G02X5346640Y9261500I158461J118420D01*
G02X5544450Y9063690I197810J0D01*
G02X5532330Y9064060I-27J197811D01*
G03X5523360Y9048140I-617J-10140D01*
G02X5555900Y8944000I-150373J-104140D01*
G02X5373000Y9126900I-182900J0D01*
G02X5377610Y9126840I-75J-182899D01*
G37*
G36*
G01X14573250Y9738660D02*
G02X14605000Y9746140I31754J-63659D01*
G02X14643250Y9734980I0J-71129D01*
G02X14681500Y9746140I38250J-59969D01*
G02X14713250Y9738660I-4J-71139D01*
G02X14745000Y9746140I31754J-63659D01*
G02X14816140Y9675000I0J-71140D01*
G02X14816010Y9670760I-71138J59D01*
G03X14820480Y9665410I5072J-305D01*
G02X14860740Y9620000I-5479J-45410D01*
G02X14815000Y9574260I-45740J0D01*
G02X14772170Y9603940I0J45743D01*
G03X14765920Y9607010I-4756J-1786D01*
G02X14745000Y9603860I-20934J67988D01*
G02X14713250Y9611340I4J71139D01*
G02X14681500Y9603860I-31754J63659D01*
G02X14675360Y9604130I52J71138D01*
G02X14630000Y9564260I-45360J5868D01*
G02X14584360Y9606920I0J45744D01*
G02X14573250Y9611340I20649J68077D01*
G02X14555490Y9605250I-31753J63659D01*
G02X14510000Y9564260I-45490J4747D01*
G02X14464670Y9603860I0J45745D01*
G02X14433250Y9611340I335J71139D01*
G02X14401500Y9603860I-31754J63659D01*
G02X14400330Y9603870I23J71140D01*
G02X14355000Y9564260I-45330J6133D01*
G02X14309660Y9603970I0J45739D01*
G02X14281910Y9611340I4010J71027D01*
G02X14250160Y9603860I-31754J63659D01*
G02X14191560Y9634660I0J71146D01*
G02X14170000Y9629260I-21560J40340D01*
G02Y9720740I0J45740D01*
G02X14191560Y9715340I0J-45740D01*
G02X14250160Y9746140I58600J-40346D01*
G02X14281910Y9738660I-4J-71139D01*
G02X14313660Y9746140I31754J-63659D01*
G02X14357580Y9730960I0J-71126D01*
G02X14401500Y9746140I43920J-55946D01*
G02X14433250Y9738660I-4J-71139D01*
G02X14465000Y9746140I31754J-63659D01*
G02X14503250Y9734980I0J-71129D01*
G02X14541500Y9746140I38250J-59969D01*
G02X14573250Y9738660I-4J-71139D01*
G37*
G36*
G01X8905320Y9708660D02*
G02X8933270Y9716040I31758J-63658D01*
G02X8979000Y9760740I45730J-1042D01*
G02X9024740Y9715000I0J-45740D01*
G02X9001490Y9675170I-45742J0D01*
G02X9008210Y9645000I-64417J-30182D01*
G02X8937070Y9573860I-71140J0D01*
G02X8905320Y9581340I4J71139D01*
G02X8873570Y9573860I-31754J63659D01*
G02X8831160Y9587890I8J71137D01*
G02X8787790Y9573140I-43370J56386D01*
G02X8756040Y9580620I4J71139D01*
G02X8724290Y9573140I-31754J63659D01*
G02X8684060Y9585610I0J71129D01*
G02X8639070Y9569580I-44990J55120D01*
G02X8607320Y9577060I4J71139D01*
G02X8575570Y9569580I-31754J63659D01*
G02X8534320Y9582760I0J71141D01*
G02X8492070Y9568860I-42244J57242D01*
G02X8460320Y9576340I4J71139D01*
G02X8428570Y9568860I-31754J63659D01*
G02X8382820Y9585520I0J71147D01*
G02X8337070Y9568860I-45750J54487D01*
G02X8305320Y9576340I4J71139D01*
G02X8273570Y9568860I-31754J63659D01*
G02X8202430Y9640000I0J71140D01*
G02X8208510Y9668770I71139J-6D01*
G03X8206370Y9675240I-4646J2052D01*
G02X8183250Y9715000I22628J39760D01*
G02X8228990Y9760740I45740J0D01*
G02X8274720Y9715870I0J-45738D01*
G03X8279390Y9710900I5080J94D01*
G02X8305320Y9703660I-5821J-70900D01*
G02X8328780Y9710650I31740J-63664D01*
G03X8333260Y9715630I-600J5045D01*
G02X8379000Y9760740I45740J-634D01*
G02X8424730Y9716090I0J-45743D01*
G03X8429720Y9711130I5078J118D01*
G02X8460320Y9703660I-1152J-71130D01*
G02X8484710Y9710760I31759J-63657D01*
G03X8489270Y9715730I-520J5054D01*
G02X8535000Y9760740I45730J-726D01*
G02X8580740Y9715000I0J-45740D01*
G02X8580620Y9711680I-45740J-9D01*
G02X8607320Y9704380I-5053J-70960D01*
G02X8634380Y9711710I31766J-63656D01*
G02X8634260Y9715000I45619J3311D01*
G02X8680000Y9760740I45740J0D01*
G02X8725740Y9715410I0J-45742D01*
G02X8756040Y9707940I-1464J-71126D01*
G02X8783250Y9715280I31766J-63655D01*
G02X8828990Y9760740I45740J-281D01*
G02X8874720Y9716130I0J-45744D01*
G02X8905320Y9708660I-1152J-71130D01*
G37*
G36*
G01X12516340Y9649190D02*
G02X12508860Y9680940I63659J31754D01*
G02X12510040Y9693840I71140J-3D01*
G02X12484260Y9735000I19968J41160D01*
G02X12530000Y9780740I45740J0D01*
G02X12572590Y9751690I0J-45745D01*
G02X12580000Y9752080I7439J-70748D01*
G02X12651140Y9680940I0J-71140D01*
G02X12643660Y9649190I-71139J4D01*
G02X12651140Y9617440I-63659J-31754D01*
G02X12580000Y9546300I-71140J0D01*
G02X12565040Y9547890I-3J71140D01*
G02X12525000Y9524260I-40040J22108D01*
G02X12479260Y9570000I0J45740D01*
G02X12509010Y9612850I45734J0D01*
G02X12508860Y9617440I70989J4617D01*
G02X12516340Y9649190I71139J-4D01*
G37*
G36*
G01X7997240Y9822930D02*
G02X8028990Y9835740I31750J-32942D01*
G02Y9744260I0J-45740D01*
G02X7997240Y9757070I0J45752D01*
G02X7965490Y9744260I-31750J32942D01*
G02Y9835740I0J45740D01*
G02X7997240Y9822930I0J-45752D01*
G37*
G36*
G01X12802730Y9925850D02*
G02X12829650Y9931140I26920J-65851D01*
G02X12861400Y9923660I-4J-71139D01*
G02X12893150Y9931140I31754J-63659D01*
G02X12917870Y9926710I8J-71141D01*
G02X12955000Y9945740I37130J-26708D01*
G02X13000740Y9900000I0J-45740D01*
G02X12964130Y9855180I-45741J0D01*
G02X12893150Y9788860I-70980J4824D01*
G02X12861400Y9796340I4J71139D01*
G02X12829650Y9788860I-31754J63659D01*
G02X12758710Y9854690I0J71138D01*
G02X12719260Y9900000I6295J45310D01*
G02X12765000Y9945740I45740J0D01*
G02X12802730Y9925850I0J-45731D01*
G37*
G36*
G01X9609230Y9889790D02*
G03X9593410Y9894160I-9506J-3592D01*
G02X9565000Y9884260I-28418J35837D01*
G02Y9975740I0J45740D01*
G02X9607770Y9946210I0J-45738D01*
G03X9623590Y9941840I9506J3592D01*
G02X9652000Y9951740I28418J-35837D01*
G02Y9860260I0J-45740D01*
G02X9609230Y9889790I0J45738D01*
G37*
G36*
G01X7524980Y5664980D02*
Y6175020D01*
X10065020D01*
Y5664980D01*
X7524980D01*
G37*
G36*
G01X4736900Y1810520D02*
G02X4714260Y1850000I23103J39480D01*
G02X4805740I45740J0D01*
G02X4785070Y1811740I-45744J0D01*
G03X4785500Y1794480I5568J-8497D01*
G02X4808140Y1755000I-23103J-39480D01*
G02X4716660I-45740J0D01*
G02X4737330Y1793260I45744J0D01*
G03X4736900Y1810520I-5568J8497D01*
G37*
G36*
G01X6637400Y2227090D02*
G02X6670000Y2240740I32600J-32104D01*
G02X6703310Y2226350I0J-45748D01*
G03X6720580Y2230890I7402J6960D01*
G02X6765000Y2265740I44420J-10884D01*
G02Y2174260I0J-45740D01*
G02X6731690Y2188650I0J45748D01*
G03X6714420Y2184110I-7402J-6960D01*
G02X6670000Y2149260I-44420J10884D01*
G02X6625760Y2183370I0J45744D01*
G03X6608700Y2187910I-9822J-2587D01*
G02X6576100Y2174260I-32600J32104D01*
G02Y2265740I0J45740D01*
G02X6620340Y2231630I0J-45744D01*
G03X6637400Y2227090I9822J2587D01*
G37*
G36*
G01X8507400Y2237090D02*
G02X8540000Y2250740I32600J-32104D01*
G02X8573310Y2236350I0J-45748D01*
G03X8590580Y2240890I7402J6960D01*
G02X8635000Y2275740I44420J-10884D01*
G02Y2184260I0J-45740D01*
G02X8601690Y2198650I0J45748D01*
G03X8584420Y2194110I-7402J-6960D01*
G02X8540000Y2159260I-44420J10884D01*
G02X8495760Y2193370I0J45744D01*
G03X8478700Y2197910I-9822J-2587D01*
G02X8446100Y2184260I-32600J32104D01*
G02Y2275740I0J45740D01*
G02X8490340Y2241630I0J-45744D01*
G03X8507400Y2237090I9822J2587D01*
G37*
G36*
G01X10480850Y2241720D02*
G02X10526090Y2280740I45240J-6716D01*
G02Y2189260I0J-45740D01*
G02X10492710Y2203730I0J45736D01*
G03X10475240Y2198280I-7419J-6943D01*
G02X10430000Y2159260I-45240J6716D01*
G02X10384880Y2197480I0J45743D01*
G03X10367620Y2202930I-10019J-1673D01*
G02X10335000Y2189260I-32615J32072D01*
G02Y2280740I0J45740D01*
G02X10380120Y2242520I0J-45743D01*
G03X10397380Y2237070I10019J1673D01*
G02X10430000Y2250740I32615J-32072D01*
G02X10463380Y2236270I0J-45736D01*
G03X10480850Y2241720I7419J6943D01*
G37*
G36*
G01X15160890Y3276130D02*
G02X15139260Y3315000I24110J38870D01*
G02X15230740I45740J0D01*
G02X15209110Y3276130I-45740J0D01*
G03Y3258870I5361J-8630D01*
G02X15230740Y3220000I-24110J-38870D01*
G02X15139260I-45740J0D01*
G02X15160890Y3258870I45740J0D01*
G03Y3276130I-5361J8630D01*
G37*
G36*
G01X10105000Y3316810D02*
G02X10104260Y3325000I45000J8194D01*
G02X10150000Y3279260I45740J0D01*
G02X10129540Y3284090I0J45750D01*
G03X10115000Y3273190I-4543J-9087D01*
G02X10115740Y3265000I-45000J-8194D01*
G02X10070000Y3310740I-45740J0D01*
G02X10090460Y3305910I0J-45750D01*
G03X10105000Y3316810I4543J9087D01*
G37*
G36*
G01X7414420Y4551190D02*
G02X7414260Y4555000I45579J3822D01*
G02X7460000Y4509260I45740J0D01*
G02X7440120Y4513810I8J45738D01*
G03X7425580Y4503810I-4414J-9152D01*
G02X7425740Y4500000I-45579J-3822D01*
G02X7380000Y4545740I-45740J0D01*
G02X7399880Y4541190I-8J-45738D01*
G03X7414420Y4551190I4414J9152D01*
G37*
G36*
G01X9400650Y4794470D02*
G02X9359260Y4840000I4347J45530D01*
G02X9450740I45740J0D01*
G02X9446170Y4820070I-45743J0D01*
G03X9454350Y4805530I9146J-4426D01*
G02X9495740Y4760000I-4347J-45530D01*
G02X9404260I-45740J0D01*
G02X9408830Y4779930I45743J0D01*
G03X9400650Y4794470I-9146J4426D01*
G37*
G36*
G01X6410910Y4949550D02*
G02X6370000Y4924260I-40910J20444D01*
G02Y5015740I0J45740D01*
G02X6410910Y4990450I0J-45734D01*
G03X6429090I9090J4546D01*
G02X6470000Y5015740I40910J-20444D01*
G02Y4924260I0J-45740D01*
G02X6429090Y4949550I0J45734D01*
G03X6410910I-9090J-4546D01*
G37*
G36*
G01X9901880Y5174720D02*
G02X9894260Y5200000I38124J25280D01*
G02X9985740I45740J0D01*
G02X9978120Y5174720I-45744J0D01*
G01Y5105000D01*
G02X9966950Y5078050I-38117J8D01*
G01X9826950Y4938050D01*
G02X9800000Y4926880I-26958J26947D01*
G01X8685790D01*
X8286950Y4528050D01*
G02X8284230Y4525570I-27012J26894D01*
G03X8282050Y4512360I6452J-7850D01*
G02X8288950Y4488210I-38838J-24157D01*
G02X8197470I-45740J0D01*
G02X8200050Y4503360I45741J5D01*
G03X8190460Y4516880I-9587J3361D01*
G01X7610790D01*
X7431950Y4338050D01*
G02X7405000Y4326880I-26958J26947D01*
G01X7095000D01*
G02X7068050Y4338050I8J38117D01*
G01X6939210Y4466880D01*
X6670280D01*
G02X6645000Y4459260I-25280J38124D01*
G02Y4550740I0J45740D01*
G02X6670280Y4543120I0J-45744D01*
G01X6955000D01*
G02X6981950Y4531950I-8J-38117D01*
G01X7110790Y4403120D01*
X7126180D01*
Y4410860D01*
X7123990Y4412380D01*
G02X7104260Y4450000I26001J37620D01*
G02X7195740I45740J0D01*
G02X7184490Y4419950I-45742J-6D01*
G03X7192150Y4403120I7660J-6672D01*
G01X7227850D01*
G03X7235510Y4419950I0J10158D01*
G02X7224260Y4450000I34492J30044D01*
G02X7315740I45740J0D01*
G02X7304490Y4419950I-45742J-6D01*
G03X7312150Y4403120I7660J-6672D01*
G01X7389210D01*
X7568050Y4581950D01*
G02X7595000Y4593120I26958J-26947D01*
G01X8244210D01*
X8643050Y4991950D01*
G02X8670000Y5003120I26958J-26947D01*
G01X9784210D01*
X9850510Y5069420D01*
G03X9843180Y5086770I-7180J7190D01*
G02X9842500Y5086760I-1013J45725D01*
G02X9888240Y5132500I0J45740D01*
G02X9886060Y5118540I-45741J-7D01*
G01X9885110Y5115590D01*
X9890890Y5109800D01*
X9901880Y5120790D01*
Y5174720D01*
G37*
G36*
G01X12982600Y5367150D02*
G02X13025000Y5395740I42400J-17145D01*
G02X13059190Y5380380I0J-45732D01*
G03X13076460Y5384010I7599J6746D01*
G02X13120000Y5415740I43540J-14008D01*
G02Y5324260I0J-45740D01*
G02X13085810Y5339620I0J45732D01*
G03X13068540Y5335990I-7599J-6746D01*
G02X13025000Y5304260I-43540J14008D01*
G02X12997880Y5313160I-9J45743D01*
G03X12981700Y5305170I-6023J-8180D01*
G02X12950100Y5230820I-107953J1991D01*
G01X12914180Y5194900D01*
G02X12761480Y5347600I-76350J76350D01*
G01X12797400Y5383520D01*
G02X12964630Y5365470I76349J-76347D01*
G03X12982600Y5367150I8550J5488D01*
G37*
G36*
G01X9927500Y5480620D02*
X10152220D01*
G02X10177500Y5488240I25280J-38124D01*
G02Y5396760I0J-45740D01*
G02X10153410Y5403620I0J45728D01*
G01X10152180Y5404380D01*
X10144200D01*
G03X10137980Y5386180I-6J-10161D01*
G02X10155740Y5350000I-27972J-36180D01*
G02X10110000Y5304260I-45740J0D01*
G02X10077270Y5318050I0J45737D01*
G03X10062730I-7270J-7098D01*
G02X10061910Y5317230I-32750J31930D01*
G03X10061460Y5303140I7089J-7279D01*
G02X10073240Y5272500I-33958J-30640D01*
G02X9981760I-45740J0D01*
G02X9995590Y5305270I45739J0D01*
G03X9996040Y5319360I-7089J7279D01*
G02X9984260Y5350000I33958J30640D01*
G02X10002020Y5386180I45732J0D01*
G03X9995800Y5404380I-6214J8039D01*
G01X9943290D01*
X9626950Y5088050D01*
G02X9600000Y5076880I-26958J26947D01*
G01X8505790D01*
X8141990Y4713080D01*
G03X8149320Y4695730I7180J-7190D01*
G02X8150000Y4695740I1013J-45725D01*
G02X8104260Y4650000I0J-45740D01*
G02X8104270Y4650680I45735J-333D01*
G03X8086920Y4658010I-10160J150D01*
G01X8066950Y4638050D01*
G02X8040000Y4626880I-26958J26947D01*
G01X6555790D01*
X6444860Y4515950D01*
X6444530Y4514540D01*
G02X6400000Y4479260I-44530J10463D01*
G02X6363180Y4497860I0J45744D01*
G03X6346820I-8180J-6023D01*
G02X6310000Y4479260I-36820J27144D01*
G02Y4570740I0J45740D01*
G02X6346820Y4552140I0J-45744D01*
G03X6363180I8180J6023D01*
G02X6389540Y4569530I36820J-27139D01*
G01X6390950Y4569860D01*
X6513050Y4691950D01*
G02X6540000Y4703120I26958J-26947D01*
G01X6940340D01*
G03X6950280Y4715410I5J10161D01*
G02X6949260Y4725000I44718J9606D01*
G02X7040740I45740J0D01*
G02X7039720Y4715410I-45738J16D01*
G03X7049660Y4703120I9935J-2129D01*
G01X8024210D01*
X8038010Y4716920D01*
G03X8030680Y4734270I-7180J7190D01*
G02X8030000Y4734260I-1013J45725D01*
G02X8075740Y4780000I0J45740D01*
G02X8075730Y4779320I-45735J333D01*
G03X8093080Y4771990I10160J-150D01*
G01X8463050Y5141950D01*
G02X8490000Y5153120I26958J-26947D01*
G01X9584210D01*
X9900550Y5469450D01*
G02X9927500Y5480620I26958J-26947D01*
G37*
G36*
G01X13226770Y6235630D02*
G02X13200000Y6221960I-26770J19377D01*
G02Y6288040I0J33040D01*
G02X13226770Y6274370I0J-33047D01*
G03X13243230I8230J5952D01*
G02X13270000Y6288040I26770J-19377D01*
G02Y6221960I0J-33040D01*
G02X13243230Y6235630I0J33047D01*
G03X13226770I-8230J-5952D01*
G37*
G36*
G01X2628300Y7375420D02*
G02X2675310Y7409610I61698J-35420D01*
G02X2740000Y7451140I64690J-29618D01*
G02X2811140Y7380000I0J-71140D01*
G02X2754690Y7310390I-71144J0D01*
G02X2752220Y7305510I-64662J29663D01*
G03X2761100Y7290420I8883J-4930D01*
G01X3010530D01*
X3110530Y7190420D01*
X3179470D01*
X3334470Y7345420D01*
X3580530D01*
X3715420Y7210530D01*
Y7134470D01*
X3656530Y7075580D01*
G03X3659520Y7059140I7184J-7185D01*
G02X3694520Y7024640I-29366J-64795D01*
G02X3751140Y6955000I-14517J-69640D01*
G02X3680000Y6883860I-71140J0D01*
G02X3615630Y6924710I0J71141D01*
G02X3602090Y6928980I14519J69641D01*
G03X3587920Y6919640I-4010J-9336D01*
G01Y6918390D01*
G02X3579250Y6914800I-5080J5D01*
G01X3572760Y6921290D01*
G03X3555420Y6914100I-7180J-7187D01*
G01Y6305530D01*
X3580530Y6280420D01*
X3755530D01*
X3875420Y6160530D01*
Y6094470D01*
X3735530Y5954580D01*
X3664470D01*
X3655310Y5963740D01*
G03X3639380Y5961730I-7186J-7181D01*
G02X3600000Y5939260I-39380J23273D01*
G02X3554260Y5985000I0J45740D01*
G02X3567790Y6017480I45751J0D01*
G03X3565060Y6033830I-7156J7208D01*
G02X3539260Y6075000I19948J41170D01*
G02X3539320Y6077360I45740J18D01*
G01X3539440Y6079610D01*
X3534470Y6084580D01*
X3435530D01*
X3190420Y5839470D01*
Y5774470D01*
X3125530Y5709580D01*
X3019470D01*
X2946970Y5782080D01*
X2893030D01*
X2860420Y5749470D01*
Y5645530D01*
X2885530Y5620420D01*
X2950530D01*
X2964950Y5605990D01*
G03X2981750Y5609870I7189J7185D01*
G02X3025000Y5640740I43250J-14862D01*
G02X3070740Y5595000I0J-45740D01*
G02X3039870Y5551750I-45732J0D01*
G03X3035990Y5534950I3305J-9611D01*
G01X3070000Y5500950D01*
X3199470Y5630420D01*
X3364100D01*
G03X3374260Y5640470I2J10159D01*
G02X3465740I45740J-472D01*
G03X3475900Y5630420I10158J109D01*
G01X3664580D01*
Y5710530D01*
X3670390Y5716340D01*
G03X3667170Y5732880I-7184J7185D01*
G02X3639260Y5775000I17827J42120D01*
G02X3685000Y5820740I45740J0D01*
G02X3727120Y5792830I0J-45737D01*
G03X3743660Y5789610I9355J3964D01*
G01X3814470Y5860420D01*
X3880530D01*
X4055530Y5685420D01*
X4635370D01*
G03X4642570Y5702740I-5J10159D01*
G02X4629380Y5731680I32431J32257D01*
G03X4616660Y5740770I-10133J-734D01*
G02X4605000Y5739260I-11656J44231D01*
G02Y5830740I0J45740D01*
G02X4612640Y5830100I15J-45741D01*
G03X4624450Y5839190I1694J10016D01*
G02X4670000Y5880740I45550J-4193D01*
G02X4715740Y5835000I0J-45740D01*
G02X4692370Y5795100I-45746J0D01*
G03X4693280Y5776930I4971J-8859D01*
G02X4720740Y5735000I-18282J-41930D01*
G02X4707430Y5702740I-45750J0D01*
G03X4714630Y5685420I7205J-7161D01*
G01X4754720D01*
G03X4763860Y5700020I-1J10161D01*
G02X4759260Y5720000I41138J19991D01*
G02X4850740I45740J0D01*
G02X4846140Y5700020I-45738J11D01*
G03X4855280Y5685420I9141J-4439D01*
G01X5765530D01*
X5835170Y5615780D01*
X5837130Y5615690D01*
G02X5880690Y5572130I-2130J-45690D01*
G01X5880780Y5570170D01*
X5890420Y5560530D01*
Y5152420D01*
G03X5904110Y5142890I10160J-3D01*
G02X5920000Y5145740I15893J-42889D01*
G02Y5054260I0J-45740D01*
G02X5894110Y5062290I0J45752D01*
G01X5890630Y5064680D01*
X5740530Y4914580D01*
X5435600D01*
X5434750Y4910550D01*
G02X5345250I-44750J9446D01*
G01X5344400Y4914580D01*
X5239470D01*
X5185000Y4969050D01*
X5103310Y4887360D01*
G03X5110500Y4870020I7187J-7180D01*
G01X5320020D01*
Y4573230D01*
G03X5328690Y4569640I5080J3D01*
G01X5334470Y4575420D01*
X5506060D01*
G03X5512230Y4593650I2J10158D01*
G02X5494260Y4630000I27780J36350D01*
G02X5585740I45740J0D01*
G02X5567770Y4593650I-45750J0D01*
G03X5573940Y4575420I6168J-8072D01*
G01X6120530D01*
X6205420Y4490530D01*
Y3939470D01*
X5915530Y3649580D01*
X5281410D01*
G02X5238590I-21410J40422D01*
G01X4719470D01*
X4499470Y3869580D01*
X4430960D01*
X4430470Y3865050D01*
G02X4339530I-45470J4948D01*
G01X4339040Y3869580D01*
X3521410D01*
G02X3478590I-21410J40422D01*
G01X2489470D01*
X2339580Y4019470D01*
Y5749470D01*
X2239580Y5849470D01*
Y5975530D01*
X2277510Y6013460D01*
G03X2276530Y6028680I-7187J7179D01*
G02X2254180Y6058000I43472J56316D01*
G02X2201070Y6126820I18034J68820D01*
G02X2272210Y6197960I71140J0D01*
G02X2338030Y6153820I0J-71144D01*
G02X2383130Y6117790I-18035J-68816D01*
G03X2399330Y6115280I9019J4678D01*
G01X2794580Y6510530D01*
Y6667060D01*
G02Y6717200I38272J25070D01*
G01Y6839470D01*
X2763410Y6870640D01*
G03X2756170Y6870580I-3590J-3594D01*
G02X2705000Y6848860I-51170J49416D01*
G02X2694030Y6849710I-6J71140D01*
G03X2682790Y6836590I-1561J-10037D01*
G02X2686140Y6815000I-67793J-21574D01*
G02X2637490Y6747510I-71138J0D01*
G02X2570000Y6698860I-67490J22488D01*
G02X2498860Y6770000I0J71140D01*
G02X2547510Y6837490I71138J0D01*
G02X2615000Y6886140I67490J-22488D01*
G02X2625970Y6885290I6J-71140D01*
G03X2637210Y6898410I1561J10037D01*
G02X2633860Y6920000I67793J21574D01*
G02X2655580Y6971170I71136J0D01*
G01X2655610Y6971200D01*
X2659230Y6974820D01*
X2419580Y7214470D01*
Y7320530D01*
X2474470Y7375420D01*
X2628300D01*
G37*
G36*
G01X8084580Y6880530D02*
Y7665420D01*
X8430420D01*
Y6724470D01*
X8010530Y6304580D01*
X7033940D01*
G03X7027770Y6286350I-2J-10158D01*
G02X7045740Y6250000I-27780J-36350D01*
G02X6954260I-45740J0D01*
G02X6972230Y6286350I45750J0D01*
G03X6966060Y6304580I-6168J8072D01*
G01X6845600D01*
X6844750Y6300550D01*
G02X6755250I-44750J9446D01*
G01X6754400Y6304580D01*
X6509580D01*
Y6660420D01*
X7864470D01*
X8084580Y6880530D01*
G37*
G36*
G01X424470Y7794350D02*
G02X470000Y7835740I45530J-4347D01*
G02X515740Y7790000I0J-45740D01*
G02X499710Y7755220I-45746J0D01*
G03Y7739780I6602J-7720D01*
G02X515740Y7705000I-29716J-34780D01*
G02X470000Y7659260I-45740J0D01*
G02X425000Y7696820I0J45737D01*
G03X410460Y7704090I-9996J-1818D01*
G02X390000Y7699260I-20460J40920D01*
G02X365780Y7706200I0J45733D01*
G03X350330Y7698930I-5378J-8622D01*
G02X305000Y7659260I-45330J6064D01*
G02X259260Y7705000I0J45740D01*
G02X275290Y7739780I45746J0D01*
G03Y7755220I-6602J7720D01*
G02X259260Y7790000I29716J34780D01*
G02X305000Y7835740I45740J0D01*
G02X350690Y7792200I0J-45743D01*
G03X366140Y7784020I10148J487D01*
G02X390000Y7790740I23866J-39018D01*
G02X409930Y7786170I0J-45743D01*
G03X424470Y7794350I4426J9146D01*
G37*
G36*
G01X9564580Y7915530D02*
X9614470Y7965420D01*
X9820530D01*
X9870420Y7915530D01*
Y7485530D01*
X9905530Y7450420D01*
X9935310D01*
X9936440Y7453950D01*
G02X10023560I43560J-13949D01*
G01X10024690Y7450420D01*
X10066060D01*
G03X10072230Y7468650I2J10158D01*
G02X10054260Y7505000I27780J36350D01*
G02X10145740I45740J0D01*
G02X10127770Y7468650I-45750J0D01*
G03X10133940Y7450420I6168J-8072D01*
G01X10820530D01*
X10865420Y7405530D01*
Y7259470D01*
X10842810Y7236860D01*
G02X10855740Y7205000I-32807J-31868D01*
G02X10810000Y7159260I-45740J0D01*
G02X10764260Y7204530I0J45742D01*
G03X10754100Y7214580I-10158J-109D01*
G01X10285720D01*
G03X10275600Y7203620I7J-10159D01*
G02X10275740Y7200000I-45602J-3576D01*
G02X10184260I-45740J0D01*
G02X10184400Y7203620I45742J44D01*
G03X10174280Y7214580I-10127J801D01*
G01X9729470D01*
X9564580Y7379470D01*
Y7915530D01*
G37*
G36*
G01X8760060Y8006770D02*
G02X8729260Y8050000I14938J43230D01*
G02X8820740I45740J0D01*
G02X8803950Y8014590I-45735J0D01*
G03X8807030Y7997140I6435J-7861D01*
G02X8854290Y7937080I-23529J-67139D01*
G03X8868850Y7928960I10108J1010D01*
G02X8900000Y7936140I31145J-63961D01*
G02X8931750Y7928660I-4J-71139D01*
G02X8963500Y7936140I31754J-63659D01*
G02X8975610Y7935100I-10J-71139D01*
G03X8981380Y7938770I869J5005D01*
G02X9050000Y7991140I68620J-18771D01*
G02X9081750Y7983660I-4J-71139D01*
G02X9113500Y7991140I31754J-63659D01*
G02X9162510Y7971560I0J-71128D01*
G02X9190000Y7980740I27490J-36570D01*
G02X9235440Y7940220I0J-45739D01*
G03X9241020Y7935750I5045J581D01*
G02X9248500Y7936140I7439J-70752D01*
G02X9298280Y7915830I7J-71143D01*
G03X9305380I3550J3625D01*
G02X9355160Y7936140I49773J-50833D01*
G02X9386910Y7928660I-4J-71139D01*
G02X9418660Y7936140I31754J-63659D01*
G02Y7793860I0J-71140D01*
G02X9386910Y7801340I4J71139D01*
G02X9355160Y7793860I-31754J63659D01*
G02X9305380Y7814170I-7J71143D01*
G03X9298280I-3550J-3625D01*
G02X9248500Y7793860I-49773J50833D01*
G02X9216750Y7801340I4J71139D01*
G02X9185000Y7793860I-31754J63659D01*
G02X9115710Y7848890I0J71138D01*
G02X9113500Y7848860I-2071J71112D01*
G02X9081750Y7856340I4J71139D01*
G02X9050000Y7848860I-31754J63659D01*
G02X9037890Y7849900I10J71139D01*
G03X9032120Y7846230I-869J-5005D01*
G02X8963500Y7793860I-68620J18771D01*
G02X8931750Y7801340I4J71139D01*
G02X8900000Y7793860I-31754J63659D01*
G02X8829210Y7857920I0J71144D01*
G03X8814650Y7866040I-10108J-1010D01*
G02X8783500Y7858860I-31145J63961D01*
G02X8751750Y7866340I4J71139D01*
G02X8720000Y7858860I-31754J63659D01*
G02X8705890Y7860270I-16J71142D01*
G03X8699900Y7856260I-1005J-4977D01*
G02X8655000Y7819260I-44900J8743D01*
G02X8609260Y7865000I0J45740D01*
G02X8646260Y7909900I45743J0D01*
G03X8650270Y7915890I-967J4985D01*
G02X8648860Y7930000I69732J14094D01*
G02X8720000Y8001140I71140J0D01*
G02X8751750Y7993660I-4J-71139D01*
G02X8760070Y7997170I31756J-63658D01*
G03X8760060Y8006770I-1670J4798D01*
G37*
G36*
G01X154580Y8180530D02*
X204470Y8230420D01*
X655530D01*
X707920Y8178030D01*
Y8154610D01*
G03X720250Y8144690I10159J5D01*
G02X730000Y8145740I9744J-44691D01*
G02X772930Y8115790I0J-45743D01*
G02X780000Y8116140I7048J-70791D01*
G02X811750Y8108660I-4J-71139D01*
G02X843500Y8116140I31754J-63659D01*
G02X865580Y8112630I10J-71142D01*
G03X878050Y8118230I3156J9656D01*
G02X920000Y8145740I41950J-18230D01*
G02X962930Y8115790I0J-45743D01*
G02X970000Y8116140I7048J-70791D01*
G02X1001750Y8108660I-4J-71139D01*
G02X1033500Y8116140I31754J-63659D01*
G02X1051480Y8113830I0J-71129D01*
G03X1057490Y8116870I1287J4916D01*
G02X1100000Y8145740I42510J-16862D01*
G02X1143850Y8113020I0J-45743D01*
G03X1149800Y8109500I4869J1442D01*
G02X1165000Y8111140I15187J-69501D01*
G02X1196750Y8103660I-4J-71139D01*
G02X1228500Y8111140I31754J-63659D01*
G02X1298850Y8050580I0J-71141D01*
G02X1340740Y8005000I-3853J-45580D01*
G02X1327430Y7972740I-45750J0D01*
G03X1334630Y7955420I7205J-7161D01*
G01X1744280D01*
G03X1754400Y7966380I-7J10159D01*
G02X1754260Y7970000I45602J3576D01*
G02X1845740I45740J0D01*
G02X1845600Y7966380I-45742J-44D01*
G03X1855720Y7955420I10127J-801D01*
G01X2310530D01*
X2370420Y7895530D01*
Y7514470D01*
X2310530Y7454580D01*
X779470D01*
X624580Y7609470D01*
Y7834470D01*
X617080Y7841970D01*
G03X600820Y7839370I-7190J-7179D01*
G02X560000Y7814260I-40820J20624D01*
G02X514260Y7860000I0J45740D01*
G02X521110Y7884070I45738J-7D01*
G03X512470Y7899580I-8639J5349D01*
G01X275730D01*
G03X265600Y7888620I-3J-10159D01*
G02X265740Y7885010I-45601J-3576D01*
G02X174260I-45740J0D01*
G02X184200Y7913480I45742J0D01*
G01X187020Y7917030D01*
X154580Y7949470D01*
Y8180530D01*
G37*
G36*
G01X8208870Y8255890D02*
G02X8170000Y8234260I-38870J24110D01*
G02Y8325740I0J45740D01*
G02X8208870Y8304110I0J-45740D01*
G03X8226130I8630J5361D01*
G02X8265000Y8325740I38870J-24110D01*
G02Y8234260I0J-45740D01*
G02X8226130Y8255890I0J45740D01*
G03X8208870I-8630J-5361D01*
G37*
G36*
G01X1895140Y8823500D02*
G02X1667010Y8644980I-228130J56503D01*
G02Y9115020I0J235020D01*
G02X1895140Y8936500I0J-235023D01*
G03X1914860I9860J2439D01*
G02X2142990Y9115020I228130J-56503D01*
G02Y8644980I0J-235020D01*
G02X1914860Y8823500I0J235023D01*
G03X1895140I-9860J-2439D01*
G37*
G36*
G01X7238980Y9000420D02*
Y9083980D01*
G02X7589020I175020J5D01*
G01Y8904000D01*
G02X7301990Y8769510I-175022J-2D01*
G01X7298420Y8772470D01*
X7255530Y8729580D01*
X7155530D01*
X7005420Y8579470D01*
Y8209470D01*
X6960530Y8164580D01*
X6829470D01*
X6789580Y8204470D01*
Y8289070D01*
G02X6767020Y8314350I20420J40929D01*
G02X6758660Y8313860I-8335J70651D01*
G02X6726910Y8321340I4J71139D01*
G02X6695160Y8313860I-31754J63659D01*
G02X6651420Y8328890I-6J71142D01*
G02X6615000Y8318860I-36420J61107D01*
G02X6597280Y8321100I-9J71141D01*
G03X6584800Y8309210I-2529J-9840D01*
G02X6585740Y8300000I-44798J-9225D01*
G02X6494260I-45740J0D01*
G02X6505040Y8329500I45754J0D01*
G03X6504510Y8336590I-3883J3275D01*
G02X6489440Y8355220I46985J53417D01*
G03X6470420Y8350250I-8861J-4970D01*
G01Y8319470D01*
X6425530Y8274580D01*
X6309470D01*
X6264580Y8319470D01*
Y8585530D01*
X6419470Y8740420D01*
X6779470D01*
X7007190Y8968140D01*
G02X6993270Y9000990I31817J32857D01*
G02X7039010Y9046730I45740J0D01*
G02X7084570Y9005050I0J-45741D01*
G01X7084980Y9000420D01*
X7238980D01*
G37*
G36*
G01X13066340Y9188250D02*
G02X13058860Y9220000I63659J31754D01*
G02X13130000Y9291140I71140J0D01*
G02X13143770Y9289800I27J-71143D01*
G02X13185000Y9315740I41230J-19796D01*
G02X13230740Y9270000I0J-45740D01*
G02X13200790Y9227070I-45743J0D01*
G02X13201140Y9220000I-70791J-7048D01*
G02X13193660Y9188250I-71139J4D01*
G02X13201140Y9156500I-63659J-31754D01*
G02X13188920Y9116630I-71152J0D01*
G03X13198290Y9100820I8414J-5695D01*
G02X13205000Y9101140I6740J-70819D01*
G02X13218770Y9099800I27J-71143D01*
G02X13260000Y9125740I41230J-19796D01*
G02X13305740Y9080000I0J-45740D01*
G02X13275790Y9037070I-45743J0D01*
G02X13276140Y9030000I-70791J-7048D01*
G02X13268660Y8998250I-71139J4D01*
G02X13276140Y8966500I-63659J-31754D01*
G02X13205000Y8895360I-71140J0D01*
G02X13178590Y8900440I-9J71142D01*
G02X13140000Y8879260I-38590J24566D01*
G02X13094260Y8925000I0J45740D01*
G02X13133960Y8970340I45741J0D01*
G02X13141340Y8998250I71036J-3853D01*
G02X13133860Y9030000I63659J31754D01*
G02X13146080Y9069870I71152J0D01*
G03X13136710Y9085680I-8414J5695D01*
G02X13130000Y9085360I-6740J70819D01*
G02X13110200Y9088170I-3J71140D01*
G02X13070000Y9064260I-40200J21839D01*
G02X13024260Y9110000I0J45740D01*
G02X13058890Y9154370I45740J0D01*
G02X13058860Y9156500I71111J2067D01*
G02X13066340Y9188250I71139J-4D01*
G37*
G36*
G01X13069320Y9359270D02*
G02X13024260Y9405000I675J45730D01*
G02X13115740I45740J0D01*
G02X13109750Y9382370I-45743J0D01*
G03X13116560Y9367380I8827J-5032D01*
G02X13143040Y9335000I-6557J-32380D01*
G02X13076960I-33040J0D01*
G02X13078770Y9345790I33041J4D01*
G03X13069320Y9359270I-9603J3320D01*
G37*
G36*
G01X12711340Y9548250D02*
G02X12703860Y9580000I63659J31754D01*
G02X12775000Y9651140I71140J0D01*
G02X12782070Y9650790I22J-71141D01*
G02X12825000Y9680740I42930J-15793D01*
G02X12870740Y9635000I0J-45740D01*
G02X12844800Y9593770I-45736J0D01*
G02X12846140Y9580000I-69803J-13743D01*
G02X12838660Y9548250I-71139J4D01*
G02X12846140Y9516500I-63659J-31754D01*
G02X12845360Y9505960I-71143J-34D01*
G02X12870740Y9465000I-20362J-40960D01*
G02X12831070Y9419670I-45734J0D01*
G03X12823800Y9404220I1352J-10072D01*
G02X12830740Y9380000I-38793J-24220D01*
G02X12739260I-45740J0D01*
G02X12778930Y9425330I45734J0D01*
G03X12786200Y9440780I-1352J10072D01*
G02X12783460Y9445860I38806J24210D01*
G02X12775000Y9445360I-8420J70642D01*
G02X12703860Y9516500I0J71140D01*
G02X12711340Y9548250I71139J-4D01*
G37*
G36*
G01X15149330Y4017450D02*
Y4182550D01*
G02X15162050Y4195270I12720J0D01*
G01X15377950D01*
G02X15390670Y4182550I0J-12720D01*
G01Y4017450D01*
G02X15377950Y4004730I-12720J0D01*
G01X15162050D01*
G02X15149330Y4017450I0J12720D01*
G37*
G36*
G01X16174600Y1941970D02*
X16225400D01*
G02Y1726030I0J-107970D01*
G01X16174600D01*
G02Y1941970I0J107970D01*
G37*
G36*
G01Y2195970D02*
X16225400D01*
G02Y1980030I0J-107970D01*
G01X16174600D01*
G02Y2195970I0J107970D01*
G37*
G36*
G01Y1433970D02*
X16225400D01*
G02Y1218030I0J-107970D01*
G01X16174600D01*
G02Y1433970I0J107970D01*
G37*
G36*
G01Y1687970D02*
X16225400D01*
G02Y1472030I0J-107970D01*
G01X16174600D01*
G02Y1687970I0J107970D01*
G37*
G36*
G01Y913270D02*
X16225400D01*
G02Y722730I0J-95270D01*
G01X16174600D01*
G02Y913270I0J95270D01*
G37*
G36*
G01Y1179970D02*
X16225400D01*
G02Y964030I0J-107970D01*
G01X16174600D01*
G02Y1179970I0J107970D01*
G37*
G36*
G01X13344600Y913270D02*
X13395400D01*
G02Y722730I0J-95270D01*
G01X13344600D01*
G02Y913270I0J95270D01*
G37*
G36*
G01X16174600Y671970D02*
X16225400D01*
G02Y456030I0J-107970D01*
G01X16174600D01*
G02Y671970I0J107970D01*
G37*
G36*
G01X13344600D02*
X13395400D01*
G02Y456030I0J-107970D01*
G01X13344600D01*
G02Y671970I0J107970D01*
G37*
G36*
G01X9032030Y232050D02*
Y447950D01*
G02X9057450Y473370I25420J0D01*
G01X9222550D01*
G02X9247970Y447950I0J-25420D01*
G01Y232050D01*
G02X9222550Y206630I-25420J0D01*
G01X9057450D01*
G02X9032030Y232050I0J25420D01*
G37*
G36*
G01X7172030D02*
Y447950D01*
G02X7197450Y473370I25420J0D01*
G01X7362550D01*
G02X7387970Y447950I0J-25420D01*
G01Y232050D01*
G02X7362550Y206630I-25420J0D01*
G01X7197450D01*
G02X7172030Y232050I0J25420D01*
G37*
G36*
G01X5312030D02*
Y447950D01*
G02X5337450Y473370I25420J0D01*
G01X5502550D01*
G02X5527970Y447950I0J-25420D01*
G01Y232050D01*
G02X5502550Y206630I-25420J0D01*
G01X5337450D01*
G02X5312030Y232050I0J25420D01*
G37*
G36*
G01X14615000Y3646820D02*
G03X14600460Y3654090I-9996J-1818D01*
G02X14580000Y3649260I-20460J40920D01*
G02Y3740740I0J45740D01*
G02X14625000Y3703180I0J-45737D01*
G03X14639540Y3695910I9996J1818D01*
G02X14660000Y3700740I20460J-40920D01*
G02Y3609260I0J-45740D01*
G02X14615000Y3646820I0J45737D01*
G37*
G36*
G01X14745680Y4982970D02*
G03X14759310Y4992060I3480J9546D01*
G02X14805000Y5035740I45690J-2056D01*
G02Y4944260I0J-45740D01*
G02X14789320Y4947030I-4J45741D01*
G03X14775690Y4937940I-3480J-9546D01*
G02X14774230Y4928340I-45693J2038D01*
G03X14783320Y4915620I9824J-2587D01*
G02X14825740Y4870000I-3321J-45620D01*
G02X14734260I-45740J0D01*
G02X14735770Y4881660I45741J4D01*
G03X14726680Y4894380I-9824J2587D01*
G02X14684260Y4940000I3321J45620D01*
G02X14730000Y4985740I45740J0D01*
G02X14745680Y4982970I4J-45741D01*
G37*
G36*
G01X15298660Y4938250D02*
G02X15306140Y4906500I-63659J-31754D01*
G02X15163860I-71140J0D01*
G02X15171340Y4938250I71139J-4D01*
G02X15163860Y4970000I63659J31754D01*
G02X15306140I71140J0D01*
G02X15298660Y4938250I-71139J4D01*
G37*
G36*
G01X4716900Y680520D02*
G02X4694260Y720000I23103J39480D01*
G02X4785740I45740J0D01*
G02X4765070Y681740I-45744J0D01*
G03X4765500Y664480I5568J-8497D01*
G02X4788140Y625000I-23103J-39480D01*
G02X4696660I-45740J0D01*
G02X4717330Y663260I45744J0D01*
G03X4716900Y680520I-5568J8497D01*
G37*
G36*
G01X16307950Y2449970D02*
G02X16328790Y2439110I0J-25426D01*
G03X16345460Y2439130I8328J5819D01*
G02X16383000Y2458740I37540J-26127D01*
G02Y2367260I0J-45740D01*
G02X16350700Y2380610I0J45750D01*
G03X16333370Y2373420I-7171J-7195D01*
G01Y2325580D01*
G03X16350700Y2318390I10159J5D01*
G02X16383000Y2331740I32300J-32400D01*
G02Y2240260I0J-45740D01*
G02X16349230Y2255140I-8J45743D01*
G03X16332090Y2251480I-7498J-6852D01*
G02X16307950Y2234030I-24140J7972D01*
G01X16092050D01*
G02X16066630Y2259450I0J25420D01*
G01Y2424550D01*
G02X16092050Y2449970I25420J0D01*
G01X16307950D01*
G37*
G36*
G01X14782730Y6296950D02*
G03X14797270I7270J7098D01*
G02X14862730I32730J-31947D01*
G03X14877270I7270J7098D01*
G02X14910000Y6310740I32730J-31947D01*
G02Y6219260I0J-45740D01*
G02X14877270Y6233050I0J45737D01*
G03X14862730I-7270J-7098D01*
G02X14797270I-32730J31947D01*
G03X14782730I-7270J-7098D01*
G02X14750000Y6219260I-32730J31947D01*
G02Y6310740I0J45740D01*
G02X14782730Y6296950I0J-45737D01*
G37*
G36*
G01X13927620Y6247930D02*
G02X13895000Y6234260I-32615J32072D01*
G02Y6325740I0J45740D01*
G02X13940120Y6287520I0J-45743D01*
G03X13957380Y6282070I10019J1673D01*
G02X13990000Y6295740I32615J-32072D01*
G02Y6204260I0J-45740D01*
G02X13944880Y6242480I0J45743D01*
G03X13927620Y6247930I-10019J-1673D01*
G37*
G54D45*
X5140000Y6600000D03*
X10845000Y6475000D03*
Y6395000D03*
Y6555000D03*
X2085000Y8240000D03*
X7095000Y8445000D03*
X14160000Y8520000D03*
X6839000Y9175000D03*
X14050000Y8900000D03*
X14690000Y9050000D03*
X12410000Y9300000D03*
X15130000Y9710000D03*
X12440000Y9780000D03*
G54D36*
X1985000Y520000D03*
Y380000D03*
X2250000Y470010D03*
X2920000Y550000D03*
X2805000Y435000D03*
X3040000Y490000D03*
X1815000Y1030000D03*
X2990000Y1020000D03*
X1345000Y1160000D03*
X735000Y3940000D03*
X760000Y5090000D03*
X570000Y7240000D03*
X2875000Y1425000D03*
X12550000Y1430000D03*
X12430000Y1435000D03*
X14795000Y1420000D03*
X15330000Y1260000D03*
X15475000Y1320000D03*
X1710000Y1670000D03*
X2275000Y1760010D03*
X2280000Y1655000D03*
X2790000Y1760000D03*
X2945000Y1770000D03*
X4760000Y2100000D03*
X14505000Y1830000D03*
X14635000Y2080000D03*
X15600000Y1930000D03*
X2990000Y2300000D03*
X2830000Y2320000D03*
X3280000Y2330000D03*
X4615000Y2400000D03*
Y2280000D03*
X5360000Y2650000D03*
X5615000Y2315000D03*
X5530000Y2480000D03*
X6145000Y2595000D03*
X6237500Y2507500D03*
X5805000Y2590000D03*
X6327500Y2417500D03*
X7235000Y2655000D03*
X7685000Y2590000D03*
X7405000Y2485000D03*
X7485000Y2315000D03*
X8205000Y2425000D03*
X8110000Y2510000D03*
X8017500Y2597500D03*
X9275000Y2485000D03*
X9105000Y2655000D03*
X9355000Y2315000D03*
X9555000Y2590000D03*
X9890000Y2600000D03*
X10075000Y2425000D03*
X9982500Y2512500D03*
X11205000Y2650000D03*
X11647500Y2612500D03*
X11410000Y2340000D03*
X12790000Y2205000D03*
X13915000Y2565000D03*
X2410000Y2830000D03*
X2650000D03*
X2840000Y2950000D03*
X3150000Y3000000D03*
X2915000Y2710000D03*
X3460000D03*
X4040000Y2755000D03*
X4160000D03*
X4310000Y2865000D03*
X4280000Y2755000D03*
X4330000Y2985000D03*
X5925000Y2710000D03*
X7805000D03*
X9785000Y2945000D03*
X9675000D03*
Y2710000D03*
X10140660Y3030660D03*
X10210000Y2705000D03*
X10070000Y2710000D03*
X10380000Y2775000D03*
X11155000Y3000000D03*
X11320000Y3155000D03*
X11295000Y3050000D03*
Y2945000D03*
X10935000Y2675000D03*
X11707500Y2872500D03*
X11627500Y2792500D03*
X11787500Y2952500D03*
X11865000Y3035000D03*
X11947500Y3112500D03*
X14265000Y2720000D03*
X14840000Y2995000D03*
X14410000Y3005000D03*
X14990000Y3090000D03*
X1600000Y3579990D03*
X1375000Y3580000D03*
X3000000Y3500000D03*
X2850000Y3495000D03*
X2740000Y3530000D03*
X3285000Y3520000D03*
X4615000Y3650000D03*
Y3530000D03*
X4330000Y3230000D03*
X4335000Y3480000D03*
X4760000Y3340000D03*
X5260000Y3555000D03*
X7220000Y3541090D03*
X7495000Y3645000D03*
X9705000Y3455000D03*
X9980000Y3640000D03*
X9930000Y3265000D03*
X10230000Y3410000D03*
X10145000Y3485000D03*
X11010300Y3589710D03*
X11270000Y3460000D03*
X11129980Y3274980D03*
X11127500Y3587500D03*
X11810000Y3400000D03*
X11615000Y3210000D03*
X12085000Y3295000D03*
X12027500Y3192500D03*
X12505000Y3256320D03*
X12500000Y3430000D03*
Y3550000D03*
X12375000Y3435000D03*
X13210000Y3235000D03*
X12895000Y3550000D03*
X13525000D03*
X14910000Y3355000D03*
X15510000Y3650000D03*
X2985000Y3720000D03*
X4040000Y3715000D03*
X4160000D03*
X4280000D03*
X6265000Y3950000D03*
X6290000Y4050000D03*
X7715000Y3736090D03*
X7515000Y4160000D03*
X7460000Y3990000D03*
X7860000Y3940000D03*
X8820000Y4145000D03*
X9040000Y4045000D03*
X10543940Y4085000D03*
X11017500Y3707500D03*
X10840000Y3758840D03*
X11500000Y3880000D03*
X11760000Y3935000D03*
X11670000Y4010000D03*
X11880000Y4045000D03*
X12081850Y4053160D03*
X12045000Y3685000D03*
X11925000Y3710000D03*
X12522190Y3952190D03*
X12365000Y3745000D03*
X13210000Y3865000D03*
X2245000Y4320000D03*
X6530000Y4520000D03*
X6500000Y4265000D03*
X8355000Y4470000D03*
X9215000Y4280000D03*
X9020000Y4470000D03*
X9615000Y4350000D03*
Y4580000D03*
X9710000Y4625000D03*
X9355000Y4320000D03*
X9815000Y4445000D03*
X10260000Y4255000D03*
X10792160Y4447160D03*
X10645000Y4310000D03*
X11591160Y4510000D03*
X11390000Y4225000D03*
X11790000Y4245000D03*
X11905000Y4190000D03*
X12090000Y4210000D03*
X12735000Y4335000D03*
X12850000Y4265000D03*
X12485000Y4565000D03*
X12405000Y4645000D03*
X12585000Y4460000D03*
X13580000Y4220000D03*
X13485000Y4625000D03*
X2250000Y5000000D03*
X5920000Y4740000D03*
X6250000Y5090000D03*
X6270000Y4770000D03*
X7110000Y5065000D03*
X6870000Y4960000D03*
X7570000Y5050000D03*
X7740000Y5100000D03*
X7895000Y4835000D03*
X8000000Y5040000D03*
X8790000Y4869990D03*
X10177500Y4797500D03*
X9930000Y4910000D03*
X10090000Y4730000D03*
X11320000Y4804520D03*
X11157500Y4697500D03*
X12355000Y4835000D03*
X12215000Y4935000D03*
X12240000Y4800000D03*
X11925000Y5130000D03*
X12115000Y4960000D03*
X12815000Y5080000D03*
X12435000Y4755000D03*
X3600000Y5700000D03*
X6130000Y5650000D03*
X6300000Y5625000D03*
X6550000Y5240000D03*
X7265000Y5290000D03*
X7970000Y5430000D03*
X7870000Y5395000D03*
X9625000Y5375000D03*
X9520000Y5380000D03*
X10270000Y5510000D03*
X10580000Y5200000D03*
X12075000Y5540000D03*
X12245000Y5465000D03*
X12135000Y5405000D03*
X12110000Y5260000D03*
X11910000Y5305000D03*
X12455000Y5300000D03*
X13255000Y5545000D03*
X3515000Y5905000D03*
X4225000Y6110000D03*
X4200000Y5990000D03*
X4460000Y6020000D03*
X5455000Y6140000D03*
X5860000Y5980000D03*
X6130000Y5770000D03*
X6920000Y6130000D03*
X7000000Y6020000D03*
X11235000Y5880000D03*
X11020000D03*
X10870000Y5885000D03*
X11465000Y5790000D03*
X11750000Y5880000D03*
X11580000Y5810000D03*
X12135000Y6005000D03*
X11980000Y6170000D03*
X11940000Y5720000D03*
X13390000Y6005000D03*
X13590000D03*
X13575000Y5740000D03*
X15100000Y5980000D03*
X14960000Y5975000D03*
X2150000Y6355000D03*
X2195000Y6235000D03*
X2673740Y6533030D03*
X4045000Y6290000D03*
X4095000Y6515000D03*
X3800000Y6460000D03*
X4310000Y6270000D03*
X4300000Y6400000D03*
X5455000D03*
X9980000Y6700000D03*
X10640000Y6330000D03*
X13070010Y6500000D03*
X12950000Y6505000D03*
X13360000Y6255000D03*
X13550000Y6505000D03*
X16383000Y6604000D03*
X2000000Y7045000D03*
X1912500Y7117500D03*
X2455000Y7055000D03*
X5910000Y6995000D03*
X10390000Y6850000D03*
X10925000D03*
X13355000Y6840000D03*
X13670000Y6755000D03*
X13790000D03*
X13490000Y6880000D03*
X14290000Y6945000D03*
X14390000Y6860000D03*
X14515000Y7190000D03*
X15435000Y7125000D03*
X16383000Y6731000D03*
X127000Y7620000D03*
X180000Y7480000D03*
X3595000Y7690000D03*
X5910000Y7365000D03*
X7845000Y7570000D03*
X8720000Y7330000D03*
X8570000D03*
X8540000Y7595000D03*
X8870000Y7330000D03*
X9020000D03*
X9170000D03*
X9470000D03*
X9320000D03*
X10940000Y7560000D03*
X14040000Y7385000D03*
Y7245000D03*
X14285000Y7335000D03*
X14715000Y7315000D03*
X127000Y7747000D03*
X3595000Y7970000D03*
X5950000Y7740000D03*
X5915000Y8110000D03*
X7520000Y7840000D03*
X8170000Y7915000D03*
X7905000Y7895000D03*
X8345000Y7915000D03*
X9210000Y8105000D03*
X9390000Y8120000D03*
X10015000Y7835000D03*
X10605000Y8055000D03*
X10810000Y8115000D03*
X10930000Y8100000D03*
X12020000Y8095000D03*
X140000Y8440000D03*
X1800000Y8250000D03*
X1910000Y8505000D03*
X3595000Y8250000D03*
X3700000Y8472560D03*
X5730000Y8405000D03*
X5860000D03*
X5980000D03*
X7200000Y8375000D03*
X7095000Y8350000D03*
X7310000Y8370010D03*
X7840000Y8370000D03*
X8780000Y8570000D03*
X8890000Y8565000D03*
X9150000Y8480000D03*
X9600000Y8505000D03*
X9475000Y8565000D03*
X10170000Y8535000D03*
X10060000D03*
X9840000D03*
X9950000D03*
X10790000Y8735000D03*
X10610000Y8530000D03*
X10500000D03*
X11805000Y8520000D03*
X12017500Y8467500D03*
X16383000Y8382000D03*
Y8509000D03*
Y8636000D03*
X6289010Y9000990D03*
X6739010D03*
X6589010D03*
X6439010D03*
X8130000Y9055000D03*
X16383000Y9017000D03*
Y9144000D03*
Y8763000D03*
Y8890000D03*
X7760000Y9470000D03*
X8080000Y9700000D03*
X8132500Y9407500D03*
X13190000Y9405000D03*
X13310000D03*
X13430000D03*
X13550000D03*
X13670000D03*
X14030000D03*
X14150000D03*
X14270000D03*
X14390000Y9410000D03*
X16383000Y9271000D03*
X7874000Y9906000D03*
X8001000D03*
X9779000D03*
X9906000D03*
X10033000D03*
X10160000D03*
X10287000D03*
X10680000Y9885000D03*
X10414000Y9906000D03*
X10541000D03*
X11684000D03*
X11811000D03*
X11938000D03*
X12065000D03*
X12192000D03*
X12319000D03*
X12446000D03*
X13310000Y9905000D03*
X13190000D03*
X13070000D03*
X13790000D03*
X13670000D03*
X13550000D03*
X13430000D03*
X14270000D03*
X14150000D03*
X14030000D03*
X13910000D03*
X14750000D03*
X14870000D03*
X14630000D03*
X14510000D03*
X14390000D03*
X15113000Y9906000D03*
X14986000D03*
X15621000D03*
X15748000D03*
X15494000D03*
X16383000D03*
X11520000Y510000D03*
X12930000D03*
X14360000D03*
X15760000D03*
X16383000Y508000D03*
Y381000D03*
X4740000Y970000D03*
X6550000Y800000D03*
X8421090Y801090D03*
X10290000Y810000D03*
X13120000Y640000D03*
X15960000D03*
X16383000Y635000D03*
Y762000D03*
Y1016000D03*
Y889000D03*
X4595000Y1150000D03*
Y1270000D03*
X5580000Y1170000D03*
X6170000Y1260000D03*
X6445000Y1405000D03*
X6815000D03*
X7445000Y1155000D03*
X8010000Y1250000D03*
X8685000Y1400000D03*
X8315000D03*
X9310000Y1155000D03*
X9890000Y1250000D03*
X10185000Y1400000D03*
X10555000D03*
X16383000Y1143000D03*
Y1270000D03*
Y1397000D03*
Y1524000D03*
X6380000Y1845000D03*
X6810000D03*
X8260000Y1855000D03*
X8680000Y1850000D03*
X10140000D03*
X10560000D03*
X16383000Y1905000D03*
Y1778000D03*
Y1651000D03*
Y2032000D03*
Y2540000D03*
Y2159000D03*
Y2921000D03*
Y2667000D03*
Y2794000D03*
X14770000Y3550000D03*
X15890000Y3525000D03*
X15795000Y3640000D03*
X14820000Y4075000D03*
X14580000Y3810000D03*
X14920000Y3710000D03*
X15790000Y3850000D03*
X16345000Y4180000D03*
X16383000Y4064000D03*
X14843290Y4440280D03*
X15420000Y4670000D03*
X15415000Y4290000D03*
X16383000Y4445000D03*
Y4318000D03*
X14695000Y4740000D03*
X14570000Y5030000D03*
X14940000Y5170000D03*
X15250000Y5110000D03*
X14900000Y4870000D03*
X15490000Y4940000D03*
X16110000Y4995000D03*
X16330010Y4955010D03*
X16383000Y4826000D03*
X14710000Y5500000D03*
X14715000Y5320000D03*
X14490000Y5500000D03*
X14600000Y5530000D03*
X15090000Y5700000D03*
X14955000Y5315000D03*
X15780000Y5280000D03*
X15655000Y5700000D03*
X15770000Y5520000D03*
X15930000Y5290000D03*
X16383000Y5461000D03*
Y5334000D03*
Y5588000D03*
X14265000Y4530000D03*
X13890000Y4930000D03*
X14020000Y4815000D03*
X13895000Y5320000D03*
X14350000Y6005000D03*
X14230000D03*
X13990000D03*
X14110000D03*
X14305000Y6250000D03*
X14200000D03*
X14095000D03*
X13950000Y6505000D03*
X14110000D03*
X14230000D03*
X14410000Y6250000D03*
X14390000Y6505000D03*
X14870000D03*
G54D35*
X3830000Y720000D03*
Y1960000D03*
Y3260000D03*
X6940000Y7090000D03*
G54D46*
X4128400Y6912000D03*
X5093600D03*
G54D48*
X352990Y8880000D03*
X3457010D03*
G54D43*
X9058000Y5310000D03*
G54D42*
X5990000Y6485000D03*
G54D41*
X8334000Y3760000D03*
G54D38*
X340000Y3120000D03*
Y3374000D03*
G54D39*
X630000Y4310000D03*
Y5460000D03*
Y6600000D03*
G54D47*
X4382400Y6912000D03*
X5347600D03*
G54D44*
X11280000Y6305000D03*
X16080000D03*
X11280000Y9605000D03*
X16080000D03*
G54D37*
X462000Y1911000D03*
Y2411000D03*
G54D40*
X12331000Y5700000D03*
X9096000Y3760000D03*
X9350000D03*
X8588000D03*
X8842000D03*
X10410000Y340000D03*
X9902000D03*
X10156000D03*
X9394000D03*
X9648000D03*
X8550000D03*
X8042000D03*
X8296000D03*
X7534000D03*
X7788000D03*
X6436000D03*
X6690000D03*
X5928000D03*
X6182000D03*
X5674000D03*
%LPD*%
G75*
G36*
G01X215000Y8205000D02*
X645000D01*
X682500Y8167500D01*
Y8037500D01*
X790000Y7930000D01*
X1777820D01*
G03X1800000Y7924260I22184J39999D01*
G03X1822180Y7930000I-4J45739D01*
G01X2300000D01*
X2345000Y7885000D01*
Y7525000D01*
X2300000Y7480000D01*
X790000D01*
X650000Y7620000D01*
Y7845000D01*
X570000Y7925000D01*
X242200D01*
G03X220000Y7930750I-22200J-39981D01*
G03X212790Y7930180I-11J-45741D01*
G01X210230Y7929770D01*
X180000Y7960000D01*
Y8170000D01*
X215000Y8205000D01*
G37*
G36*
G01X2485000Y7350000D02*
X2610000D01*
X2618840Y7341160D01*
X2618870Y7339090D01*
G03X2689090Y7268870I71130J910D01*
G01X2691160Y7268840D01*
X2695000Y7265000D01*
X3000000D01*
X3100000Y7165000D01*
X3190000D01*
X3345000Y7320000D01*
X3570000D01*
X3690000Y7200000D01*
Y7145000D01*
X3606430Y7061430D01*
X3605390Y7061040D01*
G03X3586750Y7050720I24749J-66696D01*
G02X3570450Y7059900I-6203J8048D01*
G03X3570740Y7065000I-45448J5143D01*
G03X3525000Y7019260I-45740J0D01*
G03X3560460Y7036110I0J45737D01*
G02X3568780Y7030330I3937J-3211D01*
G03X3563460Y7019110I61374J-35972D01*
G01X3563070Y7018070D01*
X3562500Y7017500D01*
Y7016370D01*
X3562270Y7015630D01*
G03X3559020Y6995360I67881J-21279D01*
G02X3541670Y6988330I-10160J149D01*
G01X3538670Y6991330D01*
G03X3530000Y6987740I-3590J-3594D01*
G01Y6295000D01*
X3570000Y6255000D01*
X3745000D01*
X3850000Y6150000D01*
Y6105000D01*
X3725000Y5980000D01*
X3675000D01*
X3618420Y6036580D01*
G02X3618310Y6043650I3591J3592D01*
G03X3630740Y6075000I-33319J31350D01*
G03X3585000Y6120740I-45740J0D01*
G03X3555550Y6110000I0J-45747D01*
G01X3425000D01*
X3165000Y5850000D01*
Y5785000D01*
X3115000Y5735000D01*
X3030000D01*
X2957500Y5807500D01*
X2882500D01*
X2835000Y5760000D01*
Y5635000D01*
X2875000Y5595000D01*
X2940000D01*
X3055000Y5480000D01*
Y5015000D01*
X3475000Y4595000D01*
Y4345000D01*
X3479580Y4340420D01*
Y4339470D01*
X3539470Y4279580D01*
X3735530D01*
X3764690Y4308740D01*
G02X3780620Y4306730I7186J-7181D01*
G03X3820000Y4284260I39380J23273D01*
G03X3865740Y4330000I0J45740D01*
G03X3855770Y4358510I-45748J0D01*
G02X3863710Y4375000I7945J6331D01*
G01X4304980D01*
Y4364980D01*
X5320020D01*
Y4525020D01*
X5345000Y4550000D01*
X6110000D01*
X6180000Y4480000D01*
Y3950000D01*
X5905000Y3675000D01*
X5315690D01*
G02X5305570Y3686040I1J10159D01*
G03X5305740Y3690000I-45571J3940D01*
G03X5214260I-45740J0D01*
G03X5214430Y3686040I45741J-20D01*
G02X5204310Y3675000I-10121J-881D01*
G01X4730000D01*
X4510000Y3895000D01*
X4423300D01*
G03X4346700I-38300J-24994D01*
G01X3555690D01*
G02X3545570Y3906040I1J10159D01*
G03X3545740Y3910000I-45571J3940D01*
G03X3454260I-45740J0D01*
G03X3454430Y3906040I45741J-20D01*
G02X3444310Y3895000I-10121J-881D01*
G01X2500000D01*
X2365000Y4030000D01*
Y5760000D01*
X2265000Y5860000D01*
Y5965000D01*
X2314070Y6014070D01*
X2316330Y6013950D01*
G03X2320000Y6013860I3579J71052D01*
G03X2389090Y6068050I0J71138D01*
G01X2389430Y6069430D01*
X2820000Y6500000D01*
Y6636290D01*
G02X2830650Y6646440I10159J3D01*
G03X2832840Y6646390I2139J45691D01*
G03Y6737870I0J45740D01*
G03X2830650Y6737820I-51J-45741D01*
G02X2820000Y6747970I-491J10147D01*
G01Y6850000D01*
X2782910Y6887090D01*
G02X2785080Y6903110I7184J7184D01*
G03X2821140Y6965000I-35081J61890D01*
G03X2750000Y7036140I-71140J0D01*
G03X2688110Y7000080I0J-71141D01*
G02X2672090Y6997910I-8836J5014D01*
G01X2445000Y7225000D01*
Y7310000D01*
X2485000Y7350000D01*
G37*
G36*
G01X3449450Y5605000D02*
X3705000D01*
X3845000Y5465000D01*
X4014250D01*
X4014260Y5459930D01*
G03X4105740I45740J70D01*
G01X4105750Y5465000D01*
X4168860D01*
G03X4251140I41140J20007D01*
G01X4984040D01*
X4984500Y5460430D01*
G03X5075520I45510J4569D01*
G01X5075980Y5465000D01*
X5360550D01*
G03X5419450I29450J35007D01*
G01X5610000D01*
X5660000Y5415000D01*
Y5270000D01*
X5615000Y5225000D01*
X5469530D01*
G03X5400470I-34530J-30006D01*
G01X5205000D01*
X5160000Y5180000D01*
Y4980000D01*
X5075000Y4895000D01*
X4315000D01*
X4295000Y4875000D01*
Y4503380D01*
G02X4276690Y4497310I-10160J-3D01*
G03X4240000Y4515740I-36690J-27306D01*
G03Y4424260I0J-45740D01*
G03X4284930Y4461430I0J45740D01*
G01X4285720Y4465560D01*
X4295000D01*
Y4440000D01*
X4260000Y4405000D01*
X3825000D01*
X3725000Y4305000D01*
X3550000D01*
X3505000Y4350000D01*
Y4605000D01*
X3483750Y4626250D01*
G02X3485310Y4641900I7181J7187D01*
G03X3505740Y4680000I-25311J38100D01*
G03X3460000Y4725740I-45740J0D01*
G03X3421900Y4705310I0J-45741D01*
G02X3406250Y4703750I-8463J5621D01*
G01X3085000Y5025000D01*
Y5480000D01*
X3210000Y5605000D01*
X3390550D01*
G03X3449450I29450J35007D01*
G37*
G36*
G01X3825000Y5835000D02*
X3870000D01*
X4045000Y5660000D01*
X5755000D01*
X5800530Y5614470D01*
G02X5800920Y5600510I-7181J-7186D01*
G03X5789260Y5570000I34087J-30510D01*
G03X5835000Y5524260I45740J0D01*
G03X5851230Y5527240I-9J45738D01*
G02X5865000Y5517740I3609J-9498D01*
G01Y5075000D01*
X5730000Y4940000D01*
X5431140D01*
G03X5348860I-41140J-20007D01*
G01X5250000D01*
X5210000Y4980000D01*
Y5160000D01*
X5245000Y5195000D01*
X5389030D01*
X5389490Y5190430D01*
G03X5480510I45510J4569D01*
G01X5480970Y5195000D01*
X5625000D01*
X5685000Y5255000D01*
Y5259050D01*
X5685420Y5259470D01*
Y5425530D01*
X5685000Y5425950D01*
Y5430000D01*
X5625000Y5490000D01*
X5620950D01*
X5620530Y5490420D01*
X5445900D01*
G02X5435740Y5500470I-2J10159D01*
G03X5344260I-45740J-472D01*
G02X5334100Y5490420I-10158J109D01*
G01X5068040D01*
G03X4991980I-38030J-25428D01*
G01X4255600D01*
X4254750Y5494450D01*
G03X4165250I-44750J-9446D01*
G01X4164400Y5490420D01*
X4094160D01*
G03X4025840I-34160J-30424D01*
G01X3855530D01*
X3715530Y5630420D01*
X3714580D01*
X3690000Y5655000D01*
Y5700000D01*
X3825000Y5835000D01*
G37*
G36*
G01X8110000Y7640000D02*
X8405000D01*
Y6735000D01*
X8000000Y6330000D01*
X6841140D01*
G03X6758860I-41140J-20007D01*
G01X6535000D01*
Y6635000D01*
X7875000D01*
X8110000Y6870000D01*
Y7640000D01*
G37*
G36*
G01X7076650Y8975000D02*
X7238980D01*
Y8904000D01*
G03X7264270Y8813370I175022J-4D01*
G01X7265000Y8812150D01*
Y8775000D01*
X7245000Y8755000D01*
X7145000D01*
X6980000Y8590000D01*
Y8220000D01*
X6950000Y8190000D01*
X6840000D01*
X6815000Y8215000D01*
Y8284340D01*
X6819070Y8285170D01*
G03X6855740Y8330000I-9068J44830D01*
G03X6845000Y8359450I-45747J0D01*
G01Y8455000D01*
X6785000Y8515000D01*
X6500000D01*
X6445000Y8460000D01*
Y8330000D01*
X6415000Y8300000D01*
X6320000D01*
X6290000Y8330000D01*
Y8575000D01*
X6430000Y8715000D01*
X6790000D01*
X7030910Y8955910D01*
X7033370Y8955600D01*
G03X7039010Y8955250I5648J45390D01*
G03X7076650Y8975000I0J45743D01*
G37*
G36*
G01X9625000Y7940000D02*
X9810000D01*
X9845000Y7905000D01*
Y7475000D01*
X9895000Y7425000D01*
X9936660D01*
X9937980Y7421930D01*
G03X10022020I42020J18071D01*
G01X10023340Y7425000D01*
X10810000D01*
X10840000Y7395000D01*
Y7270000D01*
X10819760Y7249760D01*
X10817200Y7250170D01*
G03X10810000Y7250740I-7199J-45170D01*
G03X10780550Y7240000I0J-45747D01*
G01X10252180D01*
G03X10230000Y7245740I-22184J-39999D01*
G03X10207820Y7240000I4J-45739D01*
G01X9740000D01*
X9590000Y7390000D01*
Y7905000D01*
X9625000Y7940000D01*
G37*
%LPC*%
G75*
G36*
G01X2742470Y6212560D02*
G02X2791050Y6145090I-22563J-67470D01*
G02X2719910Y6073950I-71140J0D01*
G02X2652440Y6122530I0J71143D01*
G02X2603860Y6190000I22563J67470D01*
G02X2675000Y6261140I71140J0D01*
G02X2742470Y6212560I0J-71143D01*
G37*
G36*
G01X3187580Y6942540D02*
G02X3165000Y6938860I-22584J67459D01*
G02X3094800Y6998470I0J71141D01*
G02X3048860Y7065000I25204J66530D01*
G02X3120000Y7136140I71140J0D01*
G02X3190200Y7076530I0J-71141D01*
G02X3236140Y7010000I-25204J-66530D01*
G02X3234380Y6994250I-71143J-23D01*
G03X3247510Y6982370I9907J-2247D01*
G02X3270090Y6986050I22584J-67459D01*
G02X3337560Y6937470I0J-71143D01*
G02X3386140Y6870000I-22563J-67470D01*
G02X3315000Y6798860I-71140J0D01*
G02X3247530Y6847440I0J71143D01*
G02X3198950Y6914910I22563J67470D01*
G02X3200710Y6930660I71143J23D01*
G03X3187580Y6942540I-9907J2247D01*
G37*
G36*
G01X5006820Y3947140D02*
G03X5023180I8180J6023D01*
G02X5060000Y3965740I36820J-27144D01*
G02Y3874260I0J-45740D01*
G02X5023180Y3892860I0J45744D01*
G03X5006820I-8180J-6023D01*
G02X4970000Y3874260I-36820J27144D01*
G02X4931130Y3895890I0J45740D01*
G03X4913870I-8630J-5361D01*
G02X4875000Y3874260I-38870J24110D01*
G02Y3965740I0J45740D01*
G02X4913870Y3944110I0J-45740D01*
G03X4931130I8630J5361D01*
G02X4970000Y3965740I38870J-24110D01*
G02X5006820Y3947140I0J-45744D01*
G37*
G36*
G01Y4057140D02*
G03X5023180I8180J6023D01*
G02X5060000Y4075740I36820J-27144D01*
G02Y3984260I0J-45740D01*
G02X5023180Y4002860I0J45744D01*
G03X5006820I-8180J-6023D01*
G02X4970000Y3984260I-36820J27144D01*
G02X4931130Y4005890I0J45740D01*
G03X4913870I-8630J-5361D01*
G02X4875000Y3984260I-38870J24110D01*
G02Y4075740I0J45740D01*
G02X4913870Y4054110I0J-45740D01*
G03X4931130I8630J5361D01*
G02X4970000Y4075740I38870J-24110D01*
G02X5006820Y4057140I0J-45744D01*
G37*
G36*
G01Y4167140D02*
G03X5023180I8180J6023D01*
G02X5060000Y4185740I36820J-27144D01*
G02Y4094260I0J-45740D01*
G02X5023180Y4112860I0J45744D01*
G03X5006820I-8180J-6023D01*
G02X4970000Y4094260I-36820J27144D01*
G02X4931130Y4115890I0J45740D01*
G03X4913870I-8630J-5361D01*
G02X4875000Y4094260I-38870J24110D01*
G02Y4185740I0J45740D01*
G02X4913870Y4164110I0J-45740D01*
G03X4931130I8630J5361D01*
G02X4970000Y4185740I38870J-24110D01*
G02X5006820Y4167140I0J-45744D01*
G37*
G54D45*
X2580000Y5840000D03*
G54D36*
X1810000Y7690000D03*
X2575000Y3980000D03*
X3066000Y4040000D03*
X5550000Y3795000D03*
X5845000Y3820000D03*
X3320000Y4330000D03*
X3315000Y4500000D03*
X5347500Y4272500D03*
X5730000Y4430000D03*
X5550000Y4295000D03*
X5970000Y4430000D03*
X2500000Y4750000D03*
Y5260000D03*
X2655000Y5505000D03*
X2930000Y5370000D03*
X2750000Y5690000D03*
X2510000Y5930000D03*
X2670000Y5770000D03*
X2430000Y6010000D03*
X3005000Y5995000D03*
X3140000Y6000000D03*
X3280000Y6145000D03*
X3667500Y6152500D03*
X2991940Y6533030D03*
Y6214830D03*
X3151040Y6692130D03*
Y6373930D03*
X2832840D03*
X3360000Y6220000D03*
X3310140Y6533030D03*
X2991940Y6851230D03*
X3365000Y7225000D03*
X3460000Y4790000D03*
X3530000Y5075000D03*
X3915000Y5010000D03*
X4160000Y4900000D03*
X4010000Y5090000D03*
X3530000Y5260000D03*
X3345000D03*
X3530000Y5445000D03*
X3715000Y5260000D03*
X4145000Y5380000D03*
X6940000Y6485000D03*
X7080000D03*
X8320000Y7330000D03*
%LPD*%
G75*
G54D10*
X-415000Y1248000D03*
Y8812000D03*
X4128400Y7166000D03*
X4230000Y7420000D03*
X4534800Y7166000D03*
X4331600D03*
X4636400Y7420000D03*
X4433200D03*
X5144400Y7166000D03*
X4941200D03*
X5246000Y7420000D03*
X5042800D03*
X4839600D03*
X5347600Y7166000D03*
X5985000Y6485000D03*
X16975000Y1248000D03*
Y8812000D03*
G54D20*
X4103000Y8944000D03*
X5373000D03*
G54D11*
X127000Y127000D03*
Y254000D03*
Y381000D03*
X140000Y755000D03*
X127000Y889000D03*
Y1016000D03*
Y1397000D03*
Y1524000D03*
Y2540000D03*
Y2413000D03*
Y2286000D03*
Y3048000D03*
Y2794000D03*
Y2667000D03*
Y2921000D03*
Y3302000D03*
Y3175000D03*
Y3429000D03*
Y3556000D03*
Y4064000D03*
Y3810000D03*
Y3937000D03*
Y3683000D03*
Y4572000D03*
Y4445000D03*
Y4191000D03*
Y4318000D03*
Y5080000D03*
Y4953000D03*
Y4699000D03*
Y4826000D03*
Y5588000D03*
Y5461000D03*
Y5207000D03*
Y5334000D03*
Y5842000D03*
Y5969000D03*
Y5715000D03*
Y6096000D03*
Y6604000D03*
Y6350000D03*
Y6477000D03*
Y6223000D03*
Y6985000D03*
Y6858000D03*
Y6731000D03*
X100000Y7300000D03*
X127000Y7620000D03*
Y7747000D03*
X140000Y8440000D03*
X254000Y127000D03*
X360000Y7100000D03*
X475000D03*
X245000D03*
X570000Y7240000D03*
X180000Y7480000D03*
X305000Y7705000D03*
X470000D03*
X260000Y8120000D03*
X455000D03*
X355000Y8050000D03*
X470000Y7790000D03*
X305000D03*
X390000Y7745000D03*
X220000Y7885010D03*
X560000Y7860000D03*
X735000Y3940000D03*
X760000Y5090000D03*
X1100000Y8100000D03*
X730000D03*
X905000Y7995000D03*
X1100000D03*
X1165000Y8040000D03*
X970000Y8045000D03*
X843500D03*
X780000D03*
X1033500D03*
X920000Y8100000D03*
X1470000Y1490000D03*
X1345000Y1160000D03*
X1600000Y3579990D03*
X1375000Y3580000D03*
X1295000Y8005000D03*
X1228500Y8040000D03*
X1480000Y8140000D03*
Y8080000D03*
X1985000Y380000D03*
Y520000D03*
X1815000Y1030000D03*
X1715000Y1415000D03*
X1710000Y1670000D03*
X2150000Y6355000D03*
X2195000Y6235000D03*
X2000000Y7045000D03*
X1912500Y7117500D03*
X2150000Y6795000D03*
X1810000Y7690000D03*
X1800000Y7970000D03*
X2085000Y8240000D03*
X1800000Y8250000D03*
X1910000Y8505000D03*
X2250000Y470010D03*
X2315000Y1400000D03*
X2275000Y1760010D03*
X2280000Y1655000D03*
X2410000Y2830000D03*
X2650000D03*
X2575000Y3980000D03*
X2245000Y4320000D03*
X2500000Y4750000D03*
X2250000Y5000000D03*
X2500000Y5260000D03*
X2655000Y5505000D03*
X2430000Y6010000D03*
X2670000Y5770000D03*
X2510000Y5930000D03*
X2675000Y6190000D03*
X2272210Y6126820D03*
X2320000Y6085000D03*
X2580000Y5840000D03*
X2375000Y5935000D03*
X2435000Y5880000D03*
X2673740Y6533030D03*
X2522860Y6382140D03*
X2477950Y6427050D03*
X2330710Y6465000D03*
X2455000Y7055000D03*
X2705000Y6920000D03*
X2615000Y6815000D03*
X2570000Y6770000D03*
X2335000Y6935000D03*
X2255000Y6855000D03*
X2260000Y7700000D03*
Y7560000D03*
X2690000Y7340000D03*
X2645000Y7260000D03*
X2520000Y7280000D03*
X2260000Y7840000D03*
X2535000Y7980000D03*
X2595000Y8030000D03*
X2658500D03*
X2805000Y435000D03*
X2920000Y550000D03*
X3040000Y490000D03*
X3170000Y495000D03*
X2840000Y1015000D03*
X2990000Y1020000D03*
X2750000Y1050000D03*
X2875000Y1425000D03*
Y1285000D03*
X2790000Y1760000D03*
X2945000Y1770000D03*
X3090000Y1670000D03*
X2990000Y2300000D03*
X2830000Y2320000D03*
X2840000Y2950000D03*
X3150000Y3000000D03*
X2915000Y2710000D03*
X3000000Y3500000D03*
X2850000Y3495000D03*
X2740000Y3530000D03*
X2985000Y3720000D03*
X3066000Y4040000D03*
X2750000Y5690000D03*
X3025000Y5595000D03*
X2930000Y5370000D03*
X2719910Y6145090D03*
X3060000Y5790000D03*
X3005000Y5995000D03*
X3140000Y6000000D03*
X2920000Y5740000D03*
X2832840Y6373930D03*
Y6692130D03*
X3151040Y6373930D03*
Y6692130D03*
X2991940Y6214830D03*
Y6533030D03*
Y6851230D03*
X3120000Y7065000D03*
X3165000Y7010000D03*
X2750000Y6965000D03*
X3140000Y7220000D03*
X2740000Y7380000D03*
X3065000Y7980000D03*
X2875000Y8110000D03*
X2715000Y7970000D03*
X2885000D03*
X3005000Y8030000D03*
X2941500D03*
X2833500D03*
X2725000Y8110000D03*
X2770000Y8030000D03*
X3280000Y2330000D03*
X3460000Y2710000D03*
X3285000Y3520000D03*
X3500000Y3910000D03*
X3460000Y4680000D03*
X3315000Y4500000D03*
X3595000Y4365000D03*
X3685000D03*
X3320000Y4330000D03*
X3530000Y5075000D03*
X3460000Y4790000D03*
X3715000Y5260000D03*
X3530000Y5445000D03*
X3420000Y5640000D03*
X3345000Y5260000D03*
X3530000D03*
X3600000Y5700000D03*
X3282500Y5472500D03*
X3585000Y6075000D03*
X3667500Y6152500D03*
X3685000Y5775000D03*
X3677500Y6062500D03*
X3600000Y5985000D03*
X3515000Y5905000D03*
X3280000Y6145000D03*
X3425000Y5915000D03*
X3505000Y5995000D03*
X3310140Y6533030D03*
X3360000Y6220000D03*
X3597500Y6332500D03*
X3660000Y6570000D03*
X3365000Y7225000D03*
X3525000Y7065000D03*
X3680000Y6955000D03*
X3630150Y6994350D03*
X3315000Y6870000D03*
X3600000Y7160000D03*
X3540000Y7220000D03*
X3270090Y6914910D03*
X3595000Y7690000D03*
Y7970000D03*
X3260000Y8080000D03*
Y8140000D03*
X3595000Y8250000D03*
X3700000Y8472560D03*
X4140000Y1265000D03*
X4020000Y1145000D03*
X4140000D03*
X4020000Y1265000D03*
X4160000Y1500000D03*
X4040000D03*
X4160000Y2400000D03*
X4040000D03*
Y2755000D03*
X4160000D03*
X4040000Y3715000D03*
X4160000D03*
X3820000Y4330000D03*
X4010000Y5090000D03*
X4160000Y4990000D03*
X3915000Y5010000D03*
X4160000Y4900000D03*
X4145000Y5380000D03*
X4060000Y5460000D03*
X4210000Y5485000D03*
X3930000Y5670000D03*
X4225000Y6110000D03*
X4200000Y5990000D03*
X3850000Y5755000D03*
X4045000Y6290000D03*
X4095000Y6515000D03*
X3800000Y6460000D03*
X4290000Y370000D03*
X4310000Y490000D03*
X4315000Y985000D03*
X4310000Y735000D03*
X4595000Y1150000D03*
Y1270000D03*
X4260000Y1145000D03*
Y1265000D03*
X4310000Y1610000D03*
X4280000Y1500000D03*
X4330000Y1975000D03*
Y1730000D03*
X4615000Y2400000D03*
Y2280000D03*
X4335000Y2225000D03*
X4280000Y2400000D03*
X4310000Y2865000D03*
X4280000Y2755000D03*
X4330000Y2985000D03*
X4615000Y3650000D03*
Y3530000D03*
X4330000Y3230000D03*
X4335000Y3480000D03*
X4385000Y3870000D03*
X4280000Y3715000D03*
X4240000Y4470000D03*
X4675000Y5735000D03*
X4460000Y6020000D03*
X4670000Y5835000D03*
X4605000Y5785000D03*
X4330000Y6170000D03*
X4310000Y6270000D03*
X4300000Y6400000D03*
X4580000Y6680000D03*
X4330000Y6500000D03*
X4742400Y625000D03*
X4740000Y970000D03*
Y720000D03*
X4762400Y1755000D03*
X4760000Y1850000D03*
Y2100000D03*
X4755000Y3100000D03*
X4762400Y3010000D03*
X4760000Y3340000D03*
X4970000Y4030000D03*
Y4140000D03*
X5060000Y4030000D03*
Y3920000D03*
X4875000D03*
X5060000Y4140000D03*
X4970000Y3920000D03*
X4875000Y4030000D03*
Y4140000D03*
X5030010Y5465000D03*
X4805000Y5720000D03*
X5140000Y6600000D03*
X5580000Y1170000D03*
X5360000Y2650000D03*
X5615000Y2315000D03*
X5530000Y2480000D03*
X5260000Y3555000D03*
X5550000Y3795000D03*
X5260000Y3690000D03*
X5660000Y3980000D03*
X5550000Y4295000D03*
X5730000Y4430000D03*
X5347500Y4272500D03*
X5540000Y4630000D03*
X5390000Y4920000D03*
X5435000Y5195000D03*
X5290000Y5010000D03*
Y5100000D03*
X5390000Y5500000D03*
X5490000Y5380000D03*
X5590000D03*
X5455000Y6140000D03*
Y6020000D03*
Y6400000D03*
X5270000Y6490000D03*
X5455000Y6260000D03*
X5545000Y6680000D03*
X5730000Y8405000D03*
X6170000Y1260000D03*
X6045000Y1620000D03*
X5932500D03*
X5945000Y2130000D03*
X5820000Y2150000D03*
X6020000Y2055000D03*
X5890000Y2075000D03*
X5965000Y2000000D03*
X6075000Y2110000D03*
X6145000Y2595000D03*
X6237500Y2507500D03*
X6000000Y2185000D03*
X5875000Y2205000D03*
X5930000Y2260000D03*
X5805000Y2590000D03*
X5925000Y2710000D03*
X5845000Y3820000D03*
X6120000Y4140000D03*
X5820000Y3980000D03*
X6120000D03*
X5970000D03*
Y4430000D03*
X5920000Y4740000D03*
Y5100000D03*
X6250000Y5090000D03*
Y4955000D03*
Y4870000D03*
X5835000Y5570000D03*
X6130000Y5650000D03*
X6250000Y5240000D03*
Y5320000D03*
X5860000Y5980000D03*
X6195000Y6000000D03*
Y5936500D03*
X6130000Y5770000D03*
X5910000Y6995000D03*
X6235000Y7105000D03*
Y6890000D03*
Y6965940D03*
Y7029440D03*
X5910000Y7365000D03*
X6235000Y7250000D03*
X6230000Y7635000D03*
X6235000Y7470000D03*
Y7390000D03*
X6230730Y7711390D03*
X6235000Y7326500D03*
X5950000Y7740000D03*
X5915000Y8110000D03*
X6225000Y8000000D03*
X6185000Y8210000D03*
X6230000Y7850000D03*
X6225000Y8076500D03*
Y8140000D03*
X6230730Y7774890D03*
X5860000Y8405000D03*
X5980000D03*
X6130000Y8410000D03*
Y8266500D03*
Y8330000D03*
X6550000Y800000D03*
X6445000Y1405000D03*
X6380000Y1845000D03*
X6710000D03*
X6280000Y1840000D03*
X6327500Y2417500D03*
X6576100Y2220000D03*
X6765000D03*
X6670000Y2195000D03*
X6265000Y3950000D03*
X6290000Y4050000D03*
X6530000Y4520000D03*
X6500000Y4265000D03*
X6310000Y4525000D03*
X6400000D03*
X6645000Y4505000D03*
X6275000Y4680000D03*
X6370000Y4970000D03*
X6270000Y4770000D03*
X6470000Y4970000D03*
X6300000Y5625000D03*
X6550000Y5240000D03*
X6650000Y5245000D03*
X6710000Y6400000D03*
X6595000D03*
X6410000Y8120000D03*
X6550000Y8005000D03*
X6485000Y8135000D03*
X6530000Y8075000D03*
X6540000Y8300000D03*
X6660000Y8460000D03*
X6370000Y8383070D03*
X6551500Y8390000D03*
X6758660Y8385000D03*
X6615000Y8390000D03*
X6695160Y8385000D03*
X6289010Y9000990D03*
X6739010D03*
X6589010D03*
X6439010D03*
X6858000Y127000D03*
X6985000D03*
X7112000D03*
X6815000Y1405000D03*
X7070000Y1960000D03*
X6810000Y1845000D03*
X7235000Y2655000D03*
X7220000Y3541090D03*
Y3351100D03*
X7015000Y3840000D03*
X6945000Y3785000D03*
X7150000Y4450000D03*
X7270000D03*
X6995000Y4725000D03*
X7110000Y5065000D03*
X7030000Y5010000D03*
X6870000Y4960000D03*
X7265000Y5290000D03*
X6920000Y6130000D03*
X7000000Y6020000D03*
X7015000Y5840000D03*
Y5765000D03*
X7080000Y6485000D03*
X6940000D03*
X7000000Y6250000D03*
X6800000Y6310000D03*
X7200000Y8375000D03*
X7095000Y8350000D03*
X6810000Y8330000D03*
X6900000Y8270000D03*
X7095000Y8445000D03*
X7039010Y9000990D03*
X7215000Y8835000D03*
Y8920000D03*
X6839000Y9175000D03*
X6939000D03*
X7002500D03*
X7445000Y1155000D03*
X7760000Y2075000D03*
X7690000Y2150000D03*
X7745000Y2205000D03*
X7685000Y2590000D03*
X7405000Y2485000D03*
X7485000Y2315000D03*
X7495000Y3645000D03*
X7715000Y3546100D03*
Y3736090D03*
X7515000Y4160000D03*
X7460000Y3990000D03*
X7290000Y3810000D03*
X7380000Y4500000D03*
X7460000Y4555000D03*
X7575000Y4410000D03*
X7570000Y5050000D03*
X7740000Y5100000D03*
X7290000Y5640000D03*
X7520000Y7840000D03*
X7310000Y8370010D03*
X7695000Y8925000D03*
X7760000Y9470000D03*
X8010000Y1250000D03*
X7910000Y1610000D03*
X7790000D03*
X7945000Y2110000D03*
X7890000Y2055000D03*
X7815000Y2130000D03*
X7835000Y2000000D03*
X8260000Y1855000D03*
X8160000Y1850000D03*
X7800000Y2260000D03*
X7870000Y2185000D03*
X8205000Y2425000D03*
X8110000Y2510000D03*
X8017500Y2597500D03*
X7805000Y2710000D03*
X7860000Y3940000D03*
X7795000Y3890000D03*
X8150000Y4650000D03*
X8243210Y4488210D03*
X8030000Y4780000D03*
X7895000Y4835000D03*
X8000000Y5040000D03*
X7970000Y5430000D03*
X7870000Y5395000D03*
X8240000Y5435000D03*
X7845000Y7570000D03*
X8170000Y7580000D03*
Y7915000D03*
X7905000Y7895000D03*
X8220000Y8200000D03*
X7840000Y8370000D03*
X8170000Y8280000D03*
X8265000D03*
X8130000Y9055000D03*
X7805000Y8925000D03*
X8040000Y8950000D03*
X8228990Y9715000D03*
X8080000Y9700000D03*
X8132500Y9407500D03*
X8273570Y9640000D03*
X7874000Y9906000D03*
X8001000D03*
X7965490Y9790000D03*
X8028990D03*
X8763000Y127000D03*
X8421090Y801090D03*
X8685000Y1400000D03*
X8315000D03*
X8680000Y1850000D03*
X8580000D03*
X8540000Y2205000D03*
X8446100Y2230000D03*
X8635000D03*
X8355000Y4470000D03*
X8790000Y4869990D03*
X8720000Y7330000D03*
X8570000D03*
X8320000D03*
X8540000Y7595000D03*
X8345000Y7580000D03*
X8783500Y7930000D03*
X8720000D03*
X8655000Y7865000D03*
X8345000Y7915000D03*
X8775000Y8050000D03*
X8620000Y8090000D03*
X8780000Y8570000D03*
X8535000Y9715000D03*
X8379000D03*
X8680000D03*
X8639070Y9640720D03*
X8337070Y9640000D03*
X8724290Y9644280D03*
X8575570Y9640720D03*
X8787790Y9644280D03*
X8428570Y9640000D03*
X8492070D03*
X8890000Y127000D03*
X8925000Y1960000D03*
X9275000Y2485000D03*
X9105000Y2655000D03*
X9285000Y3190000D03*
X8820000Y4145000D03*
X9040000Y4045000D03*
X9215000Y4280000D03*
X9020000Y4470000D03*
X8870000Y7330000D03*
X9020000D03*
X9170000D03*
X9248500Y7865000D03*
X9185000D03*
X9113500Y7920000D03*
X9050000D03*
X8963500Y7865000D03*
X8900000D03*
X9190000Y7935000D03*
X9210000Y8105000D03*
X8890000Y8565000D03*
X9150000Y8480000D03*
X9250000D03*
X9020000Y8575000D03*
X8828990Y9715000D03*
X8979000D03*
X8937070Y9645000D03*
X8873570D03*
X9779000Y127000D03*
X9310000Y1155000D03*
X9790000Y1630000D03*
X9660000D03*
X9560000Y2150000D03*
X9685000Y2130000D03*
X9630000Y2075000D03*
X9705000Y2000000D03*
X9760000Y2055000D03*
X9815000Y2110000D03*
X9615000Y2205000D03*
X9670000Y2260000D03*
X9740000Y2185000D03*
X9355000Y2315000D03*
X9555000Y2590000D03*
X9785000Y2945000D03*
X9675000D03*
Y2710000D03*
X9705000Y3455000D03*
X9745000Y3885000D03*
X9615000Y4350000D03*
Y4580000D03*
X9710000Y4625000D03*
X9355000Y4320000D03*
X9815000Y4445000D03*
X9450000Y4760000D03*
X9405000Y4840000D03*
X9625000Y5375000D03*
X9520000Y5380000D03*
X9470000Y7330000D03*
X9320000D03*
X9355160Y7865000D03*
X9390000Y8120000D03*
X9650000Y7880000D03*
X9785000D03*
X9418660Y7865000D03*
X9600000Y8505000D03*
X9475000Y8565000D03*
X9565000Y9930000D03*
X9652000Y9906000D03*
X9779000D03*
X10287000Y127000D03*
X10033000D03*
X10290000Y810000D03*
X9890000Y1250000D03*
X10185000Y1400000D03*
X10140000Y1850000D03*
X10040000D03*
X9890000Y2600000D03*
X10075000Y2425000D03*
X9982500Y2512500D03*
X10140660Y3030660D03*
X10210000Y2705000D03*
X10070000Y2710000D03*
X10302080Y3152080D03*
X9980000Y3640000D03*
X9930000Y3265000D03*
X10230000Y3410000D03*
X10145000Y3485000D03*
X10150000Y3325000D03*
X10070000Y3265000D03*
X10305000Y3325000D03*
X10110000Y4385000D03*
X10260000Y4255000D03*
X10025000Y4395000D03*
X10177500Y4797500D03*
X9842500Y5132500D03*
X9930000Y4910000D03*
X10090000Y4730000D03*
X10027500Y5272500D03*
X10110000Y5350000D03*
X10270000Y5510000D03*
X10177500Y5442500D03*
X9940000Y5200000D03*
X10030000Y5350000D03*
X10220000Y6460000D03*
Y6396500D03*
X9980000Y6700000D03*
X10230000Y7200000D03*
X10100000Y7505000D03*
X9980000Y7440000D03*
X10290000Y8070000D03*
X10015000Y7835000D03*
X10170000Y8535000D03*
X10300000D03*
X10060000D03*
X9840000D03*
X9950000D03*
X9906000Y9906000D03*
X10033000D03*
X10160000D03*
X10287000D03*
X10795000Y127000D03*
X10668000D03*
X10541000D03*
X10555000Y1400000D03*
X10715000Y2095000D03*
X10560000Y1850000D03*
X10635000Y2065000D03*
X10460000Y1850000D03*
X10430000Y2205000D03*
X10335000Y2235000D03*
X10526090D03*
X10515000Y3110000D03*
X10380000Y2775000D03*
X10467500Y3167500D03*
X10405000Y3650000D03*
X10464950Y3610050D03*
X10480000Y3540000D03*
X10650000Y3510000D03*
Y3420000D03*
X10543940Y4085000D03*
X10792160Y4447160D03*
X10645000Y4310000D03*
X10510000Y4675000D03*
X10750000Y4935000D03*
X10580000Y5200000D03*
X10420000Y5680000D03*
X10665000Y5800000D03*
X10512500Y5747500D03*
X10645000Y5735000D03*
X10450000Y5790000D03*
X10710000Y5895000D03*
Y5985000D03*
X10370000Y5790000D03*
X10640000Y6330000D03*
X10810000Y7205000D03*
X10390000Y6850000D03*
X10565000Y7595000D03*
X10628500D03*
X10650000Y7350000D03*
X10775000D03*
X10525000D03*
X10440000Y7590000D03*
X10370000Y8055000D03*
X10605000D03*
X10810000Y8115000D03*
X10390000Y8530000D03*
X10790000Y8735000D03*
X10610000Y8530000D03*
X10500000D03*
X10790000Y9565000D03*
Y9365000D03*
X10680000Y9885000D03*
X10414000Y9906000D03*
X10541000D03*
X11303000Y127000D03*
X11176000D03*
X11049000D03*
X10922000D03*
X11330000Y635000D03*
X11205000Y2650000D03*
X11015000Y2595000D03*
X11155000Y3000000D03*
X11320000Y3155000D03*
X11295000Y3050000D03*
Y2945000D03*
X10935000Y2675000D03*
X11010300Y3589710D03*
X11270000Y3460000D03*
X11129980Y3274980D03*
X11127500Y3587500D03*
X11017500Y3707500D03*
X10840000Y3758840D03*
X10975000Y4650000D03*
X11320000Y4804520D03*
X11031740Y4716740D03*
X11157500Y4697500D03*
X10972500Y5607500D03*
X11235000Y5880000D03*
X11020000D03*
X10870000Y5885000D03*
X10845000Y6475000D03*
Y6395000D03*
Y6555000D03*
X10925000Y6850000D03*
X10940000Y7560000D03*
X11030000Y7590000D03*
X10930000Y8100000D03*
X11520000Y510000D03*
X11811000Y127000D03*
X11684000D03*
X11557000D03*
X11430000D03*
X11460000Y1930000D03*
X11647500Y2612500D03*
X11410000Y2340000D03*
X11590000Y2190000D03*
X11455000Y2645000D03*
X11707500Y2872500D03*
X11627500Y2792500D03*
X11787500Y2952500D03*
X11810000Y3400000D03*
X11615000Y3210000D03*
X11590000Y3805000D03*
X11500000Y3880000D03*
X11570890Y3725000D03*
X11760000Y3935000D03*
X11670000Y4010000D03*
X11591160Y4510000D03*
X11390000Y4225000D03*
X11790000Y4245000D03*
X11780000Y5375000D03*
X11380000Y5650000D03*
X11690000Y5370000D03*
X11440000Y5605000D03*
X11845000Y5205000D03*
X11780000Y5300000D03*
X11465000Y5790000D03*
X11750000Y5880000D03*
X11580000Y5810000D03*
X11805000Y8520000D03*
X11684000Y9906000D03*
X11811000D03*
X12319000Y127000D03*
X12192000D03*
X12065000D03*
X11938000D03*
X12204730Y3135270D03*
X12130000Y3090000D03*
X11865000Y3035000D03*
X11947500Y3112500D03*
X12085000Y3295000D03*
X12027500Y3192500D03*
X11860000Y3540000D03*
X12170000Y3365000D03*
X11880000Y4045000D03*
X12081850Y4053160D03*
X12045000Y3685000D03*
X11925000Y3710000D03*
X11905000Y4190000D03*
X12090000Y4210000D03*
X12355000Y4835000D03*
X12215000Y4935000D03*
X12240000Y4800000D03*
X11925000Y5130000D03*
X12115000Y4960000D03*
X11875000Y4770000D03*
X12325000Y4725000D03*
X12075000Y5540000D03*
X12245000Y5465000D03*
X12135000Y5405000D03*
X12110000Y5260000D03*
X11910000Y5305000D03*
X12135000Y6005000D03*
X11980000Y6170000D03*
X11940000Y5720000D03*
X11855000Y5795000D03*
X12020000Y8095000D03*
X12017500Y8467500D03*
X11938000Y9906000D03*
X12065000D03*
X12192000D03*
X12319000D03*
X12827000Y127000D03*
X12700000D03*
X12573000D03*
X12446000D03*
X12550000Y1430000D03*
X12430000Y1435000D03*
X12655000Y1430000D03*
Y1180000D03*
X12790000Y2205000D03*
X12505000Y3256320D03*
X12500000Y3430000D03*
Y3550000D03*
X12700000Y3345000D03*
Y3255000D03*
X12375000Y3435000D03*
X12522190Y3952190D03*
X12365000Y3745000D03*
X12735000Y4335000D03*
X12850000Y4265000D03*
X12485000Y4565000D03*
X12405000Y4645000D03*
X12585000Y4460000D03*
X12815000Y5080000D03*
X12435000Y4755000D03*
X12455000Y5300000D03*
X12515000Y6030000D03*
X12860000Y6165000D03*
X12385000Y5990000D03*
X12635000Y6025000D03*
X12820000Y6370000D03*
X12815000Y6480000D03*
X12775000Y6685000D03*
X12860000Y6305000D03*
X12852860Y6691500D03*
X12815000Y6620000D03*
X12860000Y6241500D03*
X12815000Y6556500D03*
X12855000Y6835000D03*
X12852860Y6755000D03*
X12530000Y9735000D03*
X12825000Y9635000D03*
Y9465000D03*
X12525000Y9570000D03*
X12785000Y9380000D03*
X12580000Y9617440D03*
X12775000Y9580000D03*
X12580000Y9680940D03*
X12775000Y9516500D03*
X12410000Y9300000D03*
X12446000Y9906000D03*
X12765000Y9900000D03*
X12829650Y9860000D03*
X12440000Y9780000D03*
X12600000Y9900000D03*
X12930000Y510000D03*
X13335000Y127000D03*
X13208000D03*
X13081000D03*
X12954000D03*
X13120000Y640000D03*
X13210000Y3235000D03*
X12895000Y3550000D03*
X13210000Y3865000D03*
X13255000Y5545000D03*
X13120000Y5370000D03*
X13025000Y5350000D03*
X13370000Y5595000D03*
X13190000Y6005000D03*
X13070000D03*
X12930000D03*
X12980000Y5935000D03*
X13043500D03*
X13260000Y6005000D03*
X13070010Y6500000D03*
X13350000Y6505000D03*
X13190000D03*
X12950000D03*
X13200000Y6255000D03*
X13270000D03*
X13275000Y6505000D03*
X13360000Y6255000D03*
X13355000Y6840000D03*
X13100000Y8620000D03*
X13295000Y8480000D03*
X13355000Y8585000D03*
Y8521500D03*
X13160000Y8660000D03*
Y8723500D03*
X13215000Y8775000D03*
X13140000Y8925000D03*
X13070000Y9110000D03*
X13260000Y9080000D03*
X13305000Y8780000D03*
X13365000Y8890000D03*
X13130000Y9220000D03*
X13205000Y8966500D03*
X13130000Y9156500D03*
X13365000Y8826500D03*
X13205000Y9030000D03*
X13070000Y9405000D03*
X13190000D03*
X13310000D03*
X13185000Y9270000D03*
X13110000Y9335000D03*
X13310000Y9905000D03*
X13190000D03*
X13070000D03*
X12955000Y9900000D03*
X12893150Y9860000D03*
X13843000Y127000D03*
X13716000D03*
X13589000D03*
X13462000D03*
X13525000Y3550000D03*
X13580000Y4220000D03*
X13485000Y4625000D03*
X13480000Y5590000D03*
X13700000Y5570000D03*
X13810000Y5585000D03*
X13390000Y6005000D03*
X13790000D03*
X13590000D03*
X13575000Y5740000D03*
X13470000Y6215000D03*
Y6285000D03*
X13750000Y6505000D03*
X13550000D03*
X13710000Y6280000D03*
X13790000Y6250000D03*
X13670000Y6755000D03*
X13790000D03*
X13490000Y6880000D03*
X13550000Y6755000D03*
X13415000Y8630000D03*
Y8945000D03*
X13430000Y9405000D03*
X13550000D03*
X13670000D03*
X13790000Y9905000D03*
X13670000D03*
X13550000D03*
X13430000D03*
X14360000Y510000D03*
X14351000Y127000D03*
X14224000D03*
X14097000D03*
X13970000D03*
X14170000Y640000D03*
X14290000Y1930000D03*
X13915000Y2565000D03*
X14265000Y2720000D03*
X14130000Y3930000D03*
X14265000Y4530000D03*
X14285000Y4295000D03*
Y4230000D03*
X13955000Y4530000D03*
X14285000Y4392190D03*
X13890000Y4930000D03*
X14020000Y4815000D03*
Y4715000D03*
X14100000Y5035000D03*
X13895000Y5320000D03*
X14140000Y5580000D03*
X14110000Y6005000D03*
X13990000D03*
X14230000D03*
X14350000D03*
X14230000Y6505000D03*
X14110000D03*
X13950000D03*
X13990000Y6250000D03*
X14305000D03*
X13895000Y6280000D03*
X14200000Y6250000D03*
X14095000D03*
X14050000Y6910000D03*
X14315000Y6755000D03*
X14030000D03*
X14070000Y6825000D03*
X14290000Y6945000D03*
X14040000Y7385000D03*
Y7245000D03*
X14285000Y7335000D03*
X14160000Y8520000D03*
X14215000Y9207070D03*
Y9143570D03*
Y9065000D03*
X14050000Y8900000D03*
X14030000Y9405000D03*
X14150000D03*
X14270000D03*
X14340000Y9280000D03*
X14170000Y9675000D03*
X14215000Y9285000D03*
X14355000Y9610000D03*
X14313660Y9675000D03*
X14250160D03*
X14270000Y9905000D03*
X14150000D03*
X14030000D03*
X13910000D03*
X14859000Y127000D03*
X14478000D03*
X14605000D03*
X14732000D03*
X14795000Y1420000D03*
X14505000Y1830000D03*
X14635000Y2080000D03*
X14425000Y2180000D03*
X14840000Y2995000D03*
X14410000Y3005000D03*
X14770000Y3550000D03*
X14665000Y3545000D03*
X14660000Y3655000D03*
X14580000Y3695000D03*
X14820000Y4075000D03*
X14720000D03*
X14580000Y3810000D03*
X14735000Y4435000D03*
X14843290Y4440280D03*
X14570000Y4455000D03*
X14635000Y4610000D03*
X14780000Y4870000D03*
X14805000Y4990000D03*
X14695000Y4740000D03*
X14570000Y5030000D03*
X14730000Y4940000D03*
X14710000Y5500000D03*
X14715000Y5320000D03*
X14490000Y5500000D03*
X14600000Y5530000D03*
X14570000Y5860000D03*
X14457260Y5862050D03*
X14685000Y5860000D03*
X14570000Y5975000D03*
X14765000D03*
X14870000Y6505000D03*
X14390000D03*
X14750000Y6265000D03*
X14640000Y6245000D03*
X14520000Y6250000D03*
X14410000D03*
X14830000Y6265000D03*
X14390000Y6860000D03*
X14870000Y6725000D03*
X14515000Y7190000D03*
X14715000Y7315000D03*
X14690000Y9050000D03*
X14484530Y9280000D03*
X14540000Y9340000D03*
X14603500D03*
X14776030Y9345000D03*
X14839530D03*
X14390000Y9410000D03*
X14870000D03*
X14630000D03*
X14510000D03*
X14630000Y9610000D03*
X14510000D03*
X14750000Y9410000D03*
X14815000Y9620000D03*
X14401500Y9675000D03*
X14541500D03*
X14745000D03*
X14465000D03*
X14605000D03*
X14681500D03*
X14421030Y9280000D03*
X14750000Y9905000D03*
X14870000D03*
X14630000D03*
X14510000D03*
X14390000D03*
X14986000Y127000D03*
X15367000D03*
X15113000D03*
X15240000D03*
X15330000Y1260000D03*
X14990000Y3090000D03*
X15185000Y3220000D03*
Y3315000D03*
X14910000Y3355000D03*
X14920000Y3710000D03*
X14940000Y5170000D03*
X15235000Y4970000D03*
X15250000Y5110000D03*
X15235000Y4906500D03*
X14900000Y4870000D03*
X15090000Y5700000D03*
X14955000Y5315000D03*
X15100000Y5980000D03*
X14960000Y5975000D03*
X14910000Y6265000D03*
X15015000Y6850000D03*
Y6925000D03*
X15100000Y6725000D03*
X14985000D03*
X14966500Y9320000D03*
X15030000D03*
X15075000Y9385000D03*
X14900000Y9275000D03*
X15130000Y9710000D03*
X15113000Y9906000D03*
X14986000D03*
X15760000Y510000D03*
X15875000Y127000D03*
X15494000D03*
X15748000D03*
X15621000D03*
X15475000Y1320000D03*
Y1420000D03*
Y1170000D03*
X15600000Y1930000D03*
X15890000Y3525000D03*
X15510000Y3650000D03*
X15795000Y3640000D03*
X15610000Y3645000D03*
X15790000Y3850000D03*
X15420000Y4670000D03*
X15415000Y4290000D03*
X15600000Y4375000D03*
Y4480000D03*
X15490000Y4940000D03*
X15780000Y5280000D03*
X15655000Y5700000D03*
X15770000Y5520000D03*
X15870000Y5825000D03*
X15655000Y5810000D03*
X15435000Y7125000D03*
X15621000Y9906000D03*
X15748000D03*
X15494000D03*
X16383000Y508000D03*
X16002000Y127000D03*
X16129000D03*
X16383000Y381000D03*
Y254000D03*
X16256000Y127000D03*
X16383000D03*
X15960000Y640000D03*
X16383000Y635000D03*
Y762000D03*
Y1016000D03*
Y889000D03*
Y1143000D03*
Y1270000D03*
Y1397000D03*
Y1524000D03*
Y1905000D03*
Y1778000D03*
Y1651000D03*
Y2032000D03*
Y2540000D03*
Y2286000D03*
Y2413000D03*
Y2159000D03*
Y2921000D03*
Y2667000D03*
Y3048000D03*
Y2794000D03*
X16345000Y4180000D03*
X16383000Y4064000D03*
Y4445000D03*
Y4318000D03*
X16110000Y4995000D03*
X16330010Y4955010D03*
X16383000Y4826000D03*
X15930000Y5290000D03*
X16383000Y5461000D03*
Y5334000D03*
Y5588000D03*
X16110000Y5855000D03*
X16330000Y5885000D03*
X16383000Y5969000D03*
Y6604000D03*
Y6731000D03*
Y8382000D03*
Y8509000D03*
Y8636000D03*
Y9017000D03*
Y9144000D03*
Y8763000D03*
Y8890000D03*
Y9271000D03*
Y9906000D03*
X16435000Y3110000D03*
Y3748410D03*
G54D12*
X462000Y1911000D03*
Y2411000D03*
G54D21*
X5674000Y340000D03*
X6182000D03*
X5928000D03*
X6690000D03*
X6436000D03*
X7788000D03*
X7534000D03*
X8296000D03*
X8042000D03*
X8334000Y3760000D03*
X8550000Y340000D03*
X8842000Y3760000D03*
X8588000D03*
X9350000D03*
X9096000D03*
X9648000Y340000D03*
X9394000D03*
X10156000D03*
X9902000D03*
X10410000D03*
X12331000Y5700000D03*
G54D30*
X12965000Y4680000D03*
X13215000Y4930000D03*
G54D22*
X5420000Y340000D03*
X7280000D03*
X8080000Y3760000D03*
X9140000Y340000D03*
X12585000Y5700000D03*
G54D13*
X340000Y3120000D03*
Y3374000D03*
G54D31*
X12855790Y5289210D03*
X12605790Y5039210D03*
X12785390Y4859610D03*
X13035390Y5109610D03*
G54D32*
G01X8233650Y3760000D02*
X8334000D01*
G01Y3634250D02*
Y3760000D01*
G01D02*
Y3885750D01*
G01Y3760000D02*
X8434350D01*
G01X11084000Y717650D02*
Y818000D01*
G01D02*
Y918350D01*
G01X10958250Y818000D02*
X11084000D01*
G01D02*
X11209750D01*
G01X13244250D02*
X13370000D01*
G01Y717650D02*
Y818000D01*
G01D02*
Y918350D01*
G01Y818000D02*
X13495750D01*
G01X13788250D02*
X13914000D01*
G01Y717650D02*
Y818000D01*
G01D02*
Y918350D01*
G01Y818000D02*
X14039750D01*
G01X15270000Y3999650D02*
Y4100000D01*
G01D02*
Y4200350D01*
G01X15144250Y4100000D02*
X15270000D01*
G01D02*
X15395750D01*
G01X16200000Y717650D02*
Y818000D01*
G01D02*
Y918350D01*
G01X16074250Y818000D02*
X16200000D01*
G01D02*
X16325750D01*
G54D23*
X6260000Y3220000D03*
X6610000D03*
X11084000Y2342000D03*
X13370000D03*
X13914000D03*
X15270000Y4100000D03*
X16200000Y2342000D03*
G54D14*
X630000Y4310000D03*
Y5460000D03*
Y6600000D03*
X1330000Y4310000D03*
Y5460000D03*
Y6600000D03*
G54D33*
G01X6400000Y4525000D02*
X6540000Y4665000D01*
X8040000D01*
X8490000Y5115000D01*
X9600000D01*
X9927500Y5442500D01*
X10177500D01*
G01X9940000Y5200000D02*
Y5105000D01*
X9800000Y4965000D01*
X8670000D01*
X8260000Y4555000D01*
X7595000D01*
X7405000Y4365000D01*
X7095000D01*
X6955000Y4505000D01*
X6645000D01*
G01X9285000Y3190000D02*
X9485000Y3390000D01*
Y3490000D01*
X9950000Y3955000D01*
X10940000D01*
X11465000Y4480000D01*
Y5405000D01*
X11855000Y5795000D01*
G01X14245000Y4075000D02*
X14210000Y4110000D01*
Y4395000D01*
X13735000Y4870000D01*
Y5445000D01*
X13410000Y5770000D01*
X12890000D01*
X12715000Y5945000D01*
X12490000D01*
X12445000Y5990000D01*
X12385000D01*
G01X14720000Y4075000D02*
X14245000D01*
G54D24*
X6260000Y3728000D03*
Y3474000D03*
X6610000Y3728000D03*
Y3474000D03*
X11084000Y564000D03*
Y818000D03*
Y1072000D03*
Y1326000D03*
Y1580000D03*
Y1834000D03*
Y2088000D03*
X13370000Y564000D03*
Y1072000D03*
Y818000D03*
Y1580000D03*
Y1326000D03*
Y2088000D03*
Y1834000D03*
X13914000Y564000D03*
Y818000D03*
Y1072000D03*
Y1326000D03*
Y1580000D03*
Y1834000D03*
Y2088000D03*
X15270000Y3846000D03*
X16200000Y564000D03*
Y1072000D03*
Y818000D03*
Y1580000D03*
Y1326000D03*
Y2088000D03*
Y1834000D03*
G54D15*
X609990Y8529990D03*
X660000Y8680000D03*
X1209990Y8529990D03*
X1009990D03*
X809990D03*
X909990Y8680000D03*
X1109990D03*
X1410010Y8529990D03*
X1360000Y8680000D03*
X2599990Y8529990D03*
X2399990D03*
X2450000Y8680000D03*
X2699990D03*
X3200010Y8529990D03*
X2999990D03*
X2799990D03*
X2899990Y8680000D03*
X3150000D03*
G54D34*
G01X165100Y9642090D02*
X86360D01*
X142790Y9606070D01*
Y9654750D01*
G54D16*
X352990Y8880000D03*
X1667010D03*
X2142990D03*
X3457010D03*
G54D25*
X5963990Y8993990D03*
X7414000D03*
G54D26*
X5963990Y9585000D03*
X7414000D03*
G54D17*
X3120000Y745010D03*
X3175010Y800000D03*
X3065000D03*
Y689990D03*
X3175010D03*
X3120000Y2035010D03*
X3175010Y2090000D03*
X3065000D03*
Y1979990D03*
X3175010D03*
X3120000Y3235010D03*
X3175010Y3290000D03*
X3065000D03*
Y3179990D03*
X3175010D03*
G54D27*
X8550000Y5310000D03*
G54D18*
X4128400Y6912000D03*
X4382400D03*
X5093600D03*
X5347600D03*
G54D19*
X3931550Y9261500D03*
X5544450D03*
G54D28*
X8804000Y5310000D03*
X9058000D03*
G54D29*
X11280000Y6305000D03*
Y9605000D03*
X16080000Y6305000D03*
Y9605000D03*
M02*
