G04 ================== begin FILE IDENTIFICATION RECORD ==================*
G04 Layout Name:  rpi-cm4-carrierboard-v1_00-0a.brd*
G04 Film Name:    rpi-cm4-carrierboard-v1_00-0a-BOTTOM*
G04 File Format:  Gerber RS274X*
G04 File Origin:  Cadence Allegro 22.1-S001*
G04 Origin Date:  Sun Dec 17 09:19:52 2023*
G04 *
G04 Layer:  ETCH/BOTTOM*
G04 Layer:  PIN/BOTTOM*
G04 Layer:  VIA CLASS/BOTTOM*
G04 *
G04 Offset:    (0.0000 0.0000)*
G04 Mirror:    No*
G04 Mode:      Positive*
G04 Rotation:  0*
G04 FullContactRelief:  No*
G04 UndefLineWidth:     0.0000*
G04 ================== end FILE IDENTIFICATION RECORD ====================*
%FSLAX35Y35*MOMM*%
%IR0*IPPOS*OFA0.00000B0.00000*MIA0B0*SFA1.00000B1.00000*%
%ADD18C,.4*%
%ADD13C,.8001*%
%ADD11C,.4064*%
%AMMACRO32*
21,1,1.778,.508,0.0,0.0,135.*
1,1,1.778,.179605,.179605*
1,1,1.778,-.179605,-.179605*%
%ADD32MACRO32*%
%AMMACRO31*
21,1,1.778,2.286,0.0,0.0,135.*%
%ADD31MACRO31*%
%ADD27O,1.5001X2.3*%
%ADD26O,1.5001X3.3*%
%ADD14C,2.*%
%ADD16C,1.1001*%
%ADD30C,6.*%
%ADD17C,2.7*%
%ADD10C,1.27*%
%ADD15C,1.524*%
%ADD21C,3.2512*%
%ADD12C,2.3622*%
%ADD19C,1.778*%
%ADD25O,2.286X1.778*%
%ADD29C,1.5748*%
%ADD22O,1.778X2.286*%
%ADD24R,2.286X1.778*%
%ADD23R,1.778X2.286*%
%ADD20C,1.9558*%
%ADD28R,1.5748X1.5748*%
%ADD33C,.2032*%
%ADD34C,.127*%
%ADD35C,.254*%
%ADD36C,.508*%
%ADD37C,.1905*%
%ADD41R,10.1504X5.0504*%
%ADD50C,.6608*%
%ADD43C,.9148*%
%ADD40R,2.6004X7.0004*%
%ADD39O,2.0324X2.5404*%
%ADD52C,2.0324*%
%ADD54C,4.7004*%
%ADD49C,2.0832*%
%ADD42R,6.4004X6.4004*%
%ADD47C,1.0546*%
%ADD46C,1.3086*%
%ADD48C,2.5084*%
%ADD45C,2.6166*%
%ADD53C,2.2864*%
%ADD51C,6.5084*%
%ADD44C,2.8706*%
%ADD55C,1.7784*%
%ADD38O,2.2864X2.7944*%
G75*
%LPD*%
G75*
G36*
G01X14357460Y6607460D02*
X14226770Y6738160D01*
Y7570000D01*
G03X14217460Y7592460I-31767J-8D01*
G01X13807460Y8002460D01*
G03X13785000Y8011770I-22468J-22457D01*
G01X10883160D01*
X10833700Y8061230D01*
G02X10835270Y8076880I7187J7183D01*
G03X10855740Y8115000I-25259J38120D01*
G03X10810000Y8160740I-45740J0D01*
G03X10771880Y8140270I0J-45729D01*
G02X10756230Y8138700I-8467J5617D01*
G01X10641770Y8253160D01*
Y8497090D01*
G03X10655740Y8530000I-31779J32910D01*
G03X10564260I-45740J0D01*
G01Y8529990D01*
G03X10564780Y8523120I45740J7D01*
G01X10565170Y8520580D01*
X10559760Y8515170D01*
X10545780Y8529150D01*
X10545720Y8531180D01*
G03X10500000Y8575740I-45720J-1175D01*
G03X10454260Y8530000I0J-45740D01*
G03X10498820Y8484280I45735J0D01*
G01X10500850Y8484220D01*
X10543230Y8441840D01*
Y8225000D01*
G03X10552540Y8202540I31767J8D01*
G01X10775960Y7979110D01*
G02X10768780Y7961770I-7187J-7180D01*
G01X10673160D01*
X10331770Y8303160D01*
Y8502090D01*
G03X10345740Y8535000I-31779J32910D01*
G03X10254260I-45740J0D01*
G03X10268230Y8502090I45749J0D01*
G01Y8318170D01*
G02X10250890Y8310980I-10160J-2D01*
G01X10220820Y8341050D01*
Y8585020D01*
G03X10205940Y8620940I-50823J-12D01*
G01X10154940Y8671940D01*
G03X10119020Y8686820I-35932J-35943D01*
G01X9740000D01*
G03X9652000Y8737620I-88000J-50820D01*
G03Y8534380I0J-101620D01*
G03X9740000Y8585180I0J101620D01*
G01X9800980D01*
G02X9808070Y8567750I-7J-10160D01*
G03X9794260Y8535000I31928J-32750D01*
G03X9838820Y8489280I45735J0D01*
G01X9840850Y8489220D01*
X9888230Y8441840D01*
Y8190000D01*
G03X9897540Y8167540I31767J8D01*
G01X10232540Y7832540D01*
G03X10255000Y7823230I22468J22457D01*
G01X13684690D01*
X13908230Y7599690D01*
Y7083160D01*
X13857540Y7032460D01*
G03X13848230Y7010000I22457J-22468D01*
G01Y6650000D01*
G03X13857540Y6627540I31767J8D01*
G01X13983230Y6501840D01*
Y6373160D01*
X13924930Y6314860D01*
X13921430Y6317330D01*
G03X13896180Y6325720I-26424J-37333D01*
G01X13894150Y6325780D01*
X13842460Y6377460D01*
G03X13820000Y6386770I-22468J-22457D01*
G01X13695000D01*
G03X13672540Y6377460I8J-31767D01*
G01X13617540Y6322460D01*
G03X13608230Y6300000I22457J-22468D01*
G01Y6131220D01*
G02X13590890Y6124040I-10160J7D01*
G01X13566770Y6148160D01*
Y6290000D01*
G03X13557460Y6312460I-31767J-8D01*
G01X13466770Y6403160D01*
Y6605000D01*
G03X13457460Y6627460I-31767J-8D01*
G01X13291770Y6793160D01*
Y7013470D01*
G03X13361620Y7110000I-31775J96530D01*
G03X13158380I-101620J0D01*
G03X13228230Y7013470I101625J0D01*
G01Y6831220D01*
G02X13210890Y6824040I-10160J7D01*
G01X13049270Y6985660D01*
Y7015470D01*
G03X13119120Y7112000I-31775J96530D01*
G03X12915880I-101620J0D01*
G03X12985730Y7015470I101625J0D01*
G01Y6972500D01*
G03X12995040Y6950040I31767J8D01*
G01X13373230Y6571840D01*
Y6388160D01*
X13359110Y6374040D01*
G02X13341770Y6381220I-7180J7187D01*
G01Y6470000D01*
G03X13332460Y6492460I-31767J-8D01*
G01X13320780Y6504150D01*
X13320720Y6506180D01*
G03X13275000Y6550740I-45720J-1175D01*
G03X13229260Y6505000I0J-45740D01*
G03X13273340Y6459290I45740J0D01*
G01X13278230Y6454220D01*
Y6298160D01*
G02X13268520Y6288010I-10159J-1D01*
G03X13243230Y6274370I1480J-33009D01*
G02X13226770I-8230J5952D01*
G03X13200000Y6288040I-26770J-19377D01*
G03X13173020Y6274070I0J-33038D01*
G01X13067900D01*
X12888480Y6453480D01*
G03X12875000Y6459070I-13488J-13477D01*
G01X11922900D01*
X11638480Y6743480D01*
G03X11625000Y6749070I-13488J-13477D01*
G01X11010000D01*
G03X10996520Y6743480I8J-19067D01*
G01X10886520Y6633480D01*
G03X10880930Y6620000I13477J-13488D01*
G01Y6589670D01*
G02X10864710Y6581520I-10159J3D01*
G03X10845000Y6588040I-19710J-26532D01*
G03X10811960Y6555000I0J-33040D01*
G03X10812120Y6551720I33042J-32D01*
G01X10812360Y6549330D01*
X10786520Y6523480D01*
G03X10780930Y6510000I13477J-13488D01*
G01Y6110000D01*
G03X10786520Y6096520I19067J8D01*
G01X10966520Y5916520D01*
G03X10980000Y5910930I13488J13477D01*
G01X11131220D01*
G02X11138400Y5893590I-7J-10160D01*
G01X11127540Y5882720D01*
G03X11118260Y5861530I22461J-22464D01*
G03X11048380Y5765000I31732J-96530D01*
G01Y5764970D01*
G03X11051780Y5738920I101622J17D01*
G02X11034780Y5729130I-9819J-2605D01*
G01X11006950Y5756950D01*
G03X10980000Y5768120I-26958J-26947D01*
G01X10940790D01*
X10908120Y5800790D01*
Y5859720D01*
G03X10915740Y5885000I-38124J25280D01*
G03X10824260I-45740J0D01*
G03X10831880Y5859720I45744J0D01*
G01Y5785000D01*
G03X10843050Y5758050I38117J8D01*
G01X10898050Y5703050D01*
G03X10925000Y5691880I26958J26947D01*
G01X10964210D01*
X10985850Y5670240D01*
G02X10977540Y5652960I-7186J-7182D01*
G03X10972500Y5653240I-5053J-45459D01*
G03X11018240Y5607500I0J-45740D01*
G03X11017960Y5612540I-45739J-13D01*
G02X11035240Y5620850I10098J1124D01*
G01X11053050Y5603050D01*
G03X11080000Y5591880I26958J26947D01*
G01X11225000D01*
G03X11251950Y5603050I-8J38117D01*
G01X11346950Y5698050D01*
G03X11358120Y5725000I-26947J26958D01*
G01Y5769210D01*
X11430790Y5841880D01*
X11450270D01*
Y5833430D01*
X11447170Y5832120D01*
G03X11419260Y5790000I17827J-42120D01*
G03X11510740I45740J0D01*
G03X11495440Y5824140I-45740J0D01*
G02X11502200Y5841880I6765J7580D01*
G01X11528490D01*
G02X11537850Y5827770I1J-10159D01*
G03X11534260Y5810010I42151J-17763D01*
G01Y5810000D01*
G03X11580000Y5764260I45740J0D01*
G03X11612910Y5778230I0J45749D01*
G01X11775000D01*
G03X11795320Y5785580I0J31764D01*
G02X11811490Y5780900I6502J-7808D01*
G03X11855000Y5749260I43510J14097D01*
G03X11900740Y5795000I0J45740D01*
G01Y5795010D01*
G03X11896420Y5814410I-45741J-5D01*
G02X11904650Y5828840I9196J4317D01*
G03X11996620Y5930000I-9649J101160D01*
G03X11793380I-101620J0D01*
G03X11802750Y5887380I101615J0D01*
G01X11804230Y5884160D01*
X11761840Y5841770D01*
X11655210D01*
G02X11648020Y5859110I-2J10160D01*
G01X11830790Y6041880D01*
X12085900D01*
G02X12094820Y6026860I-1J-10159D01*
G03X12089260Y6005000I40193J-21860D01*
G03X12103230Y5972090I45749J0D01*
G01Y5592890D01*
G02X12089790Y5583280I-10161J7D01*
G03X12075000Y5585740I-14798J-43279D01*
G03Y5494260I0J-45740D01*
G03X12089790Y5496720I-8J45739D01*
G02X12103230Y5487110I3279J-9617D01*
G01Y5437910D01*
G03X12089260Y5405000I31779J-32910D01*
G03X12089740Y5398400I45739J9D01*
G02X12079690Y5386770I-10053J-1470D01*
G01X12029590D01*
G02X12021270Y5402750I6J10159D01*
G03X12039620Y5461000I-83279J58250D01*
G03X11938000Y5562620I-101620J0D01*
G03X11841470Y5492770I0J-101625D01*
G01X11781000D01*
G03X11758540Y5483460I8J-31767D01*
G01X11745370Y5470300D01*
X11744290Y5469910D01*
G03X11732540Y5462460I10722J-29902D01*
G01X11685630Y5415560D01*
X11683930Y5415340D01*
G03X11644260Y5370000I6075J-45340D01*
G03X11690000Y5324260I45740J0D01*
G03X11728320Y5345030I0J45735D01*
G02X11744680Y5345940I8514J-5546D01*
G03X11746080Y5344320I35297J29088D01*
G02Y5330680I-7535J-6820D01*
G03X11734260Y5300000I33907J-30680D01*
G03X11747950Y5267370I45732J0D01*
G02X11748010Y5252940I-7124J-7245D01*
G01X11682540Y5187460D01*
G03X11673230Y5165000I22457J-22468D01*
G01Y5023160D01*
X11369110Y4719040D01*
G02X11351770Y4726220I-7180J7187D01*
G01Y4771610D01*
G03X11365740Y4804520I-31779J32910D01*
G03X11274260I-45740J0D01*
G03X11288230Y4771610I45749J0D01*
G01Y4703160D01*
X11206840Y4621770D01*
X10545630D01*
G02X10539160Y4639760I3J10160D01*
G03X10555740Y4675000I-29160J35240D01*
G03X10464260I-45740J0D01*
G03X10480840Y4639760I45740J0D01*
G02X10474370Y4621770I-6473J-7830D01*
G01X9758190D01*
X9755800Y4624150D01*
X9755710Y4626660D01*
G03X9710000Y4670740I-45710J-1660D01*
G03X9664260Y4625000I0J-45740D01*
G03X9671920Y4599660I45744J0D01*
G01X9672770Y4596850D01*
G02X9667690Y4591770I-5080J0D01*
G01X9659350D01*
X9658150Y4595170D01*
G03X9615000Y4625740I-43150J-15168D01*
G03X9569260Y4580000I0J-45740D01*
G03X9569740Y4573400I45739J9D01*
G02X9559690Y4561770I-10053J-1470D01*
G01X9513160D01*
X9481770Y4593160D01*
Y4727090D01*
G03X9495740Y4760000I-31779J32910D01*
G03X9404260I-45740J0D01*
G03X9418230Y4727090I45749J0D01*
G01Y4580000D01*
G03X9427540Y4557540I31767J8D01*
G01X9477540Y4507540D01*
G03X9479800Y4505480I22505J22421D01*
G02X9480520Y4490450I-6460J-7842D01*
G01X9355850Y4365780D01*
X9353820Y4365720D01*
G03X9309260Y4320000I1175J-45720D01*
G03X9355000Y4274260I45740J0D01*
G03X9400720Y4318820I0J45735D01*
G01X9400780Y4320850D01*
X9548160Y4468230D01*
X10028780D01*
G02X10035960Y4450890I-7J-10160D01*
G01X10025850Y4440780D01*
X10023820Y4440720D01*
G03X9979260Y4395000I1175J-45720D01*
G03X10025000Y4349260I45740J0D01*
G03X10056340Y4361680I0J45751D01*
G02X10071790Y4359860I6960J-7400D01*
G03X10110000Y4339260I38210J25137D01*
G03X10155740Y4385000I0J45740D01*
G03X10146880Y4412060I-45753J0D01*
G02X10155070Y4428230I8190J6011D01*
G01X10481840D01*
X10599220Y4310850D01*
X10599280Y4308820D01*
G03X10645000Y4264260I45720J1175D01*
G03X10690740Y4310000I0J45740D01*
G03X10646180Y4355720I-45735J0D01*
G01X10644150Y4355780D01*
X10549040Y4450890D01*
G02X10556220Y4468230I7187J7180D01*
G01X11300000D01*
G03X11322460Y4477540I-8J31767D01*
G01X11661410Y4816480D01*
X11808250D01*
G03X11830710Y4825790I-8J31767D01*
G01X12168160Y5163230D01*
X12540000D01*
G03X12562460Y5172540I-8J31767D01*
G01X12744630Y5354700D01*
X12745710Y5355090D01*
G03X12757460Y5362540I-10722J29902D01*
G01X12833160Y5438230D01*
X13166840D01*
X13207540Y5397540D01*
G03X13230000Y5388230I22468J22457D01*
G01X13366840D01*
X13684230Y5070840D01*
Y5049530D01*
G03X13614380Y4953000I31775J-96530D01*
G03X13716000Y4851380I101620J0D01*
G03X13802770Y4900110I0J101618D01*
G02X13816970Y4903340I8671J-5292D01*
G03X13834240Y4898230I17280J26663D01*
G01X13857090D01*
G03X13864730Y4891880I32883J31793D01*
G02X13866300Y4876230I-5617J-8467D01*
G01X13126840Y4136770D01*
X12790000D01*
G03X12767540Y4127460I8J-31767D01*
G01X12585270Y3945200D01*
G02X12567930Y3952350I-7181J7187D01*
G03X12522190Y3997930I-45740J-160D01*
G03X12476450Y3952190I0J-45740D01*
G03X12522030Y3906450I45740J0D01*
G02X12529180Y3889110I-37J-10159D01*
G01X12481840Y3841770D01*
X12340000D01*
G03X12317540Y3832460I8J-31767D01*
G01X12261840Y3776770D01*
X11966220D01*
G02X11959040Y3794110I7J10160D01*
G01X12232460Y4067540D01*
G03X12241770Y4090000I-22457J22468D01*
G01Y4351840D01*
X12431230Y4541300D01*
G02X12446880Y4539730I7183J-7187D01*
G03X12485000Y4519260I38120J25259D01*
G03X12530740Y4565000I0J45740D01*
G03X12510270Y4603120I-45729J0D01*
G02X12508700Y4618770I5617J8467D01*
G01X12542460Y4652540D01*
G03X12551770Y4675000I-22457J22468D01*
G01Y4771840D01*
X12635970Y4856050D01*
G02X12653300Y4848270I7186J-7185D01*
G03X12848270Y4760810I114130J-6624D01*
G01X12884190Y4796730D01*
G03X12796730Y4991700I-80836J80840D01*
G02X12788950Y5009030I-595J10144D01*
G01X12814150Y5034220D01*
X12816180Y5034280D01*
G03X12860740Y5080000I-1175J45720D01*
G03X12815000Y5125740I-45740J0D01*
G03X12769280Y5081180I0J-45735D01*
G01X12769220Y5079150D01*
X12742680Y5052610D01*
G02X12725340Y5059560I-7182J7187D01*
G03X12551890Y5129030I-101593J-2387D01*
G01X12515970Y5093110D01*
G03X12585440Y4919660I71857J-71857D01*
G02X12592390Y4902320I-237J-10158D01*
G01X12497540Y4807460D01*
G03X12488230Y4785000I22457J-22468D01*
G01Y4766170D01*
X12479500D01*
X12478340Y4769630D01*
G03X12435000Y4800740I-43340J-14634D01*
G03X12389280Y4756180I0J-45735D01*
G01X12389220Y4754150D01*
X12380680Y4745610D01*
G02X12364680Y4747740I-7185J7185D01*
G03X12325000Y4770740I-39680J-22728D01*
G03X12279260Y4725000I0J-45740D01*
G03X12302260Y4685320I45728J0D01*
G02X12304390Y4669320I-5055J-8815D01*
G01X12286840Y4651770D01*
X11950000D01*
G03X11927540Y4642460I8J-31767D01*
G01X11361840Y4076770D01*
X10599800D01*
G02X10589650Y4086580I5J10161D01*
G03X10498230I-45710J-1577D01*
G02X10488080Y4076770I-10155J351D01*
G01X9076770D01*
Y4118470D01*
G03X9146620Y4215000I-31775J96530D01*
G03X8943380I-101620J0D01*
G03X9013230Y4118470I101625J0D01*
G01Y4082090D01*
G03X8994260Y4045000I26774J-37090D01*
G03X8994330Y4042490I45739J20D01*
G02X8984190Y4031770I-10145J-560D01*
G01X7995000D01*
G03X7972540Y4022460I8J-31767D01*
G01X7913770Y3963700D01*
G02X7898120Y3965270I-7183J7187D01*
G03X7891770Y3972910I-38142J-25243D01*
G01Y4784220D01*
X7896660Y4789290D01*
G03X7940740Y4835000I-1660J45710D01*
G03X7895000Y4880740I-45740J0D01*
G03X7849280Y4836180I0J-45735D01*
G01X7849220Y4834150D01*
X7837540Y4822460D01*
G03X7828230Y4800000I22457J-22468D01*
G01Y3972910D01*
G03X7814450Y3944190I31769J-32909D01*
G02X7802640Y3935100I-10116J926D01*
G03X7795030Y3935740I-7625J-45101D01*
G01X7795000D01*
G03X7749260Y3890000I0J-45740D01*
G03X7749740Y3883400I45739J9D01*
G02X7739690Y3871770I-10053J-1470D01*
G01X7690000D01*
G03X7667540Y3862460I8J-31767D01*
G01X7597540Y3792460D01*
G03X7588230Y3770000I22457J-22468D01*
G01Y3663160D01*
X7557860Y3632790D01*
G02X7540550Y3640880I-7190J7180D01*
G03X7540740Y3645000I-45548J4165D01*
G03X7518270Y3684380I-45743J0D01*
G02X7516260Y3700310I5171J8744D01*
G01X7575420Y3759470D01*
Y4364040D01*
X7579950Y4364530D01*
G03Y4455470I-4948J45470D01*
G01X7575420Y4455960D01*
Y4469810D01*
X7578360Y4471180D01*
G03X7587460Y4477540I-13368J28817D01*
G01X7702460Y4592540D01*
G03X7711770Y4615000I-22457J22468D01*
G01Y4791840D01*
X7848160Y4928230D01*
X9125000D01*
G03X9147460Y4937540I-8J31767D01*
G01X9278160Y5068230D01*
X9480000D01*
G03X9502460Y5077540I-8J31767D01*
G01X9647460Y5222540D01*
G03X9656770Y5245000I-22457J22468D01*
G01Y5342090D01*
G03X9670740Y5375000I-31779J32910D01*
G03X9579260I-45740J0D01*
G03X9593230Y5342090I45749J0D01*
G01Y5258160D01*
X9466840Y5131770D01*
X9265000D01*
G03X9242540Y5122460I8J-31767D01*
G01X9111840Y4991770D01*
X8040930D01*
G02X8033490Y5008850I0J10161D01*
G03X8045740Y5040000I-33480J31150D01*
G03X8031770Y5072910I-45749J0D01*
G01Y5103810D01*
X8031910Y5104390D01*
G03X8032740Y5110470I-30915J7317D01*
G03X8102620Y5207000I-31732J96530D01*
G03X7899380I-101620J0D01*
G03X7968230Y5110810I101618J0D01*
G01Y5072910D01*
G03X7954260Y5040000I31779J-32910D01*
G03X7966510Y5008850I45730J0D01*
G02X7959070Y4991770I-7440J-6919D01*
G01X7835000D01*
G03X7812540Y4982460I8J-31767D01*
G01X7657540Y4827460D01*
G03X7648230Y4805000I22457J-22468D01*
G01Y4628160D01*
X7592760Y4572690D01*
G02X7575420Y4579870I-7180J7187D01*
G01Y5450530D01*
X7455420Y5570530D01*
Y6229470D01*
X7755420Y6529470D01*
Y7919470D01*
X7940530Y8104580D01*
X8310530D01*
X8395420Y8189470D01*
Y8390530D01*
X8310530Y8475420D01*
X7459470D01*
X7368660Y8384610D01*
G02X7352120Y8387840I-7182J7187D01*
G03X7310000Y8415750I-42120J-17827D01*
G03X7264260Y8370010I0J-45740D01*
G03X7292170Y8327890I45737J0D01*
G02X7295400Y8311350I-3957J-9358D01*
G01X7204580Y8220530D01*
Y6690530D01*
X6894580Y6380530D01*
Y6050530D01*
X6759470Y5915420D01*
X6275560D01*
G02X6265500Y5926940I6J10158D01*
G03X6266140Y5936500I-70503J9521D01*
G03X6258660Y5968250I-71139J-4D01*
G03X6266140Y6000000I-63659J31754D01*
G03X6123860I-71140J0D01*
G03X6131340Y5968250I71139J4D01*
G03X6123860Y5936500I63659J-31754D01*
G03X6124500Y5926940I71143J-39D01*
G02X6114440Y5915420I-10066J-1362D01*
G01X6109470D01*
X6004580Y5810530D01*
Y5529470D01*
X6099470Y5434580D01*
X6249470D01*
X6384580Y5299470D01*
Y4618860D01*
G02X6367240Y4611670I-10160J-2D01*
G01X6337620Y4641280D01*
G03X6323640Y4650180I-26971J-26936D01*
G02X6317630Y4663410I3457J9550D01*
G03X6320740Y4679980I-42632J16578D01*
G01Y4680000D01*
G03X6283400Y4724960I-45738J0D01*
G02X6278080Y4742130I1866J9987D01*
G01X6345420Y4809470D01*
Y4960530D01*
X6290530Y5015420D01*
X5989470D01*
X5934580Y4960530D01*
Y4350530D01*
X5829470Y4245420D01*
X5409470D01*
X5039470Y3875420D01*
X4210820D01*
Y3899300D01*
G03X4266620Y3990000I-45814J90700D01*
G03X4063380I-101620J0D01*
G03X4109180Y3905080I101627J0D01*
G01Y3875420D01*
X3979470D01*
X3894580Y3790530D01*
Y3679470D01*
X3946690Y3627360D01*
G02X3939510Y3610020I-7187J-7180D01*
G01X3699980D01*
Y2909980D01*
X3960020D01*
Y3589510D01*
G02X3977360Y3596690I10160J-7D01*
G01X3979470Y3594580D01*
X5014110D01*
G02X5021290Y3577240I-7J-10160D01*
G01X5004580Y3560530D01*
Y1550530D01*
X4879470Y1425420D01*
X4009470D01*
X3899870Y1315820D01*
X3825350D01*
X3820240Y1320940D01*
G03X3784320Y1335820I-35932J-35943D01*
G01X3758000D01*
G03X3670000Y1386620I-88000J-50820D01*
G03Y1183380I0J-101620D01*
G03X3756560Y1231760I0J101625D01*
G01X3758050Y1234180D01*
X3763250D01*
X3768360Y1229060D01*
G03X3804280Y1214180I35932J35943D01*
G01X3904580D01*
Y1089470D01*
X3906690Y1087360D01*
G02X3899510Y1070020I-7187J-7180D01*
G01X3699980D01*
Y369980D01*
X3960020D01*
Y1009510D01*
G02X3977360Y1016690I10160J-7D01*
G01X4019470Y974580D01*
X4270310D01*
X4271440Y971050D01*
G03X4358560I43560J13949D01*
G01X4359690Y974580D01*
X5340530D01*
X5665420Y1299470D01*
Y2599470D01*
X5960530Y2894580D01*
X6710530D01*
X7159020Y3343080D01*
G02X7175990Y3338660I7189J-7184D01*
G03X7220000Y3305360I44010J12432D01*
G03X7265740Y3351100I0J45740D01*
G03X7232440Y3395110I-45732J0D01*
G02X7228020Y3412080I2764J9781D01*
G01X7325270Y3509320D01*
X7511090D01*
G03X7533550Y3518630I-8J31767D01*
G01X7642460Y3627540D01*
G03X7651770Y3650000I-22457J22468D01*
G01Y3756840D01*
X7703160Y3808230D01*
X7788780D01*
G02X7795960Y3790890I-7J-10160D01*
G01X7772930Y3767860D01*
X7747910D01*
G03X7715000Y3781830I-32910J-31779D01*
G03Y3690350I0J-45740D01*
G03X7747910Y3704320I0J45749D01*
G01X7786090D01*
G03X7808550Y3713630I-8J31767D01*
G01X7948340Y3853410D01*
G02X7965680Y3846230I7180J-7187D01*
G01Y3645700D01*
G03X7991100Y3620280I25420J0D01*
G01X8168900D01*
G03X8194320Y3645700I0J25420D01*
G01Y3874300D01*
G03X8168900Y3899720I-25420J0D01*
G01X8019170D01*
G02X8011990Y3917060I7J10160D01*
G01X8028160Y3933230D01*
X9704070D01*
G02X9711510Y3916150I0J-10161D01*
G03X9699260Y3885000I33480J-31150D01*
G03X9790740I45740J0D01*
G03X9778490Y3916150I-45730J0D01*
G02X9785930Y3933230I7440J6919D01*
G01X11385000D01*
G03X11407460Y3942540I-8J31767D01*
G01X11623160Y4158230D01*
X11872090D01*
G03X11905000Y4144260I32910J31779D01*
G03Y4235740I0J45740D01*
G03X11872090Y4221770I0J-45749D01*
G01X11844350D01*
G02X11834470Y4234310I-2J10161D01*
G03X11835740Y4245000I-44468J10703D01*
G03X11790000Y4290740I-45740J0D01*
G03X11757090Y4276770I0J-45749D01*
G01X11676220D01*
G02X11669040Y4294110I7J10160D01*
G01X11963160Y4588230D01*
X12300000D01*
G03X12322460Y4597540I-8J31767D01*
G01X12349320Y4624390D01*
G02X12365320Y4622260I7185J-7185D01*
G03X12384930Y4603900I39686J22736D01*
G02X12387660Y4587590I-4458J-9130D01*
G01X12187540Y4387460D01*
G03X12178230Y4365000I22457J-22468D01*
G01Y4103160D01*
X12141180Y4066110D01*
G02X12124520Y4069640I-7181J7185D01*
G03X12081850Y4098900I-42670J-16483D01*
G03X12036110Y4053160I0J-45740D01*
G03X12045010Y4026050I45739J0D01*
G01X12047600Y4022530D01*
X11929110Y3904040D01*
G02X11911770Y3911220I-7180J7187D01*
G01Y4012090D01*
G03X11925740Y4045000I-31779J32910D01*
G03X11834260I-45740J0D01*
G03X11848230Y4012090I45749J0D01*
G01Y3873160D01*
X11809110Y3834040D01*
G02X11791770Y3841220I-7180J7187D01*
G01Y3902090D01*
G03X11805740Y3935000I-31779J32910D01*
G03X11714260I-45740J0D01*
G03X11728230Y3902090I45749J0D01*
G01Y3798160D01*
X11719110Y3789040D01*
G02X11701770Y3796220I-7180J7187D01*
G01Y3977090D01*
G03X11715740Y4010000I-31779J32910D01*
G03X11624260I-45740J0D01*
G03X11638230Y3977090I45749J0D01*
G01Y3845930D01*
G02X11621150Y3838490I-10161J0D01*
G03X11590000Y3850740I-31150J-33480D01*
G03X11558500Y3838170I0J-45754D01*
G01X11557030Y3836770D01*
X11545070D01*
G02X11536880Y3852940I0J10159D01*
G03X11545740Y3880000I-36893J27060D01*
G03X11500000Y3925740I-45740J0D01*
G03X11454280Y3881180I0J-45735D01*
G01X11454220Y3879150D01*
X11183180Y3608110D01*
G02X11167180Y3610240I-7185J7185D01*
G03X11127500Y3633240I-39680J-22728D01*
G03X11081760Y3587500I0J-45740D01*
G03X11104760Y3547820I45728J0D01*
G02X11106890Y3531820I-5055J-8815D01*
G01X11007540Y3432460D01*
G03X10998230Y3410000I22457J-22468D01*
G01Y3218160D01*
X10776840Y2996770D01*
X9863160D01*
X9842460Y3017460D01*
G03X9820000Y3026770I-22468J-22457D01*
G01X9725000D01*
G03X9702540Y3017460I8J-31767D01*
G01X9675850Y2990780D01*
X9673820Y2990720D01*
G03X9629260Y2945000I1175J-45720D01*
G03X9675000Y2899260I45740J0D01*
G03X9720720Y2943820I0J45735D01*
G01X9720780Y2945850D01*
X9734760Y2959830D01*
X9740170Y2954420D01*
X9739780Y2951880D01*
G03X9739260Y2945010I45220J-6877D01*
G01Y2945000D01*
G03X9785000Y2899260I45740J0D01*
G01X9785020D01*
G03X9814610Y2910130I-12J45743D01*
G03X9834380Y2903230I19770J24873D01*
G01X10193780D01*
G02X10200960Y2885890I-7J-10160D01*
G01X10070850Y2755780D01*
X10068820Y2755720D01*
G03X10024260Y2710000I1175J-45720D01*
G03X10070000Y2664260I45740J0D01*
G03X10115720Y2708820I0J45735D01*
G01X10115780Y2710850D01*
X10278160Y2873230D01*
X10308780D01*
G02X10315960Y2855890I-7J-10160D01*
G01X10210850Y2750780D01*
X10208820Y2750720D01*
G03X10164260Y2705000I1175J-45720D01*
G03X10210000Y2659260I45740J0D01*
G03X10255720Y2703820I0J45735D01*
G01X10255780Y2705850D01*
X10388160Y2838230D01*
X10518780D01*
G02X10525960Y2820890I-7J-10160D01*
G01X10412540Y2707460D01*
G03X10403230Y2685000I22457J-22468D01*
G01Y2438160D01*
X10312540Y2347460D01*
G03X10303230Y2325000I22457J-22468D01*
G01Y2267910D01*
G03X10289260Y2235000I31779J-32910D01*
G03X10380740I45740J0D01*
G03X10366770Y2267910I-45749J0D01*
G01Y2311840D01*
X10457460Y2402540D01*
G03X10466770Y2425000I-22457J22468D01*
G01Y2671840D01*
X10476980Y2682050D01*
G02X10494320Y2674870I7180J-7187D01*
G01Y2267910D01*
G03X10480350Y2235000I31779J-32910D01*
G03X10571830I45740J0D01*
G03X10557860Y2267910I-45749J0D01*
G01Y2490020D01*
G02X10577110Y2494560I10161J-3D01*
G03X10668000Y2438380I90890J45433D01*
G03X10769620Y2540000I0J101620D01*
G03X10760250Y2582620I-101615J0D01*
G01X10758770Y2585840D01*
X10816160Y2643230D01*
X10902090D01*
G03X10935000Y2629260I32910J31779D01*
G03Y2720740I0J45740D01*
G03X10902090Y2706770I0J-45749D01*
G01X10803000D01*
G03X10780540Y2697460I8J-31767D01*
G01X10713790Y2630720D01*
G03X10668000Y2641620I-45790J-90730D01*
G03X10577110Y2585440I0J-101613D01*
G02X10557860Y2589980I-9089J4543D01*
G01Y2707930D01*
X10623160Y2773230D01*
X10875000D01*
G03X10897460Y2782540I-8J31767D01*
G01X11097590Y2982660D01*
G02X11113900Y2979930I7180J-7188D01*
G03X11155000Y2954260I41100J20067D01*
G03X11200740Y3000000I0J45740D01*
G03X11175070Y3041100I-45737J0D01*
G02X11172340Y3057410I4458J9130D01*
G01X11259700Y3144770D01*
G02X11276540Y3140750I7185J-7185D01*
G03X11320000Y3109260I43460J14245D01*
G03X11352910Y3123230I0J45749D01*
G01X11411840D01*
X11661720Y2873350D01*
X11661780Y2871320D01*
G03X11707500Y2826760I45720J1175D01*
G03X11716150Y2827590I-24J45738D01*
G02X11728230Y2817610I1919J-9978D01*
G01Y2788160D01*
X11641840Y2701770D01*
X11590000D01*
G03X11567540Y2692460I8J-31767D01*
G01X11517860Y2642790D01*
G02X11500560Y2649070I-7181J7186D01*
G03X11455000Y2690740I-45560J-4072D01*
G03X11409260Y2645000I0J-45740D01*
G03X11450930Y2599440I45742J0D01*
G02X11457210Y2582140I-906J-10119D01*
G01X11248840Y2373770D01*
X11223720D01*
Y2430900D01*
G03X11198300Y2456320I-25420J0D01*
G01X10969700D01*
G03X10944280Y2430900I0J-25420D01*
G01Y2253100D01*
G03X10969700Y2227680I25420J0D01*
G01X11198300D01*
G03X11223720Y2253100I0J25420D01*
G01Y2310230D01*
X11262000D01*
G03X11284460Y2319540I-8J31767D01*
G01X11584420Y2619490D01*
G02X11601760Y2612340I7181J-7187D01*
G03X11639400Y2567480I45741J158D01*
G01X11643580Y2566730D01*
Y2225210D01*
G02X11625530Y2218810I-10159J-2D01*
G03X11590000Y2235740I-35530J-28817D01*
G03Y2144260I0J-45740D01*
G03X11625530Y2161190I0J45747D01*
G02X11643580Y2154790I7891J-6398D01*
G01Y1524650D01*
G03X11652890Y1502190I31767J8D01*
G01X11887540Y1267540D01*
G03X11910000Y1258230I22468J22457D01*
G01X12631830D01*
X12648640Y1241420D01*
G02X12643920Y1224380I-7183J-7184D01*
G03X12609260Y1180000I11083J-44380D01*
G03X12655000Y1134260I45740J0D01*
G03X12699450Y1169230I0J45735D01*
G02X12715550Y1174870I9875J-2390D01*
G03X12734990Y1168230I19440J25137D01*
G01X13254670D01*
G02X13262010Y1151050I-1J-10158D01*
G03X13230280Y1072010I82592J-79045D01*
G01Y1072000D01*
G03X13344600Y957680I114320J0D01*
G01X13395400D01*
G03X13509720Y1072000I0J114320D01*
G01Y1072010D01*
G03X13477990Y1151050I-114322J-5D01*
G02X13485330Y1168230I7341J7022D01*
G01X13798670D01*
G02X13806010Y1151050I-1J-10158D01*
G03X13774280Y1072010I82592J-79045D01*
G01Y1072000D01*
G03X13888600Y957680I114320J0D01*
G01X13939400D01*
G03X14053720Y1072000I0J114320D01*
G03X14015750Y1157080I-114318J-6D01*
G02X14017080Y1173210I6789J7560D01*
G03X14022460Y1177540I-17110J26766D01*
G01X14393160Y1548230D01*
X16064780D01*
G03X16174600Y1465680I109820J31774D01*
G01X16225400D01*
G03Y1694320I0J114320D01*
G01X16174600D01*
G03X16064780Y1611770I0J-114324D01*
G01X14380000D01*
G03X14357540Y1602460I8J-31767D01*
G01X14071030Y1315960D01*
G02X14053690Y1323380I-7183J7185D01*
G03X14053720Y1326000I-114290J2619D01*
G03X13939400Y1440320I-114320J0D01*
G01X13888600D01*
G03X13774280Y1326000I0J-114320D01*
G03X13804290Y1248790I114328J0D01*
G02X13796800Y1231770I-7492J-6861D01*
G01X13487200D01*
G02X13479710Y1248790I2J10159D01*
G03X13509720Y1326000I-84318J77210D01*
G03X13395400Y1440320I-114320J0D01*
G01X13344600D01*
G03X13230280Y1326000I0J-114320D01*
G03X13260290Y1248790I114328J0D01*
G02X13252800Y1231770I-7492J-6861D01*
G01X12748150D01*
X12667450Y1312460D01*
G03X12644990Y1321770I-22468J-22457D01*
G01X11923160D01*
X11707120Y1537810D01*
Y2584650D01*
G03X11697810Y2607110I-31767J-8D01*
G01X11693280Y2611650D01*
X11693220Y2613680D01*
G03X11680780Y2643880I-45724J-1172D01*
G01X11677400Y2647470D01*
X11782460Y2752540D01*
G03X11791770Y2775000I-22457J22468D01*
G01Y2906760D01*
X11795920Y2907540D01*
G03X11833240Y2952500I-8422J44960D01*
G03X11787500Y2998240I-45740J0D01*
G03X11747820Y2975240I0J-45728D01*
G02X11731820Y2973110I-8815J5055D01*
G01X11478230Y3226700D01*
Y3313300D01*
X11864700Y3699770D01*
G02X11881540Y3695750I7185J-7185D01*
G03X11925000Y3664260I43460J14245D01*
G03X11970710Y3708340I0J45740D01*
G01X11970800Y3710850D01*
X11973190Y3713230D01*
X11992110D01*
G02X12001720Y3699790I-7J-10161D01*
G03X11999260Y3685000I43279J-14798D01*
G03X12045000Y3639260I45740J0D01*
G03X12077910Y3653230I0J45749D01*
G01X12443780D01*
G02X12450960Y3635890I-7J-10160D01*
G01X12412540Y3597460D01*
G03X12403230Y3575000I22457J-22468D01*
G01Y3495000D01*
G03X12403720Y3489450I31769J8D01*
G02X12390310Y3478100I-10004J-1777D01*
G03X12375000Y3480740I-15314J-43099D01*
G03X12420740Y3435000I0J-45740D01*
G03X12420550Y3439120I-45738J-45D01*
G02X12437860Y3447210I10120J910D01*
G01X12454220Y3430850D01*
X12454280Y3428820D01*
G03X12500000Y3384260I45720J1175D01*
G03X12545740Y3430000I0J45740D01*
G03X12501180Y3475720I-45735J0D01*
G01X12499150Y3475780D01*
X12487790Y3487140D01*
G02X12495880Y3504450I7180J7190D01*
G03X12500000Y3504260I4165J45548D01*
G03X12532910Y3518230I0J45749D01*
G01X12625000D01*
G03X12647460Y3527540I-8J31767D01*
G01X12863160Y3743230D01*
X14150000D01*
G03X14172460Y3752540I-8J31767D01*
G01X14678160Y4258230D01*
X15382090D01*
G03X15415000Y4244260I32910J31779D01*
G03Y4335740I0J45740D01*
G03X15382090Y4321770I0J-45749D01*
G01X15326220D01*
G02X15319040Y4339110I7J10160D01*
G01X15442460Y4462540D01*
G03X15451770Y4485000I-22457J22468D01*
G01Y4637090D01*
G03X15465740Y4670000I-31779J32910D01*
G03X15374260I-45740J0D01*
G03X15388230Y4637090I45749J0D01*
G01Y4498160D01*
X15241840Y4351770D01*
X14650000D01*
G03X14627540Y4342460I8J-31767D01*
G01X14121840Y3836770D01*
X12835000D01*
G03X12812540Y3827460I8J-31767D01*
G01X12641840Y3656770D01*
X12526220D01*
G02X12519040Y3674110I7J10160D01*
G01X12853160Y4008230D01*
X13155000D01*
G03X13177460Y4017540I-8J31767D01*
G01X14062460Y4902540D01*
G03X14071770Y4925000I-22457J22468D01*
G01Y4982110D01*
G02X14085210Y4991720I10161J-7D01*
G03X14100000Y4989260I14798J43279D01*
G03Y5080740I0J45740D01*
G03X14085210Y5078280I8J-45739D01*
G02X14071770Y5087890I-3279J9617D01*
G01Y5400000D01*
G03X14062460Y5422460I-31767J-8D01*
G01X13896770Y5588160D01*
Y5855000D01*
G03X13887460Y5877460I-31767J-8D01*
G01X13671770Y6093160D01*
Y6231660D01*
G02X13687030Y6240450I10161J1D01*
G03X13710000Y6234260I22977J39548D01*
G01X13710010D01*
G03X13732370Y6240100I-4J45742D01*
G02X13746910Y6234650I4971J-8858D01*
G03X13788820Y6204280I43085J15354D01*
G01X13790850Y6204220D01*
X13907540Y6087540D01*
G03X13930000Y6078230I22468J22457D01*
G01X14625000D01*
G03X14647460Y6087540I-8J31767D01*
G01X14717460Y6157540D01*
G03X14726770Y6180000I-22457J22468D01*
G01Y6210650D01*
G02X14739310Y6220530I10161J2D01*
G03X14750000Y6219260I10703J44468D01*
G03X14782730Y6233050I0J45737D01*
G02X14797270I7270J-7098D01*
G03X14862730I32730J31947D01*
G02X14877270I7270J-7098D01*
G03X14910000Y6219260I32730J31947D01*
G03Y6310740I0J45740D01*
G03X14877270Y6296950I0J-45737D01*
G02X14862730I-7270J7098D01*
G03X14797270I-32730J-31947D01*
G02X14782730I-7270J7098D01*
G03X14750000Y6310740I-32730J-31947D01*
G03X14739310Y6309470I13J-45738D01*
G02X14726770Y6319350I-2379J9878D01*
G01Y7024700D01*
X14758990Y7056920D01*
G02X14774610Y7055390I7181J-7188D01*
G03X14859000Y7010380I84390J56607D01*
G03Y7213620I0J101620D01*
G03X14843310Y7212400I9J-101619D01*
G02X14834550Y7229620I-1574J10037D01*
G01X15477360Y7872440D01*
G03X15486670Y7894900I-22457J22468D01*
G01Y9768600D01*
G03X15477360Y9791060I-31767J-8D01*
G01X15285770Y9982660D01*
G02X15292950Y10000000I7187J7180D01*
G01X16360000D01*
G02X16500000Y9870000I3691J-136409D01*
G01Y9150020D01*
X16499980D01*
Y8474980D01*
X16500000D01*
Y8305020D01*
X15629980D01*
Y6804980D01*
X16500000D01*
Y1585020D01*
X16499980D01*
Y909980D01*
X16500000D01*
Y195000D01*
G02X16370000Y60000I-136432J1286D01*
G01X185000D01*
G02X60000Y185000I6500J131500D01*
G01Y914980D01*
X60020D01*
Y1585020D01*
X60000D01*
Y8480000D01*
X-34980D01*
Y8724980D01*
X60020D01*
Y9150020D01*
X60000D01*
Y9347180D01*
X200020D01*
Y9749130D01*
X200050D01*
Y9877450D01*
X73920D01*
G02X64010Y9889860I-2J10160D01*
G02X200000Y10000000I140336J-34250D01*
G01X10957050D01*
G02X10964230Y9982660I-7J-10160D01*
G01X10778240Y9796670D01*
X9591760D01*
X9441060Y9947360D01*
G03X9418600Y9956670I-22468J-22457D01*
G01X8100390D01*
G03X8077930Y9947360I8J-31767D01*
G01X7966340Y9835780D01*
X7964310Y9835720D01*
G03X7919750Y9790000I1175J-45720D01*
G03X7965490Y9744260I45740J0D01*
G03X7997240Y9757070I0J45752D01*
G03X8028990Y9744260I31750J32942D01*
G03X8074710Y9788820I0J45735D01*
G01X8074770Y9790850D01*
X8132150Y9848230D01*
X9386840D01*
X9537540Y9697540D01*
G03X9560000Y9688230I22468J22457D01*
G01X10810000D01*
G03X10832460Y9697540I-8J31767D01*
G01X11053160Y9918230D01*
X11135910D01*
G02X11140270Y9898890I2J-10161D01*
G03X10954580Y9605000I139724J-293890D01*
G03X11141890Y9310340I325422J0D01*
G02X11137580Y9290980I-4308J-9201D01*
G01X10765260D01*
X10563120Y9493120D01*
G03X10520000Y9510980I-43120J-43123D01*
G01X8995260D01*
X8986620Y9519620D01*
Y9560380D01*
G03X8998050Y9595920I-49538J35540D01*
G01Y9608340D01*
X8998730Y9609510D01*
G03X9008210Y9644980I-61662J35482D01*
G01Y9645000D01*
G03X8937070Y9716140I-71140J0D01*
G03X8905320Y9708660I4J-71139D01*
G03X8873570Y9716140I-31754J-63659D01*
G03X8830200Y9701390I0J-71136D01*
G03X8787790Y9715420I-42418J-57107D01*
G03X8756040Y9707940I4J-71139D01*
G03X8724290Y9715420I-31754J-63659D01*
G03X8679300Y9699390I0J-71150D01*
G03X8639070Y9711860I-40230J-58659D01*
G03X8607320Y9704380I4J-71139D01*
G03X8575570Y9711860I-31754J-63659D01*
G01X8575560D01*
G03X8533320Y9697960I4J-71142D01*
G03X8492070Y9711140I-41250J-57961D01*
G03X8460320Y9703660I4J-71139D01*
G03X8428570Y9711140I-31754J-63659D01*
G03X8382820Y9694480I0J-71147D01*
G03X8337070Y9711140I-45750J-54487D01*
G03X8305320Y9703660I4J-71139D01*
G03X8273570Y9711140I-31754J-63659D01*
G03X8202430Y9640000I0J-71140D01*
G01Y9639980D01*
G03X8211910Y9604510I71142J12D01*
G01X8212590Y9603340D01*
Y9590920D01*
G03X8224020Y9555380I60968J0D01*
G01Y9437520D01*
G03X8241880Y9394400I60983J0D01*
G01X8700040Y8936240D01*
G03X8743160Y8918380I43120J43123D01*
G01X10297900D01*
X10470040Y8746240D01*
G03X10513160Y8728380I43120J43123D01*
G01X12717900D01*
X12959400Y8486880D01*
G03X13002520Y8469020I43120J43123D01*
G01X13306970D01*
G03X13355000Y8450360I48030J52484D01*
G03X13426140Y8521500I0J71140D01*
G03X13418660Y8553250I-71139J-4D01*
G03X13426140Y8585000I-63659J31754D01*
G03X13355000Y8656140I-71140J0D01*
G03X13301260Y8631620I0J-71150D01*
G01X13239230D01*
G02X13229330Y8644060I1J10160D01*
G03X13231140Y8660000I-69329J15945D01*
G03X13223660Y8691750I-71139J-4D01*
G03X13231140Y8723500I-63659J31754D01*
G03X13217580Y8765280I-71145J0D01*
G01X13215030Y8768790D01*
X13224060Y8777820D01*
X13313120D01*
G03X13365000Y8755360I51880J48688D01*
G03X13436140Y8826500I0J71140D01*
G03X13428660Y8858250I-71139J-4D01*
G03X13436140Y8890000I-63659J31754D01*
G03X13365000Y8961140I-71140J0D01*
G03X13314810Y8940420I0J-71148D01*
G01X13284720D01*
G02X13274760Y8952570I4J10161D01*
G03X13276140Y8966500I-69759J13944D01*
G03X13268660Y8998250I-71139J-4D01*
G03X13276140Y9030000I-63659J31754D01*
G03X13205000Y9101140I-71140J0D01*
G03X13198290Y9100820I30J-71139D01*
G02X13188920Y9116630I-956J10115D01*
G03X13201140Y9156500I-58932J39870D01*
G03X13193660Y9188250I-71139J-4D01*
G03X13201140Y9220000I-63659J31754D01*
G03X13130000Y9291140I-71140J0D01*
G03X13125390Y9290990I7J-71140D01*
G01X13125230Y9290980D01*
X13110210D01*
G02X13106620Y9299650I3J5080D01*
G01X13108890Y9301920D01*
X13110910Y9301970D01*
G03X13143040Y9335000I-913J33030D01*
G03X13076960I-33040J0D01*
G01Y9334960D01*
G03X13077710Y9327980I33042J20D01*
G01X13078300Y9325270D01*
X13072100Y9319070D01*
X12436980D01*
G03X12410000Y9333040I-26980J-19068D01*
G03X12376970Y9300870I0J-33041D01*
G02X12366820Y9290980I-10156J269D01*
G01X11422420D01*
G02X11418110Y9310340I-2J10159D01*
G03X11605420Y9605000I-138112J294660D01*
G03X11419730Y9898890I-325414J0D01*
G02X11424090Y9918230I4358J9179D01*
G01X12544690D01*
G02X12554740Y9906600I-3J-10160D01*
G03X12554260Y9900000I45259J-6609D01*
G03X12645740I45740J0D01*
G03X12645260Y9906600I-45739J-9D01*
G02X12655310Y9918230I10053J1470D01*
G01X12764090D01*
G02X12772280Y9902060I-4J-10161D01*
G03X12758510Y9860000I57368J-42066D01*
G03X12829650Y9788860I71140J0D01*
G03X12861400Y9796340I-4J71139D01*
G03X12893150Y9788860I31754J63659D01*
G03X12964290Y9860000I0J71140D01*
G03X12950520Y9902060I-71138J-6D01*
G02X12958710Y9918230I8194J6009D01*
G01X15196840D01*
X15378230Y9736840D01*
Y7913160D01*
X14777860Y7312790D01*
G02X14760560Y7319070I-7181J7186D01*
G03X14746770Y7347910I-45560J-4068D01*
G01Y7635000D01*
G03X14737460Y7657460I-31767J-8D01*
G01X14197460Y8197460D01*
G03X14175000Y8206770I-22468J-22457D01*
G01X12858160D01*
X12496340Y8568590D01*
G02X12503520Y8585930I7187J7180D01*
G01X12617100D01*
X12936520Y8266520D01*
G03X12950000Y8260930I13488J13477D01*
G01X13805000D01*
G03X13818480Y8266520I-8J19067D01*
G01X14052900Y8500930D01*
X14133020D01*
G03X14160000Y8486960I26980J19068D01*
G03Y8553040I0J33040D01*
G03X14133020Y8539070I0J-33038D01*
G01X14070560D01*
G02X14063380Y8556410I7J10159D01*
G01X14537900Y9030930D01*
X14663020D01*
G03X14690000Y9016960I26980J19068D01*
G03X14723040Y9050000I0J33040D01*
G03X14718970Y9065890I-33054J0D01*
G02X14727880Y9080930I8910J4881D01*
G01X15030000D01*
G03X15043480Y9086520I-8J19067D01*
G01X15203480Y9246520D01*
G03X15209070Y9260000I-13477J13488D01*
G01Y9650000D01*
G03X15203480Y9663480I-19067J-8D01*
G01X15162640Y9704330D01*
X15162880Y9706720D01*
G03X15163040Y9710000I-32882J3248D01*
G03X15130000Y9676960I-33040J0D01*
G03X15133280Y9677120I32J33042D01*
G01X15135670Y9677360D01*
X15170930Y9642100D01*
Y9267900D01*
X15022100Y9119070D01*
X14535000D01*
G03X14521520Y9113480I8J-19067D01*
G01X14086410Y8678380D01*
G02X14069070Y8685560I-7181J7187D01*
G01Y8873020D01*
G03X14083040Y8900000I-19068J26980D01*
G03X14016960I-33040J0D01*
G03X14030930Y8873020I33038J0D01*
G01Y8667900D01*
X13752100Y8389070D01*
X12987900D01*
X12683480Y8693480D01*
G03X12670000Y8699070I-13488J-13477D01*
G01X10432900D01*
X10263480Y8868480D01*
G03X10250000Y8874070I-13488J-13477D01*
G01X8652900D01*
X8173480Y9353480D01*
G03X8160000Y9359070I-13488J-13477D01*
G01X7004000D01*
G03X6990520Y9353480I8J-19067D01*
G01X6844670Y9207640D01*
X6842280Y9207880D01*
G03X6839000Y9208040I-3248J-32882D01*
G03X6872040Y9175000I0J-33040D01*
G03X6871880Y9178280I-33042J32D01*
G01X6871640Y9180670D01*
X7011900Y9320930D01*
X7033440D01*
G02X7040620Y9303590I-7J-10159D01*
G01X7017960Y9280930D01*
X7017900D01*
X6958070Y9221100D01*
Y9221040D01*
X6944670Y9207640D01*
X6942280Y9207880D01*
G03X6939000Y9208040I-3248J-32882D01*
G03Y9141960I0J-33040D01*
G03X6963280Y9152600I-6J33037D01*
G02X6978220I7470J-6894D01*
G03X7002500Y9141960I24286J22397D01*
G03X7035540Y9175000I0J33040D01*
G03X7035380Y9178280I-33042J32D01*
G01X7035140Y9180670D01*
X7123540Y9269070D01*
X7353220D01*
G02X7356550Y9249310I0J-10161D01*
G03X7238980Y9083990I57452J-165324D01*
G01Y8974160D01*
G02X7226300Y8964320I-10162J5D01*
G03X7215000Y8965740I-11309J-44319D01*
G03X7169260Y8920000I0J-45740D01*
G03X7185290Y8885220I45746J0D01*
G02Y8869780I-6602J-7720D01*
G03X7169260Y8835000I29716J-34780D01*
G03X7215000Y8789260I45740J0D01*
G03X7251620Y8807600I0J45730D01*
G02X7268220Y8807130I8134J-6088D01*
G03X7589020Y8903990I145776J96865D01*
G01Y9083990D01*
G03X7471450Y9249310I-175022J-4D01*
G02X7474780Y9269070I3330J9599D01*
G01X8123960D01*
X8576620Y8816410D01*
G02X8569440Y8799070I-7187J-7181D01*
G01X7610000D01*
G03X7596520Y8793480I8J-19067D01*
G01X7267100Y8464070D01*
X7121980D01*
G03X7095000Y8478040I-26980J-19068D01*
G03Y8411960I0J-33040D01*
G03X7121980Y8425930I0J33038D01*
G01X7275000D01*
G03X7288480Y8431520I-8J19067D01*
G01X7617900Y8760930D01*
X10202100D01*
X10371520Y8591520D01*
G03X10385000Y8585930I13488J13477D01*
G01X11911480D01*
G02X11918660Y8568590I-7J-10160D01*
G01X11901840Y8551770D01*
X11837910D01*
G03X11805000Y8565740I-32910J-31779D01*
G03Y8474260I0J-45740D01*
G03X11837910Y8488230I0J45749D01*
G01X11915000D01*
G03X11937460Y8497540I-8J31767D01*
G01X11978160Y8538230D01*
X12436840D01*
X12822540Y8152540D01*
G03X12845000Y8143230I22468J22457D01*
G01X14161840D01*
X14683230Y7621840D01*
Y7347910D01*
G03X14669260Y7315000I31779J-32910D01*
G03X14710930Y7269440I45742J0D01*
G02X14717210Y7252140I-906J-10119D01*
G01X14497540Y7032460D01*
G03X14488230Y7010000I22457J-22468D01*
G01Y6282910D01*
G03X14474260Y6250000I31779J-32910D01*
G03X14565740I45740J0D01*
G03X14551770Y6282910I-45749J0D01*
G01Y6996840D01*
X14590890Y7035960D01*
G02X14608230Y7028780I7180J-7187D01*
G01Y6277910D01*
G03X14594260Y6245000I31779J-32910D01*
G03X14640000Y6199260I45740J0D01*
G03X14656340Y6202280I-5J45739D01*
G01X14657210Y6202610D01*
X14663230D01*
Y6193160D01*
X14611840Y6141770D01*
X14371220D01*
G02X14364040Y6159110I7J10160D01*
G01X14409150Y6204220D01*
X14411180Y6204280D01*
G03X14455740Y6250000I-1175J45720D01*
G03X14410000Y6295740I-45740J0D01*
G03X14382940Y6286880I0J-45753D01*
G02X14366770Y6295070I-6011J8190D01*
G01Y6585000D01*
G03X14357460Y6607460I-31767J-8D01*
G37*
G36*
G01X7470000Y8450000D02*
X8300000D01*
X8370000Y8380000D01*
Y8200000D01*
X8300000Y8130000D01*
X7930000D01*
X7730000Y7930000D01*
Y6540000D01*
X7430000Y6240000D01*
Y5560000D01*
X7550000Y5440000D01*
Y5091140D01*
G03Y5008860I20007J-41140D01*
G01Y4531770D01*
X7514350D01*
G02X7504470Y4544310I-2J10161D01*
G03X7505740Y4555000I-44468J10703D01*
G03X7414260I-45740J0D01*
G03X7414420Y4551190I45739J12D01*
G02X7399880Y4541190I-10126J-848D01*
G03X7380000Y4545740I-19888J-41188D01*
G03Y4454260I0J-45740D01*
G03X7412910Y4468230I0J45749D01*
G01X7550000D01*
Y4448300D01*
G03Y4371700I24994J-38300D01*
G01Y4210080D01*
G02X7535330Y4200980I-10158J1D01*
G03X7515000Y4205740I-20318J-40983D01*
G03Y4114260I0J-45740D01*
G03X7535330Y4119020I12J45743D01*
G02X7550000Y4109920I4512J-9101D01*
G01Y3770000D01*
X7352860Y3572860D01*
X7252910D01*
G03X7220000Y3586830I-32910J-31779D01*
G03Y3495350I0J-45740D01*
G03X7251500Y3507920I0J45754D01*
G01X7252970Y3509320D01*
X7264790D01*
G02X7271980Y3491980I2J-10160D01*
G01X6700000Y2920000D01*
X5950000D01*
X5640000Y2610000D01*
Y2368890D01*
G02X5627140Y2359100I-10160J4D01*
G03X5615000Y2360740I-12140J-44113D01*
G03Y2269260I0J-45740D01*
G03X5627140Y2270900I0J45753D01*
G02X5640000Y2261110I2700J-9794D01*
G01Y1310000D01*
X5330000Y1000000D01*
X4774530D01*
G03X4705470I-34530J-30006D01*
G01X4030000D01*
X3960020Y1069980D01*
Y1070020D01*
X3959980D01*
X3930000Y1100000D01*
Y1310000D01*
X4020000Y1400000D01*
X4890000D01*
X5030000Y1540000D01*
Y3550000D01*
X5510000Y4030000D01*
X5620790D01*
G02X5627920Y4012600I0J-10161D01*
G03X5614260Y3980000I32070J-32600D01*
G03X5705740I45740J0D01*
G03X5692080Y4012600I-45730J0D01*
G02X5699210Y4030000I7130J7239D01*
G01X5780790D01*
G02X5787920Y4012600I0J-10161D01*
G03X5774260Y3980000I32070J-32600D01*
G03X5865740I45740J0D01*
G03X5852080Y4012600I-45730J0D01*
G02X5859210Y4030000I7130J7239D01*
G01X5930790D01*
G02X5937920Y4012600I0J-10161D01*
G03X5924260Y3980000I32070J-32600D01*
G03X6015740I45740J0D01*
G03X6002080Y4012600I-45730J0D01*
G02X6009210Y4030000I7130J7239D01*
G01X6080000D01*
X6410000Y4360000D01*
Y4376090D01*
X6415790Y4381880D01*
X6560000D01*
G03X6586950Y4393050I-8J38117D01*
G01X6654050Y4460140D01*
X6655460Y4460470D01*
G03X6690740Y4505000I-10463J44530D01*
G03X6645000Y4550740I-45740J0D01*
G03X6600470Y4515460I0J-45743D01*
G01X6600140Y4514050D01*
X6592740Y4506650D01*
G02X6575460Y4514960I-7182J7186D01*
G03X6575740Y4520000I-45459J5053D01*
G03X6530000Y4474260I-45740J0D01*
G03X6551820Y4479800I0J45740D01*
G01X6555150Y4481610D01*
X6561420Y4475330D01*
X6544210Y4458120D01*
X6410000D01*
Y4480210D01*
X6413570Y4481320D01*
G03Y4568680I-13569J43680D01*
G01X6410000Y4569790D01*
Y4947820D01*
G03X6415740Y4970000I-39999J22184D01*
G03X6410000Y4992180I-45739J-4D01*
G01Y5310000D01*
X6260000Y5460000D01*
X6110000D01*
X6030000Y5540000D01*
Y5800000D01*
X6120000Y5890000D01*
X6141160D01*
G03X6248840I53840J46502D01*
G01X6770000D01*
X6920000Y6040000D01*
Y6084030D01*
X6924570Y6084490D01*
G03Y6175510I-4569J45510D01*
G01X6920000Y6175970D01*
Y6370000D01*
X7021060Y6471060D01*
G02X7037650Y6467720I7185J-7183D01*
G03X7080000Y6439260I42350J17280D01*
G03X7125740Y6485000I0J45740D01*
G03X7097280Y6527350I-45740J0D01*
G02X7093940Y6543940I3843J9405D01*
G01X7230000Y6680000D01*
Y8210000D01*
X7470000Y8450000D01*
G37*
G36*
G01X6000000Y4990000D02*
X6280000D01*
X6320000Y4950000D01*
Y4820000D01*
X6302340Y4802340D01*
G03X6270000Y4815740I-32345J-32338D01*
G03X6224260Y4770000I0J-45740D01*
G03X6237660Y4737660I45738J5D01*
G01X6180000Y4680000D01*
Y4290000D01*
X5950000Y4060000D01*
X5500000D01*
X5060000Y3620000D01*
X4667260D01*
G02X4657760Y3633770I-2J10161D01*
G03X4660740Y3650000I-42758J16239D01*
G03X4569260I-45740J0D01*
G03X4572240Y3633770I45738J9D01*
G02X4562740Y3620000I-9498J-3609D01*
G01X3990000D01*
X3920000Y3690000D01*
Y3780000D01*
X3990000Y3850000D01*
X4343860D01*
G03X4426140I41140J20007D01*
G01X5050000D01*
X5077900Y3877900D01*
X5078750Y3878280D01*
G03X5101720Y3901250I-18750J41720D01*
G01X5102100Y3902100D01*
X5420000Y4220000D01*
X5840000D01*
X5960000Y4340000D01*
Y4374100D01*
G02X5970130Y4384260I10160J0D01*
G03Y4475740I-130J45740D01*
G02X5960000Y4485900I30J10160D01*
G01Y4717820D01*
G03X5965740Y4740000I-39999J22184D01*
G03X5960000Y4762180I-45739J-4D01*
G01Y4950000D01*
X6000000Y4990000D01*
G37*
G36*
G01X6205420Y4576210D02*
X6294880D01*
X6355140Y4515950D01*
X6355470Y4514540D01*
G03X6381550Y4483150I44526J10465D01*
G01X6384580Y4481810D01*
Y4454860D01*
G03X6373050Y4446950I15432J-34853D01*
G01X6222760Y4296670D01*
G02X6205420Y4303860I-7180J7188D01*
G01Y4576210D01*
G37*
G36*
G01X10078340Y8585180D02*
X10097950D01*
X10119180Y8563950D01*
Y8320000D01*
G03X10134060Y8284060I50823J-8D01*
G01X10319180Y8098950D01*
Y8055000D01*
G03X10420820I50820J0D01*
G01Y8099720D01*
G02X10438160Y8106910I10160J3D01*
G01X10590960Y7954110D01*
G02X10583770Y7936770I-7187J-7180D01*
G01X10308160D01*
X10011770Y8233160D01*
Y8441840D01*
X10059150Y8489220D01*
X10061180Y8489280D01*
G03X10105740Y8535000I-1175J45720D01*
G03X10081080Y8575590I-45735J0D01*
G01X10078340Y8577010D01*
Y8585180D01*
G37*
G36*
G01X11557090Y3773230D02*
G03X11590000Y3759260I32910J31779D01*
G03X11621150Y3771510I0J45730D01*
G02X11638230Y3764070I6919J-7440D01*
G01Y3748160D01*
X11185660Y3295590D01*
G02X11169660Y3297720I-7185J7185D01*
G03X11129980Y3320720I-39680J-22728D01*
G03X11107030Y3314540I9J-45738D01*
G02X11091770Y3323330I-5099J8790D01*
G01Y3376840D01*
X11488160Y3773230D01*
X11557090D01*
G37*
G36*
G01X11032900Y6680930D02*
X11602100D01*
X11886520Y6396520D01*
G03X11900000Y6390930I13488J13477D01*
G01X12852100D01*
X12861990Y6381040D01*
X12857050Y6376100D01*
X12855150Y6375970D01*
G03X12788860Y6305000I4845J-70970D01*
G03X12796340Y6273250I71139J4D01*
G03X12788860Y6241500I63659J-31754D01*
G03X12931140I71140J0D01*
G03X12923660Y6273250I-71139J-4D01*
G03X12929740Y6290970I-63662J31746D01*
G02X12946890Y6296150I9963J-2005D01*
G01X13046520Y6196520D01*
G03X13060000Y6190930I13488J13477D01*
G01X13225000D01*
G03X13238480Y6196520I-8J19067D01*
G01X13264330Y6222360D01*
X13266720Y6222120D01*
G03X13268520Y6221990I3279J32879D01*
G02X13278230Y6211840I-449J-10149D01*
G01Y6047440D01*
G02X13266170Y6037460I-10159J0D01*
G03X13260000Y6038040I-6164J-32461D01*
G03X13256720Y6037880I-32J-33042D01*
G01X13254330Y6037640D01*
X13178480Y6113480D01*
G03X13165000Y6119070I-13488J-13477D01*
G01X12322900D01*
X12188480Y6253480D01*
G03X12175000Y6259070I-13488J-13477D01*
G01X11880000D01*
G03X11866520Y6253480I8J-19067D01*
G01X11562100Y5949070D01*
X10987900D01*
X10819070Y6117900D01*
Y6354780D01*
G02X10832940Y6364240I10160J2D01*
G03X10845000Y6361960I12060J30756D01*
G03X10878040Y6395000I0J33040D01*
G03X10877880Y6398280I-33042J32D01*
G01X10877640Y6400670D01*
X10943480Y6466520D01*
G03X10949070Y6480000I-13477J13488D01*
G01Y6597100D01*
X11032900Y6680930D01*
G37*
G36*
G01X11851350Y5266420D02*
X11860540Y5275610D01*
G02X11875410Y5275070I7184J-7183D01*
G03X11910000Y5259260I34590J29934D01*
G03X11942910Y5273230I0J45749D01*
G01X12054180D01*
G02X12064330Y5262510I5J-10160D01*
G03X12064260Y5260000I45669J-2530D01*
G03X12080070Y5225410I45744J0D01*
G02X12080610Y5210540I-6643J-7686D01*
G01X11790650Y4920580D01*
X11685040D01*
G02X11677850Y4937920I-3J10160D01*
G01X11727460Y4987540D01*
G03X11736770Y5010000I-22457J22468D01*
G01Y5151840D01*
X11783580Y5198650D01*
G02X11800620Y5193930I7184J-7184D01*
G03X11845000Y5159260I44380J11070D01*
G03X11890740Y5205000I0J45740D01*
G03X11856070Y5249380I-45740J0D01*
G02X11851350Y5266420I2464J9856D01*
G37*
G36*
G01X12553240Y6080930D02*
X13157100D01*
X13227360Y6010670D01*
X13227120Y6008280D01*
G03X13226960Y6005000I32882J-3248D01*
G03X13260000Y5971960I33040J0D01*
G03X13266170Y5972540I6J33041D01*
G02X13278230Y5962560I1901J-9980D01*
G01Y5873160D01*
X13136840Y5731770D01*
X12699320D01*
Y5814300D01*
G03X12673900Y5839720I-25420J0D01*
G01X12496100D01*
G03X12470680Y5814300I0J-25420D01*
G01Y5585700D01*
G03X12496100Y5560280I25420J0D01*
G01X12673900D01*
G03X12698790Y5580540I0J25419D01*
G02X12709110Y5588620I9945J-2072D01*
G03X12716660Y5591590I365J10155D01*
G01X12775960Y5650890D01*
G03X12778930Y5658070I-7189J7178D01*
G02X12789090Y5668230I10160J0D01*
G01X12793770D01*
G02X12800960Y5650890I3J-10160D01*
G01X12536840Y5386770D01*
X12190310D01*
G02X12180260Y5398400I3J10160D01*
G03X12180740Y5405000I-45259J6609D01*
G03X12166770Y5437910I-45749J0D01*
G01Y5972090D01*
G03X12179540Y5994600I-31774J32903D01*
G02X12196620Y5999470I9894J-2312D01*
G01X12233050Y5963050D01*
G03X12260000Y5951880I26958J26947D01*
G01X12359720D01*
G03X12385000Y5944260I25280J38124D01*
G03X12430740Y5990000I0J45740D01*
G03X12418490Y6021150I-45730J0D01*
G02X12425930Y6038230I7440J6919D01*
G01X12461840D01*
X12469220Y6030850D01*
X12469280Y6028820D01*
G03X12515000Y5984260I45720J1175D01*
G03X12560740Y6030000I0J45740D01*
G03X12546290Y6063360I-45733J0D01*
G02X12553240Y6080930I6952J7410D01*
G37*
G36*
G01X13376770Y6146840D02*
X13418300Y6188370D01*
G02X13433580Y6187330I7187J-7182D01*
G03X13470000Y6169260I36420J27667D01*
G03X13488880Y6173340I-3J45739D01*
G02X13503230Y6164080I4190J-9256D01*
G01Y6135000D01*
G03X13512540Y6112540I31767J8D01*
G01X13778230Y5846840D01*
Y5617910D01*
G03X13764260Y5585000I31779J-32910D01*
G03X13765530Y5574310I45738J13D01*
G02X13752730Y5562200I-9878J-2379D01*
G01X13745780Y5569150D01*
X13745720Y5571180D01*
G03X13700000Y5615740I-45720J-1175D01*
G03X13654260Y5570000I0J-45740D01*
G03X13654450Y5565880I45738J45D01*
G02X13637140Y5557790I-10120J-910D01*
G01X13606770Y5588160D01*
Y5707090D01*
G03X13620740Y5740000I-31779J32910D01*
G03X13529260I-45740J0D01*
G03X13543230Y5707090I45749J0D01*
G01Y5575000D01*
G03X13552540Y5552540I31767J8D01*
G01X13627540Y5477540D01*
G03X13650000Y5468230I22468J22457D01*
G01X13846840D01*
X13958230Y5356840D01*
Y4968160D01*
X13943770Y4953700D01*
G02X13928120Y4955270I-7183J7187D01*
G03X13890000Y4975740I-38120J-25259D01*
G03X13858500Y4963170I0J-45754D01*
G01X13857030Y4961770D01*
X13847420D01*
X13833720Y4975460D01*
G03X13812530Y4984740I-22464J-22461D01*
G03X13747770Y5049530I-96538J-31733D01*
G01Y5084000D01*
G03X13738460Y5106460I-31767J-8D01*
G01X13560040Y5284890D01*
G02X13567230Y5302230I7187J7180D01*
G01X13619470D01*
G03X13716000Y5232380I96530J31775D01*
G03X13806720Y5288210I0J101622D01*
G02X13813180Y5290620I4534J-2292D01*
G03X13825260Y5288230I12089J29378D01*
G01X13862090D01*
G03X13895000Y5274260I32910J31779D01*
G03Y5365740I0J45740D01*
G03X13862090Y5351770I0J-45749D01*
G01X13838420D01*
X13833720Y5356460D01*
G03X13812530Y5365740I-22464J-22461D01*
G03X13716000Y5435620I-96530J-31732D01*
G03X13619470Y5365770I0J-101625D01*
G01X13524160D01*
X13412460Y5477460D01*
G03X13390000Y5486770I-22468J-22457D01*
G01X13268160D01*
X13259410Y5495520D01*
X13264030Y5500140D01*
X13265430Y5500470D01*
G03X13300740Y5545000I-10424J44530D01*
G03X13255000Y5590740I-45740J0D01*
G03X13222090Y5576770I0J-45749D01*
G01X12841230D01*
G02X12834040Y5594110I-3J10160D01*
G01X12863160Y5623230D01*
X13160000D01*
G03X13182460Y5632540I-8J31767D01*
G01X13367460Y5817540D01*
G03X13376770Y5840000I-22457J22468D01*
G01Y6146840D01*
G37*
G36*
G01X14181770Y6305310D02*
Y6618770D01*
G02X14199110Y6625960I10160J3D01*
G01X14263230Y6561840D01*
Y6358160D01*
X14200850Y6295780D01*
X14198820Y6295720D01*
G03X14193400Y6295260I1151J-45723D01*
G02X14181770Y6305310I-1470J10053D01*
G37*
G36*
G01X14006770Y7060000D02*
Y7561480D01*
G02X14024110Y7568670I10160J3D01*
G01X14068230Y7524550D01*
Y6965310D01*
G02X14056600Y6955260I-10160J3D01*
G03X14050000Y6955740I-6609J-45259D01*
G03X14004260Y6910000I0J-45740D01*
G03X14030380Y6868680I45743J0D01*
G02X14034010Y6853230I-4360J-9176D01*
G03X14024260Y6825000I35993J-28230D01*
G03X14026120Y6812080I45741J-9D01*
G02X14018850Y6799360I-9746J-2867D01*
G03X13984260Y6755000I11150J-44360D01*
G03X14075740I45740J0D01*
G03X14073880Y6767920I-45741J9D01*
G02X14081150Y6780640I9746J2867D01*
G03X14088880Y6783340I-11157J44358D01*
G02X14103230Y6774080I4190J-9256D01*
G01Y6685000D01*
G03X14112540Y6662540I31767J8D01*
G01X14118230Y6656840D01*
Y6304350D01*
G02X14105690Y6294470I-10161J-2D01*
G03X14096180Y6295720I-10683J-44472D01*
G01X14094150Y6295780D01*
X14081770Y6308160D01*
Y6525000D01*
G03X14072460Y6547460I-31767J-8D01*
G01X13941770Y6678160D01*
Y6981840D01*
X13997460Y7037540D01*
G03X14006770Y7060000I-22457J22468D01*
G37*
%LPC*%
G75*
G36*
G01X4345000Y5778380D02*
G02Y5981620I0J101620D01*
G02X4441530Y5911770I0J-101625D01*
G01X4625000D01*
G02X4647460Y5902460I-8J-31767D01*
G01X4667320Y5882600D01*
G02X4670000Y5882680I2762J-47598D01*
G02X4717680Y5835000I0J-47680D01*
G02X4688370Y5791000I-47681J0D01*
G03X4693280Y5776930I8972J-4761D01*
G02X4720720Y5736180I-18284J-41926D01*
G01X4720780Y5734150D01*
X4842460Y5612460D01*
G02X4851770Y5590000I-22457J-22468D01*
G01Y5556530D01*
G02X4921620Y5460000I-31775J-96530D01*
G02X4718380I-101620J0D01*
G02X4788230Y5556530I101625J0D01*
G01Y5576840D01*
X4675850Y5689220D01*
X4673820Y5689280D01*
G02X4629380Y5731680I1178J45723D01*
G03X4616660Y5740770I-10133J-734D01*
G02X4605010Y5739260I-11656J44231D01*
G01X4605000D01*
G02X4572090Y5753230I0J45749D01*
G01X4528160D01*
X4476770Y5701840D01*
Y5684530D01*
G02X4546620Y5588000I-31775J-96530D01*
G02X4343380I-101620J0D01*
G02X4413230Y5684530I101625J0D01*
G01Y5715000D01*
G02X4422540Y5737460I31767J-8D01*
G01X4492540Y5807460D01*
G02X4515000Y5816770I22468J-22457D01*
G01X4572090D01*
G02X4605000Y5830740I32910J-31779D01*
G01X4605010D01*
G02X4617640Y5828960I-6J-45741D01*
G01X4620520Y5828130D01*
X4622560Y5830170D01*
G02X4622320Y5835000I47443J4778D01*
G02X4622400Y5837670I47677J-92D01*
G01X4611840Y5848230D01*
X4441530D01*
G02X4345000Y5778380I-96530J31775D01*
G37*
G36*
G01X7238980Y9545000D02*
Y9625000D01*
G02X7589020I175020J-5D01*
G01Y9545000D01*
G02X7238980I-175020J5D01*
G37*
G36*
G01X5788960D02*
Y9625000D01*
G02X6139020I175030J-5D01*
G01Y9545000D01*
G02X5788960I-175030J5D01*
G37*
G36*
G01X6139020Y8903990D02*
G02X5788960I-175030J5D01*
G01Y9083990D01*
G02X6139020I175030J-5D01*
G01Y8903990D01*
G37*
G36*
G01X12936590Y5172490D02*
X12972510Y5208410D01*
G02X13053350Y5241900I80846J-80838D01*
G02X13167680Y5127570I0J-114330D01*
G02X13134190Y5046730I-114328J6D01*
G01X13098270Y5010810D01*
G02X13017430Y4977320I-80846J80838D01*
G02X12903100Y5091650I0J114330D01*
G02X12936590Y5172490I114328J-6D01*
G37*
G36*
G01X13179060Y4768340D02*
X13053340Y4894060D01*
G02Y4930010I17975J17975D01*
G01X13214990Y5091660D01*
G02X13250940I17975J-17975D01*
G01X13376660Y4965940D01*
G02Y4929990I-17975J-17975D01*
G01X13215010Y4768340D01*
G02X13179060I-17975J17975D01*
G37*
G36*
G01X12929060Y4518340D02*
X12803340Y4644060D01*
G02Y4680010I17975J17975D01*
G01X12964990Y4841660D01*
G02X13000940I17975J-17975D01*
G01X13126660Y4715940D01*
G02Y4679990I-17975J-17975D01*
G01X12965010Y4518340D01*
G02X12929060I-17975J17975D01*
G37*
G36*
G01X15130280Y4011100D02*
Y4188900D01*
G02X15155700Y4214320I25420J0D01*
G01X15384300D01*
G02X15409720Y4188900I0J-25420D01*
G01Y4011100D01*
G02X15384300Y3985680I-25420J0D01*
G01X15155700D01*
G02X15130280Y4011100I0J25420D01*
G37*
G36*
G01X13774280Y2253100D02*
Y2430900D01*
G02X13799700Y2456320I25420J0D01*
G01X14028300D01*
G02X14053720Y2430900I0J-25420D01*
G01Y2253100D01*
G02X14028300Y2227680I-25420J0D01*
G01X13799700D01*
G02X13774280Y2253100I0J25420D01*
G37*
G36*
G01X13230280D02*
Y2430900D01*
G02X13255700Y2456320I25420J0D01*
G01X13484300D01*
G02X13509720Y2430900I0J-25420D01*
G01Y2253100D01*
G02X13484300Y2227680I-25420J0D01*
G01X13255700D01*
G02X13230280Y2253100I0J25420D01*
G37*
G36*
G01X16174600Y1948320D02*
X16225400D01*
G02Y1719680I0J-114320D01*
G01X16174600D01*
G02Y1948320I0J114320D01*
G37*
G36*
G01Y2202320D02*
X16225400D01*
G02Y1973680I0J-114320D01*
G01X16174600D01*
G02Y2202320I0J114320D01*
G37*
G36*
G01X13888600D02*
X13939400D01*
G02Y1973680I0J-114320D01*
G01X13888600D01*
G02Y2202320I0J114320D01*
G37*
G36*
G01Y1948320D02*
X13939400D01*
G02Y1719680I0J-114320D01*
G01X13888600D01*
G02Y1948320I0J114320D01*
G37*
G36*
G01X13344600D02*
X13395400D01*
G02Y1719680I0J-114320D01*
G01X13344600D01*
G02Y1948320I0J114320D01*
G37*
G36*
G01Y2202320D02*
X13395400D01*
G02Y1973680I0J-114320D01*
G01X13344600D01*
G02Y2202320I0J114320D01*
G37*
G36*
G01X11058600D02*
X11109400D01*
G02Y1973680I0J-114320D01*
G01X11058600D01*
G02Y2202320I0J114320D01*
G37*
G36*
G01Y1948320D02*
X11109400D01*
G02Y1719680I0J-114320D01*
G01X11058600D01*
G02Y1948320I0J114320D01*
G37*
G36*
G01X16174600Y1440320D02*
X16225400D01*
G02Y1211680I0J-114320D01*
G01X16174600D01*
G02Y1440320I0J114320D01*
G37*
G36*
G01X13888600Y1694320D02*
X13939400D01*
G02Y1465680I0J-114320D01*
G01X13888600D01*
G02Y1694320I0J114320D01*
G37*
G36*
G01X13344600D02*
X13395400D01*
G02Y1465680I0J-114320D01*
G01X13344600D01*
G02Y1694320I0J114320D01*
G37*
G36*
G01X11058600D02*
X11109400D01*
G02Y1465680I0J-114320D01*
G01X11058600D01*
G02Y1694320I0J114320D01*
G37*
G36*
G01Y1440320D02*
X11109400D01*
G02Y1211680I0J-114320D01*
G01X11058600D01*
G02Y1440320I0J114320D01*
G37*
G36*
G01X16174600Y932320D02*
X16225400D01*
G02Y703680I0J-114320D01*
G01X16174600D01*
G02Y932320I0J114320D01*
G37*
G36*
G01Y1186320D02*
X16225400D01*
G02Y957680I0J-114320D01*
G01X16174600D01*
G02Y1186320I0J114320D01*
G37*
G36*
G01X13888600Y932320D02*
X13939400D01*
G02Y703680I0J-114320D01*
G01X13888600D01*
G02Y932320I0J114320D01*
G37*
G36*
G01X13344600D02*
X13395400D01*
G02Y703680I0J-114320D01*
G01X13344600D01*
G02Y932320I0J114320D01*
G37*
G36*
G01X11058600Y1186320D02*
X11109400D01*
G02Y957680I0J-114320D01*
G01X11058600D01*
G02Y1186320I0J114320D01*
G37*
G36*
G01Y932320D02*
X11109400D01*
G02Y703680I0J-114320D01*
G01X11058600D01*
G02Y932320I0J114320D01*
G37*
G36*
G01X16174600Y665620D02*
X16225400D01*
G02Y462380I0J-101620D01*
G01X16174600D01*
G02Y665620I0J101620D01*
G37*
G36*
G01X13888600D02*
X13939400D01*
G02Y462380I0J-101620D01*
G01X13888600D01*
G02Y665620I0J101620D01*
G37*
G36*
G01X13344600D02*
X13395400D01*
G02Y462380I0J-101620D01*
G01X13344600D01*
G02Y665620I0J101620D01*
G37*
G36*
G01X11058600D02*
X11109400D01*
G02Y462380I0J-101620D01*
G01X11058600D01*
G02Y665620I0J101620D01*
G37*
G36*
G01X9025680Y225700D02*
Y454300D01*
G02X9051100Y479720I25420J0D01*
G01X9228900D01*
G02X9254320Y454300I0J-25420D01*
G01Y225700D01*
G02X9228900Y200280I-25420J0D01*
G01X9051100D01*
G02X9025680Y225700I0J25420D01*
G37*
G36*
G01X7165680D02*
Y454300D01*
G02X7191100Y479720I25420J0D01*
G01X7368900D01*
G02X7394320Y454300I0J-25420D01*
G01Y225700D01*
G02X7368900Y200280I-25420J0D01*
G01X7191100D01*
G02X7165680Y225700I0J25420D01*
G37*
G36*
G01X5305680D02*
Y454300D01*
G02X5331100Y479720I25420J0D01*
G01X5508900D01*
G02X5534320Y454300I0J-25420D01*
G01Y225700D01*
G02X5508900Y200280I-25420J0D01*
G01X5331100D01*
G02X5305680Y225700I0J25420D01*
G37*
G36*
G01X1815000Y1075740D02*
G02X1847910Y1061770I0J-45749D01*
G01X1930270D01*
G02X2025000Y1126620I94730J-36764D01*
G02Y923380I0J-101620D01*
G02X1928010Y994670I0J101622D01*
G01X1926900Y998230D01*
X1847910D01*
G02X1815000Y984260I-32910J31779D01*
G02Y1075740I0J45740D01*
G37*
G36*
G01X1145000Y1313380D02*
G02X1246620Y1415000I0J101620D01*
G02X1237250Y1372380I-101615J0D01*
G01X1235770Y1369160D01*
X1367460Y1237460D01*
G02X1376770Y1215000I-22457J-22468D01*
G01Y1192910D01*
G02X1390740Y1160000I-31779J-32910D01*
G02X1299260I-45740J0D01*
G02X1311830Y1191500I45754J0D01*
G01X1313230Y1192970D01*
Y1201840D01*
X1190790Y1324280D01*
G02X1145000Y1313380I-45790J90730D01*
G37*
G36*
G01X2128230Y1765000D02*
Y1935150D01*
G02X2057380Y2032000I30771J96850D01*
G02X2260620I101620J0D01*
G02X2191770Y1935810I-101618J0D01*
G01Y1778160D01*
X2270180Y1699750D01*
X2272740Y1700160D01*
G02X2280000Y1700740I7260J-45148D01*
G02Y1609260I0J-45740D01*
G02X2235780Y1643320I0J45735D01*
G01X2235430Y1644640D01*
X2137540Y1742540D01*
G02X2128230Y1765000I22457J22468D01*
G37*
G36*
G01X4419980Y2590820D02*
X4611000D01*
G02X4699000Y2641620I88000J-50820D01*
G02Y2438380I0J-101620D01*
G02X4611000Y2489180I0J101620D01*
G01X4441050D01*
X4315940Y2364060D01*
G02X4280020Y2349180I-35932J35943D01*
G01X4280000D01*
G02X4229180Y2400000I0J50820D01*
G01Y2400020D01*
G02X4244060Y2435940I50823J-12D01*
G01X4384060Y2575940D01*
G02X4419980Y2590820I35932J-35943D01*
G37*
G36*
G01X2872000Y2635230D02*
X2763530D01*
G02X2667000Y2565380I-96530J31775D01*
G02Y2768620I0J101620D01*
G02X2763530Y2698770I0J-101625D01*
G01X2858840D01*
X2869220Y2709150D01*
X2869280Y2711180D01*
G02X2915000Y2755740I45720J-1175D01*
G02X2960740Y2710000I0J-45740D01*
G02X2916180Y2664280I-45735J0D01*
G01X2914150Y2664220D01*
X2894460Y2644540D01*
G02X2872000Y2635230I-22468J22457D01*
G37*
G36*
G01X3590430Y2708930D02*
G02X3683000Y2768620I92570J-41936D01*
G02Y2565380I0J-101620D01*
G02X3586470Y2635230I0J101625D01*
G01X3568000D01*
G02X3545540Y2644540I8J31767D01*
G01X3511840Y2678230D01*
X3492910D01*
G02X3491770Y2677090I-32910J31770D01*
G01Y2510000D01*
G02X3482460Y2487540I-31767J8D01*
G01X3325780Y2330850D01*
X3325720Y2328820D01*
G02X3280000Y2284260I-45720J1175D01*
G02X3234260Y2330000I0J45740D01*
G02X3278820Y2375720I45735J0D01*
G01X3280850Y2375780D01*
X3428230Y2523160D01*
Y2677090D01*
G02X3414260Y2710000I31779J32910D01*
G02X3460000Y2755740I45740J0D01*
G02X3492910Y2741770I0J-45749D01*
G01X3525000D01*
G02X3547460Y2732460I-8J-31767D01*
G01X3573990Y2705940D01*
G03X3590430Y2708930I7186J7180D01*
G37*
G36*
G01X11295000Y3004260D02*
G02Y3095740I0J45740D01*
G02X11327910Y3081770I0J-45749D01*
G01X11370000D01*
G02X11392460Y3072460I-8J-31767D01*
G01X11626650Y2838280D01*
X11628680Y2838220D01*
G02X11673240Y2792500I-1175J-45720D01*
G02X11627500Y2746760I-45740J0D01*
G02X11581780Y2791320I0J45735D01*
G01X11581720Y2793350D01*
X11356840Y3018230D01*
X11327910D01*
G02X11295000Y3004260I-32910J31779D01*
G37*
G36*
G01X14958230Y3044000D02*
Y3057090D01*
G02X14944260Y3090000I31779J32910D01*
G02X15035740I45740J0D01*
G02X15024980Y3060530I-45737J0D01*
G01X15021970Y3056960D01*
X15067160Y3011770D01*
X15070380Y3013250D01*
G02X15113000Y3022620I42620J-92245D01*
G02X15011380Y2921000I0J-101620D01*
G02X15020750Y2963620I101615J0D01*
G01X15022230Y2966840D01*
X14967540Y3021540D01*
G02X14958230Y3044000I22457J22468D01*
G37*
G36*
G01X12145790Y3132930D02*
G03X12159370Y3141160I3505J9535D01*
G02X12204730Y3181010I45360J-5891D01*
G02X12250450Y3136450I0J-45735D01*
G01X12250510Y3134420D01*
X12572460Y2812460D01*
G02X12581770Y2790000I-22457J-22468D01*
G01Y1462910D01*
G02X12595740Y1430000I-31779J-32910D01*
G02X12504260I-45740J0D01*
G02X12518230Y1462910I45749J0D01*
G01Y2776840D01*
X12205580Y3089490D01*
X12203550Y3089550D01*
G02X12200610Y3089720I1169J45722D01*
G03X12192520Y3072410I-910J-10120D01*
G01X12452460Y2812460D01*
G02X12461770Y2790000I-22457J-22468D01*
G01Y1467910D01*
G02X12475740Y1435000I-31779J-32910D01*
G02X12384260I-45740J0D01*
G02X12398230Y1467910I45749J0D01*
G01Y2776840D01*
X12130850Y3044220D01*
X12128820Y3044280D01*
G02X12084260Y3090000I1175J45720D01*
G02X12130000Y3135740I45740J0D01*
G01X12130010D01*
G02X12145790Y3132930I-5J-45741D01*
G37*
G36*
G01X9345720Y3139180D02*
X9285000D01*
G02Y3240820I0J50820D01*
G01X9324650D01*
X9329760Y3245940D01*
G02X9365680Y3260820I35932J-35943D01*
G01X9392000D01*
G02X9480000Y3311620I88000J-50820D01*
G02Y3108380I0J-101620D01*
G02X9393440Y3156760I0J101625D01*
G01X9391950Y3159180D01*
X9386750D01*
X9381640Y3154060D01*
G02X9345720Y3139180I-35932J35943D01*
G37*
G36*
G01X10500410Y3199270D02*
X10635130D01*
G03X10645120Y3211300I2J10161D01*
G02X10643380Y3230000I99878J18724D01*
G02X10745000Y3128380I101620J0D01*
G02X10698120Y3139840I0J101617D01*
G02X10682500Y3135730I-15628J27658D01*
G01X10500410D01*
G02X10467500Y3121760I-32910J31779D01*
G02Y3213240I0J45740D01*
G02X10500410Y3199270I0J-45749D01*
G37*
G36*
G01X10622860Y3456820D02*
G03Y3473180I-6023J8180D01*
G02X10604260Y3510000I27144J36820D01*
G02X10695740I45740J0D01*
G02X10677140Y3473180I-45744J0D01*
G03Y3456820I6023J-8180D01*
G02X10695740Y3420000I-27144J-36820D01*
G02X10604260I-45740J0D01*
G02X10622860Y3456820I45744J0D01*
G37*
G36*
G01X2985000Y3674260D02*
G02Y3765740I0J45740D01*
G02X3017910Y3751770I0J-45749D01*
G01X3090000D01*
G02X3112460Y3742460I-8J-31767D01*
G01X3182460Y3672460D01*
G02X3191770Y3650000I-22457J-22468D01*
G01Y3473160D01*
X3282460Y3382460D01*
G02X3291770Y3360000I-22457J-22468D01*
G01Y3100000D01*
G02X3282460Y3077540I-31767J8D01*
G01X3194570Y2989640D01*
X3194220Y2988320D01*
G02X3150000Y2954260I-44220J11675D01*
G02Y3045740I0J45740D01*
G02X3157260Y3045160I0J-45728D01*
G01X3159820Y3044750D01*
X3228230Y3113160D01*
Y3346840D01*
X3137540Y3437540D01*
G02X3128230Y3460000I22457J22468D01*
G01Y3636840D01*
X3076840Y3688230D01*
X3017910D01*
G02X2985000Y3674260I-32910J31779D01*
G37*
G36*
G01X8727680Y3734600D02*
Y3785400D01*
G02X8956320I114320J0D01*
G01Y3734600D01*
G02X8871770Y3624220I-114326J0D01*
G01Y3506530D01*
G02X8941620Y3410000I-31775J-96530D01*
G02X8738380I-101620J0D01*
G02X8808230Y3506530I101625J0D01*
G01Y3625380D01*
G02X8727680Y3734600I33772J109220D01*
G37*
G36*
G01X9103230Y3496530D02*
Y3610160D01*
G03X9093310Y3620310I-10159J-6D01*
G02X8981680Y3734600I2692J114290D01*
G01Y3785400D01*
G02X9210320I114320J0D01*
G01Y3734600D01*
G02X9166770Y3644820I-114317J0D01*
G01Y3496530D01*
G02X9236620Y3400000I-31775J-96530D01*
G02X9033380I-101620J0D01*
G02X9103230Y3496530I101625J0D01*
G37*
G36*
G01X3454260Y3910000D02*
G02X3500000Y3955740I45740J0D01*
G02X3532910Y3941770I0J-45749D01*
G01X3583000D01*
G02X3605460Y3932460I-8J-31767D01*
G01X3637160Y3900770D01*
X3640380Y3902250D01*
G02X3683000Y3911620I42620J-92245D01*
G02X3581380Y3810000I0J-101620D01*
G02X3592280Y3855790I101630J0D01*
G01X3569840Y3878230D01*
X3532910D01*
G02X3531770Y3877090I-32910J31770D01*
G01Y3610000D01*
G02X3522460Y3587540I-31767J8D01*
G01X3435700Y3500780D01*
G02X3413240Y3491470I-22468J22457D01*
G01X3320750D01*
G02X3285000Y3474260I-35750J28526D01*
G02Y3565740I0J45740D01*
G02X3314440Y3555010I0J-45752D01*
G01X3400080D01*
X3468230Y3623160D01*
Y3877090D01*
G02X3454260Y3910000I31779J32910D01*
G37*
G36*
G01X3648180Y4337860D02*
G03X3631820I-8180J-6023D01*
G02X3595000Y4319260I-36820J27144D01*
G02Y4410740I0J45740D01*
G02X3631820Y4392140I0J-45744D01*
G03X3648180I8180J6023D01*
G02X3685000Y4410740I36820J-27144D01*
G02Y4319260I0J-45740D01*
G02X3648180Y4337860I0J45744D01*
G37*
G36*
G01X8355000Y4515740D02*
G02X8387910Y4501770I0J-45749D01*
G01X8987090D01*
G02X9020000Y4515740I32910J-31779D01*
G02Y4424260I0J-45740D01*
G02X8987090Y4438230I0J45749D01*
G01X8387910D01*
G02X8355000Y4424260I-32910J31779D01*
G02Y4515740I0J45740D01*
G37*
G36*
G01X3267540Y4307540D02*
X3220840Y4354230D01*
X3217620Y4352750D01*
G02X3175000Y4343380I-42620J92245D01*
G02X3276620Y4445000I0J101620D01*
G02X3265720Y4399210I-101630J0D01*
G01X3295990Y4368930D01*
G02X3320000Y4375740I24010J-38921D01*
G02Y4284260I0J-45740D01*
G02X3286950Y4298380I0J45739D01*
G02X3267540Y4307540I3055J31619D01*
G37*
G36*
G01X9909500Y4857730D02*
X9875530D01*
G02X9779000Y4787880I-96530J31775D01*
G02Y4991120I0J101620D01*
G02X9875530Y4921270I0J-101625D01*
G01X9885520D01*
X9886690Y4924720D01*
G02X9930000Y4955740I43310J-14725D01*
G02Y4864260I0J-45740D01*
G02X9928800Y4864280I162J45737D01*
G02X9909500Y4857730I-19319J25215D01*
G37*
G36*
G01X4132860Y4936820D02*
G03Y4953180I-6023J8180D01*
G02X4114260Y4990000I27144J36820D01*
G02X4205740I45740J0D01*
G02X4187140Y4953180I-45744J0D01*
G03Y4936820I6023J-8180D01*
G02X4205740Y4900000I-27144J-36820D01*
G02X4114260I-45740J0D01*
G02X4132860Y4936820I45744J0D01*
G37*
G36*
G01X15163860Y4906500D02*
G02X15171340Y4938250I71139J-4D01*
G02X15163860Y4970000I63659J31754D01*
G02X15306140I71140J0D01*
G02X15298660Y4938250I-71139J4D01*
G02X15306140Y4906500I-63659J-31754D01*
G02X15163860I-71140J0D01*
G37*
G36*
G01X3883230Y4945000D02*
Y4977090D01*
G02X3869260Y5010000I31779J32910D01*
G02X3960740I45740J0D01*
G02X3946770Y4977090I-45749J0D01*
G01Y4958160D01*
X3952460Y4952460D01*
G02X3961770Y4930000I-22457J-22468D01*
G01Y4906530D01*
G02X4031620Y4810000I-31775J-96530D01*
G02X3828380I-101620J0D01*
G02X3898230Y4906530I101625J0D01*
G01Y4916840D01*
X3892540Y4922540D01*
G02X3883230Y4945000I22457J22468D01*
G37*
G36*
G01X5370020Y4959180D02*
X5290000D01*
G02X5239180Y5010000I0J50820D01*
G02X5258980Y5050250I50811J0D01*
G03X5259540Y5065880I-6205J8047D01*
G02X5244260Y5100000I30455J34120D01*
G02X5335740I45740J0D01*
G02X5329090Y5076250I-45736J0D01*
G03X5337770Y5060820I8686J-5270D01*
G01X5348950D01*
X5374060Y5085940D01*
G02X5409980Y5100820I35932J-35943D01*
G01X5442000D01*
G02X5530000Y5151620I88000J-50820D01*
G02Y4948380I0J-101620D01*
G02X5443440Y4996760I0J101625D01*
G01X5441950Y4999180D01*
X5431050D01*
X5405940Y4974060D01*
G02X5370020Y4959180I-35932J35943D01*
G37*
G36*
G01X6218050Y5272730D02*
G03Y5287270I-7098J7270D01*
G02X6204260Y5320000I31947J32730D01*
G02X6295740I45740J0D01*
G02X6281950Y5287270I-45737J0D01*
G03Y5272730I7098J-7270D01*
G02X6295740Y5240000I-31947J-32730D01*
G02X6204260I-45740J0D01*
G02X6218050Y5272730I45737J0D01*
G37*
G36*
G01X4113230Y5306530D02*
Y5347090D01*
G02X4099260Y5380000I31779J32910D01*
G02X4190740I45740J0D01*
G02X4176770Y5347090I-45749J0D01*
G01Y5306530D01*
G02X4246620Y5210000I-31775J-96530D01*
G02X4043380I-101620J0D01*
G02X4113230Y5306530I101625J0D01*
G37*
G36*
G01X8679560Y5388740D02*
Y5367220D01*
X8687720D01*
X8689140Y5369950D01*
G02X8804000Y5439560I114860J-59957D01*
G02Y5180440I0J-129560D01*
G02X8689140Y5250050I0J129567D01*
G01X8687720Y5252780D01*
X8679560D01*
Y5231260D01*
G02X8628740Y5180440I-50820J0D01*
G01X8471260D01*
G02X8420440Y5231260I0J50820D01*
G01Y5388740D01*
G02X8471260Y5439560I50820J0D01*
G01X8628740D01*
G02X8679560Y5388740I0J-50820D01*
G37*
G36*
G01X4210000Y5439260D02*
G02Y5530740I0J45740D01*
G02X4242910Y5516770I0J-45749D01*
G01X4294000D01*
G02X4316460Y5507460I-8J-31767D01*
G01X4526160Y5297770D01*
X4529380Y5299250D01*
G02X4572000Y5308620I42620J-92245D01*
G02X4470380Y5207000I0J-101620D01*
G02X4481280Y5252790I101630J0D01*
G01X4280840Y5453230D01*
X4242910D01*
G02X4210000Y5439260I-32910J31779D01*
G37*
G36*
G01X9980090Y5381770D02*
X9997090D01*
G02X10030000Y5395740I32910J-31779D01*
G02Y5304260I0J-45740D01*
G02X9997090Y5318230I0J45749D01*
G01X9955000D01*
G02X9932540Y5327540I8J31767D01*
G01X9920840Y5339230D01*
X9917620Y5337750D01*
G02X9875000Y5328380I-42620J92245D01*
G02X9976620Y5430000I0J101620D01*
G02X9970540Y5395390I-101618J12D01*
G03X9980090Y5381770I9554J-3459D01*
G37*
G36*
G01X4027090Y5428230D02*
X3906190D01*
G02X3810000Y5359380I-96190J32768D01*
G02Y5562620I0J101620D01*
G02X3906850Y5491770I0J-101621D01*
G01X4027090D01*
G02X4060000Y5505740I32910J-31779D01*
G02Y5414260I0J-45740D01*
G02X4027090Y5428230I0J45749D01*
G37*
G36*
G01X14108230Y5514000D02*
Y5547090D01*
G02X14094260Y5580000I31779J32910D01*
G02X14185740I45740J0D01*
G02X14171770Y5547090I-45749J0D01*
G01Y5527160D01*
X14246460Y5452460D01*
G02X14255770Y5430530I-22454J-22474D01*
G02X14325620Y5334000I-31775J-96530D01*
G02X14122380I-101620J0D01*
G02X14170790Y5420580I101628J0D01*
G03X14172650Y5436420I-5320J8654D01*
G01X14117540Y5491540D01*
G02X14108230Y5514000I22457J22468D01*
G37*
G36*
G01X11334260Y5650000D02*
G02X11425740I45740J0D01*
G02X11411770Y5617090I-45749J0D01*
G01Y5538000D01*
G02X11402460Y5515540I-31767J8D01*
G01X11266770Y5379840D01*
X11268250Y5376620D01*
G02X11277620Y5334000I-92245J-42620D01*
G02X11176000Y5435620I-101620J0D01*
G02X11218620Y5426250I0J-101615D01*
G01X11221840Y5424770D01*
X11348230Y5551160D01*
Y5617090D01*
G02X11334260Y5650000I31779J32910D01*
G37*
G36*
G01X10257350Y5904130D02*
X10367640D01*
G02X10390100Y5894820I-8J-31767D01*
G01X10449150Y5835780D01*
X10451180Y5835720D01*
G02X10495740Y5790000I-1175J-45720D01*
G02X10450000Y5744260I-45740J0D01*
G02X10417270Y5758050I0J45737D01*
G03X10402730I-7270J-7098D01*
G02X10385170Y5746850I-32730J31950D01*
G01X10381770Y5745650D01*
Y5728340D01*
G03X10397030Y5719550I10161J-1D01*
G02X10420000Y5725740I22977J-39548D01*
G02X10465740Y5680000I0J-45740D01*
G02X10453490Y5648850I-45730J0D01*
G03X10460930Y5631770I7440J-6919D01*
G01X10470000D01*
G02X10492460Y5622460I-8J-31767D01*
G01X11179960Y4934960D01*
G02X11189270Y4912500I-22457J-22468D01*
G01Y4730410D01*
G02X11203240Y4697500I-31779J-32910D01*
G02X11111760I-45740J0D01*
G02X11125730Y4730410I45749J0D01*
G01Y4899340D01*
X10456840Y5568230D01*
X10430000D01*
G02X10407540Y5577540I8J31767D01*
G01X10327540Y5657540D01*
G02X10318230Y5680000I22457J22468D01*
G01Y5770000D01*
G02X10324280Y5788650I31771J0D01*
G02X10338410Y5823080I45722J1350D01*
G03X10331400Y5840590I-7013J7351D01*
G01X10298850D01*
G03X10288960Y5828120I1J-10158D01*
G02X10291620Y5805040I-98962J-23099D01*
G01Y5805000D01*
G02X10190000Y5906620I-101620J0D01*
G02X10235810Y5895710I0J-101631D01*
G02X10257350Y5904130I21544J-23352D01*
G37*
G36*
G01X2282020Y5791180D02*
X2247000D01*
G02X2159000Y5740380I-88000J50820D01*
G02Y5943620I0J101620D01*
G02X2245560Y5895240I0J-101625D01*
G01X2247050Y5892820D01*
X2260950D01*
X2339060Y5970940D01*
G02X2374980Y5985820I35932J-35943D01*
G01X2375000D01*
G02X2425810Y5935740I0J-50815D01*
G03X2435800Y5925730I10161J151D01*
G02X2480740Y5880000I-797J-45730D01*
G02X2435000Y5834260I-45740J0D01*
G02X2393110Y5861640I0J45735D01*
G03X2376620Y5864750I-9307J-4077D01*
G01X2317940Y5806060D01*
G02X2282020Y5791180I-35932J35943D01*
G37*
G36*
G01X10682860Y5931820D02*
G03Y5948180I-6023J8180D01*
G02X10664260Y5985000I27144J36820D01*
G02X10755740I45740J0D01*
G02X10737140Y5948180I-45744J0D01*
G03Y5931820I6023J-8180D01*
G02X10755740Y5895000I-27144J-36820D01*
G02X10664260I-45740J0D01*
G02X10682860Y5931820I45744J0D01*
G37*
G36*
G01X10503230Y5845000D02*
Y5853470D01*
G02X10433380Y5950000I31775J96530D01*
G02X10636620I101620J0D01*
G02X10583010Y5860440I-101614J0D01*
G03X10580630Y5844300I4803J-8954D01*
G01X10644150Y5780780D01*
X10646180Y5780720D01*
G02X10690740Y5735000I-1175J-45720D01*
G02X10645000Y5689260I-45740J0D01*
G02X10599280Y5733820I0J45735D01*
G01X10599220Y5735850D01*
X10512540Y5822540D01*
G02X10503230Y5845000I22457J22468D01*
G37*
G36*
G01X2320000Y6013860D02*
G02X2254180Y6058000I0J71144D01*
G02X2201070Y6126820I18034J68820D01*
G02X2272210Y6197960I71140J0D01*
G02X2338030Y6153820I0J-71144D01*
G02X2391140Y6085000I-18034J-68820D01*
G02X2320000Y6013860I-71140J0D01*
G37*
G36*
G01X6754260Y6310000D02*
G02X6845740I45740J0D01*
G02X6831770Y6277090I-45749J0D01*
G01Y6200000D01*
G02X6822460Y6177540I-31767J8D01*
G01X6718460Y6073540D01*
G02X6700640Y6064570I-22471J22456D01*
G02X6604000Y5994380I-96640J31434D01*
G02Y6197620I0J101620D01*
G02X6689170Y6151440I0J-101630D01*
G03X6704870Y6149800I8514J5540D01*
G01X6768230Y6213160D01*
Y6277090D01*
G02X6754260Y6310000I31779J32910D01*
G37*
G36*
G01X10148860Y6396500D02*
G02X10156340Y6428250I71139J-4D01*
G02X10148860Y6460000I63659J31754D01*
G02X10291140I71140J0D01*
G02X10283660Y6428250I-71139J4D01*
G02X10291140Y6396500I-63659J-31754D01*
G02X10148860I-71140J0D01*
G37*
G36*
G01X12781720Y6691500D02*
G02X12789200Y6723250I71139J-4D01*
G02X12781720Y6755000I63659J31754D01*
G02X12924000I71140J0D01*
G02X12916520Y6723250I-71139J4D01*
G02X12924000Y6691500I-63659J-31754D01*
G02X12885650Y6628370I-71136J0D01*
G02X12886140Y6620070I-70652J-8335D01*
G01Y6620000D01*
G02X12878660Y6588250I-71139J4D01*
G02X12886140Y6556500I-63659J-31754D01*
G02X12743860I-71140J0D01*
G02X12751340Y6588250I71139J-4D01*
G02X12743860Y6620000I63659J31754D01*
G02X12782210Y6683130I71136J0D01*
G02X12781720Y6691430I70652J8335D01*
G01Y6691500D01*
G37*
G36*
G01X3680000Y6883860D02*
G02X3615630Y6924710I0J71141D01*
G02X3559010Y6994350I14517J69640D01*
G02X3630150Y7065490I71140J0D01*
G02X3694520Y7024640I0J-71141D01*
G02X3751140Y6955000I-14517J-69640D01*
G02X3680000Y6883860I-71140J0D01*
G37*
G36*
G01X6163860Y6965940D02*
G02X6171340Y6997690I71139J-4D01*
G02X6163860Y7029440I63659J31754D01*
G02X6306140I71140J0D01*
G02X6298660Y6997690I-71139J4D01*
G02X6306140Y6965940I-63659J-31754D01*
G02X6163860I-71140J0D01*
G37*
G36*
G01X3165000Y6938860D02*
G02X3094800Y6998470I0J71141D01*
G02X3048860Y7065000I25204J66530D01*
G02X3120000Y7136140I71140J0D01*
G02X3190200Y7076530I0J-71141D01*
G02X3236140Y7010000I-25204J-66530D01*
G01Y7009950D01*
G02X3234380Y6994250I-71143J27D01*
G03X3247510Y6982370I9907J-2247D01*
G02X3270090Y6986050I22584J-67459D01*
G02X3337560Y6937470I0J-71143D01*
G02X3386140Y6870000I-22563J-67470D01*
G02X3315000Y6798860I-71140J0D01*
G02X3247530Y6847440I0J71143D01*
G02X3198950Y6914910I22563J67470D01*
G01Y6914960D01*
G02X3200710Y6930660I71143J-27D01*
G03X3187580Y6942540I-9907J2247D01*
G02X3165000Y6938860I-22584J67459D01*
G37*
G36*
G01X13483230Y7000000D02*
Y7013470D01*
G02X13413380Y7110000I31775J96530D01*
G02X13616620I101620J0D01*
G02X13560010Y7018890I-101623J0D01*
G03X13557330Y7002600I4503J-9106D01*
G01X13692460Y6867460D01*
G02X13701770Y6845000I-22457J-22468D01*
G01Y6787910D01*
G02X13715740Y6755000I-31779J-32910D01*
G02X13624260I-45740J0D01*
G02X13638230Y6787910I45749J0D01*
G01Y6831840D01*
X13492540Y6977540D01*
G02X13483230Y7000000I22457J22468D01*
G37*
G36*
G01X13743230Y6890000D02*
Y7013470D01*
G02X13673380Y7110000I31775J96530D01*
G02X13876620I101620J0D01*
G02X13806770Y7013470I-101625J0D01*
G01Y6903160D01*
X13812460Y6897460D01*
G02X13821770Y6875000I-22457J-22468D01*
G01Y6787910D01*
G02X13835740Y6755000I-31779J-32910D01*
G02X13744260I-45740J0D01*
G02X13758230Y6787910I45749J0D01*
G01Y6861840D01*
X13752540Y6867540D01*
G02X13743230Y6890000I22457J22468D01*
G37*
G36*
G01X14301990Y7020440D02*
G02X14248380Y7110000I48004J89560D01*
G02X14451620I101620J0D01*
G02X14381770Y7013470I-101625J0D01*
G01Y7005000D01*
G02X14372460Y6982540I-31767J8D01*
G01X14335780Y6945850D01*
X14335720Y6943820D01*
G02X14290000Y6899260I-45720J1175D01*
G02X14244260Y6945000I0J45740D01*
G02X14288820Y6990720I45735J0D01*
G01X14290850Y6990780D01*
X14304370Y7004300D01*
G03X14301990Y7020440I-7183J7186D01*
G37*
G36*
G01X3554390Y7163490D02*
G03X3543490Y7174390I-10128J772D01*
G02X3540000Y7174260I-3446J45612D01*
G02X3585740Y7220000I0J45740D01*
G02X3585610Y7216510I-45742J-44D01*
G03X3596510Y7205610I10128J-772D01*
G02X3600000Y7205740I3446J-45612D01*
G02X3554260Y7160000I0J-45740D01*
G02X3554390Y7163490I45742J44D01*
G37*
G36*
G01X4207040Y7207500D02*
G03X4225460Y7208470I8986J4741D01*
G02X4331600Y7280320I106140J-42472D01*
G02X4424910Y7232050I0J-114323D01*
G03X4441490I8290J5871D01*
G02X4534800Y7280320I93310J-66053D01*
G02Y7051680I0J-114320D01*
G02X4441490Y7099950I0J114323D01*
G03X4424910I-8290J-5871D01*
G02X4331600Y7051680I-93310J66053D01*
G02X4225460Y7123530I0J114322D01*
G03X4207040Y7124500I-9434J-3771D01*
G02X4128400Y7077080I-78640J41497D01*
G02Y7254920I0J88920D01*
G02X4207040Y7207500I0J-88917D01*
G37*
G36*
G01X2624390Y7300830D02*
G03X2626630Y7307680I-2286J4539D01*
G02X2618860Y7340000I63368J32328D01*
G02X2675310Y7409610I71144J0D01*
G02X2740000Y7451140I64690J-29618D01*
G02X2811140Y7380000I0J-71140D01*
G02X2754690Y7310390I-71144J0D01*
G02X2695290Y7269060I-64684J29614D01*
G03X2690600Y7263590I374J-5067D01*
G02X2690740Y7260030I-45601J-3576D01*
G01Y7260000D01*
G02X2599260I-45740J0D01*
G02X2624390Y7300830I45734J0D01*
G37*
G36*
G01X6163860Y7326500D02*
G02X6171340Y7358250I71139J-4D01*
G02X6163860Y7390000I63659J31754D01*
G02X6306140I71140J0D01*
G02X6298660Y7358250I-71139J4D01*
G02X6306140Y7326500I-63659J-31754D01*
G02X6163860I-71140J0D01*
G37*
G36*
G01X14315000Y7396770D02*
X14374810D01*
X14375390Y7396910D01*
G02X14381470Y7397740I7317J-30915D01*
G02X14478000Y7467620I96530J-31732D01*
G02Y7264380I0J-101620D01*
G02X14381810Y7333230I0J101618D01*
G01X14330920D01*
X14330320Y7328830D01*
G02X14285000Y7289260I-45320J6168D01*
G02X14239260Y7335000I0J45740D01*
G02X14283820Y7380720I45735J0D01*
G01X14285850Y7380780D01*
X14292540Y7387460D01*
G02X14315000Y7396770I22468J-22457D01*
G37*
G36*
G01X9948230Y6732910D02*
Y7407090D01*
G02X9934260Y7440000I31779J32910D01*
G02X10025740I45740J0D01*
G02X10011770Y7407090I-45749J0D01*
G01Y6732910D01*
G02X10025740Y6700000I-31779J-32910D01*
G02X9934260I-45740J0D01*
G02X9948230Y6732910I45749J0D01*
G37*
G36*
G01X7813230Y7340000D02*
Y7537090D01*
G02X7799260Y7570000I31779J32910D01*
G02X7890740I45740J0D01*
G02X7876770Y7537090I-45749J0D01*
G01Y7353160D01*
X7892460Y7337460D01*
G02X7901770Y7315000I-22457J-22468D01*
G01Y7211530D01*
G02X7971620Y7115000I-31775J-96530D01*
G02X7768380I-101620J0D01*
G02X7838230Y7211530I101625J0D01*
G01Y7301840D01*
X7822540Y7317540D01*
G02X7813230Y7340000I22457J22468D01*
G37*
G36*
G01X8107540Y7562460D02*
X8124220Y7579150D01*
X8124280Y7581180D01*
G02X8170000Y7625740I45720J-1175D01*
G02X8215740Y7580000I0J-45740D01*
G02X8171180Y7534280I-45735J0D01*
G01X8169150Y7534220D01*
X8161770Y7526840D01*
Y7471530D01*
G02X8231620Y7375000I-31775J-96530D01*
G02X8028380I-101620J0D01*
G02X8098230Y7471530I101625J0D01*
G01Y7540000D01*
G02X8107540Y7562460I31767J-8D01*
G37*
G36*
G01X5290820Y7496800D02*
G02X5334920Y7420000I-44823J-76800D01*
G01Y7419980D01*
G02X5331180Y7394470I-88922J8D01*
G01X5330310Y7391560D01*
X5385940Y7335940D01*
G02X5400820Y7300020I-35943J-35932D01*
G01Y7237230D01*
G02X5436520Y7166000I-53210J-71230D01*
G02X5347600Y7077080I-88920J0D01*
G02X5268960Y7124500I0J88917D01*
G03X5250540Y7123530I-8986J-4741D01*
G02X5144400Y7051680I-106140J42472D01*
G02X5051090Y7099950I0J114323D01*
G03X5034510I-8290J-5871D01*
G02X4941200Y7051680I-93310J66053D01*
G02Y7280320I0J114320D01*
G02X5034510Y7232050I0J-114323D01*
G03X5051090I8290J5871D01*
G02X5144400Y7280320I93310J-66053D01*
G02X5250540Y7208470I0J-114322D01*
G03X5268960Y7207500I9434J3771D01*
G02X5299180Y7240580I78642J-41499D01*
G01Y7278950D01*
X5247070Y7331060D01*
X5245000Y7331090D01*
G02X5167360Y7378500I998J88912D01*
G03X5148940Y7377530I-8986J-4741D01*
G02X5042800Y7305680I-106140J42472D01*
G02X4949490Y7353950I0J114323D01*
G03X4932910I-8290J-5871D01*
G02X4746290I-93310J66053D01*
G03X4729710I-8290J-5871D01*
G02X4543090I-93310J66053D01*
G03X4526510I-8290J-5871D01*
G02X4433200Y7305680I-93310J66053D01*
G02X4327060Y7377530I0J114322D01*
G03X4308640Y7378500I-9434J-3771D01*
G02X4230000Y7331080I-78640J41497D01*
G02X4141080Y7420000I0J88920D01*
G02X4179180Y7492970I88927J0D01*
G01Y7530020D01*
G02X4194060Y7565940I50823J-12D01*
G01X4274060Y7645940D01*
G02X4309980Y7660820I35932J-35943D01*
G01X5170020D01*
G02X5205940Y7645940I-12J-50823D01*
G01X5275940Y7575940D01*
G02X5290820Y7540020I-35943J-35932D01*
G01Y7496800D01*
G37*
G36*
G01X6159590Y7711390D02*
G02X6167070Y7743140I71139J-4D01*
G02X6159590Y7774890I63659J31754D01*
G02X6301870I71140J0D01*
G02X6294390Y7743140I-71139J4D01*
G02X6301870Y7711390I-63659J-31754D01*
G02X6159590I-71140J0D01*
G37*
G36*
G01X9697540Y7837460D02*
X9739220Y7879150D01*
X9739280Y7881180D01*
G02X9785000Y7925740I45720J-1175D01*
G02X9830740Y7880000I0J-45740D01*
G02X9786180Y7834280I-45735J0D01*
G01X9784150Y7834220D01*
X9751770Y7801840D01*
Y7741530D01*
G02X9821620Y7645000I-31775J-96530D01*
G02X9618380I-101620J0D01*
G02X9688230Y7741530I101625J0D01*
G01Y7815000D01*
G02X9697540Y7837460I31767J-8D01*
G37*
G36*
G01X8783500Y7858860D02*
G02X8751750Y7866340I4J71139D01*
G02X8720000Y7858860I-31754J63659D01*
G02Y8001140I0J71140D01*
G02X8751750Y7993660I-4J-71139D01*
G02X8783500Y8001140I31754J-63659D01*
G02X8854290Y7937080I0J-71144D01*
G03X8868850Y7928960I10108J1010D01*
G02X8899990Y7936140I31145J-63961D01*
G01X8900000D01*
G02X8931750Y7928660I-4J-71139D01*
G02X8963500Y7936140I31754J-63659D01*
G02X8975610Y7935100I-10J-71139D01*
G03X8981380Y7938770I869J5005D01*
G02X9050000Y7991140I68620J-18771D01*
G02X9081750Y7983660I-4J-71139D01*
G02X9113500Y7991140I31754J-63659D01*
G02X9182790Y7936110I0J-71138D01*
G02X9185000Y7936140I2071J-71112D01*
G02X9216750Y7928660I-4J-71139D01*
G02X9248500Y7936140I31754J-63659D01*
G01X9248510D01*
G02X9298280Y7915830I-3J-71143D01*
G03X9305380I3550J3625D01*
G02X9355150Y7936140I49773J-50833D01*
G01X9355160D01*
G02X9386910Y7928660I-4J-71139D01*
G02X9418660Y7936140I31754J-63659D01*
G02Y7793860I0J-71140D01*
G02X9386910Y7801340I4J71139D01*
G02X9355160Y7793860I-31754J63659D01*
G01X9355150D01*
G02X9305380Y7814170I3J71143D01*
G03X9298280I-3550J-3625D01*
G02X9248510Y7793860I-49773J50833D01*
G01X9248500D01*
G02X9216750Y7801340I4J71139D01*
G02X9185000Y7793860I-31754J63659D01*
G02X9115710Y7848890I0J71138D01*
G02X9113500Y7848860I-2071J71112D01*
G02X9081750Y7856340I4J71139D01*
G02X9050000Y7848860I-31754J63659D01*
G02X9037890Y7849900I10J71139D01*
G03X9032120Y7846230I-869J-5005D01*
G02X8963500Y7793860I-68620J18771D01*
G02X8931750Y7801340I4J71139D01*
G02X8900000Y7793860I-31754J63659D01*
G02X8829210Y7857920I0J71144D01*
G03X8814650Y7866040I-10108J-1010D01*
G02X8783510Y7858860I-31145J63961D01*
G01X8783500D01*
G37*
G36*
G01X6530000Y8003860D02*
G02X6459140Y8068730I0J71137D01*
G02X6413860Y8135000I25855J66270D01*
G02X6485000Y8206140I71140J0D01*
G02X6555860Y8141270I0J-71137D01*
G02X6601140Y8075000I-25855J-66270D01*
G02X6530000Y8003860I-71140J0D01*
G37*
G36*
G01X6153860Y8076500D02*
G02X6161340Y8108250I71139J-4D01*
G02X6153860Y8140000I63659J31754D01*
G02X6296140I71140J0D01*
G02X6288660Y8108250I-71139J4D01*
G02X6296140Y8076500I-63659J-31754D01*
G02X6153860I-71140J0D01*
G37*
G36*
G01X9390000Y8165740D02*
G02X9422910Y8151770I0J-45749D01*
G01X9553120D01*
X9554170Y8155480D01*
G02X9652000Y8229620I97830J-27475D01*
G02Y8026380I0J-101620D01*
G02X9558490Y8088230I0J101613D01*
G01X9422910D01*
G02X9390000Y8074260I-32910J31779D01*
G02Y8165740I0J45740D01*
G37*
G36*
G01X979980Y8250820D02*
X1260020D01*
G02X1295940Y8235940I-12J-50823D01*
G01X1341050Y8190820D01*
X1480000D01*
G02X1530820Y8140000I0J-50820D01*
G02X1521020Y8110000I-50818J0D01*
G02X1530820Y8080000I-41018J-30000D01*
G02X1480000Y8029180I-50820J0D01*
G01X1379980D01*
G02X1344060Y8044060I12J50823D01*
G01X1238950Y8149180D01*
X1001050D01*
X982850Y8130980D01*
G03X987530Y8113950I7182J-7184D01*
G02X1001750Y8108660I-17553J-68941D01*
G02X1033500Y8116140I31754J-63659D01*
G02X1092620Y8084570I0J-71141D01*
G03X1109050Y8083940I8444J5649D01*
G02X1165000Y8111140I55950J-43944D01*
G02X1196750Y8103660I-4J-71139D01*
G02X1228500Y8111140I31754J-63659D01*
G02Y7968860I0J-71140D01*
G02X1196750Y7976340I4J71139D01*
G02X1165000Y7968860I-31754J63659D01*
G02X1105880Y8000430I0J71141D01*
G03X1089450Y8001060I-8444J-5649D01*
G02X1033500Y7973860I-55950J43944D01*
G02X1001750Y7981340I4J71139D01*
G02X970000Y7973860I-31754J63659D01*
G01X969990D01*
G02X914650Y8000300I4J71143D01*
G03X898850I-7900J-6379D01*
G02X843510Y7973860I-55344J44703D01*
G01X843500D01*
G02X811750Y7981340I4J71139D01*
G02X780000Y7973860I-31754J63659D01*
G02Y8116140I0J71140D01*
G02X811750Y8108660I-4J-71139D01*
G02X843500Y8116140I31754J-63659D01*
G02X857080Y8114830I-9J-71139D01*
G03X869180Y8124800I1940J9973D01*
G01Y8140020D01*
G02X884060Y8175940I50823J-12D01*
G01X944060Y8235940D01*
G02X979980Y8250820I35932J-35943D01*
G37*
G36*
G01X2789980Y8270820D02*
X3030020D01*
G02X3065940Y8255940I-12J-50823D01*
G01X3131050Y8190820D01*
X3260000D01*
G02X3310820Y8140000I0J-50820D01*
G02X3301020Y8110000I-50818J0D01*
G02X3310820Y8080000I-41018J-30000D01*
G02X3260000Y8029180I-50820J0D01*
G01X3169980D01*
G02X3134060Y8044060I12J50823D01*
G01X3008950Y8169180D01*
X2811050D01*
X2775820Y8133950D01*
Y8101040D01*
X2780170Y8100410D01*
G02X2801750Y8093660I-10177J-70408D01*
G02X2833500Y8101140I31754J-63659D01*
G02X2883900Y8080210I0J-71147D01*
G03X2891100I3600J3581D01*
G02X2941500Y8101140I50400J-50217D01*
G02X2973250Y8093660I-4J-71139D01*
G02X3005000Y8101140I31754J-63659D01*
G02Y7958860I0J-71140D01*
G02X2973250Y7966340I4J71139D01*
G02X2941500Y7958860I-31754J63659D01*
G02X2891100Y7979790I0J71147D01*
G03X2883900I-3600J-3581D01*
G02X2833500Y7958860I-50400J50217D01*
G02X2801750Y7966340I4J71139D01*
G02X2770000Y7958860I-31754J63659D01*
G02X2721220Y7978220I0J71134D01*
G03X2707280I-6970J-7394D01*
G02X2658500Y7958860I-48780J51774D01*
G02X2626750Y7966340I4J71139D01*
G02X2595000Y7958860I-31754J63659D01*
G02Y8101140I0J71140D01*
G02X2626750Y8093660I-4J-71139D01*
G02X2658500Y8101140I31754J-63659D01*
G02X2663330Y8100980I61J-71142D01*
G03X2674180Y8111110I692J10135D01*
G01Y8155020D01*
G02X2689060Y8190940I50823J-12D01*
G01X2754060Y8255940D01*
G02X2789980Y8270820I35932J-35943D01*
G37*
G36*
G01X2085000Y8206960D02*
G02Y8273040I0J33040D01*
G02X2111980Y8259070I0J-33038D01*
G01X2174000D01*
G02X2187480Y8253480I-8J-19067D01*
G01X2238010Y8202960D01*
X2241390Y8204920D01*
G02X2286000Y8216920I44610J-76919D01*
G02X2197080Y8128000I0J-88920D01*
G02X2209080Y8172610I88919J0D01*
G01X2211040Y8175990D01*
X2166100Y8220930D01*
X2111980D01*
G02X2085000Y8206960I-26980J19068D01*
G37*
G36*
G01X6950820Y8270000D02*
Y8189980D01*
G02X6935940Y8154060I-50823J12D01*
G01X6873940Y8092060D01*
G02X6838020Y8077180I-35932J35943D01*
G01X6819000D01*
G02X6731000Y8026380I-88000J50820D01*
G02Y8229620I0J101620D01*
G02X6811670Y8189800I0J-101623D01*
G03X6826920Y8188790I8067J6175D01*
G01X6849180Y8211050D01*
Y8270000D01*
G02X6950820I50820J0D01*
G37*
G36*
G01X6058860Y8266500D02*
G02X6066340Y8298250I71139J-4D01*
G02X6058860Y8330000I63659J31754D01*
G02X6201140I71140J0D01*
G02X6193660Y8298250I-71139J4D01*
G02X6201140Y8266500I-63659J-31754D01*
G02X6058860I-71140J0D01*
G37*
G36*
G01X6615000Y8318860D02*
G02X6583250Y8326340I4J71139D01*
G02X6551500Y8318860I-31754J63659D01*
G02Y8461140I0J71140D01*
G02X6583250Y8453660I-4J-71139D01*
G02X6615000Y8461140I31754J-63659D01*
G01X6615010D01*
G02X6658740Y8446110I-4J-71142D01*
G02X6695160Y8456140I36420J-61107D01*
G02X6726910Y8448660I-4J-71139D01*
G02X6758660Y8456140I31754J-63659D01*
G02Y8313860I0J-71140D01*
G02X6726910Y8321340I4J71139D01*
G02X6695160Y8313860I-31754J63659D01*
G01X6695150D01*
G02X6651420Y8328890I4J71142D01*
G02X6615000Y8318860I-36420J61107D01*
G37*
G36*
G01X11988230Y8127910D02*
Y8432350D01*
G02X11971760Y8467500I29273J35150D01*
G02X12063240I45740J0D01*
G02X12051770Y8437210I-45730J0D01*
G01Y8127910D01*
G02X12052910Y8126770I-31770J-32910D01*
G01X14105000D01*
G02X14127460Y8117460I-8J-31767D01*
G01X14647460Y7597460D01*
G02X14656770Y7575000I-22457J-22468D01*
G01Y7230000D01*
G02X14625000Y7198230I-31770J0D01*
G01X14568160D01*
X14560780Y7190850D01*
X14560720Y7188820D01*
G02X14515000Y7144260I-45720J1175D01*
G02X14469260Y7190000I0J45740D01*
G02X14513820Y7235720I45735J0D01*
G01X14515850Y7235780D01*
X14532540Y7252460D01*
G02X14555000Y7261770I22468J-22457D01*
G01X14593230D01*
Y7561840D01*
X14091840Y8063230D01*
X12052910D01*
G02X12020000Y8049260I-32910J31779D01*
G02X11974260Y8095000I0J45740D01*
G02X11988230Y8127910I45749J0D01*
G37*
G36*
G01X14143860Y9143570D02*
G02X14151340Y9175320I71139J-4D01*
G02X14143860Y9207070I63659J31754D01*
G02X14286140I71140J0D01*
G02X14278660Y9175320I-71139J4D01*
G02X14286140Y9143570I-63659J-31754D01*
G02X14143860I-71140J0D01*
G37*
G36*
G01X14452780Y9343660D02*
G02X14469500Y9349530I31741J-63664D01*
G02X14540000Y9411140I70500J-9531D01*
G02X14571750Y9403660I-4J-71139D01*
G02X14603500Y9411140I31754J-63659D01*
G02Y9268860I0J-71140D01*
G02X14571750Y9276340I4J71139D01*
G02X14555030Y9270470I-31741J63664D01*
G02X14484530Y9208860I-70500J9531D01*
G02X14452780Y9216340I4J71139D01*
G02X14421030Y9208860I-31754J63659D01*
G02Y9351140I0J71140D01*
G02X14452780Y9343660I-4J-71139D01*
G37*
G36*
G01X14839530Y9273860D02*
G02X14807780Y9281340I4J71139D01*
G02X14776030Y9273860I-31754J63659D01*
G02Y9416140I0J71140D01*
G02X14807780Y9408660I-4J-71139D01*
G02X14839530Y9416140I31754J-63659D01*
G02X14903400Y9376320I0J-71133D01*
G03X14919270Y9373200I9122J4477D01*
G02X14966500Y9391140I47230J-53200D01*
G02X14998250Y9383660I-4J-71139D01*
G02X15030000Y9391140I31754J-63659D01*
G02Y9248860I0J-71140D01*
G02X14998250Y9256340I4J71139D01*
G02X14966500Y9248860I-31754J63659D01*
G02X14902630Y9288680I0J71133D01*
G03X14886760Y9291800I-9122J-4477D01*
G02X14839530Y9273860I-47230J53200D01*
G37*
G36*
G01X3952640Y9048140D02*
G03X3943670Y9064060I-8353J5780D01*
G02X3931600Y9063690I-12093J197441D01*
G01X3931550D01*
G02X4129360Y9261500I0J197810D01*
G02X4090000Y9143080I-197821J0D01*
G03X4098390Y9126840I8137J-6084D01*
G02X4103000Y9126900I4685J-182839D01*
G02X3920100Y8944000I0J-182900D01*
G02X3952640Y9048140I182913J0D01*
G37*
G36*
G01X5377610Y9126840D02*
G03X5386000Y9143080I253J10156D01*
G02X5346640Y9261500I158461J118420D01*
G02X5544450Y9063690I197810J0D01*
G01X5544400D01*
G02X5532330Y9064060I23J197811D01*
G03X5523360Y9048140I-617J-10140D01*
G02X5555900Y8944000I-150373J-104140D01*
G02X5373000Y9126900I-182900J0D01*
G02X5377610Y9126840I-75J-182899D01*
G37*
G36*
G01X12703860Y9516500D02*
G02X12711340Y9548250I71139J-4D01*
G02X12703860Y9580000I63659J31754D01*
G02X12846140I71140J0D01*
G02X12838660Y9548250I-71139J4D01*
G02X12846140Y9516500I-63659J-31754D01*
G02X12703860I-71140J0D01*
G37*
G36*
G01X14605000Y9746140D02*
G02X14643250Y9734980I0J-71129D01*
G02X14681500Y9746140I38250J-59969D01*
G02X14713250Y9738660I-4J-71139D01*
G02X14745000Y9746140I31754J-63659D01*
G02Y9603860I0J-71140D01*
G02X14713250Y9611340I4J71139D01*
G02X14681500Y9603860I-31754J63659D01*
G02X14643250Y9615020I0J71129D01*
G02X14605000Y9603860I-38250J59969D01*
G02X14573250Y9611340I4J71139D01*
G02X14541500Y9603860I-31754J63659D01*
G02X14503250Y9615020I0J71129D01*
G02X14465000Y9603860I-38250J59969D01*
G02X14433250Y9611340I4J71139D01*
G02X14401500Y9603860I-31754J63659D01*
G02X14357580Y9619040I0J71126D01*
G02X14313660Y9603860I-43920J55946D01*
G02X14281910Y9611340I4J71139D01*
G02X14250160Y9603860I-31754J63659D01*
G02Y9746140I0J71140D01*
G02X14281910Y9738660I-4J-71139D01*
G02X14313660Y9746140I31754J-63659D01*
G02X14357580Y9730960I0J-71126D01*
G02X14401500Y9746140I43920J-55946D01*
G02X14433250Y9738660I-4J-71139D01*
G02X14465000Y9746140I31754J-63659D01*
G02X14503250Y9734980I0J-71129D01*
G02X14541500Y9746140I38250J-59969D01*
G02X14573250Y9738660I-4J-71139D01*
G02X14605000Y9746140I31754J-63659D01*
G37*
G36*
G01X12508860Y9617440D02*
G02X12516340Y9649190I71139J-4D01*
G02X12508860Y9680940I63659J31754D01*
G02X12651140I71140J0D01*
G02X12643660Y9649190I-71139J4D01*
G02X12651140Y9617440I-63659J-31754D01*
G02X12508860I-71140J0D01*
G37*
G36*
G01X10065020Y6175020D02*
Y5664980D01*
X7524980D01*
Y6175020D01*
X10065020D01*
G37*
G36*
G01X1895140Y8823500D02*
G02X1667010Y8644980I-228130J56503D01*
G02Y9115020I0J235020D01*
G02X1895140Y8936500I0J-235023D01*
G03X1914860I9860J2439D01*
G02X2142990Y9115020I228130J-56503D01*
G02Y8644980I0J-235020D01*
G02X1914860Y8823500I0J235023D01*
G03X1895140I-9860J-2439D01*
G37*
G36*
G01X3048000Y8788380D02*
G02X3149620Y8890000I0J101620D01*
G02X3146850Y8866440I-101619J5D01*
G01X3146190Y8863680D01*
X3185940Y8823940D01*
G02X3200820Y8788020I-35943J-35932D01*
G01Y8742340D01*
G02X3230430Y8680000I-50819J-62340D01*
G01Y8679990D01*
G02X3222800Y8645800I-80432J3D01*
G03X3229190Y8631720I9195J-4317D01*
G02X3305840Y8529990I-29183J-101730D01*
G02X3200010Y8424160I-105830J0D01*
G02X3108760Y8476390I0J105826D01*
G03X3091240I-8760J-5150D01*
G02X2999990Y8424160I-91250J53596D01*
G02X2894160Y8529990I0J105830D01*
G01Y8530010D01*
G02X2898950Y8561480I105832J-9D01*
G03X2890200Y8574620I-9696J3027D01*
G02X2870460Y8578370I9792J105378D01*
G03X2858800Y8563580I-2835J-9756D01*
G02X2867720Y8529990I-58808J-33596D01*
G02X2732260I-67730J0D01*
G02X2741180Y8563580I67728J-6D01*
G03X2729520Y8578370I-8825J5034D01*
G02X2709780Y8574620I-29532J101628D01*
G03X2701030Y8561480I946J-10113D01*
G02X2705820Y8530010I-101042J-31479D01*
G01Y8529990D01*
G02X2599990Y8424160I-105830J0D01*
G02X2508750Y8476370I0J105829D01*
G03X2491230I-8760J-5147D01*
G02X2399990Y8424160I-91240J53619D01*
G02X2294160Y8529990I0J105830D01*
G02X2382420Y8634350I105828J0D01*
G03X2389770Y8649020I-1683J10020D01*
G02X2382270Y8680000I60234J30980D01*
G02X2517730I67730J0D01*
G02X2479590Y8619070I-67739J0D01*
G03X2476670Y8602930I4438J-9137D01*
G02X2491230Y8583610I-76683J-72936D01*
G03X2508750I8760J5147D01*
G02X2590200Y8635370I91244J-53617D01*
G03X2598950Y8648510I-946J10113D01*
G02X2594160Y8679980I101042J31479D01*
G01Y8680000D01*
G02X2699990Y8785830I105830J0D01*
G02X2791230Y8733620I0J-105829D01*
G03X2808750I8760J5147D01*
G02X2899990Y8785830I91240J-53619D01*
G02X3005820Y8680000I0J-105830D01*
G01Y8679980D01*
G02X3001030Y8648510I-105832J9D01*
G03X3009780Y8635370I9696J-3027D01*
G02X3091240Y8583590I-9795J-105376D01*
G03X3108760I8760J5150D01*
G02X3115620Y8593860I91284J-53549D01*
G03X3112290Y8608960I-8100J6131D01*
G02X3069570Y8680000I37707J71040D01*
G02X3099180Y8742340I80429J0D01*
G01Y8766950D01*
X3074320Y8791810D01*
X3071560Y8791150D01*
G02X3048000Y8788380I-23565J98849D01*
G37*
G36*
G01X1270000D02*
G02X1371620Y8890000I0J101620D01*
G02X1368850Y8866440I-101619J5D01*
G01X1368190Y8863680D01*
X1395940Y8835940D01*
G02X1410820Y8800020I-35943J-35932D01*
G01Y8742340D01*
G02X1440430Y8680000I-50819J-62340D01*
G01Y8679990D01*
G02X1432800Y8645800I-80432J3D01*
G03X1439190Y8631720I9195J-4317D01*
G02X1515840Y8529990I-29183J-101730D01*
G02X1410010Y8424160I-105830J0D01*
G02X1318760Y8476390I0J105826D01*
G03X1301240I-8760J-5150D01*
G02X1209990Y8424160I-91250J53596D01*
G02X1104160Y8529990I0J105830D01*
G01Y8530010D01*
G02X1108950Y8561480I105832J-9D01*
G03X1100200Y8574620I-9696J3027D01*
G02X1080460Y8578370I9792J105378D01*
G03X1068800Y8563580I-2835J-9756D01*
G02X1077720Y8529990I-58808J-33596D01*
G02X942260I-67730J0D01*
G02X951180Y8563580I67728J-6D01*
G03X939520Y8578370I-8825J5034D01*
G02X919780Y8574620I-29532J101628D01*
G03X911030Y8561480I946J-10113D01*
G02X915820Y8530010I-101042J-31479D01*
G01Y8529990D01*
G02X809990Y8424160I-105830J0D01*
G02X718750Y8476370I0J105829D01*
G03X701230I-8760J-5147D01*
G02X609990Y8424160I-91240J53619D01*
G02X504160Y8529990I0J105830D01*
G02X592420Y8634350I105828J0D01*
G03X599770Y8649020I-1683J10020D01*
G02X592270Y8680000I60234J30980D01*
G02X727730I67730J0D01*
G02X689590Y8619070I-67739J0D01*
G03X686670Y8602930I4438J-9137D01*
G02X701230Y8583610I-76683J-72936D01*
G03X718750I8760J5147D01*
G02X800200Y8635370I91244J-53617D01*
G03X808950Y8648510I-946J10113D01*
G02X804160Y8679980I101042J31479D01*
G01Y8680000D01*
G02X909990Y8785830I105830J0D01*
G02X1001230Y8733620I0J-105829D01*
G03X1018750I8760J5147D01*
G02X1109990Y8785830I91240J-53619D01*
G02X1215820Y8680000I0J-105830D01*
G01Y8679980D01*
G02X1211030Y8648510I-105832J9D01*
G03X1219780Y8635370I9696J-3027D01*
G02X1301240Y8583590I-9795J-105376D01*
G03X1318760I8760J5150D01*
G02X1325620Y8593860I91284J-53548D01*
G03X1322290Y8608960I-8100J6131D01*
G02X1279570Y8680000I37707J71040D01*
G02X1309180Y8742340I80429J0D01*
G01Y8778950D01*
X1296320Y8791810D01*
X1293560Y8791150D01*
G02X1270000Y8788380I-23565J98849D01*
G37*
G36*
G01X10497170Y7616440D02*
G02X10565000Y7666140I67830J-21437D01*
G02X10596750Y7658660I-4J-71139D01*
G02X10628500Y7666140I31754J-63659D01*
G02Y7523860I0J-71140D01*
G02X10596750Y7531340I4J71139D01*
G02X10565000Y7523860I-31754J63659D01*
G02X10499100Y7568210I0J71136D01*
G03X10480650Y7569040I-9416J-3823D01*
G02X10440000Y7544260I-40650J20952D01*
G02Y7635740I0J45740D01*
G02X10478850Y7614140I0J-45738D01*
G03X10497170Y7616440I8631J5361D01*
G37*
G36*
G01X14308230Y5215000D02*
G02X14317540Y5237460I31767J-8D01*
G01X14537540Y5457460D01*
G02X14560000Y5466770I22468J-22457D01*
G01X15156840D01*
X15243230Y5553160D01*
Y6651840D01*
X15163080Y6731990D01*
G03X15145740Y6724840I-7181J-7187D01*
G02X15100000Y6679260I-45740J160D01*
G02X15054260Y6725000I0J45740D01*
G02X15099840Y6770740I45740J0D01*
G03X15106990Y6788080I-37J10159D01*
G01X15076840Y6818230D01*
X15047910D01*
G02X15015000Y6804260I-32910J31779D01*
G02X14969260Y6850000I0J45740D01*
G02X14981080Y6880680I45727J0D01*
G03Y6894320I-7535J6820D01*
G02X14969260Y6925000I33907J30680D01*
G02X15015000Y6970740I45740J0D01*
G02X15046500Y6958170I0J-45754D01*
G01X15047970Y6956770D01*
X15057430D01*
G02X15079890Y6947460I-8J-31767D01*
G01X15305890Y6721470D01*
G03X15323230Y6728650I7180J7187D01*
G01Y7045000D01*
G02X15332540Y7067460I31767J-8D01*
G01X15389220Y7124150D01*
X15389280Y7126180D01*
G02X15435000Y7170740I45720J-1175D01*
G02X15480740Y7125000I0J-45740D01*
G02X15436180Y7079280I-45735J0D01*
G01X15434150Y7079220D01*
X15386770Y7031840D01*
Y5463160D01*
X15912460Y4937460D01*
G02X15921770Y4915000I-22457J-22468D01*
G01Y3557910D01*
G02X15935740Y3525000I-31779J-32910D01*
G02X15844260I-45740J0D01*
G02X15858230Y3557910I45749J0D01*
G01Y4901840D01*
X15332540Y5427540D01*
G02X15323230Y5450000I22457J22468D01*
G01Y5476350D01*
G03X15305890Y5483530I-10160J-7D01*
G01X15204890Y5382540D01*
G02X15182430Y5373230I-22468J22457D01*
G01X14585590D01*
X14401770Y5189410D01*
Y4789160D01*
G03X14417930Y4780970I10158J6D01*
G02X14477990Y4800620I60064J-81972D01*
G01X14478000D01*
G02X14579620Y4699000I0J-101620D01*
G02X14570250Y4656380I-101615J0D01*
G01X14568770Y4653160D01*
X14580160Y4641770D01*
X14602090D01*
G02X14635000Y4655740I32910J-31779D01*
G02Y4564260I0J-45740D01*
G02X14602090Y4578230I0J45749D01*
G01X14567000D01*
G02X14544540Y4587540I8J31767D01*
G01X14523790Y4608280D01*
G02X14478000Y4597380I-45790J90730D01*
G01X14477990D01*
G02X14417930Y4617030I4J101622D01*
G03X14401770Y4608840I-6002J-8196D01*
G01Y4315000D01*
G02X14392460Y4292540I-31767J8D01*
G01X14330780Y4230850D01*
X14330720Y4228820D01*
G02X14285000Y4184260I-45720J1175D01*
G02X14239260Y4230000I0J45740D01*
G02X14252810Y4262500I45751J0D01*
G02X14239260Y4295000I32201J32500D01*
G02X14262390Y4334760I45738J0D01*
G03Y4352430I-5018J8835D01*
G02X14239260Y4392190I22608J39760D01*
G02X14285000Y4437930I45740J0D01*
G02X14295690Y4436660I-13J-45738D01*
G03X14308230Y4446540I2379J9878D01*
G01Y5215000D01*
G37*
G36*
G01X5754000Y5283180D02*
X5635980D01*
G02X5600060Y5298060I12J50823D01*
G01X5554060Y5344060D01*
G02X5545860Y5354820I35962J35910D01*
G03X5528480Y5355280I-8829J-5031D01*
G02X5490000Y5334260I-38480J24711D01*
G02Y5425740I0J45740D01*
G02X5528480Y5404720I0J-45731D01*
G03X5545860Y5405180I8551J5491D01*
G02X5590000Y5430820I44140J-25174D01*
G01X5590020D01*
G02X5625940Y5415940I-12J-50823D01*
G01X5657050Y5384820D01*
X5754000D01*
G02X5842000Y5435620I88000J-50820D01*
G02Y5232380I0J-101620D01*
G02X5754000Y5283180I0J101620D01*
G37*
G36*
G01X12980500Y5360590D02*
G02X13025000Y5395740I44500J-10594D01*
G02X13059190Y5380380I0J-45732D01*
G03X13076460Y5384010I7599J6746D01*
G02X13120000Y5415740I43540J-14008D01*
G02Y5324260I0J-45740D01*
G02X13085810Y5339620I0J45732D01*
G03X13068540Y5335990I-7599J-6746D01*
G02X13025000Y5304260I-43540J14008D01*
G02X12992660Y5317650I0J45749D01*
G03X12975330Y5310160I-7177J-7188D01*
G02X12945610Y5235310I-101579J-2992D01*
G01X12909690Y5199390D01*
G02X12837830Y5169620I-71866J71858D01*
G02X12736200Y5271250I0J101630D01*
G02X12765970Y5343110I101628J-6D01*
G01X12801890Y5379030D01*
G02X12961820Y5357880I71861J-71857D01*
G03X12980500Y5360590I8801J5070D01*
G37*
G36*
G01X14480000Y3971770D02*
X14865000D01*
G02X14887460Y3962460I-8J-31767D01*
G01X15123160Y3726770D01*
X15184610D01*
G03X15189510Y3745830I0J10160D01*
G02X15130280Y3846000I55089J100170D01*
G02X15244600Y3960320I114320J0D01*
G01X15295400D01*
G02X15409720Y3846000I0J-114320D01*
G02X15350490Y3745830I-114319J0D01*
G03X15355390Y3726770I4900J-8900D01*
G01X15371840D01*
X15427540Y3782460D01*
G02X15450000Y3791770I22468J-22457D01*
G01X15686840D01*
X15744220Y3849150D01*
X15744280Y3851180D01*
G02X15790000Y3895740I45720J-1175D01*
G02X15835740Y3850000I0J-45740D01*
G02X15791180Y3804280I-45735J0D01*
G01X15789150Y3804220D01*
X15732430Y3747500D01*
X15794150Y3685780D01*
X15796180Y3685720D01*
G02X15840740Y3640000I-1175J-45720D01*
G02X15795000Y3594260I-45740J0D01*
G02X15749280Y3638820I0J45735D01*
G01X15749220Y3640850D01*
X15686840Y3703230D01*
X15478160D01*
X15417460Y3642540D01*
G02X15395000Y3633230I-22468J22457D01*
G01X15090500D01*
G02X15068040Y3642540I8J31767D01*
G01X14837340Y3873230D01*
X14507660D01*
X14261960Y3627540D01*
G02X14239500Y3618230I-22468J22457D01*
G01X13942660D01*
X13581960Y3257540D01*
G02X13559500Y3248230I-22468J22457D01*
G01X12828160D01*
X12812460Y3232540D01*
G02X12790000Y3223230I-22468J22457D01*
G01X12732910D01*
G02X12700000Y3209260I-32910J31779D01*
G02X12654260Y3255000I0J45740D01*
G02X12672860Y3291820I45744J0D01*
G03Y3308180I-6023J8180D01*
G02X12654260Y3345000I27144J36820D01*
G02X12700000Y3390740I45740J0D01*
G02X12732910Y3376770I0J-45749D01*
G01X12785000D01*
G02X12807460Y3367460I-8J-31767D01*
G01X12828160Y3346770D01*
X13531840D01*
X13887540Y3702460D01*
G02X13910000Y3711770I22468J-22457D01*
G01X14206840D01*
X14457540Y3962460D01*
G02X14480000Y3971770I22468J-22457D01*
G37*
G36*
G01X14866770Y3080000D02*
G02X14857460Y3057540I-31767J8D01*
G01X14569040Y2769110D01*
G03X14576220Y2751770I7187J-7180D01*
G01X15555000D01*
G02X15577460Y2742460I-8J-31767D01*
G01X15946160Y2373770D01*
X16060280D01*
Y2430900D01*
G02X16085700Y2456320I25420J0D01*
G01X16314300D01*
G02X16339720Y2430900I0J-25420D01*
G01Y2253100D01*
G02X16314300Y2227680I-25420J0D01*
G01X16085700D01*
G02X16060280Y2253100I0J25420D01*
G01Y2310230D01*
X15933000D01*
G02X15910540Y2319540I8J31767D01*
G01X15541840Y2688230D01*
X14297910D01*
G02X14265000Y2674260I-32910J31779D01*
G02X14219260Y2720000I0J45740D01*
G02X14225450Y2742970I45738J-7D01*
G03X14216660Y2758230I-8789J5099D01*
G01X14183160D01*
X14052460Y2627540D01*
G02X14030000Y2618230I-22468J22457D01*
G01X13950630D01*
G03X13944160Y2600240I3J-10160D01*
G02X13960740Y2565000I-29160J-35240D01*
G02X13869260I-45740J0D01*
G02X13885840Y2600240I45740J0D01*
G03X13879370Y2618230I-6473J7830D01*
G01X13248160D01*
X12835780Y2205850D01*
X12835720Y2203820D01*
G02X12790000Y2159260I-45720J1175D01*
G02X12744260Y2205000I0J45740D01*
G02X12788820Y2250720I45735J0D01*
G01X12790850Y2250780D01*
X13212540Y2672460D01*
G02X13235000Y2681770I22468J-22457D01*
G01X14016840D01*
X14147540Y2812460D01*
G02X14161360Y2820570I22468J-22457D01*
G03X14164540Y2838590I-2761J9778D01*
G02X14122380Y2921000I59463J82410D01*
G02X14224000Y3022620I101620J0D01*
G02X14269790Y3011720I0J-101630D01*
G01X14285540Y3027460D01*
G02X14308000Y3036770I22468J-22457D01*
G01X14377090D01*
G02X14410000Y3050740I32910J-31779D01*
G02Y2959260I0J-45740D01*
G02X14377090Y2973230I0J45749D01*
G01X14321160D01*
X14314770Y2966840D01*
X14316250Y2963620D01*
G02X14325620Y2921000I-92245J-42620D01*
G02X14285400Y2840030I-101613J0D01*
G03X14291530Y2821770I6135J-8099D01*
G01X14531840D01*
X14803230Y3093160D01*
Y3671840D01*
X14696840Y3778230D01*
X14612910D01*
G02X14580000Y3764260I-32910J31779D01*
G02Y3855740I0J45740D01*
G02X14612910Y3841770I0J-45749D01*
G01X14710000D01*
G02X14732460Y3832460I-8J-31767D01*
G01X14857460Y3707460D01*
G02X14866770Y3685000I-22457J-22468D01*
G01Y3400070D01*
G03X14882940Y3391880I10159J0D01*
G02X14910000Y3400740I27060J-36893D01*
G02Y3309260I0J-45740D01*
G02X14882940Y3318120I0J45753D01*
G03X14866770Y3309930I-6011J-8190D01*
G01Y3080000D01*
G37*
G36*
G01X14660000Y3700740D02*
G02X14705740Y3655000I0J-45740D01*
G02X14661180Y3609280I-45735J0D01*
G01X14659150Y3609220D01*
X14643770Y3593840D01*
X14649480Y3588130D01*
X14652360Y3588960D01*
G02X14664990Y3590740I12636J-43961D01*
G01X14665000D01*
G02Y3499260I0J-45740D01*
G02X14619260Y3544840I0J45740D01*
G03X14601920Y3551990I-10159J-37D01*
G01X14472460Y3422540D01*
G02X14450000Y3413230I-22468J22457D01*
G01X14301530D01*
G02X14205000Y3343380I-96530J31775D01*
G02Y3546620I0J101620D01*
G02X14301530Y3476770I0J-101625D01*
G01X14436840D01*
X14614220Y3654150D01*
X14614280Y3656180D01*
G02X14660000Y3700740I45720J-1175D01*
G37*
G36*
G01X10414090Y3605170D02*
G02X10405020Y3604260I-9079J44831D01*
G01X10405000D01*
G02Y3695740I0J45740D01*
G02X10449870Y3658870I0J-45738D01*
G03X10455860Y3654880I4982J989D01*
G02X10464930Y3655790I9079J-44831D01*
G01X10464950D01*
G02X10510690Y3610050I0J-45740D01*
G02X10503440Y3585340I-45734J0D01*
G03X10504950Y3578340I4276J-2740D01*
G02X10525740Y3540000I-24957J-38340D01*
G02X10511770Y3507090I-45749J0D01*
G01Y3375000D01*
G02X10502460Y3352540I-31767J8D01*
G01X10367460Y3217540D01*
G02X10345000Y3208230I-22468J22457D01*
G01X10278160D01*
X10158960Y3089040D01*
G02X10136500Y3079730I-22468J22457D01*
G01X10066030D01*
G02X9969500Y3009880I-96530J31775D01*
G02Y3213120I0J101620D01*
G02X10066030Y3143270I0J-101625D01*
G01X10123340D01*
X10242540Y3262460D01*
G02X10265000Y3271770I22468J-22457D01*
G01X10269370D01*
G03X10275840Y3289760I-3J10160D01*
G02X10259260Y3325000I29160J35240D01*
G02X10350740I45740J0D01*
G02X10319630Y3281660I-45744J0D01*
G01X10316170Y3280500D01*
Y3271770D01*
X10331840D01*
X10448230Y3388160D01*
Y3507090D01*
G02X10434260Y3540000I31779J32910D01*
G02X10441510Y3564710I45734J0D01*
G03X10440000Y3571710I-4276J2740D01*
G02X10420080Y3601180I24953J38334D01*
G03X10414090Y3605170I-4982J-989D01*
G37*
G36*
G01X10105000Y3316810D02*
G02X10104260Y3325000I45000J8194D01*
G02X10150000Y3279260I45740J0D01*
G02X10129540Y3284090I0J45750D01*
G03X10115000Y3273190I-4543J-9087D01*
G02X10115740Y3265000I-45000J-8194D01*
G02X10070000Y3310740I-45740J0D01*
G02X10090460Y3305910I0J-45750D01*
G03X10105000Y3316810I4543J9087D01*
G37*
G36*
G01X15454550Y1379090D02*
G02X15429260Y1420000I20444J40910D01*
G02X15520740I45740J0D01*
G02X15495450Y1379090I-45734J0D01*
G03Y1360910I4546J-9090D01*
G02X15520740Y1320000I-20444J-40910D01*
G02X15429260I-45740J0D01*
G02X15454550Y1360910I45734J0D01*
G03Y1379090I-4546J9090D01*
G37*
G36*
G01X2143160Y6701770D02*
X2513100D01*
G03X2520210Y6719190I2J10160D01*
G02X2498860Y6770000I49785J50810D01*
G02X2547510Y6837490I71138J0D01*
G02X2615000Y6886140I67490J-22488D01*
G01X2615010D01*
G02X2625970Y6885290I-4J-71140D01*
G03X2637210Y6898410I1561J10037D01*
G02X2633860Y6919970I67793J21574D01*
G01Y6920000D01*
G02X2682510Y6987490I71138J0D01*
G02X2750000Y7036140I67490J-22488D01*
G02X2821140Y6965000I0J-71140D01*
G02X2772490Y6897510I-71138J0D01*
G02X2705000Y6848860I-67490J22488D01*
G01X2704990D01*
G02X2694030Y6849710I4J71140D01*
G03X2682790Y6836590I-1561J-10037D01*
G02X2686140Y6815030I-67793J-21574D01*
G01Y6815000D01*
G02X2637490Y6747510I-71138J0D01*
G02X2619790Y6719190I-67490J22490D01*
G03X2626900Y6701770I7108J-7260D01*
G01X2710000D01*
G02X2732460Y6692460I-8J-31767D01*
G01X3113160Y6311770D01*
X3300000D01*
G02X3322460Y6302460I-8J-31767D01*
G01X3359150Y6265780D01*
X3361180Y6265720D01*
G02X3405740Y6220000I-1175J-45720D01*
G02X3360000Y6174260I-45740J0D01*
G02X3314280Y6218820I0J45735D01*
G01X3314220Y6220850D01*
X3286840Y6248230D01*
X3246220D01*
G03X3239040Y6230890I7J-10160D01*
G01X3279150Y6190780D01*
X3281180Y6190720D01*
G02X3325740Y6145000I-1175J-45720D01*
G02X3280160Y6099260I-45740J0D01*
G03X3273010Y6081920I37J-10159D01*
G01X3343160Y6011770D01*
X3440010D01*
G02X3451100Y6009770I-4J-31771D01*
G03X3463800Y6014870I3552J9517D01*
G02X3505000Y6040740I41200J-19872D01*
G02X3546350Y6014540I0J-45730D01*
G03X3563620Y6012730I9185J4344D01*
G02X3600000Y6030740I36380J-27739D01*
G02X3645740Y5985000I0J-45740D01*
G02X3631770Y5952090I-45749J0D01*
G01Y5938960D01*
G03X3640440Y5935370I5080J4D01*
G01X3787540Y6082460D01*
G02X3810000Y6091770I22468J-22457D01*
G01X4006840D01*
X4108230Y6193160D01*
Y6330000D01*
G02X4117540Y6352460I31767J-8D01*
G01X4187540Y6422460D01*
G02X4210000Y6431770I22468J-22457D01*
G01X4267090D01*
G02X4300000Y6445740I32910J-31779D01*
G02Y6354260I0J-45740D01*
G02X4267090Y6368230I0J45749D01*
G01X4223160D01*
X4171770Y6316840D01*
Y6281220D01*
G03X4189110Y6274040I10160J7D01*
G01X4207540Y6292460D01*
G02X4230000Y6301770I22468J-22457D01*
G01X4277090D01*
G02X4310000Y6315740I32910J-31779D01*
G02Y6224260I0J-45740D01*
G02X4277090Y6238230I0J45749D01*
G01X4243160D01*
X4211770Y6206840D01*
Y6160000D01*
G02X4202460Y6137540I-31767J8D01*
G01X4067460Y6002540D01*
G02X4045000Y5993230I-22468J22457D01*
G01X3838160D01*
X3612460Y5767540D01*
G02X3590000Y5758230I-22468J22457D01*
G01X3210000D01*
G02X3187540Y5767540I8J31767D01*
G01X3005850Y5949220D01*
X3003820Y5949280D01*
G02X2959260Y5995000I1175J45720D01*
G02X3005000Y6040740I45740J0D01*
G02X3050720Y5996180I0J-45735D01*
G01X3050780Y5994150D01*
X3223160Y5821770D01*
X3248780D01*
G03X3255960Y5839110I-7J10160D01*
G01X3140850Y5954220D01*
X3138820Y5954280D01*
G02X3094260Y6000000I1175J45720D01*
G02X3122760Y6042370I45745J0D01*
G03X3126110Y6058960I-3834J9407D01*
G01X3106840Y6078230D01*
X2890000D01*
G02X2867540Y6087540I8J31767D01*
G01X2808210Y6146860D01*
G03X2790890Y6140350I-7182J-7186D01*
G02X2719910Y6073950I-70980J4738D01*
G02X2652440Y6122530I0J71143D01*
G02X2603860Y6190000I22563J67470D01*
G02X2670260Y6260980I71138J0D01*
G03X2676770Y6278300I-676J10138D01*
G01X2602540Y6352530D01*
G03X2586300Y6349940I-7181J-7185D01*
G02X2522860Y6311000I-63440J32207D01*
G02X2455390Y6359580I0J71143D01*
G02X2406810Y6427050I22563J67470D01*
G02X2445750Y6490490I71147J0D01*
G03X2448340Y6506730I-4595J9059D01*
G01X2426840Y6528230D01*
X2045000D01*
G02X2022540Y6537540I8J31767D01*
G01X1296840Y7263230D01*
X1174770D01*
Y7208530D01*
G02X1244620Y7112000I-31775J-96530D01*
G02X1041380I-101620J0D01*
G02X1111230Y7208530I101625J0D01*
G01Y7238840D01*
X1086840Y7263230D01*
X335000D01*
G02X312540Y7272540I8J31767D01*
G01X197540Y7387540D01*
G02X188230Y7410000I22457J22468D01*
G01Y7852100D01*
G02X174260Y7885010I31779J32910D01*
G02X184200Y7913480I45742J0D01*
G01X187020Y7917030D01*
X154580Y7949470D01*
Y8180530D01*
X204470Y8230420D01*
X630530D01*
X680420Y8180530D01*
Y8015530D01*
X755530Y7940420D01*
X2335530D01*
X2395420Y7880530D01*
Y7514470D01*
X2335530Y7454580D01*
X779470D01*
X624580Y7609470D01*
Y7834470D01*
X617080Y7841970D01*
G03X600820Y7839370I-7190J-7179D01*
G02X586770Y7822910I-40827J20623D01*
G01Y7598160D01*
X828160Y7356770D01*
X1335000D01*
G02X1357460Y7347460I-8J-31767D01*
G01X1905890Y6799040D01*
G03X1923230Y6806220I7180J7187D01*
G01Y7061840D01*
X1913350Y7071720D01*
X1911320Y7071780D01*
G02X1866760Y7117500I1175J45720D01*
G02X1880730Y7150410I45749J0D01*
G01Y7251280D01*
G02X1866880Y7302490I87771J51216D01*
G01Y7302500D01*
G02X1968500Y7200880I101620J0D01*
G02X1955710Y7201690I15J101619D01*
G03X1944270Y7191610I-1280J-10079D01*
G01Y7150410D01*
G02X1958220Y7118680I-31774J-32901D01*
G01X1958280Y7116650D01*
X1977460Y7097460D01*
G02X1984050Y7087870I-22445J-22483D01*
G02X1999990Y7090740I15947J-42871D01*
G01X2000000D01*
G02X2032910Y7076770I0J-45749D01*
G01X2126840D01*
X2244680Y7194610D01*
G03X2241900Y7210950I-7185J7184D01*
G02X2184380Y7302500I44096J91550D01*
G02X2387620I101620J0D01*
G02X2317770Y7205970I-101625J0D01*
G01Y7191000D01*
G02X2308460Y7168540I-31767J8D01*
G01X2162460Y7022540D01*
G02X2140000Y7013230I-22468J22457D01*
G01X2032910D01*
G02X2031770Y7012090I-32910J31770D01*
G01Y6813160D01*
X2143160Y6701770D01*
G37*
G36*
G01X6584600Y3588320D02*
X6635400D01*
G02Y3359680I0J-114320D01*
G01X6584600D01*
G02Y3588320I0J114320D01*
G37*
G36*
G01Y3842320D02*
X6635400D01*
G02Y3613680I0J-114320D01*
G01X6584600D01*
G02Y3842320I0J114320D01*
G37*
G36*
G01X6234600Y3588320D02*
X6285400D01*
G02Y3359680I0J-114320D01*
G01X6234600D01*
G02Y3588320I0J114320D01*
G37*
G36*
G01Y3842320D02*
X6285400D01*
G02Y3613680I0J-114320D01*
G01X6234600D01*
G02Y3842320I0J114320D01*
G37*
G36*
G01X6470280Y3131100D02*
Y3308900D01*
G02X6495700Y3334320I25420J0D01*
G01X6724300D01*
G02X6749720Y3308900I0J-25420D01*
G01Y3131100D01*
G02X6724300Y3105680I-25420J0D01*
G01X6495700D01*
G02X6470280Y3131100I0J25420D01*
G37*
G36*
G01X6120280D02*
Y3308900D01*
G02X6145700Y3334320I25420J0D01*
G01X6374300D01*
G02X6399720Y3308900I0J-25420D01*
G01Y3131100D01*
G02X6374300Y3105680I-25420J0D01*
G01X6145700D01*
G02X6120280Y3131100I0J25420D01*
G37*
G36*
G01X6838230Y4992910D02*
Y5033470D01*
G02X6768380Y5130000I31775J96530D01*
G02X6971620I101620J0D01*
G02X6901770Y5033470I-101625J0D01*
G01Y4992910D01*
G02X6915740Y4960000I-31779J-32910D01*
G02X6824260I-45740J0D01*
G02X6838230Y4992910I45749J0D01*
G37*
G36*
G01X7064420Y5061190D02*
G02X7064260Y5065000I45579J3822D01*
G02X7110000Y5019260I45740J0D01*
G02X7090120Y5023810I8J45738D01*
G03X7075580Y5013810I-4414J-9152D01*
G02X7075740Y5010000I-45579J-3822D01*
G02X7030000Y5055740I-45740J0D01*
G02X7049880Y5051190I-8J-45738D01*
G03X7064420Y5061190I4414J9152D01*
G37*
G36*
G01X6591930Y5221720D02*
G02X6550000Y5194260I-41930J18282D01*
G02Y5285740I0J45740D01*
G02X6589900Y5262370I0J-45746D01*
G03X6608070Y5263280I8859J4971D01*
G02X6650000Y5290740I41930J-18282D01*
G02Y5199260I0J-45740D01*
G02X6610100Y5222630I0J45746D01*
G03X6591930Y5221720I-8859J-4971D01*
G37*
G36*
G01X13011750Y5998660D02*
G02X13043500Y6006140I31754J-63659D01*
G02Y5863860I0J-71140D01*
G02X13011750Y5871340I4J71139D01*
G02X12980000Y5863860I-31754J63659D01*
G02Y6006140I0J71140D01*
G02X13011750Y5998660I-4J-71139D01*
G37*
G54D41*
X4812500Y4617500D03*
G54D50*
X2580000Y5840000D03*
X5140000Y6600000D03*
X12440000Y9780000D03*
G54D43*
X3170000Y495000D03*
X3040000Y490000D03*
X4310000D03*
X4290000Y370000D03*
X4310000Y735000D03*
X2875000Y1425000D03*
X4040000Y1500000D03*
X4160000D03*
X4280000D03*
X4310000Y1610000D03*
X5932500Y1620000D03*
X6045000D03*
X7790000Y1610000D03*
X7910000D03*
X9660000Y1630000D03*
X9790000D03*
X12655000Y1430000D03*
X14795000Y1420000D03*
X15330000Y1260000D03*
X15475000Y1170000D03*
X2945000Y1770000D03*
X3090000Y1670000D03*
X4330000Y1730000D03*
Y1975000D03*
X6280000Y1840000D03*
X6710000Y1845000D03*
X8160000Y1850000D03*
X8580000D03*
X10040000D03*
X10715000Y2095000D03*
X10460000Y1850000D03*
X11460000Y1930000D03*
X14290000D03*
X14505000Y1830000D03*
X14635000Y2080000D03*
X15600000Y1930000D03*
X4040000Y2400000D03*
X4160000D03*
X4335000Y2225000D03*
X6145000Y2595000D03*
X6237500Y2507500D03*
X6327500Y2417500D03*
X6576100Y2220000D03*
X6765000D03*
X8017500Y2597500D03*
X8110000Y2510000D03*
X8205000Y2425000D03*
X8635000Y2230000D03*
X8446100D03*
X9982500Y2512500D03*
X9890000Y2600000D03*
X10075000Y2425000D03*
X11205000Y2650000D03*
X11015000Y2595000D03*
X11410000Y2340000D03*
X14425000Y2180000D03*
X4160000Y2755000D03*
X4040000D03*
X4330000Y2985000D03*
X4280000Y2755000D03*
X4310000Y2865000D03*
X10302080Y3152080D03*
X11295000Y2945000D03*
X11947500Y3112500D03*
X11865000Y3035000D03*
X4335000Y3480000D03*
X4330000Y3230000D03*
X7715000Y3546100D03*
X9930000Y3265000D03*
X9980000Y3640000D03*
X11010300Y3589710D03*
X11810000Y3400000D03*
X11615000Y3210000D03*
X12170000Y3365000D03*
X11860000Y3540000D03*
X12027500Y3192500D03*
X15185000Y3315000D03*
X15610000Y3645000D03*
X3066000Y4040000D03*
X11017500Y3707500D03*
X14130000Y3930000D03*
X14720000Y4075000D03*
X5540000Y4630000D03*
X9215000Y4280000D03*
X9615000Y4350000D03*
X12850000Y4265000D03*
X12735000Y4335000D03*
X13955000Y4530000D03*
X14843290Y4440280D03*
X14570000Y4455000D03*
X15600000Y4480000D03*
Y4375000D03*
X8030000Y4780000D03*
X10090000Y4730000D03*
X10750000Y4935000D03*
X11031740Y4716740D03*
X12215000Y4935000D03*
X12355000Y4835000D03*
X11875000Y4770000D03*
X14020000Y4715000D03*
X14730000Y4940000D03*
X14940000Y5170000D03*
X15250000Y5110000D03*
X2655000Y5505000D03*
X3282500Y5472500D03*
X3930000Y5670000D03*
X8240000Y5435000D03*
X9940000Y5200000D03*
X10177500Y5442500D03*
X3060000Y5790000D03*
X2920000Y5740000D03*
X3677500Y6062500D03*
X3850000Y5755000D03*
X4330000Y6170000D03*
X5455000Y6020000D03*
X14765000Y5975000D03*
X14570000D03*
X14685000Y5860000D03*
X14457260Y5862050D03*
X14570000Y5860000D03*
X14960000Y5975000D03*
X15100000Y5980000D03*
X15870000Y5825000D03*
X2330710Y6465000D03*
X3660000Y6570000D03*
X3597500Y6332500D03*
X4330000Y6500000D03*
X4580000Y6680000D03*
X5545000D03*
X5455000Y6260000D03*
X5270000Y6490000D03*
X6595000Y6400000D03*
X6710000D03*
X245000Y7100000D03*
X475000D03*
X360000D03*
X2150000Y6795000D03*
X2255000Y6855000D03*
X2335000Y6935000D03*
X3140000Y7220000D03*
X13355000Y6840000D03*
X13490000Y6880000D03*
X13550000Y6755000D03*
X14315000D03*
X14870000Y6725000D03*
X14985000D03*
X2520000Y7280000D03*
X8345000Y7580000D03*
X8540000Y7595000D03*
X10525000Y7350000D03*
X10775000D03*
X10650000D03*
X11030000Y7590000D03*
X8620000Y8090000D03*
X9650000Y7880000D03*
X6370000Y8383070D03*
X9020000Y8575000D03*
X9250000Y8480000D03*
X9475000Y8565000D03*
X7695000Y8925000D03*
X8040000Y8950000D03*
X7805000Y8925000D03*
X10790000Y9365000D03*
Y9565000D03*
X4595000Y1270000D03*
Y1150000D03*
X5530000Y2480000D03*
X5360000Y2650000D03*
X5550000Y3795000D03*
X5845000Y3820000D03*
X6120000Y3980000D03*
X6265000Y3950000D03*
X7015000Y3840000D03*
X7290000Y3810000D03*
X6500000Y4265000D03*
X7270000Y4450000D03*
X7150000D03*
X6995000Y4725000D03*
X6300000Y5625000D03*
X7265000Y5290000D03*
X7290000Y5640000D03*
X7000000Y6020000D03*
Y6250000D03*
X7520000Y7840000D03*
X8220000Y8200000D03*
X7840000Y8370000D03*
X11270000Y3460000D03*
X12245000Y5465000D03*
X12635000Y6025000D03*
X13370000Y5595000D03*
X13480000Y5590000D03*
G54D40*
X3830000Y1960000D03*
X6940000Y7090000D03*
G54D39*
X8588000Y3760000D03*
X9648000Y340000D03*
X7788000D03*
X5928000D03*
X12331000Y5700000D03*
G54D52*
X4128400Y6912000D03*
X5093600D03*
G54D54*
X352990Y8880000D03*
X3457010D03*
G54D49*
X9058000Y5310000D03*
G54D42*
X5990000Y6485000D03*
G54D47*
X340000Y3374000D03*
G54D46*
Y3120000D03*
G54D48*
X630000Y4310000D03*
X1330000D03*
X630000Y5460000D03*
X1330000D03*
X630000Y6600000D03*
X1330000D03*
G54D45*
X462000Y2411000D03*
G54D53*
X4382400Y6912000D03*
X5347600D03*
G54D51*
X16080000Y6305000D03*
Y9605000D03*
X11280000Y6305000D03*
G54D44*
X462000Y1911000D03*
G54D55*
X14986000Y8890000D03*
G54D38*
X9350000Y3760000D03*
X8334000D03*
X10410000Y340000D03*
X9902000D03*
X10156000D03*
X9394000D03*
X8550000D03*
X8042000D03*
X8296000D03*
X7534000D03*
X6436000D03*
X6690000D03*
X6182000D03*
X5674000D03*
%LPD*%
G75*
G36*
G01X275730Y7899580D02*
X512470D01*
G02X521110Y7884070I1J-10161D01*
G03X514260Y7860000I38888J-24077D01*
G03X523230Y7832790I45741J-4D01*
G01Y7598160D01*
X489780Y7564710D01*
X487190Y7565160D01*
G03X470000Y7566620I-17164J-100162D01*
G03X571620Y7465000I0J-101620D01*
G03X549540Y7528240I-101618J-5D01*
G01X546720Y7531790D01*
X555000Y7540070D01*
X750960Y7344110D01*
G02X743770Y7326770I-7187J-7180D01*
G01X348160D01*
X251770Y7423160D01*
Y7852100D01*
G03X265740Y7885010I-31779J32910D01*
G03X265600Y7888620I-45741J34D01*
G02X275730Y7899580I10127J801D01*
G37*
G36*
G01X215000Y8205000D02*
X620000D01*
X655000Y8170000D01*
Y8005000D01*
X745000Y7915000D01*
X2325000D01*
X2370000Y7870000D01*
Y7525000D01*
X2325000Y7480000D01*
X790000D01*
X650000Y7620000D01*
Y7845000D01*
X570000Y7925000D01*
X242200D01*
G03X220000Y7930750I-22200J-39981D01*
G03X212790Y7930180I-11J-45741D01*
G01X210230Y7929770D01*
X180000Y7960000D01*
Y8170000D01*
X215000Y8205000D01*
G37*
G36*
G01X2541230Y6598230D02*
X2676840D01*
X3057540Y6217540D01*
G03X3080000Y6208230I22468J22457D01*
G01X3171840D01*
X3234220Y6145850D01*
X3234280Y6143820D01*
G03X3236040Y6132360I45724J1157D01*
G01X3236870Y6129480D01*
X3231160Y6123770D01*
X3182460Y6172460D01*
G03X3160000Y6181770I-22468J-22457D01*
G01X2933160D01*
X2534040Y6580890D01*
G02X2541230Y6598230I7187J7180D01*
G37*
%LPC*%
G75*
G54D43*
X1810000Y7690000D03*
%LPD*%
G75*
G54D10*
X-415000Y1248000D03*
Y8812000D03*
X4128400Y7166000D03*
X4230000Y7420000D03*
X4534800Y7166000D03*
X4331600D03*
X4636400Y7420000D03*
X4433200D03*
X5144400Y7166000D03*
X4941200D03*
X5246000Y7420000D03*
X5042800D03*
X4839600D03*
X5347600Y7166000D03*
X5985000Y6485000D03*
X16975000Y1248000D03*
Y8812000D03*
G54D20*
X3931550Y9261500D03*
X5544450D03*
G54D11*
X127000Y127000D03*
Y254000D03*
Y381000D03*
X140000Y755000D03*
X127000Y889000D03*
Y1016000D03*
Y1397000D03*
Y1524000D03*
Y2540000D03*
Y2413000D03*
Y2286000D03*
Y3048000D03*
Y2794000D03*
Y2667000D03*
Y2921000D03*
Y3302000D03*
Y3175000D03*
Y3429000D03*
Y3556000D03*
Y4064000D03*
Y3810000D03*
Y3937000D03*
Y3683000D03*
Y4572000D03*
Y4445000D03*
Y4191000D03*
Y4318000D03*
Y5080000D03*
Y4953000D03*
Y4699000D03*
Y4826000D03*
Y5588000D03*
Y5461000D03*
Y5207000D03*
Y5334000D03*
Y5842000D03*
Y5969000D03*
Y5715000D03*
Y6096000D03*
Y6604000D03*
Y6350000D03*
Y6477000D03*
Y6223000D03*
Y6985000D03*
Y6858000D03*
Y6731000D03*
X100000Y7300000D03*
X127000Y7620000D03*
Y7747000D03*
X140000Y8440000D03*
X254000Y127000D03*
X360000Y7100000D03*
X475000D03*
X245000D03*
X570000Y7240000D03*
X180000Y7480000D03*
X305000Y7705000D03*
X470000D03*
X260000Y8120000D03*
X455000D03*
X355000Y8050000D03*
X470000Y7790000D03*
X305000D03*
X390000Y7745000D03*
X220000Y7885010D03*
X560000Y7860000D03*
X735000Y3940000D03*
X760000Y5090000D03*
X1100000Y8100000D03*
X730000D03*
X905000Y7995000D03*
X1100000D03*
X1165000Y8040000D03*
X970000Y8045000D03*
X843500D03*
X780000D03*
X1033500D03*
X920000Y8100000D03*
X1470000Y1490000D03*
X1345000Y1160000D03*
X1600000Y3579990D03*
X1375000Y3580000D03*
X1295000Y8005000D03*
X1228500Y8040000D03*
X1480000Y8140000D03*
Y8080000D03*
X1985000Y380000D03*
Y520000D03*
X1815000Y1030000D03*
X1715000Y1415000D03*
X1710000Y1670000D03*
X2150000Y6355000D03*
X2195000Y6235000D03*
X2000000Y7045000D03*
X1912500Y7117500D03*
X2150000Y6795000D03*
X1810000Y7690000D03*
X1800000Y7970000D03*
X2085000Y8240000D03*
X1800000Y8250000D03*
X1910000Y8505000D03*
X2250000Y470010D03*
X2315000Y1400000D03*
X2275000Y1760010D03*
X2280000Y1655000D03*
X2410000Y2830000D03*
X2650000D03*
X2575000Y3980000D03*
X2245000Y4320000D03*
X2500000Y4750000D03*
X2250000Y5000000D03*
X2500000Y5260000D03*
X2655000Y5505000D03*
X2430000Y6010000D03*
X2670000Y5770000D03*
X2510000Y5930000D03*
X2675000Y6190000D03*
X2272210Y6126820D03*
X2320000Y6085000D03*
X2580000Y5840000D03*
X2375000Y5935000D03*
X2435000Y5880000D03*
X2673740Y6533030D03*
X2522860Y6382140D03*
X2477950Y6427050D03*
X2330710Y6465000D03*
X2455000Y7055000D03*
X2705000Y6920000D03*
X2615000Y6815000D03*
X2570000Y6770000D03*
X2335000Y6935000D03*
X2255000Y6855000D03*
X2260000Y7700000D03*
Y7560000D03*
X2690000Y7340000D03*
X2645000Y7260000D03*
X2520000Y7280000D03*
X2260000Y7840000D03*
X2535000Y7980000D03*
X2595000Y8030000D03*
X2658500D03*
X2805000Y435000D03*
X2920000Y550000D03*
X3040000Y490000D03*
X3170000Y495000D03*
X2840000Y1015000D03*
X2990000Y1020000D03*
X2750000Y1050000D03*
X2875000Y1425000D03*
Y1285000D03*
X2790000Y1760000D03*
X2945000Y1770000D03*
X3090000Y1670000D03*
X2990000Y2300000D03*
X2830000Y2320000D03*
X2840000Y2950000D03*
X3150000Y3000000D03*
X2915000Y2710000D03*
X3000000Y3500000D03*
X2850000Y3495000D03*
X2740000Y3530000D03*
X2985000Y3720000D03*
X3066000Y4040000D03*
X2750000Y5690000D03*
X3025000Y5595000D03*
X2930000Y5370000D03*
X2719910Y6145090D03*
X3060000Y5790000D03*
X3005000Y5995000D03*
X3140000Y6000000D03*
X2920000Y5740000D03*
X2832840Y6373930D03*
Y6692130D03*
X3151040Y6373930D03*
Y6692130D03*
X2991940Y6214830D03*
Y6533030D03*
Y6851230D03*
X3120000Y7065000D03*
X3165000Y7010000D03*
X2750000Y6965000D03*
X3140000Y7220000D03*
X2740000Y7380000D03*
X3065000Y7980000D03*
X2875000Y8110000D03*
X2715000Y7970000D03*
X2885000D03*
X3005000Y8030000D03*
X2941500D03*
X2833500D03*
X2725000Y8110000D03*
X2770000Y8030000D03*
X3280000Y2330000D03*
X3460000Y2710000D03*
X3285000Y3520000D03*
X3500000Y3910000D03*
X3460000Y4680000D03*
X3315000Y4500000D03*
X3595000Y4365000D03*
X3685000D03*
X3320000Y4330000D03*
X3530000Y5075000D03*
X3460000Y4790000D03*
X3715000Y5260000D03*
X3530000Y5445000D03*
X3420000Y5640000D03*
X3345000Y5260000D03*
X3530000D03*
X3600000Y5700000D03*
X3282500Y5472500D03*
X3585000Y6075000D03*
X3667500Y6152500D03*
X3685000Y5775000D03*
X3677500Y6062500D03*
X3600000Y5985000D03*
X3515000Y5905000D03*
X3280000Y6145000D03*
X3425000Y5915000D03*
X3505000Y5995000D03*
X3310140Y6533030D03*
X3360000Y6220000D03*
X3597500Y6332500D03*
X3660000Y6570000D03*
X3365000Y7225000D03*
X3525000Y7065000D03*
X3680000Y6955000D03*
X3630150Y6994350D03*
X3315000Y6870000D03*
X3600000Y7160000D03*
X3540000Y7220000D03*
X3270090Y6914910D03*
X3595000Y7690000D03*
Y7970000D03*
X3260000Y8080000D03*
Y8140000D03*
X3595000Y8250000D03*
X3700000Y8472560D03*
X4140000Y1265000D03*
X4020000Y1145000D03*
X4140000D03*
X4020000Y1265000D03*
X4160000Y1500000D03*
X4040000D03*
X4160000Y2400000D03*
X4040000D03*
Y2755000D03*
X4160000D03*
X4040000Y3715000D03*
X4160000D03*
X3820000Y4330000D03*
X4010000Y5090000D03*
X4160000Y4990000D03*
X3915000Y5010000D03*
X4160000Y4900000D03*
X4145000Y5380000D03*
X4060000Y5460000D03*
X4210000Y5485000D03*
X3930000Y5670000D03*
X4225000Y6110000D03*
X4200000Y5990000D03*
X3850000Y5755000D03*
X4045000Y6290000D03*
X4095000Y6515000D03*
X3800000Y6460000D03*
X4290000Y370000D03*
X4310000Y490000D03*
X4315000Y985000D03*
X4310000Y735000D03*
X4595000Y1150000D03*
Y1270000D03*
X4260000Y1145000D03*
Y1265000D03*
X4310000Y1610000D03*
X4280000Y1500000D03*
X4330000Y1975000D03*
Y1730000D03*
X4615000Y2400000D03*
Y2280000D03*
X4335000Y2225000D03*
X4280000Y2400000D03*
X4310000Y2865000D03*
X4280000Y2755000D03*
X4330000Y2985000D03*
X4615000Y3650000D03*
Y3530000D03*
X4330000Y3230000D03*
X4335000Y3480000D03*
X4385000Y3870000D03*
X4280000Y3715000D03*
X4240000Y4470000D03*
X4675000Y5735000D03*
X4460000Y6020000D03*
X4670000Y5835000D03*
X4605000Y5785000D03*
X4330000Y6170000D03*
X4310000Y6270000D03*
X4300000Y6400000D03*
X4580000Y6680000D03*
X4330000Y6500000D03*
X4742400Y625000D03*
X4740000Y970000D03*
Y720000D03*
X4762400Y1755000D03*
X4760000Y1850000D03*
Y2100000D03*
X4755000Y3100000D03*
X4762400Y3010000D03*
X4760000Y3340000D03*
X4970000Y4030000D03*
Y4140000D03*
X5060000Y4030000D03*
Y3920000D03*
X4875000D03*
X5060000Y4140000D03*
X4970000Y3920000D03*
X4875000Y4030000D03*
Y4140000D03*
X5030010Y5465000D03*
X4805000Y5720000D03*
X5140000Y6600000D03*
X5580000Y1170000D03*
X5360000Y2650000D03*
X5615000Y2315000D03*
X5530000Y2480000D03*
X5260000Y3555000D03*
X5550000Y3795000D03*
X5260000Y3690000D03*
X5660000Y3980000D03*
X5550000Y4295000D03*
X5730000Y4430000D03*
X5347500Y4272500D03*
X5540000Y4630000D03*
X5390000Y4920000D03*
X5435000Y5195000D03*
X5290000Y5010000D03*
Y5100000D03*
X5390000Y5500000D03*
X5490000Y5380000D03*
X5590000D03*
X5455000Y6140000D03*
Y6020000D03*
Y6400000D03*
X5270000Y6490000D03*
X5455000Y6260000D03*
X5545000Y6680000D03*
X5730000Y8405000D03*
X6170000Y1260000D03*
X6045000Y1620000D03*
X5932500D03*
X5945000Y2130000D03*
X5820000Y2150000D03*
X6020000Y2055000D03*
X5890000Y2075000D03*
X5965000Y2000000D03*
X6075000Y2110000D03*
X6145000Y2595000D03*
X6237500Y2507500D03*
X6000000Y2185000D03*
X5875000Y2205000D03*
X5930000Y2260000D03*
X5805000Y2590000D03*
X5925000Y2710000D03*
X5845000Y3820000D03*
X6120000Y4140000D03*
X5820000Y3980000D03*
X6120000D03*
X5970000D03*
Y4430000D03*
X5920000Y4740000D03*
Y5100000D03*
X6250000Y5090000D03*
Y4955000D03*
Y4870000D03*
X5835000Y5570000D03*
X6130000Y5650000D03*
X6250000Y5240000D03*
Y5320000D03*
X5860000Y5980000D03*
X6195000Y6000000D03*
Y5936500D03*
X6130000Y5770000D03*
X5910000Y6995000D03*
X6235000Y7105000D03*
Y6890000D03*
Y6965940D03*
Y7029440D03*
X5910000Y7365000D03*
X6235000Y7250000D03*
X6230000Y7635000D03*
X6235000Y7470000D03*
Y7390000D03*
X6230730Y7711390D03*
X6235000Y7326500D03*
X5950000Y7740000D03*
X5915000Y8110000D03*
X6225000Y8000000D03*
X6185000Y8210000D03*
X6230000Y7850000D03*
X6225000Y8076500D03*
Y8140000D03*
X6230730Y7774890D03*
X5860000Y8405000D03*
X5980000D03*
X6130000Y8410000D03*
Y8266500D03*
Y8330000D03*
X6550000Y800000D03*
X6445000Y1405000D03*
X6380000Y1845000D03*
X6710000D03*
X6280000Y1840000D03*
X6327500Y2417500D03*
X6576100Y2220000D03*
X6765000D03*
X6670000Y2195000D03*
X6265000Y3950000D03*
X6290000Y4050000D03*
X6530000Y4520000D03*
X6500000Y4265000D03*
X6310000Y4525000D03*
X6400000D03*
X6645000Y4505000D03*
X6275000Y4680000D03*
X6370000Y4970000D03*
X6270000Y4770000D03*
X6470000Y4970000D03*
X6300000Y5625000D03*
X6550000Y5240000D03*
X6650000Y5245000D03*
X6710000Y6400000D03*
X6595000D03*
X6410000Y8120000D03*
X6550000Y8005000D03*
X6485000Y8135000D03*
X6530000Y8075000D03*
X6540000Y8300000D03*
X6660000Y8460000D03*
X6370000Y8383070D03*
X6551500Y8390000D03*
X6758660Y8385000D03*
X6615000Y8390000D03*
X6695160Y8385000D03*
X6289010Y9000990D03*
X6739010D03*
X6589010D03*
X6439010D03*
X6858000Y127000D03*
X6985000D03*
X7112000D03*
X6815000Y1405000D03*
X7070000Y1960000D03*
X6810000Y1845000D03*
X7235000Y2655000D03*
X7220000Y3541090D03*
Y3351100D03*
X7015000Y3840000D03*
X6945000Y3785000D03*
X7150000Y4450000D03*
X7270000D03*
X6995000Y4725000D03*
X7110000Y5065000D03*
X7030000Y5010000D03*
X6870000Y4960000D03*
X7265000Y5290000D03*
X6920000Y6130000D03*
X7000000Y6020000D03*
X7015000Y5840000D03*
Y5765000D03*
X7080000Y6485000D03*
X6940000D03*
X7000000Y6250000D03*
X6800000Y6310000D03*
X7200000Y8375000D03*
X7095000Y8350000D03*
X6810000Y8330000D03*
X6900000Y8270000D03*
X7095000Y8445000D03*
X7039010Y9000990D03*
X7215000Y8835000D03*
Y8920000D03*
X6839000Y9175000D03*
X6939000D03*
X7002500D03*
X7445000Y1155000D03*
X7760000Y2075000D03*
X7690000Y2150000D03*
X7745000Y2205000D03*
X7685000Y2590000D03*
X7405000Y2485000D03*
X7485000Y2315000D03*
X7495000Y3645000D03*
X7715000Y3546100D03*
Y3736090D03*
X7515000Y4160000D03*
X7460000Y3990000D03*
X7290000Y3810000D03*
X7380000Y4500000D03*
X7460000Y4555000D03*
X7575000Y4410000D03*
X7570000Y5050000D03*
X7740000Y5100000D03*
X7290000Y5640000D03*
X7520000Y7840000D03*
X7310000Y8370010D03*
X7695000Y8925000D03*
X7760000Y9470000D03*
X8010000Y1250000D03*
X7910000Y1610000D03*
X7790000D03*
X7945000Y2110000D03*
X7890000Y2055000D03*
X7815000Y2130000D03*
X7835000Y2000000D03*
X8260000Y1855000D03*
X8160000Y1850000D03*
X7800000Y2260000D03*
X7870000Y2185000D03*
X8205000Y2425000D03*
X8110000Y2510000D03*
X8017500Y2597500D03*
X7805000Y2710000D03*
X7860000Y3940000D03*
X7795000Y3890000D03*
X8150000Y4650000D03*
X8243210Y4488210D03*
X8030000Y4780000D03*
X7895000Y4835000D03*
X8000000Y5040000D03*
X7970000Y5430000D03*
X7870000Y5395000D03*
X8240000Y5435000D03*
X7845000Y7570000D03*
X8170000Y7580000D03*
Y7915000D03*
X7905000Y7895000D03*
X8220000Y8200000D03*
X7840000Y8370000D03*
X8170000Y8280000D03*
X8265000D03*
X8130000Y9055000D03*
X7805000Y8925000D03*
X8040000Y8950000D03*
X8228990Y9715000D03*
X8080000Y9700000D03*
X8132500Y9407500D03*
X8273570Y9640000D03*
X7874000Y9906000D03*
X8001000D03*
X7965490Y9790000D03*
X8028990D03*
X8763000Y127000D03*
X8421090Y801090D03*
X8685000Y1400000D03*
X8315000D03*
X8680000Y1850000D03*
X8580000D03*
X8540000Y2205000D03*
X8446100Y2230000D03*
X8635000D03*
X8355000Y4470000D03*
X8790000Y4869990D03*
X8720000Y7330000D03*
X8570000D03*
X8320000D03*
X8540000Y7595000D03*
X8345000Y7580000D03*
X8783500Y7930000D03*
X8720000D03*
X8655000Y7865000D03*
X8345000Y7915000D03*
X8775000Y8050000D03*
X8620000Y8090000D03*
X8780000Y8570000D03*
X8535000Y9715000D03*
X8379000D03*
X8680000D03*
X8639070Y9640720D03*
X8337070Y9640000D03*
X8724290Y9644280D03*
X8575570Y9640720D03*
X8787790Y9644280D03*
X8428570Y9640000D03*
X8492070D03*
X8890000Y127000D03*
X8925000Y1960000D03*
X9275000Y2485000D03*
X9105000Y2655000D03*
X9285000Y3190000D03*
X8820000Y4145000D03*
X9040000Y4045000D03*
X9215000Y4280000D03*
X9020000Y4470000D03*
X8870000Y7330000D03*
X9020000D03*
X9170000D03*
X9248500Y7865000D03*
X9185000D03*
X9113500Y7920000D03*
X9050000D03*
X8963500Y7865000D03*
X8900000D03*
X9190000Y7935000D03*
X9210000Y8105000D03*
X8890000Y8565000D03*
X9150000Y8480000D03*
X9250000D03*
X9020000Y8575000D03*
X8828990Y9715000D03*
X8979000D03*
X8937070Y9645000D03*
X8873570D03*
X9779000Y127000D03*
X9310000Y1155000D03*
X9790000Y1630000D03*
X9660000D03*
X9560000Y2150000D03*
X9685000Y2130000D03*
X9630000Y2075000D03*
X9705000Y2000000D03*
X9760000Y2055000D03*
X9815000Y2110000D03*
X9615000Y2205000D03*
X9670000Y2260000D03*
X9740000Y2185000D03*
X9355000Y2315000D03*
X9555000Y2590000D03*
X9785000Y2945000D03*
X9675000D03*
Y2710000D03*
X9705000Y3455000D03*
X9745000Y3885000D03*
X9615000Y4350000D03*
Y4580000D03*
X9710000Y4625000D03*
X9355000Y4320000D03*
X9815000Y4445000D03*
X9450000Y4760000D03*
X9405000Y4840000D03*
X9625000Y5375000D03*
X9520000Y5380000D03*
X9470000Y7330000D03*
X9320000D03*
X9355160Y7865000D03*
X9390000Y8120000D03*
X9650000Y7880000D03*
X9785000D03*
X9418660Y7865000D03*
X9600000Y8505000D03*
X9475000Y8565000D03*
X9565000Y9930000D03*
X9652000Y9906000D03*
X9779000D03*
X10287000Y127000D03*
X10033000D03*
X10290000Y810000D03*
X9890000Y1250000D03*
X10185000Y1400000D03*
X10140000Y1850000D03*
X10040000D03*
X9890000Y2600000D03*
X10075000Y2425000D03*
X9982500Y2512500D03*
X10140660Y3030660D03*
X10210000Y2705000D03*
X10070000Y2710000D03*
X10302080Y3152080D03*
X9980000Y3640000D03*
X9930000Y3265000D03*
X10230000Y3410000D03*
X10145000Y3485000D03*
X10150000Y3325000D03*
X10070000Y3265000D03*
X10305000Y3325000D03*
X10110000Y4385000D03*
X10260000Y4255000D03*
X10025000Y4395000D03*
X10177500Y4797500D03*
X9842500Y5132500D03*
X9930000Y4910000D03*
X10090000Y4730000D03*
X10027500Y5272500D03*
X10110000Y5350000D03*
X10270000Y5510000D03*
X10177500Y5442500D03*
X9940000Y5200000D03*
X10030000Y5350000D03*
X10220000Y6460000D03*
Y6396500D03*
X9980000Y6700000D03*
X10230000Y7200000D03*
X10100000Y7505000D03*
X9980000Y7440000D03*
X10290000Y8070000D03*
X10015000Y7835000D03*
X10170000Y8535000D03*
X10300000D03*
X10060000D03*
X9840000D03*
X9950000D03*
X9906000Y9906000D03*
X10033000D03*
X10160000D03*
X10287000D03*
X10795000Y127000D03*
X10668000D03*
X10541000D03*
X10555000Y1400000D03*
X10715000Y2095000D03*
X10560000Y1850000D03*
X10635000Y2065000D03*
X10460000Y1850000D03*
X10430000Y2205000D03*
X10335000Y2235000D03*
X10526090D03*
X10515000Y3110000D03*
X10380000Y2775000D03*
X10467500Y3167500D03*
X10405000Y3650000D03*
X10464950Y3610050D03*
X10480000Y3540000D03*
X10650000Y3510000D03*
Y3420000D03*
X10543940Y4085000D03*
X10792160Y4447160D03*
X10645000Y4310000D03*
X10510000Y4675000D03*
X10750000Y4935000D03*
X10580000Y5200000D03*
X10420000Y5680000D03*
X10665000Y5800000D03*
X10512500Y5747500D03*
X10645000Y5735000D03*
X10450000Y5790000D03*
X10710000Y5895000D03*
Y5985000D03*
X10370000Y5790000D03*
X10640000Y6330000D03*
X10810000Y7205000D03*
X10390000Y6850000D03*
X10565000Y7595000D03*
X10628500D03*
X10650000Y7350000D03*
X10775000D03*
X10525000D03*
X10440000Y7590000D03*
X10370000Y8055000D03*
X10605000D03*
X10810000Y8115000D03*
X10390000Y8530000D03*
X10790000Y8735000D03*
X10610000Y8530000D03*
X10500000D03*
X10790000Y9565000D03*
Y9365000D03*
X10680000Y9885000D03*
X10414000Y9906000D03*
X10541000D03*
X11303000Y127000D03*
X11176000D03*
X11049000D03*
X10922000D03*
X11330000Y635000D03*
X11205000Y2650000D03*
X11015000Y2595000D03*
X11155000Y3000000D03*
X11320000Y3155000D03*
X11295000Y3050000D03*
Y2945000D03*
X10935000Y2675000D03*
X11010300Y3589710D03*
X11270000Y3460000D03*
X11129980Y3274980D03*
X11127500Y3587500D03*
X11017500Y3707500D03*
X10840000Y3758840D03*
X10975000Y4650000D03*
X11320000Y4804520D03*
X11031740Y4716740D03*
X11157500Y4697500D03*
X10972500Y5607500D03*
X11235000Y5880000D03*
X11020000D03*
X10870000Y5885000D03*
X10845000Y6475000D03*
Y6395000D03*
Y6555000D03*
X10925000Y6850000D03*
X10940000Y7560000D03*
X11030000Y7590000D03*
X10930000Y8100000D03*
X11520000Y510000D03*
X11811000Y127000D03*
X11684000D03*
X11557000D03*
X11430000D03*
X11460000Y1930000D03*
X11647500Y2612500D03*
X11410000Y2340000D03*
X11590000Y2190000D03*
X11455000Y2645000D03*
X11707500Y2872500D03*
X11627500Y2792500D03*
X11787500Y2952500D03*
X11810000Y3400000D03*
X11615000Y3210000D03*
X11590000Y3805000D03*
X11500000Y3880000D03*
X11570890Y3725000D03*
X11760000Y3935000D03*
X11670000Y4010000D03*
X11591160Y4510000D03*
X11390000Y4225000D03*
X11790000Y4245000D03*
X11780000Y5375000D03*
X11380000Y5650000D03*
X11690000Y5370000D03*
X11440000Y5605000D03*
X11845000Y5205000D03*
X11780000Y5300000D03*
X11465000Y5790000D03*
X11750000Y5880000D03*
X11580000Y5810000D03*
X11805000Y8520000D03*
X11684000Y9906000D03*
X11811000D03*
X12319000Y127000D03*
X12192000D03*
X12065000D03*
X11938000D03*
X12204730Y3135270D03*
X12130000Y3090000D03*
X11865000Y3035000D03*
X11947500Y3112500D03*
X12085000Y3295000D03*
X12027500Y3192500D03*
X11860000Y3540000D03*
X12170000Y3365000D03*
X11880000Y4045000D03*
X12081850Y4053160D03*
X12045000Y3685000D03*
X11925000Y3710000D03*
X11905000Y4190000D03*
X12090000Y4210000D03*
X12355000Y4835000D03*
X12215000Y4935000D03*
X12240000Y4800000D03*
X11925000Y5130000D03*
X12115000Y4960000D03*
X11875000Y4770000D03*
X12325000Y4725000D03*
X12075000Y5540000D03*
X12245000Y5465000D03*
X12135000Y5405000D03*
X12110000Y5260000D03*
X11910000Y5305000D03*
X12135000Y6005000D03*
X11980000Y6170000D03*
X11940000Y5720000D03*
X11855000Y5795000D03*
X12020000Y8095000D03*
X12017500Y8467500D03*
X11938000Y9906000D03*
X12065000D03*
X12192000D03*
X12319000D03*
X12827000Y127000D03*
X12700000D03*
X12573000D03*
X12446000D03*
X12550000Y1430000D03*
X12430000Y1435000D03*
X12655000Y1430000D03*
Y1180000D03*
X12790000Y2205000D03*
X12505000Y3256320D03*
X12500000Y3430000D03*
Y3550000D03*
X12700000Y3345000D03*
Y3255000D03*
X12375000Y3435000D03*
X12522190Y3952190D03*
X12365000Y3745000D03*
X12735000Y4335000D03*
X12850000Y4265000D03*
X12485000Y4565000D03*
X12405000Y4645000D03*
X12585000Y4460000D03*
X12815000Y5080000D03*
X12435000Y4755000D03*
X12455000Y5300000D03*
X12515000Y6030000D03*
X12860000Y6165000D03*
X12385000Y5990000D03*
X12635000Y6025000D03*
X12820000Y6370000D03*
X12815000Y6480000D03*
X12775000Y6685000D03*
X12860000Y6305000D03*
X12852860Y6691500D03*
X12815000Y6620000D03*
X12860000Y6241500D03*
X12815000Y6556500D03*
X12855000Y6835000D03*
X12852860Y6755000D03*
X12530000Y9735000D03*
X12825000Y9635000D03*
Y9465000D03*
X12525000Y9570000D03*
X12785000Y9380000D03*
X12580000Y9617440D03*
X12775000Y9580000D03*
X12580000Y9680940D03*
X12775000Y9516500D03*
X12410000Y9300000D03*
X12446000Y9906000D03*
X12765000Y9900000D03*
X12829650Y9860000D03*
X12440000Y9780000D03*
X12600000Y9900000D03*
X12930000Y510000D03*
X13335000Y127000D03*
X13208000D03*
X13081000D03*
X12954000D03*
X13120000Y640000D03*
X13210000Y3235000D03*
X12895000Y3550000D03*
X13210000Y3865000D03*
X13255000Y5545000D03*
X13120000Y5370000D03*
X13025000Y5350000D03*
X13370000Y5595000D03*
X13190000Y6005000D03*
X13070000D03*
X12930000D03*
X12980000Y5935000D03*
X13043500D03*
X13260000Y6005000D03*
X13070010Y6500000D03*
X13350000Y6505000D03*
X13190000D03*
X12950000D03*
X13200000Y6255000D03*
X13270000D03*
X13275000Y6505000D03*
X13360000Y6255000D03*
X13355000Y6840000D03*
X13100000Y8620000D03*
X13295000Y8480000D03*
X13355000Y8585000D03*
Y8521500D03*
X13160000Y8660000D03*
Y8723500D03*
X13215000Y8775000D03*
X13140000Y8925000D03*
X13070000Y9110000D03*
X13260000Y9080000D03*
X13305000Y8780000D03*
X13365000Y8890000D03*
X13130000Y9220000D03*
X13205000Y8966500D03*
X13130000Y9156500D03*
X13365000Y8826500D03*
X13205000Y9030000D03*
X13070000Y9405000D03*
X13190000D03*
X13310000D03*
X13185000Y9270000D03*
X13110000Y9335000D03*
X13310000Y9905000D03*
X13190000D03*
X13070000D03*
X12955000Y9900000D03*
X12893150Y9860000D03*
X13843000Y127000D03*
X13716000D03*
X13589000D03*
X13462000D03*
X13525000Y3550000D03*
X13580000Y4220000D03*
X13485000Y4625000D03*
X13480000Y5590000D03*
X13700000Y5570000D03*
X13810000Y5585000D03*
X13390000Y6005000D03*
X13790000D03*
X13590000D03*
X13575000Y5740000D03*
X13470000Y6215000D03*
Y6285000D03*
X13750000Y6505000D03*
X13550000D03*
X13710000Y6280000D03*
X13790000Y6250000D03*
X13670000Y6755000D03*
X13790000D03*
X13490000Y6880000D03*
X13550000Y6755000D03*
X13415000Y8630000D03*
Y8945000D03*
X13430000Y9405000D03*
X13550000D03*
X13670000D03*
X13790000Y9905000D03*
X13670000D03*
X13550000D03*
X13430000D03*
X14360000Y510000D03*
X14351000Y127000D03*
X14224000D03*
X14097000D03*
X13970000D03*
X14170000Y640000D03*
X14290000Y1930000D03*
X13915000Y2565000D03*
X14265000Y2720000D03*
X14130000Y3930000D03*
X14265000Y4530000D03*
X14285000Y4295000D03*
Y4230000D03*
X13955000Y4530000D03*
X14285000Y4392190D03*
X13890000Y4930000D03*
X14020000Y4815000D03*
Y4715000D03*
X14100000Y5035000D03*
X13895000Y5320000D03*
X14140000Y5580000D03*
X14110000Y6005000D03*
X13990000D03*
X14230000D03*
X14350000D03*
X14230000Y6505000D03*
X14110000D03*
X13950000D03*
X13990000Y6250000D03*
X14305000D03*
X13895000Y6280000D03*
X14200000Y6250000D03*
X14095000D03*
X14050000Y6910000D03*
X14315000Y6755000D03*
X14030000D03*
X14070000Y6825000D03*
X14290000Y6945000D03*
X14040000Y7385000D03*
Y7245000D03*
X14285000Y7335000D03*
X14160000Y8520000D03*
X14215000Y9207070D03*
Y9143570D03*
Y9065000D03*
X14050000Y8900000D03*
X14030000Y9405000D03*
X14150000D03*
X14270000D03*
X14340000Y9280000D03*
X14170000Y9675000D03*
X14215000Y9285000D03*
X14355000Y9610000D03*
X14313660Y9675000D03*
X14250160D03*
X14270000Y9905000D03*
X14150000D03*
X14030000D03*
X13910000D03*
X14859000Y127000D03*
X14478000D03*
X14605000D03*
X14732000D03*
X14795000Y1420000D03*
X14505000Y1830000D03*
X14635000Y2080000D03*
X14425000Y2180000D03*
X14840000Y2995000D03*
X14410000Y3005000D03*
X14770000Y3550000D03*
X14665000Y3545000D03*
X14660000Y3655000D03*
X14580000Y3695000D03*
X14820000Y4075000D03*
X14720000D03*
X14580000Y3810000D03*
X14735000Y4435000D03*
X14843290Y4440280D03*
X14570000Y4455000D03*
X14635000Y4610000D03*
X14780000Y4870000D03*
X14805000Y4990000D03*
X14695000Y4740000D03*
X14570000Y5030000D03*
X14730000Y4940000D03*
X14710000Y5500000D03*
X14715000Y5320000D03*
X14490000Y5500000D03*
X14600000Y5530000D03*
X14570000Y5860000D03*
X14457260Y5862050D03*
X14685000Y5860000D03*
X14570000Y5975000D03*
X14765000D03*
X14870000Y6505000D03*
X14390000D03*
X14750000Y6265000D03*
X14640000Y6245000D03*
X14520000Y6250000D03*
X14410000D03*
X14830000Y6265000D03*
X14390000Y6860000D03*
X14870000Y6725000D03*
X14515000Y7190000D03*
X14715000Y7315000D03*
X14690000Y9050000D03*
X14484530Y9280000D03*
X14540000Y9340000D03*
X14603500D03*
X14776030Y9345000D03*
X14839530D03*
X14390000Y9410000D03*
X14870000D03*
X14630000D03*
X14510000D03*
X14630000Y9610000D03*
X14510000D03*
X14750000Y9410000D03*
X14815000Y9620000D03*
X14401500Y9675000D03*
X14541500D03*
X14745000D03*
X14465000D03*
X14605000D03*
X14681500D03*
X14421030Y9280000D03*
X14750000Y9905000D03*
X14870000D03*
X14630000D03*
X14510000D03*
X14390000D03*
X14986000Y127000D03*
X15367000D03*
X15113000D03*
X15240000D03*
X15330000Y1260000D03*
X14990000Y3090000D03*
X15185000Y3220000D03*
Y3315000D03*
X14910000Y3355000D03*
X14920000Y3710000D03*
X14940000Y5170000D03*
X15235000Y4970000D03*
X15250000Y5110000D03*
X15235000Y4906500D03*
X14900000Y4870000D03*
X15090000Y5700000D03*
X14955000Y5315000D03*
X15100000Y5980000D03*
X14960000Y5975000D03*
X14910000Y6265000D03*
X15015000Y6850000D03*
Y6925000D03*
X15100000Y6725000D03*
X14985000D03*
X14966500Y9320000D03*
X15030000D03*
X15075000Y9385000D03*
X14900000Y9275000D03*
X15130000Y9710000D03*
X15113000Y9906000D03*
X14986000D03*
X15760000Y510000D03*
X15875000Y127000D03*
X15494000D03*
X15748000D03*
X15621000D03*
X15475000Y1320000D03*
Y1420000D03*
Y1170000D03*
X15600000Y1930000D03*
X15890000Y3525000D03*
X15510000Y3650000D03*
X15795000Y3640000D03*
X15610000Y3645000D03*
X15790000Y3850000D03*
X15420000Y4670000D03*
X15415000Y4290000D03*
X15600000Y4375000D03*
Y4480000D03*
X15490000Y4940000D03*
X15780000Y5280000D03*
X15655000Y5700000D03*
X15770000Y5520000D03*
X15870000Y5825000D03*
X15655000Y5810000D03*
X15435000Y7125000D03*
X15621000Y9906000D03*
X15748000D03*
X15494000D03*
X16383000Y508000D03*
X16002000Y127000D03*
X16129000D03*
X16383000Y381000D03*
Y254000D03*
X16256000Y127000D03*
X16383000D03*
X15960000Y640000D03*
X16383000Y635000D03*
Y762000D03*
Y1016000D03*
Y889000D03*
Y1143000D03*
Y1270000D03*
Y1397000D03*
Y1524000D03*
Y1905000D03*
Y1778000D03*
Y1651000D03*
Y2032000D03*
Y2540000D03*
Y2286000D03*
Y2413000D03*
Y2159000D03*
Y2921000D03*
Y2667000D03*
Y3048000D03*
Y2794000D03*
X16345000Y4180000D03*
X16383000Y4064000D03*
Y4445000D03*
Y4318000D03*
X16110000Y4995000D03*
X16330010Y4955010D03*
X16383000Y4826000D03*
X15930000Y5290000D03*
X16383000Y5461000D03*
Y5334000D03*
Y5588000D03*
X16110000Y5855000D03*
X16330000Y5885000D03*
X16383000Y5969000D03*
Y6604000D03*
Y6731000D03*
Y8382000D03*
Y8509000D03*
Y8636000D03*
Y9017000D03*
Y9144000D03*
Y8763000D03*
Y8890000D03*
Y9271000D03*
Y9906000D03*
X16435000Y3110000D03*
Y3748410D03*
G54D12*
X462000Y1911000D03*
Y2411000D03*
G54D21*
X4103000Y8944000D03*
X5373000D03*
G54D30*
X11280000Y6305000D03*
Y9605000D03*
X16080000Y6305000D03*
Y9605000D03*
G54D22*
X5674000Y340000D03*
X6182000D03*
X5928000D03*
X6690000D03*
X6436000D03*
X7788000D03*
X7534000D03*
X8296000D03*
X8042000D03*
X8334000Y3760000D03*
X8550000Y340000D03*
X8842000Y3760000D03*
X8588000D03*
X9350000D03*
X9096000D03*
X9648000Y340000D03*
X9394000D03*
X10156000D03*
X9902000D03*
X10410000D03*
X12331000Y5700000D03*
G54D31*
X12965000Y4680000D03*
X13215000Y4930000D03*
G54D13*
X340000Y3120000D03*
Y3374000D03*
G54D23*
X5420000Y340000D03*
X7280000D03*
X8080000Y3760000D03*
X9140000Y340000D03*
X12585000Y5700000D03*
G54D14*
X630000Y4310000D03*
Y5460000D03*
Y6600000D03*
X1330000Y4310000D03*
Y5460000D03*
Y6600000D03*
G54D32*
X12855790Y5289210D03*
X12605790Y5039210D03*
X12785390Y4859610D03*
X13035390Y5109610D03*
G54D33*
G01X13355000Y8521500D02*
X13346500Y8530000D01*
X13002520D01*
X12743160Y8789360D01*
X10513160D01*
X10323160Y8979360D01*
X8743160D01*
X8285000Y9437520D01*
Y9579490D01*
X8273570Y9590920D01*
Y9640000D01*
G01X13355000Y8585000D02*
X13340640Y8570640D01*
X13019360D01*
X12760000Y8830000D01*
X10530000D01*
X10340000Y9020000D01*
X8760000D01*
X8325640Y9454360D01*
Y9579490D01*
X8337070Y9590920D01*
Y9640000D01*
G01X13160000Y8660000D02*
X13142060Y8677940D01*
X13012060D01*
X12800640Y8889360D01*
X10570640D01*
X10370000Y9090000D01*
X8780000D01*
X8440000Y9430000D01*
Y9579490D01*
X8428570Y9590920D01*
Y9640000D01*
G01X13160000Y8723500D02*
X13155080Y8718580D01*
X13028900D01*
X12817480Y8930000D01*
X10587480D01*
X10386840Y9130640D01*
X8796840D01*
X8480640Y9446840D01*
Y9579490D01*
X8492070Y9590920D01*
Y9640000D01*
G01X13365000Y8890000D02*
X13354440Y8879440D01*
X13181960D01*
X13153160Y8850640D01*
X13046840D01*
X12867480Y9030000D01*
X10637480D01*
X10436840Y9230640D01*
X8856840D01*
X8630640Y9456840D01*
Y9584490D01*
X8637790Y9591640D01*
Y9639440D01*
X8639070Y9640720D01*
G01X13205000Y8966500D02*
X13192140Y8979360D01*
X13013160D01*
X12903160Y9089360D01*
X10673160D01*
X10463160Y9299360D01*
X8903160D01*
X8735000Y9467520D01*
Y9584490D01*
X8723570Y9595920D01*
Y9643560D01*
X8724290Y9644280D01*
G01X13365000Y8826500D02*
X13352700Y8838800D01*
X13198800D01*
X13170000Y8810000D01*
X13030000D01*
X12850640Y8989360D01*
X10620640D01*
X10420000Y9190000D01*
X8840000D01*
X8590000Y9440000D01*
Y9584490D01*
X8578570Y9595920D01*
Y9636440D01*
X8575570Y9639440D01*
Y9640720D01*
G01X13205000Y9030000D02*
X13195000Y9020000D01*
X13030000D01*
X12920000Y9130000D01*
X10690000D01*
X10480000Y9340000D01*
X8920000D01*
X8775640Y9484360D01*
Y9584490D01*
X8787070Y9595920D01*
Y9643560D01*
X8787790Y9644280D01*
G01X13130000Y9220000D02*
X13120000Y9230000D01*
X10740000D01*
X10520000Y9450000D01*
X8970000D01*
X8925640Y9494360D01*
Y9584490D01*
X8937070Y9595920D01*
Y9645000D01*
G01X13130000Y9156500D02*
Y9160320D01*
X13116880Y9174440D01*
X13111120D01*
X13096200Y9189360D01*
X10723160D01*
X10503160Y9409360D01*
X8953160D01*
X8885000Y9477520D01*
Y9584490D01*
X8873570Y9595920D01*
Y9645000D01*
G54D24*
X6260000Y3220000D03*
X6610000D03*
X11084000Y2342000D03*
X13370000D03*
X13914000D03*
X15270000Y4100000D03*
X16200000Y2342000D03*
G54D15*
X470000Y7465000D03*
X1145000Y1415000D03*
X1143000Y7112000D03*
X1270000Y8890000D03*
X2025000Y1025000D03*
X2159000Y2032000D03*
Y5842000D03*
X1968500Y7302500D03*
X2667000Y2667000D03*
X2286000Y7302500D03*
Y8128000D03*
X3175000Y4445000D03*
X3048000Y8890000D03*
X3670000Y1285000D03*
X3683000Y2667000D03*
Y3810000D03*
X4165000Y3990000D03*
X4145000Y5210000D03*
X3930000Y4810000D03*
X3810000Y5461000D03*
X4699000Y2540000D03*
X4572000Y5207000D03*
X4445000Y5588000D03*
X4345000Y5880000D03*
X4820000Y5460000D03*
X5530000Y5050000D03*
X5842000Y5334000D03*
X6604000Y6096000D03*
X6731000Y8128000D03*
X6870000Y5130000D03*
X8001000Y5207000D03*
X7870000Y7115000D03*
X8130000Y7375000D03*
X8840000Y3410000D03*
X9135000Y3400000D03*
X9045000Y4215000D03*
X9480000Y3210000D03*
X9779000Y4889500D03*
X9720000Y7645000D03*
X9652000Y8128000D03*
Y8636000D03*
X9969500Y3111500D03*
X9875000Y5430000D03*
X10190000Y5805000D03*
X10668000Y2540000D03*
X10745000Y3230000D03*
X10535000Y5950000D03*
X11176000Y5334000D03*
X11150000Y5765000D03*
X11895000Y5930000D03*
X11938000Y5461000D03*
X13017500Y7112000D03*
X13260000Y7110000D03*
X13716000Y4953000D03*
Y5334000D03*
X13775000Y7110000D03*
X13515000D03*
X14224000Y2921000D03*
X14205000Y3445000D03*
X14224000Y5334000D03*
X14350000Y7110000D03*
X14478000Y4699000D03*
X14859000Y7112000D03*
X14478000Y7366000D03*
X15113000Y2921000D03*
X14986000Y8890000D03*
G54D34*
G01X462000Y2275090D02*
Y2411000D01*
G01D02*
Y2546910D01*
G01X326090Y2411000D02*
X462000D01*
G01D02*
X597910D01*
G01X340000Y3316190D02*
Y3374000D01*
G01D02*
Y3431810D01*
G01X282190Y3374000D02*
X340000D01*
G01D02*
X397810D01*
G01X220000Y7885010D02*
Y7410000D01*
X335000Y7295000D01*
X1100000D01*
G01X470000Y7465000D02*
Y7500000D01*
X555000Y7585000D01*
G01D02*
Y7855000D01*
X560000Y7860000D01*
G01X3515000Y5905000D02*
X3440000Y5980000D01*
X3330000D01*
X3160000Y6150000D01*
X2920000D01*
X2475000Y6595000D01*
X2065000D01*
X1335000Y7325000D01*
X815000D01*
X555000Y7585000D01*
G01X587190Y8680000D02*
X660000D01*
G01X1345000Y1160000D02*
Y1215000D01*
X1145000Y1415000D01*
G01X1100000Y7295000D02*
X1143000Y7252000D01*
Y7112000D01*
G01X1100000Y7295000D02*
X1310000D01*
X2045000Y6560000D01*
X2440000D01*
X2890000Y6110000D01*
X3120000D01*
X3380000Y5850000D01*
X3550000D01*
X3600000Y5900000D01*
Y5985000D01*
G01X1009990Y8457180D02*
Y8529990D01*
G01X937180D02*
X1009990D01*
G01D02*
X1082800D01*
G01X660000Y8680000D02*
Y8752810D01*
G01Y8680000D02*
X732810D01*
G01X1815000Y1030000D02*
X2020000D01*
X2025000Y1025000D01*
G01X2159000Y2032000D02*
X2160000Y2031000D01*
Y1765000D01*
X2270000Y1655000D01*
X2280000D01*
G01X3360000Y6220000D02*
X3300000Y6280000D01*
X3100000D01*
X2710000Y6670000D01*
X2130000D01*
X2000000Y6800000D01*
Y7045000D01*
G01X1912500Y7117500D02*
X1955000Y7075000D01*
Y6770000D01*
X2095000Y6630000D01*
X2690000D01*
X3080000Y6240000D01*
X3185000D01*
X3280000Y6145000D01*
G01X2000000Y7045000D02*
X2140000D01*
X2286000Y7191000D01*
Y7302500D01*
G01X1912500Y7117500D02*
Y7246500D01*
X1968500Y7302500D01*
G01X2085000Y8240000D02*
X2174000D01*
X2286000Y8128000D01*
G01X2667000Y2667000D02*
X2872000D01*
X2915000Y2710000D01*
G01X2450000Y8680000D02*
Y8752810D01*
G01X2377190Y8680000D02*
X2450000D01*
G01D02*
X2522810D01*
G01X2985000Y3720000D02*
X3090000D01*
X3160000Y3650000D01*
Y3460000D01*
X3260000Y3360000D01*
Y3100000D01*
X3160000Y3000000D01*
X3150000D01*
G01X3320000Y4330000D02*
X3290000D01*
X3175000Y4445000D01*
G01X4310000Y6270000D02*
X4230000D01*
X4180000Y6220000D01*
Y6160000D01*
X4045000Y6025000D01*
X3825000D01*
X3590000Y5790000D01*
X3210000D01*
X3005000Y5995000D01*
G01X3140000Y6000000D02*
X3320000Y5820000D01*
X3570000D01*
X3810000Y6060000D01*
X4020000D01*
X4140000Y6180000D01*
Y6330000D01*
X4210000Y6400000D01*
X4300000D01*
G01X2799990Y8457180D02*
Y8529990D01*
G01X2727180D02*
X2799990D01*
G01D02*
X2872800D01*
G01X3460000Y2710000D02*
Y2510000D01*
X3280000Y2330000D01*
G01X3460000Y2710000D02*
X3525000D01*
X3568000Y2667000D01*
X3683000D01*
G01X3285000Y3520000D02*
X3288240Y3523240D01*
X3413240D01*
X3500000Y3610000D01*
Y3910000D01*
G01D02*
X3583000D01*
X3683000Y3810000D01*
G01X3930000Y4810000D02*
Y4930000D01*
X3915000Y4945000D01*
Y5010000D01*
G01X4145000Y5380000D02*
Y5210000D01*
G01X4060000Y5460000D02*
X3811000D01*
X3810000Y5461000D01*
G01X4210000Y5485000D02*
X4294000D01*
X4572000Y5207000D01*
G01X4445000Y5588000D02*
Y5715000D01*
X4515000Y5785000D01*
X4605000D01*
G01X4675000Y5735000D02*
X4820000Y5590000D01*
Y5460000D01*
G01X4670000Y5835000D02*
X4625000Y5880000D01*
X4345000D01*
G01X5928000Y207900D02*
Y340000D01*
G01D02*
Y472100D01*
G01X5821300Y340000D02*
X5928000D01*
G01D02*
X6034700D01*
G01X6800000Y6310000D02*
Y6200000D01*
X6696000Y6096000D01*
X6604000D01*
G01X7220000Y3541090D02*
X7511090D01*
X7620000Y3650000D01*
Y3770000D01*
X7690000Y3840000D01*
X7835000D01*
X7995000Y4000000D01*
X11375000D01*
X11620000Y4245000D01*
X11790000D01*
G01X6870000Y4960000D02*
Y5130000D01*
G01X7095000Y8445000D02*
X7275000D01*
X7610000Y8780000D01*
X10210000D01*
X10385000Y8605000D01*
X12625000D01*
X12950000Y8280000D01*
X13805000D01*
X14045000Y8520000D01*
X14160000D01*
G01X6839000Y9175000D02*
X7004000Y9340000D01*
X8160000D01*
X8645000Y8855000D01*
X10250000D01*
X10425000Y8680000D01*
X12670000D01*
X12980000Y8370000D01*
X13760000D01*
X14050000Y8660000D01*
Y8900000D01*
G01X6939000Y9175000D02*
X7079000Y9315000D01*
X8145000D01*
X8630000Y8830000D01*
X10240000D01*
X10415000Y8655000D01*
X12655000D01*
X12970000Y8340000D01*
X13775000D01*
X14535000Y9100000D01*
X15030000D01*
X15190000Y9260000D01*
Y9650000D01*
X15130000Y9710000D01*
G01X7002500Y9175000D02*
X7117500Y9290000D01*
X8130000D01*
X8615000Y8805000D01*
X10225000D01*
X10400000Y8630000D01*
X12640000D01*
X12960000Y8310000D01*
X13790000D01*
X14530000Y9050000D01*
X14690000D01*
G01X7681300Y340000D02*
X7788000D01*
G01X7715000Y3736090D02*
X7786090D01*
X8015000Y3965000D01*
X11385000D01*
X11610000Y4190000D01*
X11905000D01*
G01X9625000Y5375000D02*
Y5245000D01*
X9480000Y5100000D01*
X9265000D01*
X9125000Y4960000D01*
X7835000D01*
X7680000Y4805000D01*
Y4615000D01*
X7565000Y4500000D01*
X7380000D01*
G01X7788000Y207900D02*
Y340000D01*
G01D02*
Y472100D01*
G01Y340000D02*
X7894700D01*
G01X7860000Y3940000D02*
Y4800000D01*
X7895000Y4835000D01*
G01X8000000Y5040000D02*
Y5110740D01*
X8001000Y5111740D01*
Y5207000D01*
G01X7870000Y7115000D02*
Y7315000D01*
X7845000Y7340000D01*
Y7570000D01*
G01X8130000Y7375000D02*
Y7540000D01*
X8170000Y7580000D01*
G01X14640000Y6245000D02*
Y7080000D01*
X15454900Y7894900D01*
Y9768600D01*
X15228600Y9994900D01*
X11021400D01*
X10791400Y9764900D01*
X9578600D01*
X9418600Y9924900D01*
X8100390D01*
X7965490Y9790000D01*
G01X14520000Y6250000D02*
Y7010000D01*
X15410000Y7900000D01*
Y9750000D01*
X15210000Y9950000D01*
X11040000D01*
X10810000Y9720000D01*
X9560000D01*
X9400000Y9880000D01*
X8118990D01*
X8028990Y9790000D01*
G01X8588000Y3627900D02*
Y3760000D01*
G01D02*
Y3892100D01*
G01X8481300Y3760000D02*
X8588000D01*
G01D02*
X8694700D01*
G01X9020000Y4470000D02*
X8355000D01*
G01X9135000Y3400000D02*
Y3721000D01*
X9096000Y3760000D01*
G01X8840000Y3410000D02*
Y3758000D01*
X8842000Y3760000D01*
G01X9045000Y4045000D02*
X11375000D01*
X11950000Y4620000D01*
X12300000D01*
X12435000Y4755000D01*
G01X9045000Y4215000D02*
Y4045000D01*
G01D02*
X9040000D01*
G01X9205000Y7975000D02*
X9190000Y7960000D01*
G01D02*
Y7935000D01*
G01X9648000Y207900D02*
Y340000D01*
G01D02*
Y472100D01*
G01X9541300Y340000D02*
X9648000D01*
G01D02*
X9754700D01*
G01X9785000Y2945000D02*
X9824380D01*
X9834380Y2935000D01*
X10810000D01*
X11060000Y3185000D01*
Y3390000D01*
X11475000Y3805000D01*
X11590000D01*
G01X11500000Y3880000D02*
X11030000Y3410000D01*
Y3205000D01*
X10790000Y2965000D01*
X9850000D01*
X9820000Y2995000D01*
X9725000D01*
X9675000Y2945000D01*
G01X9615000Y4580000D02*
X9635000Y4560000D01*
X11255000D01*
X11705000Y5010000D01*
Y5165000D01*
X11895000Y5355000D01*
X12550000D01*
X12850000Y5655000D01*
X13160000D01*
X13345000Y5840000D01*
Y6160000D01*
X13470000Y6285000D01*
G01X13716000Y5334000D02*
X13511000D01*
X13390000Y5455000D01*
X13255000D01*
X13200000Y5510000D01*
X12800000D01*
X12515000Y5225000D01*
X12140000D01*
X11803810Y4888810D01*
X11633810D01*
X11275000Y4530000D01*
X9500000D01*
X9450000Y4580000D01*
Y4760000D01*
G01X9710000Y4625000D02*
X9745000Y4590000D01*
X11220000D01*
X11320000Y4690000D01*
Y4804520D01*
G01X13716000Y4953000D02*
Y5084000D01*
X13380000Y5420000D01*
X13230000D01*
X13180000Y5470000D01*
X12820000D01*
X12735000Y5385000D01*
X12730000D01*
X12540000Y5195000D01*
X12155000D01*
X11808250Y4848250D01*
X11648250D01*
X11300000Y4500000D01*
X9535000D01*
X9355000Y4320000D01*
G01X9779000Y4889500D02*
X9909500D01*
X9930000Y4910000D01*
G01X9785000Y7880000D02*
X9720000Y7815000D01*
Y7645000D01*
G01X9390000Y8120000D02*
X9644000D01*
X9652000Y8128000D01*
G01X10480000Y3540000D02*
Y3375000D01*
X10345000Y3240000D01*
X10265000D01*
X10136500Y3111500D01*
X9969500D01*
G01X11760000Y3935000D02*
Y3785000D01*
X10845000Y2870000D01*
X10375000D01*
X10210000Y2705000D01*
G01X11670000Y4010000D02*
Y3735000D01*
X10840000Y2905000D01*
X10265000D01*
X10070000Y2710000D01*
G01X10025000Y4395000D02*
X10090000Y4460000D01*
X10495000D01*
X10645000Y4310000D01*
G01X10030000Y5350000D02*
X9955000D01*
X9875000Y5430000D01*
G01X10190000Y5805000D02*
X10257360Y5872360D01*
X10367640D01*
X10450000Y5790000D01*
G01X9980000Y7440000D02*
Y6700000D01*
G01X10060000Y8535000D02*
X9980000Y8455000D01*
Y8220000D01*
X10295000Y7905000D01*
X13732710D01*
X14100000Y7537710D01*
Y6855000D01*
X14070000Y6825000D01*
G01X9840000Y8535000D02*
X9920000Y8455000D01*
Y8190000D01*
X10255000Y7855000D01*
X13697850D01*
X13940000Y7612850D01*
Y7070000D01*
X13880000Y7010000D01*
Y6650000D01*
X14015000Y6515000D01*
Y6360000D01*
X13945000Y6290000D01*
Y6200000D01*
X14000000Y6145000D01*
X14305000D01*
X14410000Y6250000D01*
G01X9950000Y8535000D02*
Y8205000D01*
X10275000Y7880000D01*
X13715280D01*
X13975000Y7620280D01*
Y7060000D01*
X13910000Y6995000D01*
Y6665000D01*
X14050000Y6525000D01*
Y6295000D01*
X14095000Y6250000D01*
G01X10300000Y8535000D02*
Y8290000D01*
X10660000Y7930000D01*
X13750140D01*
X14135000Y7545140D01*
Y6685000D01*
X14150000Y6670000D01*
Y6225000D01*
X14115000Y6190000D01*
X14050000D01*
X13990000Y6250000D01*
G01X10335000Y2235000D02*
Y2325000D01*
X10435000Y2425000D01*
Y2685000D01*
X10590000Y2840000D01*
X10860000D01*
X11880000Y3860000D01*
Y4045000D01*
G01X12081850Y4053160D02*
Y4011850D01*
X10875000Y2805000D01*
X10610000D01*
X10526090Y2721090D01*
Y2235000D01*
G01X10935000Y2675000D02*
X10803000D01*
X10668000Y2540000D01*
G01X10467500Y3167500D02*
X10682500D01*
X10745000Y3230000D01*
G01X11157500Y4697500D02*
Y4912500D01*
X10470000Y5600000D01*
X10430000D01*
X10350000Y5680000D01*
Y5770000D01*
X10370000Y5790000D01*
G01X13260000Y6005000D02*
X13165000Y6100000D01*
X12315000D01*
X12175000Y6240000D01*
X11880000D01*
X11570000Y5930000D01*
X10980000D01*
X10800000Y6110000D01*
Y6510000D01*
X10845000Y6555000D01*
G01X10645000Y5735000D02*
X10535000Y5845000D01*
Y5950000D01*
G01X10610000Y8530000D02*
Y8240000D01*
X10870000Y7980000D01*
X13785000D01*
X14195000Y7570000D01*
Y6725000D01*
X14335000Y6585000D01*
Y6280000D01*
X14305000Y6250000D01*
G01X10500000Y8530000D02*
X10575000Y8455000D01*
Y8225000D01*
X10845000Y7955000D01*
X13767570D01*
X14165000Y7557570D01*
Y6705000D01*
X14295000Y6575000D01*
Y6345000D01*
X14200000Y6250000D01*
G01X11084000Y457300D02*
Y564000D01*
G01D02*
Y670700D01*
G01X10951900Y564000D02*
X11084000D01*
G01D02*
X11216100D01*
G01X11084000Y2342000D02*
X11262000D01*
X11590000Y2670000D01*
X11655000D01*
X11760000Y2775000D01*
Y2900000D01*
X11435000Y3225000D01*
Y3315000D01*
X12210000Y4090000D01*
Y4365000D01*
X12520000Y4675000D01*
Y4785000D01*
X12815000Y5080000D01*
G01X11295000Y3050000D02*
X11370000D01*
X11627500Y2792500D01*
G01X11380000Y5650000D02*
Y5538000D01*
X11176000Y5334000D01*
G01X11235000Y5880000D02*
X11169740D01*
X11150000Y5860260D01*
Y5765000D01*
G01X10845000Y6475000D02*
X10900000Y6530000D01*
Y6620000D01*
X11010000Y6730000D01*
X11625000D01*
X11915000Y6440000D01*
X12875000D01*
X13060000Y6255000D01*
X13200000D01*
G01X13270000D02*
X13225000Y6210000D01*
X13060000D01*
X12860000Y6410000D01*
X11900000D01*
X11610000Y6700000D01*
X11025000D01*
X10930000Y6605000D01*
Y6480000D01*
X10845000Y6395000D01*
G01X11647500Y2612500D02*
X11675350Y2584650D01*
Y1524650D01*
X11910000Y1290000D01*
X12644990D01*
X12734990Y1200000D01*
X14000000D01*
X14380000Y1580000D01*
X16200000D01*
G01X11320000Y3155000D02*
X11425000D01*
X11707500Y2872500D01*
G01X11690000Y5370000D02*
X11715000Y5395000D01*
Y5400000D01*
X11755000Y5440000D01*
X11760000D01*
X11781000Y5461000D01*
X11938000D01*
G01X11580000Y5810000D02*
X11775000D01*
X11895000Y5930000D01*
G01X11805000Y8520000D02*
X11915000D01*
X11965000Y8570000D01*
X12450000D01*
X12845000Y8175000D01*
X14175000D01*
X14715000Y7635000D01*
Y7315000D01*
G01X12204730Y3135270D02*
X12550000Y2790000D01*
Y1430000D01*
G01X12430000Y1435000D02*
Y2790000D01*
X12130000Y3090000D01*
G01X13895000Y6280000D02*
X13820000Y6355000D01*
X13695000D01*
X13640000Y6300000D01*
Y6080000D01*
X13865000Y5855000D01*
Y5575000D01*
X14040000Y5400000D01*
Y4925000D01*
X13155000Y4040000D01*
X12840000D01*
X12485000Y3685000D01*
X12045000D01*
G01X11925000Y3710000D02*
X11960000Y3745000D01*
X12275000D01*
X12340000Y3810000D01*
X12495000D01*
X12790000Y4105000D01*
X13140000D01*
X13990000Y4955000D01*
Y5370000D01*
X13860000Y5500000D01*
X13650000D01*
X13575000Y5575000D01*
Y5740000D01*
G01X12135000Y5405000D02*
Y6005000D01*
G01X12110000Y5260000D02*
X12505000D01*
X12790000Y5545000D01*
X13255000D01*
G01X12455000Y5300000D02*
X12415620D01*
X12410620Y5305000D01*
X11910000D01*
G01X12331000Y5567900D02*
Y5700000D01*
G01X11980000Y6170000D02*
X12020000Y6210000D01*
X12165000D01*
X12305000Y6070000D01*
X12475000D01*
X12515000Y6030000D01*
G01X12331000Y5700000D02*
Y5832100D01*
G01X12224300Y5700000D02*
X12331000D01*
G01D02*
X12437700D01*
G01X12020000Y8095000D02*
Y8465000D01*
X12017500Y8467500D01*
G01X14515000Y7190000D02*
X14555000Y7230000D01*
X14625000D01*
Y7575000D01*
X14105000Y8095000D01*
X12020000D01*
G01X12655000Y1180000D02*
X12650000D01*
G01X12790000Y2205000D02*
X13235000Y2650000D01*
X14030000D01*
X14170000Y2790000D01*
X14545000D01*
X14835000Y3080000D01*
Y3685000D01*
X14710000Y3810000D01*
X14580000D01*
G01X12500000Y3430000D02*
X12435000Y3495000D01*
Y3575000D01*
X12485000Y3625000D01*
X12655000D01*
X12835000Y3805000D01*
X14135000D01*
X14650000Y4320000D01*
X15255000D01*
X15420000Y4485000D01*
Y4670000D01*
G01X15415000Y4290000D02*
X14665000D01*
X14150000Y3775000D01*
X12850000D01*
X12625000Y3550000D01*
X12500000D01*
G01X15790000Y3850000D02*
X15700000Y3760000D01*
X15450000D01*
X15385000Y3695000D01*
X15110000D01*
X14865000Y3940000D01*
X14480000D01*
X14220000Y3680000D01*
X13910000D01*
X13545000Y3315000D01*
X12815000D01*
X12785000Y3345000D01*
X12700000D01*
G01X15795000Y3640000D02*
X15700000Y3735000D01*
X15465000D01*
X15395000Y3665000D01*
X15090500D01*
X14850500Y3905000D01*
X14494500D01*
X14239500Y3650000D01*
X13929500D01*
X13559500Y3280000D01*
X12815000D01*
X12790000Y3255000D01*
X12700000D01*
G01X12365000Y3745000D02*
X12490000D01*
X12820000Y4075000D01*
X13150000D01*
X14015000Y4940000D01*
Y5385000D01*
X13870000Y5530000D01*
X13740000D01*
X13700000Y5570000D01*
G01X12530340Y5114660D02*
X12605790Y5039210D01*
G01X12512380Y4945800D02*
X12605790Y5039210D01*
G01D02*
X12699200Y5132620D01*
G01X12780340Y5364660D02*
X12855790Y5289210D01*
G01X12762380Y5195800D02*
X12855790Y5289210D01*
G01X12585000Y5700000D02*
X13150000D01*
X13310000Y5860000D01*
Y6470000D01*
X13275000Y6505000D01*
G01X12410000Y9300000D02*
X13080000D01*
X13110000Y9330000D01*
Y9335000D01*
G01X13237900Y564000D02*
X13370000D01*
G01X12855790Y5289210D02*
X12931240Y5213760D01*
G01X12855790Y5289210D02*
X12949200Y5382620D01*
G01X13360000Y6255000D02*
Y6330000D01*
X13405000Y6375000D01*
Y6585000D01*
X13017500Y6972500D01*
Y7112000D01*
G01X13810000Y5585000D02*
Y5860000D01*
X13535000Y6135000D01*
Y6290000D01*
X13435000Y6390000D01*
Y6605000D01*
X13260000Y6780000D01*
Y7110000D01*
G01X13370000Y457300D02*
Y564000D01*
G01D02*
Y670700D01*
G01Y564000D02*
X13502100D01*
G01X13781900D02*
X13914000D01*
G01X13890000Y4930000D02*
X13834260D01*
X13811260Y4953000D01*
X13716000D01*
G01X13895000Y5320000D02*
X13825260D01*
X13811260Y5334000D01*
X13716000D01*
G01X14859000Y7112000D02*
X14747000D01*
X14695000Y7060000D01*
Y6180000D01*
X14625000Y6110000D01*
X13930000D01*
X13790000Y6250000D01*
G01X13670000Y6755000D02*
Y6845000D01*
X13515000Y7000000D01*
Y7110000D01*
G01X13790000Y6755000D02*
Y6875000D01*
X13775000Y6890000D01*
Y7110000D01*
G01X13914000Y457300D02*
Y564000D01*
G01D02*
Y670700D01*
G01Y564000D02*
X14046100D01*
G01X14265000Y2720000D02*
X15555000D01*
X15933000Y2342000D01*
X16200000D01*
G01X14410000Y3005000D02*
X14308000D01*
X14224000Y2921000D01*
G01X14205000Y3445000D02*
X14450000D01*
X14660000Y3655000D01*
G01X14285000Y4295000D02*
X14340000Y4350000D01*
Y5215000D01*
X14560000Y5435000D01*
X15170000D01*
X15275000Y5540000D01*
Y6665000D01*
X15090000Y6850000D01*
X15015000D01*
G01X14285000Y4230000D02*
X14370000Y4315000D01*
Y5202570D01*
X14572430Y5405000D01*
X15182430D01*
X15305000Y5527570D01*
Y6677430D01*
X15057430Y6925000D01*
X15015000D01*
G01X14224000Y5334000D02*
Y5430000D01*
X14140000Y5514000D01*
Y5580000D01*
G01X14350000Y7110000D02*
Y7005000D01*
X14290000Y6945000D01*
G01X14285000Y7335000D02*
X14315000Y7365000D01*
X14381740D01*
X14382740Y7366000D01*
X14478000D01*
G01X14635000Y4610000D02*
X14567000D01*
X14478000Y4699000D01*
G01X14990000Y3090000D02*
Y3044000D01*
X15113000Y2921000D01*
G01X15435000Y7125000D02*
X15355000Y7045000D01*
Y5450000D01*
X15890000Y4915000D01*
Y3525000D01*
G01X14986000Y8796000D02*
Y8890000D01*
G01D02*
Y8984000D01*
G01X14892000Y8890000D02*
X14986000D01*
G01D02*
X15080000D01*
G01X16200000Y457300D02*
Y564000D01*
G01D02*
Y670700D01*
G01X16067900Y564000D02*
X16200000D01*
G01D02*
X16332100D01*
G54D25*
X6260000Y3728000D03*
Y3474000D03*
X6610000Y3728000D03*
Y3474000D03*
X11084000Y564000D03*
Y818000D03*
Y1072000D03*
Y1326000D03*
Y1580000D03*
Y1834000D03*
Y2088000D03*
X13370000Y564000D03*
Y1072000D03*
Y818000D03*
Y1580000D03*
Y1326000D03*
Y2088000D03*
Y1834000D03*
X13914000Y564000D03*
Y818000D03*
Y1072000D03*
Y1326000D03*
Y1580000D03*
Y1834000D03*
Y2088000D03*
X15270000Y3846000D03*
X16200000Y564000D03*
Y1072000D03*
Y818000D03*
Y1580000D03*
Y1326000D03*
Y2088000D03*
Y1834000D03*
G54D16*
X609990Y8529990D03*
X660000Y8680000D03*
X1209990Y8529990D03*
X1009990D03*
X809990D03*
X909990Y8680000D03*
X1109990D03*
X1410010Y8529990D03*
X1360000Y8680000D03*
X2599990Y8529990D03*
X2399990D03*
X2450000Y8680000D03*
X2699990D03*
X3200010Y8529990D03*
X2999990D03*
X2799990D03*
X2899990Y8680000D03*
X3150000D03*
G54D35*
G01X6645000Y4505000D02*
X6560000Y4420000D01*
X6400000D01*
X6120000Y4140000D01*
G01X6250000Y4870000D02*
X6200000D01*
X6110000Y4780000D01*
Y4720000D01*
X6140000Y4690000D01*
Y4654060D01*
X6179730Y4614330D01*
G01D02*
X6310670D01*
X6400000Y4525000D01*
G01X12385000Y5990000D02*
X12260000D01*
X12170000Y6080000D01*
X11815000D01*
X11615000Y5880000D01*
X11415000D01*
X11320000Y5785000D01*
Y5725000D01*
X11225000Y5630000D01*
X11080000D01*
X10980000Y5730000D01*
X10925000D01*
X10870000Y5785000D01*
Y5885000D01*
G54D17*
X352990Y8880000D03*
X1667010D03*
X2142990D03*
X3457010D03*
G54D26*
X5963990Y8993990D03*
X7414000D03*
G54D36*
G01X1320000Y8140000D02*
X1260000Y8200000D01*
X980000D01*
X920000Y8140000D01*
Y8100000D01*
G01X1480000Y8140000D02*
X1320000D01*
G01X1480000Y8080000D02*
X1380000D01*
X1320000Y8140000D01*
G01X1360000Y8680000D02*
Y8800000D01*
X1270000Y8890000D01*
G01X2159000Y5842000D02*
X2282000D01*
X2375000Y5935000D01*
G01X3260000Y8140000D02*
X3110000D01*
G01D02*
X3030000Y8220000D01*
X2790000D01*
X2725000Y8155000D01*
Y8110000D01*
G01X3260000Y8080000D02*
X3170000D01*
X3110000Y8140000D01*
G01X3150000Y8680000D02*
Y8788000D01*
X3048000Y8890000D01*
G01X4020000Y1265000D02*
X3804300D01*
X3784300Y1285000D01*
X3670000D01*
G01X4160000Y3715000D02*
Y3985000D01*
X4165000Y3990000D01*
G01X4230000Y7420000D02*
Y7530000D01*
X4310000Y7610000D01*
X5170000D01*
X5240000Y7540000D01*
Y7426000D01*
X5246000Y7420000D01*
G01X4699000Y2540000D02*
X4420000D01*
X4280000Y2400000D01*
G01X5347600Y7166000D02*
X5350000Y7168400D01*
Y7300000D01*
X5246000Y7404000D01*
Y7420000D01*
G01X5530000Y5050000D02*
X5410000D01*
X5370000Y5010000D01*
X5290000D01*
G01X5590000Y5380000D02*
X5636000Y5334000D01*
X5842000D01*
G01X6900000Y8270000D02*
Y8190000D01*
X6838000Y8128000D01*
X6731000D01*
G01X9285000Y3190000D02*
X9345700D01*
X9365700Y3210000D01*
X9480000D01*
G01X9652000Y8636000D02*
X10119000D01*
X10170000Y8585000D01*
Y8535000D01*
G01X10370000Y8055000D02*
Y8120000D01*
X10170000Y8320000D01*
Y8535000D01*
G54D27*
X5963990Y9585000D03*
X7414000D03*
G54D18*
X3120000Y745010D03*
X3175010Y800000D03*
X3065000D03*
Y689990D03*
X3175010D03*
X3120000Y2035010D03*
X3175010Y2090000D03*
X3065000D03*
Y1979990D03*
X3175010D03*
X3120000Y3235010D03*
X3175010Y3290000D03*
X3065000D03*
Y3179990D03*
X3175010D03*
G54D37*
G01X132290Y9831790D02*
X123100Y9824970D01*
X117860Y9819130D01*
X115230Y9811340D01*
X117860Y9804530D01*
X123100Y9799660D01*
X130980Y9795760D01*
X140170Y9794790D01*
X148040Y9795760D01*
X155920Y9799660D01*
X162480Y9805500D01*
X165100Y9812320D01*
X162480Y9820110D01*
X154600Y9826920D01*
X142790Y9830820D01*
X129670Y9831790D01*
X112610Y9829840D01*
X103420Y9826920D01*
X94230Y9822050D01*
X87670Y9815240D01*
X86360Y9808420D01*
X88980Y9801610D01*
X95550Y9796740D01*
G54D28*
X8550000Y5310000D03*
G54D19*
X4128400Y6912000D03*
X4382400D03*
X5093600D03*
X5347600D03*
G54D29*
X8804000Y5310000D03*
X9058000D03*
M02*
